%TF.GenerationSoftware,KiCad,Pcbnew,6.0.11-2627ca5db0~126~ubuntu22.04.1*%
%TF.CreationDate,2023-03-01T00:05:40+01:00*%
%TF.ProjectId,input-panel,696e7075-742d-4706-916e-656c2e6b6963,rev?*%
%TF.SameCoordinates,Original*%
%TF.FileFunction,Legend,Top*%
%TF.FilePolarity,Positive*%
%FSLAX46Y46*%
G04 Gerber Fmt 4.6, Leading zero omitted, Abs format (unit mm)*
G04 Created by KiCad (PCBNEW 6.0.11-2627ca5db0~126~ubuntu22.04.1) date 2023-03-01 00:05:40*
%MOMM*%
%LPD*%
G01*
G04 APERTURE LIST*
%ADD10C,0.200000*%
%ADD11C,0.127000*%
G04 APERTURE END LIST*
D10*
%TO.C,S6*%
X193470000Y-79720000D02*
G75*
G03*
X193470000Y-79720000I-100000J0D01*
G01*
D11*
X201120000Y-76287500D02*
X201120000Y-78652500D01*
X195120000Y-76287500D02*
X195120000Y-78652500D01*
X195937500Y-80470000D02*
X200302500Y-80470000D01*
X195937500Y-74470000D02*
X200302500Y-74470000D01*
D10*
%TO.C,S5*%
X188850000Y-98770000D02*
G75*
G03*
X188850000Y-98770000I-100000J0D01*
G01*
D11*
X196500000Y-95337500D02*
X196500000Y-97702500D01*
X190500000Y-95337500D02*
X190500000Y-97702500D01*
X191317500Y-99520000D02*
X195682500Y-99520000D01*
X191317500Y-93520000D02*
X195682500Y-93520000D01*
D10*
%TO.C,S4*%
X152370000Y-98770000D02*
G75*
G03*
X152370000Y-98770000I-100000J0D01*
G01*
D11*
X160020000Y-95337500D02*
X160020000Y-97702500D01*
X154020000Y-95337500D02*
X154020000Y-97702500D01*
X154837500Y-99520000D02*
X159202500Y-99520000D01*
X154837500Y-93520000D02*
X159202500Y-93520000D01*
D10*
%TO.C,S3*%
X170610000Y-88610000D02*
G75*
G03*
X170610000Y-88610000I-100000J0D01*
G01*
D11*
X178260000Y-85177500D02*
X178260000Y-87542500D01*
X172260000Y-85177500D02*
X172260000Y-87542500D01*
X173077500Y-89360000D02*
X177442500Y-89360000D01*
X173077500Y-83360000D02*
X177442500Y-83360000D01*
D10*
%TO.C,S2*%
X170610000Y-108930000D02*
G75*
G03*
X170610000Y-108930000I-100000J0D01*
G01*
D11*
X178260000Y-105497500D02*
X178260000Y-107862500D01*
X172260000Y-105497500D02*
X172260000Y-107862500D01*
X173077500Y-109680000D02*
X177442500Y-109680000D01*
X173077500Y-103680000D02*
X177442500Y-103680000D01*
D10*
%TO.C,S1*%
X147750000Y-79632500D02*
G75*
G03*
X147750000Y-79632500I-100000J0D01*
G01*
D11*
X155400000Y-76200000D02*
X155400000Y-78565000D01*
X149400000Y-76200000D02*
X149400000Y-78565000D01*
X150217500Y-80382500D02*
X154582500Y-80382500D01*
X150217500Y-74382500D02*
X154582500Y-74382500D01*
%TD*%
M02*
