%TF.GenerationSoftware,KiCad,Pcbnew,(6.0.9)*%
%TF.CreationDate,2023-03-01T09:46:18+01:00*%
%TF.ProjectId,input-panel,696e7075-742d-4706-916e-656c2e6b6963,rev?*%
%TF.SameCoordinates,Original*%
%TF.FileFunction,Copper,L1,Top*%
%TF.FilePolarity,Positive*%
%FSLAX46Y46*%
G04 Gerber Fmt 4.6, Leading zero omitted, Abs format (unit mm)*
G04 Created by KiCad (PCBNEW (6.0.9)) date 2023-03-01 09:46:18*
%MOMM*%
%LPD*%
G01*
G04 APERTURE LIST*
%TA.AperFunction,ComponentPad*%
%ADD10R,1.508000X1.508000*%
%TD*%
%TA.AperFunction,ComponentPad*%
%ADD11C,1.508000*%
%TD*%
%TA.AperFunction,ComponentPad*%
%ADD12O,1.700000X1.700000*%
%TD*%
%TA.AperFunction,ComponentPad*%
%ADD13R,1.700000X1.700000*%
%TD*%
%TA.AperFunction,Conductor*%
%ADD14C,0.300000*%
%TD*%
G04 APERTURE END LIST*
D10*
%TO.P,S6,1*%
%TO.N,Net-(J1-Pad7)*%
X159250000Y-84750000D03*
D11*
%TO.P,S6,2*%
X165750000Y-84750000D03*
%TO.P,S6,3*%
%TO.N,GND*%
X159250000Y-80250000D03*
%TO.P,S6,4*%
X165750000Y-80250000D03*
%TD*%
D10*
%TO.P,S5,1*%
%TO.N,Net-(J1-Pad6)*%
X159250000Y-104750000D03*
D11*
%TO.P,S5,2*%
X165750000Y-104750000D03*
%TO.P,S5,3*%
%TO.N,GND*%
X159250000Y-100250000D03*
%TO.P,S5,4*%
X165750000Y-100250000D03*
%TD*%
D10*
%TO.P,S4,1*%
%TO.N,Net-(J1-Pad5)*%
X119250000Y-104750000D03*
D11*
%TO.P,S4,2*%
X125750000Y-104750000D03*
%TO.P,S4,3*%
%TO.N,GND*%
X119250000Y-100250000D03*
%TO.P,S4,4*%
X125750000Y-100250000D03*
%TD*%
D10*
%TO.P,S3,1*%
%TO.N,Net-(J1-Pad4)*%
X139250000Y-94750000D03*
D11*
%TO.P,S3,2*%
X145750000Y-94750000D03*
%TO.P,S3,3*%
%TO.N,GND*%
X139250000Y-90250000D03*
%TO.P,S3,4*%
X145750000Y-90250000D03*
%TD*%
D10*
%TO.P,S2,1*%
%TO.N,Net-(J1-Pad3)*%
X139250000Y-109750000D03*
D11*
%TO.P,S2,2*%
X145750000Y-109750000D03*
%TO.P,S2,3*%
%TO.N,GND*%
X139250000Y-105250000D03*
%TO.P,S2,4*%
X145750000Y-105250000D03*
%TD*%
D10*
%TO.P,S1,1*%
%TO.N,Net-(J1-Pad2)*%
X119250000Y-84750000D03*
D11*
%TO.P,S1,2*%
X125750000Y-84750000D03*
%TO.P,S1,3*%
%TO.N,GND*%
X119250000Y-80250000D03*
%TO.P,S1,4*%
X125750000Y-80250000D03*
%TD*%
D12*
%TO.P,J1,7,Pin_7*%
%TO.N,Net-(J1-Pad7)*%
X165115000Y-115000000D03*
%TO.P,J1,6,Pin_6*%
%TO.N,Net-(J1-Pad6)*%
X162575000Y-115000000D03*
%TO.P,J1,5,Pin_5*%
%TO.N,Net-(J1-Pad5)*%
X160035000Y-115000000D03*
%TO.P,J1,4,Pin_4*%
%TO.N,Net-(J1-Pad4)*%
X157495000Y-115000000D03*
%TO.P,J1,3,Pin_3*%
%TO.N,Net-(J1-Pad3)*%
X154955000Y-115000000D03*
%TO.P,J1,2,Pin_2*%
%TO.N,Net-(J1-Pad2)*%
X152415000Y-115000000D03*
D13*
%TO.P,J1,1,Pin_1*%
%TO.N,GND*%
X149875000Y-115000000D03*
%TD*%
D14*
%TO.N,Net-(J1-Pad7)*%
X159250000Y-84750000D02*
X165750000Y-84750000D01*
%TO.N,Net-(J1-Pad2)*%
X119250000Y-84750000D02*
X125750000Y-84750000D01*
X142500000Y-117500000D02*
X149915000Y-117500000D01*
X130000000Y-105000000D02*
X142500000Y-117500000D01*
X130000000Y-95000000D02*
X130000000Y-105000000D01*
X149915000Y-117500000D02*
X152415000Y-115000000D01*
X125750000Y-84750000D02*
X125750000Y-90750000D01*
X125750000Y-90750000D02*
X130000000Y-95000000D01*
%TO.N,Net-(J1-Pad5)*%
X160035000Y-117465000D02*
X160035000Y-115000000D01*
X157500000Y-120000000D02*
X160035000Y-117465000D01*
X141000000Y-120000000D02*
X157500000Y-120000000D01*
X125750000Y-104750000D02*
X141000000Y-120000000D01*
X119250000Y-104750000D02*
X125750000Y-104750000D01*
%TO.N,Net-(J1-Pad3)*%
X154955000Y-115000000D02*
X154955000Y-112455000D01*
X154955000Y-112455000D02*
X152250000Y-109750000D01*
X145750000Y-109750000D02*
X152250000Y-109750000D01*
X139250000Y-109750000D02*
X145750000Y-109750000D01*
%TO.N,Net-(J1-Pad4)*%
X139250000Y-94750000D02*
X145750000Y-94750000D01*
X157495000Y-110005000D02*
X157495000Y-115000000D01*
X157500000Y-110000000D02*
X157495000Y-110005000D01*
X145750000Y-98250000D02*
X157500000Y-110000000D01*
X145750000Y-94750000D02*
X145750000Y-98250000D01*
%TO.N,Net-(J1-Pad7)*%
X165750000Y-90750000D02*
X165750000Y-84750000D01*
X165115000Y-109885000D02*
X170000000Y-105000000D01*
X170000000Y-105000000D02*
X170000000Y-95000000D01*
X165115000Y-115000000D02*
X165115000Y-109885000D01*
X170000000Y-95000000D02*
X165750000Y-90750000D01*
%TO.N,Net-(J1-Pad6)*%
X162575000Y-107925000D02*
X162575000Y-115000000D01*
X165750000Y-104750000D02*
X162575000Y-107925000D01*
X159250000Y-104750000D02*
X165750000Y-104750000D01*
%TD*%
M02*
