%TF.GenerationSoftware,KiCad,Pcbnew,6.0.11-2627ca5db0~126~ubuntu22.04.1*%
%TF.CreationDate,2023-03-01T00:05:41+01:00*%
%TF.ProjectId,input-panel,696e7075-742d-4706-916e-656c2e6b6963,rev?*%
%TF.SameCoordinates,Original*%
%TF.FileFunction,Legend,Bot*%
%TF.FilePolarity,Positive*%
%FSLAX46Y46*%
G04 Gerber Fmt 4.6, Leading zero omitted, Abs format (unit mm)*
G04 Created by KiCad (PCBNEW 6.0.11-2627ca5db0~126~ubuntu22.04.1) date 2023-03-01 00:05:41*
%MOMM*%
%LPD*%
G01*
G04 APERTURE LIST*
%ADD10C,0.150000*%
%ADD11C,0.120000*%
G04 APERTURE END LIST*
D10*
X185769523Y-113900000D02*
X185845714Y-113861904D01*
X185960000Y-113861904D01*
X186074285Y-113900000D01*
X186150476Y-113976190D01*
X186188571Y-114052380D01*
X186226666Y-114204761D01*
X186226666Y-114319047D01*
X186188571Y-114471428D01*
X186150476Y-114547619D01*
X186074285Y-114623809D01*
X185960000Y-114661904D01*
X185883809Y-114661904D01*
X185769523Y-114623809D01*
X185731428Y-114585714D01*
X185731428Y-114319047D01*
X185883809Y-114319047D01*
X185388571Y-114661904D02*
X185388571Y-113861904D01*
X184931428Y-114661904D01*
X184931428Y-113861904D01*
X184550476Y-114661904D02*
X184550476Y-113861904D01*
X184360000Y-113861904D01*
X184245714Y-113900000D01*
X184169523Y-113976190D01*
X184131428Y-114052380D01*
X184093333Y-114204761D01*
X184093333Y-114319047D01*
X184131428Y-114471428D01*
X184169523Y-114547619D01*
X184245714Y-114623809D01*
X184360000Y-114661904D01*
X184550476Y-114661904D01*
X201136190Y-113861904D02*
X200983809Y-113861904D01*
X200907619Y-113900000D01*
X200831428Y-113976190D01*
X200793333Y-114128571D01*
X200793333Y-114395238D01*
X200831428Y-114547619D01*
X200907619Y-114623809D01*
X200983809Y-114661904D01*
X201136190Y-114661904D01*
X201212380Y-114623809D01*
X201288571Y-114547619D01*
X201326666Y-114395238D01*
X201326666Y-114128571D01*
X201288571Y-113976190D01*
X201212380Y-113900000D01*
X201136190Y-113861904D01*
X200450476Y-114661904D02*
X200450476Y-113861904D01*
X199993333Y-114661904D02*
X200336190Y-114204761D01*
X199993333Y-113861904D02*
X200450476Y-114319047D01*
X191914761Y-114661904D02*
X191914761Y-113861904D01*
X191724285Y-113861904D01*
X191610000Y-113900000D01*
X191533809Y-113976190D01*
X191495714Y-114052380D01*
X191457619Y-114204761D01*
X191457619Y-114319047D01*
X191495714Y-114471428D01*
X191533809Y-114547619D01*
X191610000Y-114623809D01*
X191724285Y-114661904D01*
X191914761Y-114661904D01*
X190962380Y-113861904D02*
X190810000Y-113861904D01*
X190733809Y-113900000D01*
X190657619Y-113976190D01*
X190619523Y-114128571D01*
X190619523Y-114395238D01*
X190657619Y-114547619D01*
X190733809Y-114623809D01*
X190810000Y-114661904D01*
X190962380Y-114661904D01*
X191038571Y-114623809D01*
X191114761Y-114547619D01*
X191152857Y-114395238D01*
X191152857Y-114128571D01*
X191114761Y-113976190D01*
X191038571Y-113900000D01*
X190962380Y-113861904D01*
X190352857Y-113861904D02*
X190162380Y-114661904D01*
X190010000Y-114090476D01*
X189857619Y-114661904D01*
X189667142Y-113861904D01*
X189362380Y-114661904D02*
X189362380Y-113861904D01*
X188905238Y-114661904D01*
X188905238Y-113861904D01*
X196171904Y-114661904D02*
X196552857Y-114661904D01*
X196552857Y-113861904D01*
X195905238Y-114242857D02*
X195638571Y-114242857D01*
X195524285Y-114661904D02*
X195905238Y-114661904D01*
X195905238Y-113861904D01*
X195524285Y-113861904D01*
X194914761Y-114242857D02*
X195181428Y-114242857D01*
X195181428Y-114661904D02*
X195181428Y-113861904D01*
X194800476Y-113861904D01*
X194610000Y-113861904D02*
X194152857Y-113861904D01*
X194381428Y-114661904D02*
X194381428Y-113861904D01*
X198976666Y-109581904D02*
X199243333Y-109200952D01*
X199433809Y-109581904D02*
X199433809Y-108781904D01*
X199129047Y-108781904D01*
X199052857Y-108820000D01*
X199014761Y-108858095D01*
X198976666Y-108934285D01*
X198976666Y-109048571D01*
X199014761Y-109124761D01*
X199052857Y-109162857D01*
X199129047Y-109200952D01*
X199433809Y-109200952D01*
X198633809Y-109581904D02*
X198633809Y-108781904D01*
X197833809Y-108820000D02*
X197910000Y-108781904D01*
X198024285Y-108781904D01*
X198138571Y-108820000D01*
X198214761Y-108896190D01*
X198252857Y-108972380D01*
X198290952Y-109124761D01*
X198290952Y-109239047D01*
X198252857Y-109391428D01*
X198214761Y-109467619D01*
X198138571Y-109543809D01*
X198024285Y-109581904D01*
X197948095Y-109581904D01*
X197833809Y-109543809D01*
X197795714Y-109505714D01*
X197795714Y-109239047D01*
X197948095Y-109239047D01*
X197452857Y-109581904D02*
X197452857Y-108781904D01*
X197452857Y-109162857D02*
X196995714Y-109162857D01*
X196995714Y-109581904D02*
X196995714Y-108781904D01*
X196729047Y-108781904D02*
X196271904Y-108781904D01*
X196500476Y-109581904D02*
X196500476Y-108781904D01*
X188805238Y-109505714D02*
X188843333Y-109543809D01*
X188957619Y-109581904D01*
X189033809Y-109581904D01*
X189148095Y-109543809D01*
X189224285Y-109467619D01*
X189262380Y-109391428D01*
X189300476Y-109239047D01*
X189300476Y-109124761D01*
X189262380Y-108972380D01*
X189224285Y-108896190D01*
X189148095Y-108820000D01*
X189033809Y-108781904D01*
X188957619Y-108781904D01*
X188843333Y-108820000D01*
X188805238Y-108858095D01*
X188462380Y-109581904D02*
X188462380Y-108781904D01*
X188005238Y-109581904D01*
X188005238Y-108781904D01*
X187167142Y-109505714D02*
X187205238Y-109543809D01*
X187319523Y-109581904D01*
X187395714Y-109581904D01*
X187510000Y-109543809D01*
X187586190Y-109467619D01*
X187624285Y-109391428D01*
X187662380Y-109239047D01*
X187662380Y-109124761D01*
X187624285Y-108972380D01*
X187586190Y-108896190D01*
X187510000Y-108820000D01*
X187395714Y-108781904D01*
X187319523Y-108781904D01*
X187205238Y-108820000D01*
X187167142Y-108858095D01*
X186443333Y-109581904D02*
X186824285Y-109581904D01*
X186824285Y-108781904D01*
X193538571Y-108781904D02*
X193538571Y-109429523D01*
X193500476Y-109505714D01*
X193462380Y-109543809D01*
X193386190Y-109581904D01*
X193233809Y-109581904D01*
X193157619Y-109543809D01*
X193119523Y-109505714D01*
X193081428Y-109429523D01*
X193081428Y-108781904D01*
X192700476Y-109581904D02*
X192700476Y-108781904D01*
X192395714Y-108781904D01*
X192319523Y-108820000D01*
X192281428Y-108858095D01*
X192243333Y-108934285D01*
X192243333Y-109048571D01*
X192281428Y-109124761D01*
X192319523Y-109162857D01*
X192395714Y-109200952D01*
X192700476Y-109200952D01*
D11*
%TO.C,J1*%
X186675000Y-113090000D02*
X201975000Y-113090000D01*
X185405000Y-110430000D02*
X184075000Y-110430000D01*
X201975000Y-110430000D02*
X201975000Y-113090000D01*
X184075000Y-110430000D02*
X184075000Y-111760000D01*
X186675000Y-110430000D02*
X201975000Y-110430000D01*
X186675000Y-110430000D02*
X186675000Y-113090000D01*
%TD*%
M02*
