M48
; DRILL file {KiCad 6.0.11-2627ca5db0~126~ubuntu22.04.1} date Sa 25 Feb 2023 17:34:28
; FORMAT={-:-/ absolute / metric / decimal}
; #@! TF.CreationDate,2023-02-25T17:34:28+01:00
; #@! TF.GenerationSoftware,Kicad,Pcbnew,6.0.11-2627ca5db0~126~ubuntu22.04.1
; #@! TF.FileFunction,Plated,1,4,PTH
FMAT,2
METRIC
; #@! TA.AperFunction,Plated,PTH,ViaDrill
T1C0.400
; #@! TA.AperFunction,Plated,PTH,ComponentDrill
T2C0.500
; #@! TA.AperFunction,Plated,PTH,ComponentDrill
T3C0.700
; #@! TA.AperFunction,Plated,PTH,ComponentDrill
T4C0.800
; #@! TA.AperFunction,Plated,PTH,ComponentDrill
T5C1.000
; #@! TA.AperFunction,Plated,PTH,ComponentDrill
T6C1.100
; #@! TA.AperFunction,Plated,PTH,ComponentDrill
T7C1.200
; #@! TA.AperFunction,Plated,PTH,ComponentDrill
T8C1.300
; #@! TA.AperFunction,Plated,PTH,ComponentDrill
T9C1.850
; #@! TA.AperFunction,Plated,PTH,ComponentDrill
T10C3.200
%
G90
G05
T1
X100.838Y-93.472
X139.162Y-123.0
X143.25Y-46.0
X144.5Y-125.5
X145.55Y-92.05
X149.0Y-95.5
X149.0Y-98.75
X153.0Y-92.0
X154.25Y-96.5
X156.5Y-136.0
X157.75Y-94.25
X157.952Y-66.548
X160.0Y-89.75
X160.101Y-64.399
X161.0Y-111.25
X162.037Y-68.962
X164.0Y-112.0
X165.5Y-55.25
X166.75Y-105.25
X167.0Y-71.25
X167.0Y-87.25
X168.0Y-112.25
X168.25Y-106.75
X171.0Y-112.25
X173.0Y-136.0
X173.75Y-101.5
X173.75Y-103.5
X176.0Y-121.0
X177.0Y-126.0
X178.0Y-121.0
X182.25Y-106.75
X183.25Y-91.25
X183.75Y-110.349
T2
X99.35Y-47.55
X99.35Y-137.55
X100.053Y-45.853
X100.053Y-49.247
X100.053Y-135.853
X100.053Y-139.247
X101.75Y-45.15
X101.75Y-49.95
X101.75Y-135.15
X101.75Y-139.95
X103.447Y-45.853
X103.447Y-49.247
X103.447Y-135.853
X103.447Y-139.247
X104.15Y-47.55
X104.15Y-137.55
X189.35Y-47.55
X189.35Y-137.55
X190.053Y-45.853
X190.053Y-49.247
X190.053Y-135.853
X190.053Y-139.247
X191.75Y-45.15
X191.75Y-49.95
X191.75Y-135.15
X191.75Y-139.95
X193.447Y-45.853
X193.447Y-49.247
X193.447Y-135.853
X193.447Y-139.247
X194.15Y-47.55
X194.15Y-137.55
T4
X98.55Y-57.77
X98.55Y-60.31
X101.09Y-57.77
X101.09Y-60.31
X103.63Y-57.77
X103.63Y-60.31
X106.17Y-57.77
X106.17Y-60.31
X108.71Y-57.77
X108.71Y-60.31
X111.25Y-57.77
X111.25Y-60.31
X111.25Y-90.79
X111.25Y-93.33
X113.79Y-57.77
X113.79Y-60.31
X113.79Y-90.79
X113.79Y-93.33
X116.33Y-57.77
X116.33Y-60.31
X116.33Y-90.79
X116.33Y-93.33
X118.87Y-57.77
X118.87Y-60.31
X118.87Y-90.79
X118.87Y-93.33
X121.41Y-57.77
X121.41Y-60.31
X121.41Y-90.79
X121.41Y-93.33
X123.95Y-57.77
X123.95Y-60.31
X123.95Y-90.79
X123.95Y-93.33
X126.49Y-57.77
X126.49Y-60.31
X126.49Y-90.79
X126.49Y-93.33
X129.03Y-57.77
X129.03Y-60.31
X129.03Y-90.79
X129.03Y-93.33
X131.57Y-57.77
X131.57Y-60.31
X131.57Y-90.79
X131.57Y-93.33
X134.11Y-57.77
X134.11Y-60.31
X134.11Y-90.79
X134.11Y-93.33
X136.65Y-57.77
X136.65Y-60.31
X136.65Y-90.79
X136.65Y-93.33
X139.19Y-57.77
X139.19Y-60.31
X139.19Y-90.79
X139.19Y-93.33
X141.73Y-57.77
X141.73Y-60.31
X141.73Y-90.79
X141.73Y-93.33
X144.27Y-57.77
X144.27Y-60.31
X144.27Y-90.79
X144.27Y-93.33
X146.81Y-57.77
X146.81Y-60.31
X146.81Y-70.47
X146.81Y-73.01
X146.81Y-75.55
X146.81Y-83.17
X146.81Y-85.71
X146.81Y-88.25
X146.81Y-90.79
X146.81Y-93.33
X149.35Y-57.77
X149.35Y-60.31
X149.35Y-70.47
X149.35Y-73.01
X149.35Y-75.55
X149.35Y-83.17
X149.35Y-85.71
X149.35Y-88.25
X149.35Y-90.79
X149.35Y-93.33
T5
X99.5Y-105.96
X99.5Y-108.5
X100.175Y-81.0
X100.525Y-53.5
X102.715Y-81.0
X103.065Y-53.5
X103.235Y-112.5
X105.255Y-81.0
X105.605Y-53.5
X105.775Y-112.5
X107.795Y-81.0
X108.145Y-53.5
X108.25Y-117.7
X108.25Y-120.24
X108.25Y-122.78
X108.25Y-125.32
X110.335Y-81.0
X110.685Y-53.5
X111.475Y-67.818
X112.875Y-81.0
X113.225Y-53.5
X114.015Y-67.818
X115.415Y-81.0
X115.765Y-53.5
X116.555Y-67.818
X117.955Y-81.0
X118.305Y-53.5
X119.095Y-67.818
X120.495Y-81.0
X120.845Y-53.5
X121.635Y-67.818
X123.035Y-81.0
X123.385Y-53.5
X124.175Y-67.818
X125.575Y-81.0
X125.925Y-53.5
X126.715Y-67.818
X128.115Y-81.0
X128.465Y-53.5
X129.255Y-67.818
X130.0Y-133.0
X130.0Y-135.54
X130.0Y-138.08
X130.655Y-81.0
X131.005Y-53.5
X131.795Y-67.818
X133.195Y-81.0
X134.335Y-67.818
X135.735Y-81.0
X136.5Y-45.95
X136.5Y-48.49
X136.5Y-51.03
X136.5Y-53.57
X136.875Y-67.818
X138.275Y-81.0
X140.815Y-81.0
X142.25Y-64.68
X142.25Y-67.22
X142.25Y-69.76
X142.25Y-72.3
X146.0Y-133.475
X146.0Y-136.015
X146.0Y-138.555
X154.0Y-83.485
X154.0Y-86.025
X154.25Y-66.985
X154.25Y-69.525
X154.5Y-52.735
X154.5Y-55.275
X162.789Y-133.475
X162.789Y-136.015
X162.789Y-138.555
X177.875Y-99.0
X179.0Y-133.475
X179.0Y-136.015
X179.0Y-138.555
X180.415Y-99.0
X182.955Y-99.0
X185.495Y-99.0
X188.035Y-99.0
X190.575Y-99.0
X193.115Y-99.0
T6
X181.945Y-66.46
X181.945Y-69.0
X181.945Y-71.54
X181.945Y-77.46
X181.945Y-80.0
X181.945Y-82.54
X182.0Y-55.5
X182.0Y-58.04
X182.0Y-60.58
T7
X99.585Y-101.5
X155.465Y-101.5
T8
X109.43Y-135.05
X112.2Y-113.5
X114.43Y-135.05
X119.43Y-135.05
X124.43Y-135.05
X134.8Y-113.5
X162.3Y-45.32
X162.3Y-57.32
X162.3Y-62.83
X162.3Y-74.83
X162.3Y-80.33
X162.3Y-92.33
X174.5Y-45.32
X174.5Y-57.32
X174.5Y-62.83
X174.5Y-74.83
X174.5Y-80.33
X174.5Y-92.33
X176.5Y-51.32
X176.5Y-68.83
X176.5Y-86.33
X188.5Y-56.0
X188.5Y-61.0
X188.5Y-66.0
X188.5Y-71.0
X188.5Y-76.0
X188.5Y-81.0
T9
X101.75Y-119.85
X101.75Y-124.55
X101.75Y-129.25
T10
X101.75Y-47.55
X101.75Y-137.55
X191.75Y-47.55
X191.75Y-137.55
T3
G00X149.65Y-136.7
M15
G01X149.65Y-135.9
M16
G05
G00X151.9Y-134.3
M15
G01X151.1Y-134.3
M16
G05
G00X151.9Y-141.2
M15
G01X151.1Y-141.2
M16
G05
G00X153.35Y-136.7
M15
G01X153.35Y-135.9
M16
G05
G00X166.154Y-136.674
M15
G01X166.154Y-135.874
M16
G05
G00X168.404Y-134.274
M15
G01X167.604Y-134.274
M16
G05
G00X168.404Y-141.174
M15
G01X167.604Y-141.174
M16
G05
G00X169.854Y-136.674
M15
G01X169.854Y-135.874
M16
G05
G00X182.365Y-136.7
M15
G01X182.365Y-135.9
M16
G05
G00X184.615Y-134.3
M15
G01X183.815Y-134.3
M16
G05
G00X184.615Y-141.2
M15
G01X183.815Y-141.2
M16
G05
G00X186.065Y-136.7
M15
G01X186.065Y-135.9
M16
G05
T5
G00X136.0Y-132.9
M15
G01X135.0Y-132.9
M16
G05
G00X136.0Y-138.4
M15
G01X135.0Y-138.4
M16
G05
G00X138.0Y-129.2
M15
G01X137.0Y-129.2
M16
G05
G00X138.0Y-134.7
M15
G01X137.0Y-134.7
M16
G05
G00X138.0Y-140.8
M15
G01X137.0Y-140.8
M16
G05
T0
M30
