%TF.GenerationSoftware,KiCad,Pcbnew,6.0.11-2627ca5db0~126~ubuntu22.04.1*%
%TF.CreationDate,2023-02-25T17:34:07+01:00*%
%TF.ProjectId,pyroDirector,7079726f-4469-4726-9563-746f722e6b69,rev?*%
%TF.SameCoordinates,Original*%
%TF.FileFunction,Soldermask,Top*%
%TF.FilePolarity,Negative*%
%FSLAX46Y46*%
G04 Gerber Fmt 4.6, Leading zero omitted, Abs format (unit mm)*
G04 Created by KiCad (PCBNEW 6.0.11-2627ca5db0~126~ubuntu22.04.1) date 2023-02-25 17:34:07*
%MOMM*%
%LPD*%
G01*
G04 APERTURE LIST*
G04 Aperture macros list*
%AMRoundRect*
0 Rectangle with rounded corners*
0 $1 Rounding radius*
0 $2 $3 $4 $5 $6 $7 $8 $9 X,Y pos of 4 corners*
0 Add a 4 corners polygon primitive as box body*
4,1,4,$2,$3,$4,$5,$6,$7,$8,$9,$2,$3,0*
0 Add four circle primitives for the rounded corners*
1,1,$1+$1,$2,$3*
1,1,$1+$1,$4,$5*
1,1,$1+$1,$6,$7*
1,1,$1+$1,$8,$9*
0 Add four rect primitives between the rounded corners*
20,1,$1+$1,$2,$3,$4,$5,0*
20,1,$1+$1,$4,$5,$6,$7,0*
20,1,$1+$1,$6,$7,$8,$9,0*
20,1,$1+$1,$8,$9,$2,$3,0*%
%AMFreePoly0*
4,1,22,0.500000,-0.750000,0.000000,-0.750000,0.000000,-0.745033,-0.079941,-0.743568,-0.215256,-0.701293,-0.333266,-0.622738,-0.424486,-0.514219,-0.481581,-0.384460,-0.499164,-0.250000,-0.500000,-0.250000,-0.500000,0.250000,-0.499164,0.250000,-0.499963,0.256109,-0.478152,0.396186,-0.417904,0.524511,-0.324060,0.630769,-0.204165,0.706417,-0.067858,0.745374,0.000000,0.744959,0.000000,0.750000,
0.500000,0.750000,0.500000,-0.750000,0.500000,-0.750000,$1*%
%AMFreePoly1*
4,1,20,0.000000,0.744959,0.073905,0.744508,0.209726,0.703889,0.328688,0.626782,0.421226,0.519385,0.479903,0.390333,0.500000,0.250000,0.500000,-0.250000,0.499851,-0.262216,0.476331,-0.402017,0.414519,-0.529596,0.319384,-0.634700,0.198574,-0.708877,0.061801,-0.746166,0.000000,-0.745033,0.000000,-0.750000,-0.500000,-0.750000,-0.500000,0.750000,0.000000,0.750000,0.000000,0.744959,
0.000000,0.744959,$1*%
G04 Aperture macros list end*
%ADD10C,2.400000*%
%ADD11O,2.400000X2.400000*%
%ADD12C,1.200000*%
%ADD13O,2.416000X1.208000*%
%ADD14O,1.208000X2.416000*%
%ADD15O,2.800000X1.800000*%
%ADD16R,2.600000X2.600000*%
%ADD17C,2.600000*%
%ADD18C,2.800000*%
%ADD19R,1.000000X0.750000*%
%ADD20RoundRect,0.250000X0.450000X-0.350000X0.450000X0.350000X-0.450000X0.350000X-0.450000X-0.350000X0*%
%ADD21R,1.700000X1.700000*%
%ADD22O,1.700000X1.700000*%
%ADD23RoundRect,0.250000X-0.450000X0.350000X-0.450000X-0.350000X0.450000X-0.350000X0.450000X0.350000X0*%
%ADD24RoundRect,0.250000X-0.350000X-0.450000X0.350000X-0.450000X0.350000X0.450000X-0.350000X0.450000X0*%
%ADD25RoundRect,0.150000X-0.587500X-0.150000X0.587500X-0.150000X0.587500X0.150000X-0.587500X0.150000X0*%
%ADD26RoundRect,0.150000X0.150000X-0.587500X0.150000X0.587500X-0.150000X0.587500X-0.150000X-0.587500X0*%
%ADD27R,2.000000X1.905000*%
%ADD28O,2.000000X1.905000*%
%ADD29C,0.800000*%
%ADD30C,6.400000*%
%ADD31RoundRect,0.250000X-0.337500X-0.475000X0.337500X-0.475000X0.337500X0.475000X-0.337500X0.475000X0*%
%ADD32RoundRect,0.250000X-0.475000X0.337500X-0.475000X-0.337500X0.475000X-0.337500X0.475000X0.337500X0*%
%ADD33RoundRect,0.250000X0.350000X0.450000X-0.350000X0.450000X-0.350000X-0.450000X0.350000X-0.450000X0*%
%ADD34RoundRect,0.150000X-0.150000X0.587500X-0.150000X-0.587500X0.150000X-0.587500X0.150000X0.587500X0*%
%ADD35R,1.800000X2.500000*%
%ADD36FreePoly0,270.000000*%
%ADD37FreePoly1,270.000000*%
%ADD38R,1.950000X1.950000*%
%ADD39C,1.950000*%
%ADD40C,1.676400*%
G04 APERTURE END LIST*
D10*
%TO.C,R6*%
X99585000Y-101500000D03*
D11*
X155465000Y-101500000D03*
%TD*%
D12*
%TO.C,J19*%
X184215300Y-138800000D03*
D13*
X184215300Y-141200000D03*
D14*
X186065300Y-136300000D03*
X182365300Y-136300000D03*
D13*
X184215300Y-134300000D03*
%TD*%
D12*
%TO.C,J17*%
X168004100Y-138773600D03*
D13*
X168004100Y-141173600D03*
D14*
X169854100Y-136273600D03*
X166154100Y-136273600D03*
D13*
X168004100Y-134273600D03*
%TD*%
D12*
%TO.C,J15*%
X151500000Y-138800000D03*
D13*
X151500000Y-141200000D03*
D14*
X153350000Y-136300000D03*
X149650000Y-136300000D03*
D13*
X151500000Y-134300000D03*
%TD*%
D15*
%TO.C,J2*%
X135500000Y-132900000D03*
X137500000Y-134700000D03*
X137500000Y-140800000D03*
X135500000Y-138400000D03*
X137500000Y-129200000D03*
%TD*%
D16*
%TO.C,J8*%
X119430000Y-135050000D03*
D17*
X124430000Y-135050000D03*
%TD*%
%TO.C,J9*%
X114430000Y-135050000D03*
D16*
X109430000Y-135050000D03*
%TD*%
%TO.C,J23*%
X188500000Y-81000000D03*
D17*
X188500000Y-76000000D03*
%TD*%
D16*
%TO.C,J21*%
X188500000Y-71000000D03*
D17*
X188500000Y-66000000D03*
%TD*%
D16*
%TO.C,J25*%
X188500000Y-61000000D03*
D17*
X188500000Y-56000000D03*
%TD*%
D18*
%TO.C,F1*%
X134800000Y-113500000D03*
X112200000Y-113500000D03*
%TD*%
D19*
%TO.C,S5*%
X182780000Y-111125000D03*
X188780000Y-111125000D03*
X182780000Y-114875000D03*
X188780000Y-114875000D03*
%TD*%
D20*
%TO.C,R4*%
X134662500Y-126500000D03*
X134662500Y-124500000D03*
%TD*%
D21*
%TO.C,J12*%
X100525000Y-53500000D03*
D22*
X103065000Y-53500000D03*
X105605000Y-53500000D03*
X108145000Y-53500000D03*
X110685000Y-53500000D03*
X113225000Y-53500000D03*
X115765000Y-53500000D03*
X118305000Y-53500000D03*
X120845000Y-53500000D03*
X123385000Y-53500000D03*
X125925000Y-53500000D03*
X128465000Y-53500000D03*
X131005000Y-53500000D03*
%TD*%
D21*
%TO.C,J14*%
X146000000Y-133475000D03*
D22*
X146000000Y-136015000D03*
X146000000Y-138555000D03*
%TD*%
D23*
%TO.C,R30*%
X149500000Y-45000000D03*
X149500000Y-47000000D03*
%TD*%
D24*
%TO.C,R13*%
X165500000Y-65820000D03*
X167500000Y-65820000D03*
%TD*%
D21*
%TO.C,J6*%
X99500000Y-108500000D03*
D22*
X99500000Y-105960000D03*
%TD*%
D25*
%TO.C,Q8*%
X165562500Y-69300000D03*
X165562500Y-71200000D03*
X167437500Y-70250000D03*
%TD*%
D20*
%TO.C,R8*%
X146000000Y-121000000D03*
X146000000Y-119000000D03*
%TD*%
%TO.C,R5*%
X139000000Y-121000000D03*
X139000000Y-119000000D03*
%TD*%
D26*
%TO.C,Q1*%
X138212500Y-126437500D03*
X140112500Y-126437500D03*
X139162500Y-124562500D03*
%TD*%
D23*
%TO.C,R3*%
X102500000Y-90500000D03*
X102500000Y-92500000D03*
%TD*%
D21*
%TO.C,J3*%
X100175000Y-81000000D03*
D22*
X102715000Y-81000000D03*
X105255000Y-81000000D03*
X107795000Y-81000000D03*
X110335000Y-81000000D03*
X112875000Y-81000000D03*
X115415000Y-81000000D03*
X117955000Y-81000000D03*
X120495000Y-81000000D03*
X123035000Y-81000000D03*
X125575000Y-81000000D03*
X128115000Y-81000000D03*
X130655000Y-81000000D03*
X133195000Y-81000000D03*
X135735000Y-81000000D03*
X138275000Y-81000000D03*
X140815000Y-81000000D03*
%TD*%
D21*
%TO.C,J7*%
X142250000Y-72300000D03*
D22*
X142250000Y-69760000D03*
X142250000Y-67220000D03*
X142250000Y-64680000D03*
%TD*%
D24*
%TO.C,R16*%
X153250000Y-75000000D03*
X155250000Y-75000000D03*
%TD*%
D27*
%TO.C,Q11*%
X181945000Y-82540000D03*
D28*
X181945000Y-80000000D03*
X181945000Y-77460000D03*
%TD*%
D25*
%TO.C,Q7*%
X173562500Y-138050000D03*
X173562500Y-139950000D03*
X175437500Y-139000000D03*
%TD*%
D20*
%TO.C,R28*%
X146000000Y-47000000D03*
X146000000Y-45000000D03*
%TD*%
D24*
%TO.C,R1*%
X99500000Y-97000000D03*
X101500000Y-97000000D03*
%TD*%
D29*
%TO.C,H3*%
X100052944Y-45852944D03*
X101750000Y-49950000D03*
X104150000Y-47550000D03*
D30*
X101750000Y-47550000D03*
D29*
X103447056Y-49247056D03*
X101750000Y-45150000D03*
X99350000Y-47550000D03*
X100052944Y-49247056D03*
X103447056Y-45852944D03*
%TD*%
D20*
%TO.C,R12*%
X160000000Y-121000000D03*
X160000000Y-119000000D03*
%TD*%
D31*
%TO.C,C2*%
X159962500Y-70820000D03*
X162037500Y-70820000D03*
%TD*%
D21*
%TO.C,J22*%
X154000000Y-86025000D03*
D22*
X154000000Y-83485000D03*
%TD*%
D27*
%TO.C,Q9*%
X181945000Y-71540000D03*
D28*
X181945000Y-69000000D03*
X181945000Y-66460000D03*
%TD*%
D29*
%TO.C,H4*%
X190052944Y-49247056D03*
X191750000Y-49950000D03*
X194150000Y-47550000D03*
X193447056Y-45852944D03*
X190052944Y-45852944D03*
X191750000Y-45150000D03*
D30*
X191750000Y-47550000D03*
D29*
X189350000Y-47550000D03*
X193447056Y-49247056D03*
%TD*%
D32*
%TO.C,C3*%
X161750000Y-87712500D03*
X161750000Y-89787500D03*
%TD*%
D21*
%TO.C,J10*%
X177875000Y-99000000D03*
D22*
X180415000Y-99000000D03*
X182955000Y-99000000D03*
X185495000Y-99000000D03*
X188035000Y-99000000D03*
X190575000Y-99000000D03*
X193115000Y-99000000D03*
%TD*%
D32*
%TO.C,C1*%
X99000000Y-90462500D03*
X99000000Y-92537500D03*
%TD*%
D21*
%TO.C,J16*%
X162788800Y-133475000D03*
D22*
X162788800Y-136015000D03*
X162788800Y-138555000D03*
%TD*%
D23*
%TO.C,R7*%
X142500000Y-119000000D03*
X142500000Y-121000000D03*
%TD*%
%TO.C,R20*%
X161750000Y-83250000D03*
X161750000Y-85250000D03*
%TD*%
D25*
%TO.C,Q12*%
X165562500Y-51870000D03*
X165562500Y-53770000D03*
X167437500Y-52820000D03*
%TD*%
D32*
%TO.C,C4*%
X142000000Y-44962500D03*
X142000000Y-47037500D03*
%TD*%
D24*
%TO.C,R18*%
X160000000Y-67320000D03*
X162000000Y-67320000D03*
%TD*%
D20*
%TO.C,R21*%
X180750000Y-89820000D03*
X180750000Y-87820000D03*
%TD*%
D27*
%TO.C,Q13*%
X182000000Y-60580000D03*
D28*
X182000000Y-58040000D03*
X182000000Y-55500000D03*
%TD*%
D21*
%TO.C,J13*%
X136500000Y-45950000D03*
D22*
X136500000Y-48490000D03*
X136500000Y-51030000D03*
X136500000Y-53570000D03*
%TD*%
D21*
%TO.C,J4*%
X136875000Y-67818000D03*
D22*
X134335000Y-67818000D03*
X131795000Y-67818000D03*
X129255000Y-67818000D03*
X126715000Y-67818000D03*
X124175000Y-67818000D03*
X121635000Y-67818000D03*
X119095000Y-67818000D03*
X116555000Y-67818000D03*
X114015000Y-67818000D03*
X111475000Y-67818000D03*
%TD*%
D29*
%TO.C,H1*%
X190052944Y-135852944D03*
D30*
X191750000Y-137550000D03*
D29*
X194150000Y-137550000D03*
X191750000Y-135150000D03*
X189350000Y-137550000D03*
X191750000Y-139950000D03*
X190052944Y-139247056D03*
X193447056Y-135852944D03*
X193447056Y-139247056D03*
%TD*%
D33*
%TO.C,R14*%
X155250000Y-72750000D03*
X153250000Y-72750000D03*
%TD*%
D20*
%TO.C,R22*%
X158250000Y-85250000D03*
X158250000Y-83250000D03*
%TD*%
D25*
%TO.C,Q10*%
X165562500Y-85370000D03*
X165562500Y-87270000D03*
X167437500Y-86320000D03*
%TD*%
D34*
%TO.C,Q3*%
X146450000Y-127062500D03*
X144550000Y-127062500D03*
X145500000Y-128937500D03*
%TD*%
%TO.C,Q2*%
X151700000Y-127125000D03*
X149800000Y-127125000D03*
X150750000Y-129000000D03*
%TD*%
D33*
%TO.C,R26*%
X149000000Y-50500000D03*
X147000000Y-50500000D03*
%TD*%
D35*
%TO.C,D2*%
X172388820Y-84432800D03*
X172388820Y-88432800D03*
%TD*%
D23*
%TO.C,R17*%
X177500000Y-75000000D03*
X177500000Y-77000000D03*
%TD*%
%TO.C,R24*%
X158250000Y-87750000D03*
X158250000Y-89750000D03*
%TD*%
D24*
%TO.C,R27*%
X167500000Y-60370000D03*
X169500000Y-60370000D03*
%TD*%
D25*
%TO.C,Q5*%
X157062500Y-138050000D03*
X157062500Y-139950000D03*
X158937500Y-139000000D03*
%TD*%
D19*
%TO.C,S3*%
X173890000Y-104775000D03*
X179890000Y-104775000D03*
X173890000Y-108525000D03*
X179890000Y-108525000D03*
%TD*%
D20*
%TO.C,R25*%
X162250000Y-53750000D03*
X162250000Y-51750000D03*
%TD*%
D19*
%TO.C,S1*%
X165000000Y-118745000D03*
X171000000Y-118745000D03*
X165000000Y-122495000D03*
X171000000Y-122495000D03*
%TD*%
%TO.C,S6*%
X182780000Y-118745000D03*
X188780000Y-118745000D03*
X182780000Y-122495000D03*
X188780000Y-122495000D03*
%TD*%
D29*
%TO.C,H2*%
X104150000Y-137550000D03*
X103447056Y-135852944D03*
X100052944Y-139247056D03*
X101750000Y-139950000D03*
X103447056Y-139247056D03*
D30*
X101750000Y-137550000D03*
D29*
X100052944Y-135852944D03*
X101750000Y-135150000D03*
X99350000Y-137550000D03*
%TD*%
D36*
%TO.C,JP1*%
X177000000Y-122750000D03*
D37*
X177000000Y-124050000D03*
%TD*%
D23*
%TO.C,R11*%
X156500000Y-119050000D03*
X156500000Y-121050000D03*
%TD*%
D21*
%TO.C,J1*%
X130000000Y-133000000D03*
D22*
X130000000Y-135540000D03*
X130000000Y-138080000D03*
%TD*%
D23*
%TO.C,R9*%
X149375000Y-119000000D03*
X149375000Y-121000000D03*
%TD*%
D19*
%TO.C,S2*%
X173890000Y-111125000D03*
X179890000Y-111125000D03*
X173890000Y-114875000D03*
X179890000Y-114875000D03*
%TD*%
D35*
%TO.C,D1*%
X172000000Y-66830000D03*
X172000000Y-70830000D03*
%TD*%
D19*
%TO.C,S4*%
X165000000Y-111125000D03*
X171000000Y-111125000D03*
X165000000Y-114875000D03*
X171000000Y-114875000D03*
%TD*%
D21*
%TO.C,J20*%
X154250000Y-69525000D03*
D22*
X154250000Y-66985000D03*
%TD*%
D20*
%TO.C,R10*%
X153000000Y-121000000D03*
X153000000Y-119000000D03*
%TD*%
D35*
%TO.C,D3*%
X172000000Y-49320000D03*
X172000000Y-53320000D03*
%TD*%
D23*
%TO.C,R23*%
X183250000Y-87820000D03*
X183250000Y-89820000D03*
%TD*%
D21*
%TO.C,JP2*%
X105775000Y-112500000D03*
D22*
X103235000Y-112500000D03*
%TD*%
D25*
%TO.C,Q4*%
X157062500Y-133050000D03*
X157062500Y-134950000D03*
X158937500Y-134000000D03*
%TD*%
D20*
%TO.C,R19*%
X166500000Y-91500000D03*
X166500000Y-89500000D03*
%TD*%
D25*
%TO.C,Q6*%
X173562500Y-133050000D03*
X173562500Y-134950000D03*
X175437500Y-134000000D03*
%TD*%
D20*
%TO.C,R2*%
X106000000Y-92500000D03*
X106000000Y-90500000D03*
%TD*%
D21*
%TO.C,J18*%
X179000000Y-133475000D03*
D22*
X179000000Y-136015000D03*
X179000000Y-138555000D03*
%TD*%
D24*
%TO.C,R15*%
X169750000Y-76500000D03*
X171750000Y-76500000D03*
%TD*%
D21*
%TO.C,J24*%
X154500000Y-55275000D03*
D22*
X154500000Y-52735000D03*
%TD*%
D17*
%TO.C,SW1*%
X101750000Y-119850000D03*
X101750000Y-124550000D03*
X101750000Y-129250000D03*
%TD*%
D23*
%TO.C,R29*%
X177000000Y-60820000D03*
X177000000Y-62820000D03*
%TD*%
D38*
%TO.C,K2*%
X174500000Y-80330000D03*
D39*
X174500000Y-92330000D03*
X176500000Y-86330000D03*
X162300000Y-80330000D03*
X162300000Y-92330000D03*
%TD*%
D40*
%TO.C,U1*%
X106170000Y-57770000D03*
X106170000Y-60310000D03*
X103630000Y-57770000D03*
X103630000Y-60310000D03*
X149350000Y-75550000D03*
X111250000Y-93330000D03*
X111250000Y-90790000D03*
X113790000Y-93330000D03*
X113790000Y-90790000D03*
X116330000Y-93330000D03*
X116330000Y-90790000D03*
X118870000Y-93330000D03*
X118870000Y-90790000D03*
X121410000Y-93330000D03*
X121410000Y-90790000D03*
X123950000Y-93330000D03*
X123950000Y-90790000D03*
X126490000Y-93330000D03*
X126490000Y-90790000D03*
X129030000Y-93330000D03*
X129030000Y-90790000D03*
X108710000Y-60310000D03*
X113790000Y-60310000D03*
X113790000Y-57770000D03*
X116330000Y-60310000D03*
X116330000Y-57770000D03*
X118870000Y-60310000D03*
X118870000Y-57770000D03*
X121410000Y-60310000D03*
X121410000Y-57770000D03*
X123950000Y-60310000D03*
X123950000Y-57770000D03*
X126490000Y-60310000D03*
X126490000Y-57770000D03*
X129030000Y-60310000D03*
X129030000Y-57770000D03*
X131570000Y-60310000D03*
X131570000Y-57770000D03*
X134110000Y-60310000D03*
X134110000Y-57770000D03*
X136650000Y-60310000D03*
X136650000Y-57770000D03*
X139190000Y-60310000D03*
X139190000Y-57770000D03*
X141730000Y-60310000D03*
X141730000Y-57770000D03*
X144270000Y-60310000D03*
X144270000Y-57770000D03*
X146810000Y-60310000D03*
X146810000Y-57770000D03*
X149350000Y-60310000D03*
X149350000Y-57770000D03*
X131570000Y-93330000D03*
X131570000Y-90790000D03*
X134110000Y-93330000D03*
X134110000Y-90790000D03*
X136650000Y-93330000D03*
X136650000Y-90790000D03*
X139190000Y-93330000D03*
X139190000Y-90790000D03*
X141730000Y-93330000D03*
X141730000Y-90790000D03*
X144270000Y-93330000D03*
X144270000Y-90790000D03*
X146810000Y-93330000D03*
X146810000Y-90790000D03*
X149350000Y-93330000D03*
X149350000Y-90790000D03*
X149350000Y-88250000D03*
X146810000Y-88250000D03*
X149350000Y-85710000D03*
X146810000Y-85710000D03*
X149350000Y-83170000D03*
X146810000Y-83170000D03*
X101090000Y-57770000D03*
X101090000Y-60310000D03*
X149350000Y-70470000D03*
X146810000Y-75550000D03*
X149350000Y-73010000D03*
X146810000Y-70470000D03*
X108710000Y-57770000D03*
X111250000Y-60310000D03*
X146810000Y-73010000D03*
X111250000Y-57770000D03*
X98550000Y-57770000D03*
X98550000Y-60310000D03*
%TD*%
D21*
%TO.C,J11*%
X108250000Y-117700000D03*
D22*
X108250000Y-120240000D03*
X108250000Y-122780000D03*
X108250000Y-125320000D03*
%TD*%
D38*
%TO.C,K3*%
X174500000Y-45320000D03*
D39*
X174500000Y-57320000D03*
X176500000Y-51320000D03*
X162300000Y-45320000D03*
X162300000Y-57320000D03*
%TD*%
D38*
%TO.C,K1*%
X174500000Y-62830000D03*
D39*
X174500000Y-74830000D03*
X176500000Y-68830000D03*
X162300000Y-62830000D03*
X162300000Y-74830000D03*
%TD*%
M02*
