%TF.GenerationSoftware,KiCad,Pcbnew,6.0.11-2627ca5db0~126~ubuntu22.04.1*%
%TF.CreationDate,2023-02-25T17:34:07+01:00*%
%TF.ProjectId,pyroDirector,7079726f-4469-4726-9563-746f722e6b69,rev?*%
%TF.SameCoordinates,Original*%
%TF.FileFunction,Legend,Bot*%
%TF.FilePolarity,Positive*%
%FSLAX46Y46*%
G04 Gerber Fmt 4.6, Leading zero omitted, Abs format (unit mm)*
G04 Created by KiCad (PCBNEW 6.0.11-2627ca5db0~126~ubuntu22.04.1) date 2023-02-25 17:34:07*
%MOMM*%
%LPD*%
G01*
G04 APERTURE LIST*
%ADD10C,0.150000*%
%ADD11C,0.254000*%
%ADD12C,0.200000*%
%ADD13C,0.127000*%
%ADD14C,0.120000*%
G04 APERTURE END LIST*
D10*
X127000000Y-126500000D02*
X127000000Y-116500000D01*
X127000000Y-116500000D02*
X110000000Y-116500000D01*
X110000000Y-126500000D02*
X127000000Y-126500000D01*
X113142857Y-122452380D02*
X112809523Y-123452380D01*
X112476190Y-122452380D01*
X112142857Y-123452380D02*
X112142857Y-122785714D01*
X112142857Y-122452380D02*
X112190476Y-122500000D01*
X112142857Y-122547619D01*
X112095238Y-122500000D01*
X112142857Y-122452380D01*
X112142857Y-122547619D01*
X111666666Y-122785714D02*
X111666666Y-123452380D01*
X111666666Y-122880952D02*
X111619047Y-122833333D01*
X111523809Y-122785714D01*
X111380952Y-122785714D01*
X111285714Y-122833333D01*
X111238095Y-122928571D01*
X111238095Y-123452380D01*
X110761904Y-123071428D02*
X110000000Y-123071428D01*
X110380952Y-123452380D02*
X110380952Y-122690476D01*
X112261904Y-120000000D02*
X112357142Y-119952380D01*
X112500000Y-119952380D01*
X112642857Y-120000000D01*
X112738095Y-120095238D01*
X112785714Y-120190476D01*
X112833333Y-120380952D01*
X112833333Y-120523809D01*
X112785714Y-120714285D01*
X112738095Y-120809523D01*
X112642857Y-120904761D01*
X112500000Y-120952380D01*
X112404761Y-120952380D01*
X112261904Y-120904761D01*
X112214285Y-120857142D01*
X112214285Y-120523809D01*
X112404761Y-120523809D01*
X111785714Y-120952380D02*
X111785714Y-119952380D01*
X111214285Y-120952380D01*
X111214285Y-119952380D01*
X110738095Y-120952380D02*
X110738095Y-119952380D01*
X110500000Y-119952380D01*
X110357142Y-120000000D01*
X110261904Y-120095238D01*
X110214285Y-120190476D01*
X110166666Y-120380952D01*
X110166666Y-120523809D01*
X110214285Y-120714285D01*
X110261904Y-120809523D01*
X110357142Y-120904761D01*
X110500000Y-120952380D01*
X110738095Y-120952380D01*
X112904761Y-117452380D02*
X112571428Y-118452380D01*
X112238095Y-117452380D01*
X111761904Y-118452380D02*
X111857142Y-118404761D01*
X111904761Y-118357142D01*
X111952380Y-118261904D01*
X111952380Y-117976190D01*
X111904761Y-117880952D01*
X111857142Y-117833333D01*
X111761904Y-117785714D01*
X111619047Y-117785714D01*
X111523809Y-117833333D01*
X111476190Y-117880952D01*
X111428571Y-117976190D01*
X111428571Y-118261904D01*
X111476190Y-118357142D01*
X111523809Y-118404761D01*
X111619047Y-118452380D01*
X111761904Y-118452380D01*
X111000000Y-118071428D02*
X110238095Y-118071428D01*
X110619047Y-118452380D02*
X110619047Y-117690476D01*
X111738095Y-125428571D02*
X111404761Y-125428571D01*
X111261904Y-125952380D02*
X111738095Y-125952380D01*
X111738095Y-124952380D01*
X111261904Y-124952380D01*
X110833333Y-125952380D02*
X110833333Y-124952380D01*
X110261904Y-125952380D01*
X110261904Y-124952380D01*
D11*
%TO.C,K2*%
X156937380Y-80574523D02*
X156937380Y-79304523D01*
X156211666Y-80574523D02*
X156755952Y-79848809D01*
X156211666Y-79304523D02*
X156937380Y-80030238D01*
X155727857Y-79425476D02*
X155667380Y-79365000D01*
X155546428Y-79304523D01*
X155244047Y-79304523D01*
X155123095Y-79365000D01*
X155062619Y-79425476D01*
X155002142Y-79546428D01*
X155002142Y-79667380D01*
X155062619Y-79848809D01*
X155788333Y-80574523D01*
X155002142Y-80574523D01*
D10*
%TO.C,U1*%
X101216904Y-96452380D02*
X101216904Y-97261904D01*
X101169285Y-97357142D01*
X101121666Y-97404761D01*
X101026428Y-97452380D01*
X100835952Y-97452380D01*
X100740714Y-97404761D01*
X100693095Y-97357142D01*
X100645476Y-97261904D01*
X100645476Y-96452380D01*
X99645476Y-97452380D02*
X100216904Y-97452380D01*
X99931190Y-97452380D02*
X99931190Y-96452380D01*
X100026428Y-96595238D01*
X100121666Y-96690476D01*
X100216904Y-96738095D01*
%TO.C,J11*%
X105952380Y-116041428D02*
X104952380Y-116041428D01*
X104952380Y-116279523D01*
X105000000Y-116422380D01*
X105095238Y-116517619D01*
X105190476Y-116565238D01*
X105380952Y-116612857D01*
X105523809Y-116612857D01*
X105714285Y-116565238D01*
X105809523Y-116517619D01*
X105904761Y-116422380D01*
X105952380Y-116279523D01*
X105952380Y-116041428D01*
X105857142Y-117612857D02*
X105904761Y-117565238D01*
X105952380Y-117422380D01*
X105952380Y-117327142D01*
X105904761Y-117184285D01*
X105809523Y-117089047D01*
X105714285Y-117041428D01*
X105523809Y-116993809D01*
X105380952Y-116993809D01*
X105190476Y-117041428D01*
X105095238Y-117089047D01*
X105000000Y-117184285D01*
X104952380Y-117327142D01*
X104952380Y-117422380D01*
X105000000Y-117565238D01*
X105047619Y-117612857D01*
X106047619Y-117803333D02*
X106047619Y-118565238D01*
X105857142Y-119374761D02*
X105904761Y-119327142D01*
X105952380Y-119184285D01*
X105952380Y-119089047D01*
X105904761Y-118946190D01*
X105809523Y-118850952D01*
X105714285Y-118803333D01*
X105523809Y-118755714D01*
X105380952Y-118755714D01*
X105190476Y-118803333D01*
X105095238Y-118850952D01*
X105000000Y-118946190D01*
X104952380Y-119089047D01*
X104952380Y-119184285D01*
X105000000Y-119327142D01*
X105047619Y-119374761D01*
X105952380Y-119946190D02*
X105904761Y-119850952D01*
X105857142Y-119803333D01*
X105761904Y-119755714D01*
X105476190Y-119755714D01*
X105380952Y-119803333D01*
X105333333Y-119850952D01*
X105285714Y-119946190D01*
X105285714Y-120089047D01*
X105333333Y-120184285D01*
X105380952Y-120231904D01*
X105476190Y-120279523D01*
X105761904Y-120279523D01*
X105857142Y-120231904D01*
X105904761Y-120184285D01*
X105952380Y-120089047D01*
X105952380Y-119946190D01*
X105285714Y-120708095D02*
X105952380Y-120708095D01*
X105380952Y-120708095D02*
X105333333Y-120755714D01*
X105285714Y-120850952D01*
X105285714Y-120993809D01*
X105333333Y-121089047D01*
X105428571Y-121136666D01*
X105952380Y-121136666D01*
X105285714Y-121517619D02*
X105952380Y-121755714D01*
X105285714Y-121993809D01*
D11*
%TO.C,K3*%
X156937380Y-45074523D02*
X156937380Y-43804523D01*
X156211666Y-45074523D02*
X156755952Y-44348809D01*
X156211666Y-43804523D02*
X156937380Y-44530238D01*
X155788333Y-43804523D02*
X155002142Y-43804523D01*
X155425476Y-44288333D01*
X155244047Y-44288333D01*
X155123095Y-44348809D01*
X155062619Y-44409285D01*
X155002142Y-44530238D01*
X155002142Y-44832619D01*
X155062619Y-44953571D01*
X155123095Y-45014047D01*
X155244047Y-45074523D01*
X155606904Y-45074523D01*
X155727857Y-45014047D01*
X155788333Y-44953571D01*
%TO.C,K1*%
X156937380Y-62574523D02*
X156937380Y-61304523D01*
X156211666Y-62574523D02*
X156755952Y-61848809D01*
X156211666Y-61304523D02*
X156937380Y-62030238D01*
X155002142Y-62574523D02*
X155727857Y-62574523D01*
X155365000Y-62574523D02*
X155365000Y-61304523D01*
X155485952Y-61485952D01*
X155606904Y-61606904D01*
X155727857Y-61667380D01*
D12*
%TO.C,K2*%
X178250000Y-78580000D02*
X158770000Y-78580000D01*
X178250000Y-78580000D02*
X178250000Y-94080000D01*
X158800000Y-94080000D02*
X158800000Y-78580000D01*
X178250000Y-94080000D02*
X158800000Y-94080000D01*
D13*
%TO.C,U1*%
X98350000Y-56550000D02*
X150750000Y-56550000D01*
X150750000Y-56550000D02*
X150750000Y-94550000D01*
X98350000Y-94550000D02*
X150750000Y-94550000D01*
D14*
%TO.C,J11*%
X109580000Y-126650000D02*
X106920000Y-126650000D01*
X106920000Y-118970000D02*
X106920000Y-126650000D01*
X109580000Y-118970000D02*
X109580000Y-126650000D01*
X109580000Y-117700000D02*
X109580000Y-116370000D01*
X109580000Y-118970000D02*
X106920000Y-118970000D01*
X109580000Y-116370000D02*
X108250000Y-116370000D01*
D12*
%TO.C,K3*%
X178250000Y-43570000D02*
X178250000Y-59070000D01*
X178250000Y-59070000D02*
X158800000Y-59070000D01*
X158800000Y-59070000D02*
X158800000Y-43570000D01*
X178250000Y-43570000D02*
X158770000Y-43570000D01*
%TO.C,K1*%
X178250000Y-76580000D02*
X158800000Y-76580000D01*
X158800000Y-76580000D02*
X158800000Y-61080000D01*
X178250000Y-61080000D02*
X178250000Y-76580000D01*
X178250000Y-61080000D02*
X158770000Y-61080000D01*
%TD*%
M02*
