%TF.GenerationSoftware,KiCad,Pcbnew,6.0.11-2627ca5db0~126~ubuntu22.04.1*%
%TF.CreationDate,2023-02-25T17:34:07+01:00*%
%TF.ProjectId,pyroDirector,7079726f-4469-4726-9563-746f722e6b69,rev?*%
%TF.SameCoordinates,Original*%
%TF.FileFunction,Legend,Top*%
%TF.FilePolarity,Positive*%
%FSLAX46Y46*%
G04 Gerber Fmt 4.6, Leading zero omitted, Abs format (unit mm)*
G04 Created by KiCad (PCBNEW 6.0.11-2627ca5db0~126~ubuntu22.04.1) date 2023-02-25 17:34:07*
%MOMM*%
%LPD*%
G01*
G04 APERTURE LIST*
%ADD10C,0.150000*%
%ADD11C,0.120000*%
%ADD12C,0.127000*%
%ADD13C,0.300000*%
%ADD14C,0.200000*%
G04 APERTURE END LIST*
D10*
X137992857Y-72611904D02*
X137992857Y-71811904D01*
X138259523Y-72383333D01*
X138526190Y-71811904D01*
X138526190Y-72611904D01*
X139059523Y-71811904D02*
X139211904Y-71811904D01*
X139288095Y-71850000D01*
X139364285Y-71926190D01*
X139402380Y-72078571D01*
X139402380Y-72345238D01*
X139364285Y-72497619D01*
X139288095Y-72573809D01*
X139211904Y-72611904D01*
X139059523Y-72611904D01*
X138983333Y-72573809D01*
X138907142Y-72497619D01*
X138869047Y-72345238D01*
X138869047Y-72078571D01*
X138907142Y-71926190D01*
X138983333Y-71850000D01*
X139059523Y-71811904D01*
X139707142Y-72573809D02*
X139821428Y-72611904D01*
X140011904Y-72611904D01*
X140088095Y-72573809D01*
X140126190Y-72535714D01*
X140164285Y-72459523D01*
X140164285Y-72383333D01*
X140126190Y-72307142D01*
X140088095Y-72269047D01*
X140011904Y-72230952D01*
X139859523Y-72192857D01*
X139783333Y-72154761D01*
X139745238Y-72116666D01*
X139707142Y-72040476D01*
X139707142Y-71964285D01*
X139745238Y-71888095D01*
X139783333Y-71850000D01*
X139859523Y-71811904D01*
X140050000Y-71811904D01*
X140164285Y-71850000D01*
X140507142Y-72611904D02*
X140507142Y-71811904D01*
X137992857Y-70111904D02*
X137992857Y-69311904D01*
X138259523Y-69883333D01*
X138526190Y-69311904D01*
X138526190Y-70111904D01*
X138907142Y-70111904D02*
X138907142Y-69311904D01*
X139250000Y-70073809D02*
X139364285Y-70111904D01*
X139554761Y-70111904D01*
X139630952Y-70073809D01*
X139669047Y-70035714D01*
X139707142Y-69959523D01*
X139707142Y-69883333D01*
X139669047Y-69807142D01*
X139630952Y-69769047D01*
X139554761Y-69730952D01*
X139402380Y-69692857D01*
X139326190Y-69654761D01*
X139288095Y-69616666D01*
X139250000Y-69540476D01*
X139250000Y-69464285D01*
X139288095Y-69388095D01*
X139326190Y-69350000D01*
X139402380Y-69311904D01*
X139592857Y-69311904D01*
X139707142Y-69350000D01*
X140202380Y-69311904D02*
X140354761Y-69311904D01*
X140430952Y-69350000D01*
X140507142Y-69426190D01*
X140545238Y-69578571D01*
X140545238Y-69845238D01*
X140507142Y-69997619D01*
X140430952Y-70073809D01*
X140354761Y-70111904D01*
X140202380Y-70111904D01*
X140126190Y-70073809D01*
X140050000Y-69997619D01*
X140011904Y-69845238D01*
X140011904Y-69578571D01*
X140050000Y-69426190D01*
X140126190Y-69350000D01*
X140202380Y-69311904D01*
X143971428Y-67573809D02*
X144085714Y-67611904D01*
X144276190Y-67611904D01*
X144352380Y-67573809D01*
X144390476Y-67535714D01*
X144428571Y-67459523D01*
X144428571Y-67383333D01*
X144390476Y-67307142D01*
X144352380Y-67269047D01*
X144276190Y-67230952D01*
X144123809Y-67192857D01*
X144047619Y-67154761D01*
X144009523Y-67116666D01*
X143971428Y-67040476D01*
X143971428Y-66964285D01*
X144009523Y-66888095D01*
X144047619Y-66850000D01*
X144123809Y-66811904D01*
X144314285Y-66811904D01*
X144428571Y-66850000D01*
X145228571Y-67535714D02*
X145190476Y-67573809D01*
X145076190Y-67611904D01*
X145000000Y-67611904D01*
X144885714Y-67573809D01*
X144809523Y-67497619D01*
X144771428Y-67421428D01*
X144733333Y-67269047D01*
X144733333Y-67154761D01*
X144771428Y-67002380D01*
X144809523Y-66926190D01*
X144885714Y-66850000D01*
X145000000Y-66811904D01*
X145076190Y-66811904D01*
X145190476Y-66850000D01*
X145228571Y-66888095D01*
X145571428Y-67611904D02*
X145571428Y-66811904D01*
X146028571Y-67611904D02*
X145685714Y-67154761D01*
X146028571Y-66811904D02*
X145571428Y-67269047D01*
X144561904Y-65111904D02*
X144295238Y-64730952D01*
X144104761Y-65111904D02*
X144104761Y-64311904D01*
X144409523Y-64311904D01*
X144485714Y-64350000D01*
X144523809Y-64388095D01*
X144561904Y-64464285D01*
X144561904Y-64578571D01*
X144523809Y-64654761D01*
X144485714Y-64692857D01*
X144409523Y-64730952D01*
X144104761Y-64730952D01*
X144866666Y-65073809D02*
X144980952Y-65111904D01*
X145171428Y-65111904D01*
X145247619Y-65073809D01*
X145285714Y-65035714D01*
X145323809Y-64959523D01*
X145323809Y-64883333D01*
X145285714Y-64807142D01*
X145247619Y-64769047D01*
X145171428Y-64730952D01*
X145019047Y-64692857D01*
X144942857Y-64654761D01*
X144904761Y-64616666D01*
X144866666Y-64540476D01*
X144866666Y-64464285D01*
X144904761Y-64388095D01*
X144942857Y-64350000D01*
X145019047Y-64311904D01*
X145209523Y-64311904D01*
X145323809Y-64350000D01*
X145552380Y-64311904D02*
X146009523Y-64311904D01*
X145780952Y-65111904D02*
X145780952Y-64311904D01*
X184871428Y-96311904D02*
X184871428Y-96959523D01*
X184909523Y-97035714D01*
X184947619Y-97073809D01*
X185023809Y-97111904D01*
X185176190Y-97111904D01*
X185252380Y-97073809D01*
X185290476Y-97035714D01*
X185328571Y-96959523D01*
X185328571Y-96311904D01*
X185709523Y-97111904D02*
X185709523Y-96311904D01*
X186014285Y-96311904D01*
X186090476Y-96350000D01*
X186128571Y-96388095D01*
X186166666Y-96464285D01*
X186166666Y-96578571D01*
X186128571Y-96654761D01*
X186090476Y-96692857D01*
X186014285Y-96730952D01*
X185709523Y-96730952D01*
X144333333Y-141857142D02*
X144285714Y-141904761D01*
X144142857Y-141952380D01*
X144047619Y-141952380D01*
X143904761Y-141904761D01*
X143809523Y-141809523D01*
X143761904Y-141714285D01*
X143714285Y-141523809D01*
X143714285Y-141380952D01*
X143761904Y-141190476D01*
X143809523Y-141095238D01*
X143904761Y-141000000D01*
X144047619Y-140952380D01*
X144142857Y-140952380D01*
X144285714Y-141000000D01*
X144333333Y-141047619D01*
X145190476Y-141952380D02*
X145190476Y-141428571D01*
X145142857Y-141333333D01*
X145047619Y-141285714D01*
X144857142Y-141285714D01*
X144761904Y-141333333D01*
X145190476Y-141904761D02*
X145095238Y-141952380D01*
X144857142Y-141952380D01*
X144761904Y-141904761D01*
X144714285Y-141809523D01*
X144714285Y-141714285D01*
X144761904Y-141619047D01*
X144857142Y-141571428D01*
X145095238Y-141571428D01*
X145190476Y-141523809D01*
X145666666Y-141952380D02*
X145666666Y-141285714D01*
X145666666Y-141380952D02*
X145714285Y-141333333D01*
X145809523Y-141285714D01*
X145952380Y-141285714D01*
X146047619Y-141333333D01*
X146095238Y-141428571D01*
X146095238Y-141952380D01*
X146095238Y-141428571D02*
X146142857Y-141333333D01*
X146238095Y-141285714D01*
X146380952Y-141285714D01*
X146476190Y-141333333D01*
X146523809Y-141428571D01*
X146523809Y-141952380D01*
X148285714Y-141952380D02*
X147714285Y-141952380D01*
X148000000Y-141952380D02*
X148000000Y-140952380D01*
X147904761Y-141095238D01*
X147809523Y-141190476D01*
X147714285Y-141238095D01*
X179604761Y-97035714D02*
X179566666Y-97073809D01*
X179452380Y-97111904D01*
X179376190Y-97111904D01*
X179261904Y-97073809D01*
X179185714Y-96997619D01*
X179147619Y-96921428D01*
X179109523Y-96769047D01*
X179109523Y-96654761D01*
X179147619Y-96502380D01*
X179185714Y-96426190D01*
X179261904Y-96350000D01*
X179376190Y-96311904D01*
X179452380Y-96311904D01*
X179566666Y-96350000D01*
X179604761Y-96388095D01*
X179947619Y-97111904D02*
X179947619Y-96311904D01*
X180404761Y-97111904D01*
X180404761Y-96311904D01*
X181242857Y-97035714D02*
X181204761Y-97073809D01*
X181090476Y-97111904D01*
X181014285Y-97111904D01*
X180900000Y-97073809D01*
X180823809Y-96997619D01*
X180785714Y-96921428D01*
X180747619Y-96769047D01*
X180747619Y-96654761D01*
X180785714Y-96502380D01*
X180823809Y-96426190D01*
X180900000Y-96350000D01*
X181014285Y-96311904D01*
X181090476Y-96311904D01*
X181204761Y-96350000D01*
X181242857Y-96388095D01*
X181966666Y-97111904D02*
X181585714Y-97111904D01*
X181585714Y-96311904D01*
X180494285Y-105952380D02*
X180494285Y-106761904D01*
X180541904Y-106857142D01*
X180589523Y-106904761D01*
X180684761Y-106952380D01*
X180875238Y-106952380D01*
X180970476Y-106904761D01*
X181018095Y-106857142D01*
X181065714Y-106761904D01*
X181065714Y-105952380D01*
X181541904Y-106952380D02*
X181541904Y-105952380D01*
X181922857Y-105952380D01*
X182018095Y-106000000D01*
X182065714Y-106047619D01*
X182113333Y-106142857D01*
X182113333Y-106285714D01*
X182065714Y-106380952D01*
X182018095Y-106428571D01*
X181922857Y-106476190D01*
X181541904Y-106476190D01*
X160833333Y-141857142D02*
X160785714Y-141904761D01*
X160642857Y-141952380D01*
X160547619Y-141952380D01*
X160404761Y-141904761D01*
X160309523Y-141809523D01*
X160261904Y-141714285D01*
X160214285Y-141523809D01*
X160214285Y-141380952D01*
X160261904Y-141190476D01*
X160309523Y-141095238D01*
X160404761Y-141000000D01*
X160547619Y-140952380D01*
X160642857Y-140952380D01*
X160785714Y-141000000D01*
X160833333Y-141047619D01*
X161690476Y-141952380D02*
X161690476Y-141428571D01*
X161642857Y-141333333D01*
X161547619Y-141285714D01*
X161357142Y-141285714D01*
X161261904Y-141333333D01*
X161690476Y-141904761D02*
X161595238Y-141952380D01*
X161357142Y-141952380D01*
X161261904Y-141904761D01*
X161214285Y-141809523D01*
X161214285Y-141714285D01*
X161261904Y-141619047D01*
X161357142Y-141571428D01*
X161595238Y-141571428D01*
X161690476Y-141523809D01*
X162166666Y-141952380D02*
X162166666Y-141285714D01*
X162166666Y-141380952D02*
X162214285Y-141333333D01*
X162309523Y-141285714D01*
X162452380Y-141285714D01*
X162547619Y-141333333D01*
X162595238Y-141428571D01*
X162595238Y-141952380D01*
X162595238Y-141428571D02*
X162642857Y-141333333D01*
X162738095Y-141285714D01*
X162880952Y-141285714D01*
X162976190Y-141333333D01*
X163023809Y-141428571D01*
X163023809Y-141952380D01*
X164214285Y-141047619D02*
X164261904Y-141000000D01*
X164357142Y-140952380D01*
X164595238Y-140952380D01*
X164690476Y-141000000D01*
X164738095Y-141047619D01*
X164785714Y-141142857D01*
X164785714Y-141238095D01*
X164738095Y-141380952D01*
X164166666Y-141952380D01*
X164785714Y-141952380D01*
X189433333Y-97111904D02*
X189166666Y-96730952D01*
X188976190Y-97111904D02*
X188976190Y-96311904D01*
X189280952Y-96311904D01*
X189357142Y-96350000D01*
X189395238Y-96388095D01*
X189433333Y-96464285D01*
X189433333Y-96578571D01*
X189395238Y-96654761D01*
X189357142Y-96692857D01*
X189280952Y-96730952D01*
X188976190Y-96730952D01*
X189776190Y-97111904D02*
X189776190Y-96311904D01*
X190576190Y-96350000D02*
X190500000Y-96311904D01*
X190385714Y-96311904D01*
X190271428Y-96350000D01*
X190195238Y-96426190D01*
X190157142Y-96502380D01*
X190119047Y-96654761D01*
X190119047Y-96769047D01*
X190157142Y-96921428D01*
X190195238Y-96997619D01*
X190271428Y-97073809D01*
X190385714Y-97111904D01*
X190461904Y-97111904D01*
X190576190Y-97073809D01*
X190614285Y-97035714D01*
X190614285Y-96769047D01*
X190461904Y-96769047D01*
X190957142Y-97111904D02*
X190957142Y-96311904D01*
X190957142Y-96692857D02*
X191414285Y-96692857D01*
X191414285Y-97111904D02*
X191414285Y-96311904D01*
X191680952Y-96311904D02*
X192138095Y-96311904D01*
X191909523Y-97111904D02*
X191909523Y-96311904D01*
X187238095Y-101611904D02*
X186857142Y-101611904D01*
X186857142Y-100811904D01*
X187504761Y-101192857D02*
X187771428Y-101192857D01*
X187885714Y-101611904D02*
X187504761Y-101611904D01*
X187504761Y-100811904D01*
X187885714Y-100811904D01*
X188495238Y-101192857D02*
X188228571Y-101192857D01*
X188228571Y-101611904D02*
X188228571Y-100811904D01*
X188609523Y-100811904D01*
X188800000Y-100811904D02*
X189257142Y-100811904D01*
X189028571Y-101611904D02*
X189028571Y-100811904D01*
X185184761Y-123882380D02*
X185375238Y-123882380D01*
X185470476Y-123930000D01*
X185565714Y-124025238D01*
X185613333Y-124215714D01*
X185613333Y-124549047D01*
X185565714Y-124739523D01*
X185470476Y-124834761D01*
X185375238Y-124882380D01*
X185184761Y-124882380D01*
X185089523Y-124834761D01*
X184994285Y-124739523D01*
X184946666Y-124549047D01*
X184946666Y-124215714D01*
X184994285Y-124025238D01*
X185089523Y-123930000D01*
X185184761Y-123882380D01*
X186041904Y-124882380D02*
X186041904Y-123882380D01*
X186613333Y-124882380D02*
X186184761Y-124310952D01*
X186613333Y-123882380D02*
X186041904Y-124453809D01*
X181495238Y-101611904D02*
X181495238Y-100811904D01*
X181685714Y-100811904D01*
X181800000Y-100850000D01*
X181876190Y-100926190D01*
X181914285Y-101002380D01*
X181952380Y-101154761D01*
X181952380Y-101269047D01*
X181914285Y-101421428D01*
X181876190Y-101497619D01*
X181800000Y-101573809D01*
X181685714Y-101611904D01*
X181495238Y-101611904D01*
X182447619Y-100811904D02*
X182600000Y-100811904D01*
X182676190Y-100850000D01*
X182752380Y-100926190D01*
X182790476Y-101078571D01*
X182790476Y-101345238D01*
X182752380Y-101497619D01*
X182676190Y-101573809D01*
X182600000Y-101611904D01*
X182447619Y-101611904D01*
X182371428Y-101573809D01*
X182295238Y-101497619D01*
X182257142Y-101345238D01*
X182257142Y-101078571D01*
X182295238Y-100926190D01*
X182371428Y-100850000D01*
X182447619Y-100811904D01*
X183057142Y-100811904D02*
X183247619Y-101611904D01*
X183400000Y-101040476D01*
X183552380Y-101611904D01*
X183742857Y-100811904D01*
X184047619Y-101611904D02*
X184047619Y-100811904D01*
X184504761Y-101611904D01*
X184504761Y-100811904D01*
X177333333Y-141857142D02*
X177285714Y-141904761D01*
X177142857Y-141952380D01*
X177047619Y-141952380D01*
X176904761Y-141904761D01*
X176809523Y-141809523D01*
X176761904Y-141714285D01*
X176714285Y-141523809D01*
X176714285Y-141380952D01*
X176761904Y-141190476D01*
X176809523Y-141095238D01*
X176904761Y-141000000D01*
X177047619Y-140952380D01*
X177142857Y-140952380D01*
X177285714Y-141000000D01*
X177333333Y-141047619D01*
X178190476Y-141952380D02*
X178190476Y-141428571D01*
X178142857Y-141333333D01*
X178047619Y-141285714D01*
X177857142Y-141285714D01*
X177761904Y-141333333D01*
X178190476Y-141904761D02*
X178095238Y-141952380D01*
X177857142Y-141952380D01*
X177761904Y-141904761D01*
X177714285Y-141809523D01*
X177714285Y-141714285D01*
X177761904Y-141619047D01*
X177857142Y-141571428D01*
X178095238Y-141571428D01*
X178190476Y-141523809D01*
X178666666Y-141952380D02*
X178666666Y-141285714D01*
X178666666Y-141380952D02*
X178714285Y-141333333D01*
X178809523Y-141285714D01*
X178952380Y-141285714D01*
X179047619Y-141333333D01*
X179095238Y-141428571D01*
X179095238Y-141952380D01*
X179095238Y-141428571D02*
X179142857Y-141333333D01*
X179238095Y-141285714D01*
X179380952Y-141285714D01*
X179476190Y-141333333D01*
X179523809Y-141428571D01*
X179523809Y-141952380D01*
X180666666Y-140952380D02*
X181285714Y-140952380D01*
X180952380Y-141333333D01*
X181095238Y-141333333D01*
X181190476Y-141380952D01*
X181238095Y-141428571D01*
X181285714Y-141523809D01*
X181285714Y-141761904D01*
X181238095Y-141857142D01*
X181190476Y-141904761D01*
X181095238Y-141952380D01*
X180809523Y-141952380D01*
X180714285Y-141904761D01*
X180666666Y-141857142D01*
X166000000Y-124787142D02*
X165952380Y-124834761D01*
X165809523Y-124882380D01*
X165714285Y-124882380D01*
X165571428Y-124834761D01*
X165476190Y-124739523D01*
X165428571Y-124644285D01*
X165380952Y-124453809D01*
X165380952Y-124310952D01*
X165428571Y-124120476D01*
X165476190Y-124025238D01*
X165571428Y-123930000D01*
X165714285Y-123882380D01*
X165809523Y-123882380D01*
X165952380Y-123930000D01*
X166000000Y-123977619D01*
X166380952Y-124596666D02*
X166857142Y-124596666D01*
X166285714Y-124882380D02*
X166619047Y-123882380D01*
X166952380Y-124882380D01*
X167285714Y-124882380D02*
X167285714Y-123882380D01*
X167857142Y-124882380D01*
X167857142Y-123882380D01*
X168904761Y-124787142D02*
X168857142Y-124834761D01*
X168714285Y-124882380D01*
X168619047Y-124882380D01*
X168476190Y-124834761D01*
X168380952Y-124739523D01*
X168333333Y-124644285D01*
X168285714Y-124453809D01*
X168285714Y-124310952D01*
X168333333Y-124120476D01*
X168380952Y-124025238D01*
X168476190Y-123930000D01*
X168619047Y-123882380D01*
X168714285Y-123882380D01*
X168857142Y-123930000D01*
X168904761Y-123977619D01*
X169333333Y-124358571D02*
X169666666Y-124358571D01*
X169809523Y-124882380D02*
X169333333Y-124882380D01*
X169333333Y-123882380D01*
X169809523Y-123882380D01*
X170714285Y-124882380D02*
X170238095Y-124882380D01*
X170238095Y-123882380D01*
X127523809Y-140452380D02*
X128095238Y-140452380D01*
X127809523Y-141452380D02*
X127809523Y-140452380D01*
X128428571Y-141452380D02*
X128428571Y-140785714D01*
X128428571Y-140976190D02*
X128476190Y-140880952D01*
X128523809Y-140833333D01*
X128619047Y-140785714D01*
X128714285Y-140785714D01*
X129047619Y-141452380D02*
X129047619Y-140785714D01*
X129047619Y-140452380D02*
X129000000Y-140500000D01*
X129047619Y-140547619D01*
X129095238Y-140500000D01*
X129047619Y-140452380D01*
X129047619Y-140547619D01*
X129952380Y-140785714D02*
X129952380Y-141595238D01*
X129904761Y-141690476D01*
X129857142Y-141738095D01*
X129761904Y-141785714D01*
X129619047Y-141785714D01*
X129523809Y-141738095D01*
X129952380Y-141404761D02*
X129857142Y-141452380D01*
X129666666Y-141452380D01*
X129571428Y-141404761D01*
X129523809Y-141357142D01*
X129476190Y-141261904D01*
X129476190Y-140976190D01*
X129523809Y-140880952D01*
X129571428Y-140833333D01*
X129666666Y-140785714D01*
X129857142Y-140785714D01*
X129952380Y-140833333D01*
X130857142Y-140785714D02*
X130857142Y-141595238D01*
X130809523Y-141690476D01*
X130761904Y-141738095D01*
X130666666Y-141785714D01*
X130523809Y-141785714D01*
X130428571Y-141738095D01*
X130857142Y-141404761D02*
X130761904Y-141452380D01*
X130571428Y-141452380D01*
X130476190Y-141404761D01*
X130428571Y-141357142D01*
X130380952Y-141261904D01*
X130380952Y-140976190D01*
X130428571Y-140880952D01*
X130476190Y-140833333D01*
X130571428Y-140785714D01*
X130761904Y-140785714D01*
X130857142Y-140833333D01*
X131714285Y-141404761D02*
X131619047Y-141452380D01*
X131428571Y-141452380D01*
X131333333Y-141404761D01*
X131285714Y-141309523D01*
X131285714Y-140928571D01*
X131333333Y-140833333D01*
X131428571Y-140785714D01*
X131619047Y-140785714D01*
X131714285Y-140833333D01*
X131761904Y-140928571D01*
X131761904Y-141023809D01*
X131285714Y-141119047D01*
X132190476Y-141452380D02*
X132190476Y-140785714D01*
X132190476Y-140976190D02*
X132238095Y-140880952D01*
X132285714Y-140833333D01*
X132380952Y-140785714D01*
X132476190Y-140785714D01*
X167047619Y-109642380D02*
X166571428Y-109642380D01*
X166571428Y-108642380D01*
X167380952Y-109118571D02*
X167714285Y-109118571D01*
X167857142Y-109642380D02*
X167380952Y-109642380D01*
X167380952Y-108642380D01*
X167857142Y-108642380D01*
X168619047Y-109118571D02*
X168285714Y-109118571D01*
X168285714Y-109642380D02*
X168285714Y-108642380D01*
X168761904Y-108642380D01*
X169000000Y-108642380D02*
X169571428Y-108642380D01*
X169285714Y-109642380D02*
X169285714Y-108642380D01*
X184446666Y-109642380D02*
X184113333Y-109166190D01*
X183875238Y-109642380D02*
X183875238Y-108642380D01*
X184256190Y-108642380D01*
X184351428Y-108690000D01*
X184399047Y-108737619D01*
X184446666Y-108832857D01*
X184446666Y-108975714D01*
X184399047Y-109070952D01*
X184351428Y-109118571D01*
X184256190Y-109166190D01*
X183875238Y-109166190D01*
X184875238Y-109642380D02*
X184875238Y-108642380D01*
X185875238Y-108690000D02*
X185780000Y-108642380D01*
X185637142Y-108642380D01*
X185494285Y-108690000D01*
X185399047Y-108785238D01*
X185351428Y-108880476D01*
X185303809Y-109070952D01*
X185303809Y-109213809D01*
X185351428Y-109404285D01*
X185399047Y-109499523D01*
X185494285Y-109594761D01*
X185637142Y-109642380D01*
X185732380Y-109642380D01*
X185875238Y-109594761D01*
X185922857Y-109547142D01*
X185922857Y-109213809D01*
X185732380Y-109213809D01*
X186351428Y-109642380D02*
X186351428Y-108642380D01*
X186351428Y-109118571D02*
X186922857Y-109118571D01*
X186922857Y-109642380D02*
X186922857Y-108642380D01*
X187256190Y-108642380D02*
X187827619Y-108642380D01*
X187541904Y-109642380D02*
X187541904Y-108642380D01*
X175009047Y-117262380D02*
X175009047Y-116262380D01*
X175247142Y-116262380D01*
X175390000Y-116310000D01*
X175485238Y-116405238D01*
X175532857Y-116500476D01*
X175580476Y-116690952D01*
X175580476Y-116833809D01*
X175532857Y-117024285D01*
X175485238Y-117119523D01*
X175390000Y-117214761D01*
X175247142Y-117262380D01*
X175009047Y-117262380D01*
X176199523Y-116262380D02*
X176390000Y-116262380D01*
X176485238Y-116310000D01*
X176580476Y-116405238D01*
X176628095Y-116595714D01*
X176628095Y-116929047D01*
X176580476Y-117119523D01*
X176485238Y-117214761D01*
X176390000Y-117262380D01*
X176199523Y-117262380D01*
X176104285Y-117214761D01*
X176009047Y-117119523D01*
X175961428Y-116929047D01*
X175961428Y-116595714D01*
X176009047Y-116405238D01*
X176104285Y-116310000D01*
X176199523Y-116262380D01*
X176961428Y-116262380D02*
X177199523Y-117262380D01*
X177390000Y-116548095D01*
X177580476Y-117262380D01*
X177818571Y-116262380D01*
X178199523Y-117262380D02*
X178199523Y-116262380D01*
X178770952Y-117262380D01*
X178770952Y-116262380D01*
X192773809Y-100811904D02*
X192926190Y-100811904D01*
X193002380Y-100850000D01*
X193078571Y-100926190D01*
X193116666Y-101078571D01*
X193116666Y-101345238D01*
X193078571Y-101497619D01*
X193002380Y-101573809D01*
X192926190Y-101611904D01*
X192773809Y-101611904D01*
X192697619Y-101573809D01*
X192621428Y-101497619D01*
X192583333Y-101345238D01*
X192583333Y-101078571D01*
X192621428Y-100926190D01*
X192697619Y-100850000D01*
X192773809Y-100811904D01*
X193459523Y-101611904D02*
X193459523Y-100811904D01*
X193916666Y-101611904D02*
X193573809Y-101154761D01*
X193916666Y-100811904D02*
X193459523Y-101269047D01*
X177140476Y-100850000D02*
X177064285Y-100811904D01*
X176950000Y-100811904D01*
X176835714Y-100850000D01*
X176759523Y-100926190D01*
X176721428Y-101002380D01*
X176683333Y-101154761D01*
X176683333Y-101269047D01*
X176721428Y-101421428D01*
X176759523Y-101497619D01*
X176835714Y-101573809D01*
X176950000Y-101611904D01*
X177026190Y-101611904D01*
X177140476Y-101573809D01*
X177178571Y-101535714D01*
X177178571Y-101269047D01*
X177026190Y-101269047D01*
X177521428Y-101611904D02*
X177521428Y-100811904D01*
X177978571Y-101611904D01*
X177978571Y-100811904D01*
X178359523Y-101611904D02*
X178359523Y-100811904D01*
X178550000Y-100811904D01*
X178664285Y-100850000D01*
X178740476Y-100926190D01*
X178778571Y-101002380D01*
X178816666Y-101154761D01*
X178816666Y-101269047D01*
X178778571Y-101421428D01*
X178740476Y-101497619D01*
X178664285Y-101573809D01*
X178550000Y-101611904D01*
X178359523Y-101611904D01*
%TO.C,R6*%
X150333333Y-109452380D02*
X150000000Y-108976190D01*
X149761904Y-109452380D02*
X149761904Y-108452380D01*
X150142857Y-108452380D01*
X150238095Y-108500000D01*
X150285714Y-108547619D01*
X150333333Y-108642857D01*
X150333333Y-108785714D01*
X150285714Y-108880952D01*
X150238095Y-108928571D01*
X150142857Y-108976190D01*
X149761904Y-108976190D01*
X151190476Y-108452380D02*
X151000000Y-108452380D01*
X150904761Y-108500000D01*
X150857142Y-108547619D01*
X150761904Y-108690476D01*
X150714285Y-108880952D01*
X150714285Y-109261904D01*
X150761904Y-109357142D01*
X150809523Y-109404761D01*
X150904761Y-109452380D01*
X151095238Y-109452380D01*
X151190476Y-109404761D01*
X151238095Y-109357142D01*
X151285714Y-109261904D01*
X151285714Y-109023809D01*
X151238095Y-108928571D01*
X151190476Y-108880952D01*
X151095238Y-108833333D01*
X150904761Y-108833333D01*
X150809523Y-108880952D01*
X150761904Y-108928571D01*
X150714285Y-109023809D01*
%TO.C,J19*%
X183351360Y-132061214D02*
X183351360Y-132633543D01*
X183313205Y-132748009D01*
X183236895Y-132824319D01*
X183122429Y-132862474D01*
X183046119Y-132862474D01*
X184152620Y-132862474D02*
X183694758Y-132862474D01*
X183923689Y-132862474D02*
X183923689Y-132061214D01*
X183847379Y-132175680D01*
X183771068Y-132251990D01*
X183694758Y-132290146D01*
X184534173Y-132862474D02*
X184686794Y-132862474D01*
X184763104Y-132824319D01*
X184801260Y-132786164D01*
X184877570Y-132671698D01*
X184915725Y-132519077D01*
X184915725Y-132213835D01*
X184877570Y-132137525D01*
X184839415Y-132099370D01*
X184763104Y-132061214D01*
X184610483Y-132061214D01*
X184534173Y-132099370D01*
X184496018Y-132137525D01*
X184457862Y-132213835D01*
X184457862Y-132404611D01*
X184496018Y-132480922D01*
X184534173Y-132519077D01*
X184610483Y-132557232D01*
X184763104Y-132557232D01*
X184839415Y-132519077D01*
X184877570Y-132480922D01*
X184915725Y-132404611D01*
%TO.C,J17*%
X167355460Y-132034814D02*
X167355460Y-132607143D01*
X167317305Y-132721609D01*
X167240995Y-132797919D01*
X167126529Y-132836074D01*
X167050219Y-132836074D01*
X168156720Y-132836074D02*
X167698858Y-132836074D01*
X167927789Y-132836074D02*
X167927789Y-132034814D01*
X167851479Y-132149280D01*
X167775168Y-132225590D01*
X167698858Y-132263746D01*
X168423807Y-132034814D02*
X168957980Y-132034814D01*
X168614583Y-132836074D01*
%TO.C,J15*%
X150851360Y-132061214D02*
X150851360Y-132633543D01*
X150813205Y-132748009D01*
X150736895Y-132824319D01*
X150622429Y-132862474D01*
X150546119Y-132862474D01*
X151652620Y-132862474D02*
X151194758Y-132862474D01*
X151423689Y-132862474D02*
X151423689Y-132061214D01*
X151347379Y-132175680D01*
X151271068Y-132251990D01*
X151194758Y-132290146D01*
X152377570Y-132061214D02*
X151996018Y-132061214D01*
X151957862Y-132442767D01*
X151996018Y-132404611D01*
X152072328Y-132366456D01*
X152263104Y-132366456D01*
X152339415Y-132404611D01*
X152377570Y-132442767D01*
X152415725Y-132519077D01*
X152415725Y-132709853D01*
X152377570Y-132786164D01*
X152339415Y-132824319D01*
X152263104Y-132862474D01*
X152072328Y-132862474D01*
X151996018Y-132824319D01*
X151957862Y-132786164D01*
%TO.C,J2*%
X139666666Y-137452380D02*
X139666666Y-138166666D01*
X139619047Y-138309523D01*
X139523809Y-138404761D01*
X139380952Y-138452380D01*
X139285714Y-138452380D01*
X140095238Y-137547619D02*
X140142857Y-137500000D01*
X140238095Y-137452380D01*
X140476190Y-137452380D01*
X140571428Y-137500000D01*
X140619047Y-137547619D01*
X140666666Y-137642857D01*
X140666666Y-137738095D01*
X140619047Y-137880952D01*
X140047619Y-138452380D01*
X140666666Y-138452380D01*
%TO.C,J8*%
X117525238Y-141562380D02*
X117525238Y-140562380D01*
X117906190Y-140562380D01*
X118001428Y-140610000D01*
X118049047Y-140657619D01*
X118096666Y-140752857D01*
X118096666Y-140895714D01*
X118049047Y-140990952D01*
X118001428Y-141038571D01*
X117906190Y-141086190D01*
X117525238Y-141086190D01*
X118430000Y-140562380D02*
X118668095Y-141562380D01*
X118858571Y-140848095D01*
X119049047Y-141562380D01*
X119287142Y-140562380D01*
X120239523Y-141562380D02*
X119906190Y-141086190D01*
X119668095Y-141562380D02*
X119668095Y-140562380D01*
X120049047Y-140562380D01*
X120144285Y-140610000D01*
X120191904Y-140657619D01*
X120239523Y-140752857D01*
X120239523Y-140895714D01*
X120191904Y-140990952D01*
X120144285Y-141038571D01*
X120049047Y-141086190D01*
X119668095Y-141086190D01*
X120430000Y-141657619D02*
X121191904Y-141657619D01*
X121382380Y-141514761D02*
X121525238Y-141562380D01*
X121763333Y-141562380D01*
X121858571Y-141514761D01*
X121906190Y-141467142D01*
X121953809Y-141371904D01*
X121953809Y-141276666D01*
X121906190Y-141181428D01*
X121858571Y-141133809D01*
X121763333Y-141086190D01*
X121572857Y-141038571D01*
X121477619Y-140990952D01*
X121430000Y-140943333D01*
X121382380Y-140848095D01*
X121382380Y-140752857D01*
X121430000Y-140657619D01*
X121477619Y-140610000D01*
X121572857Y-140562380D01*
X121810952Y-140562380D01*
X121953809Y-140610000D01*
X122287142Y-140562380D02*
X122525238Y-141562380D01*
X122715714Y-140848095D01*
X122906190Y-141562380D01*
X123144285Y-140562380D01*
X123525238Y-141562380D02*
X123525238Y-140562380D01*
X123858571Y-140562380D02*
X124430000Y-140562380D01*
X124144285Y-141562380D02*
X124144285Y-140562380D01*
X125334761Y-141467142D02*
X125287142Y-141514761D01*
X125144285Y-141562380D01*
X125049047Y-141562380D01*
X124906190Y-141514761D01*
X124810952Y-141419523D01*
X124763333Y-141324285D01*
X124715714Y-141133809D01*
X124715714Y-140990952D01*
X124763333Y-140800476D01*
X124810952Y-140705238D01*
X124906190Y-140610000D01*
X125049047Y-140562380D01*
X125144285Y-140562380D01*
X125287142Y-140610000D01*
X125334761Y-140657619D01*
X125763333Y-141562380D02*
X125763333Y-140562380D01*
X125763333Y-141038571D02*
X126334761Y-141038571D01*
X126334761Y-141562380D02*
X126334761Y-140562380D01*
%TO.C,J9*%
X110977619Y-141038571D02*
X111120476Y-141086190D01*
X111168095Y-141133809D01*
X111215714Y-141229047D01*
X111215714Y-141371904D01*
X111168095Y-141467142D01*
X111120476Y-141514761D01*
X111025238Y-141562380D01*
X110644285Y-141562380D01*
X110644285Y-140562380D01*
X110977619Y-140562380D01*
X111072857Y-140610000D01*
X111120476Y-140657619D01*
X111168095Y-140752857D01*
X111168095Y-140848095D01*
X111120476Y-140943333D01*
X111072857Y-140990952D01*
X110977619Y-141038571D01*
X110644285Y-141038571D01*
X112072857Y-141562380D02*
X112072857Y-141038571D01*
X112025238Y-140943333D01*
X111930000Y-140895714D01*
X111739523Y-140895714D01*
X111644285Y-140943333D01*
X112072857Y-141514761D02*
X111977619Y-141562380D01*
X111739523Y-141562380D01*
X111644285Y-141514761D01*
X111596666Y-141419523D01*
X111596666Y-141324285D01*
X111644285Y-141229047D01*
X111739523Y-141181428D01*
X111977619Y-141181428D01*
X112072857Y-141133809D01*
X112406190Y-140895714D02*
X112787142Y-140895714D01*
X112549047Y-140562380D02*
X112549047Y-141419523D01*
X112596666Y-141514761D01*
X112691904Y-141562380D01*
X112787142Y-141562380D01*
X112977619Y-140895714D02*
X113358571Y-140895714D01*
X113120476Y-140562380D02*
X113120476Y-141419523D01*
X113168095Y-141514761D01*
X113263333Y-141562380D01*
X113358571Y-141562380D01*
%TO.C,J23*%
X195452380Y-81843809D02*
X194452380Y-81843809D01*
X194785714Y-80939047D02*
X195595238Y-80939047D01*
X195690476Y-80986666D01*
X195738095Y-81034285D01*
X195785714Y-81129523D01*
X195785714Y-81272380D01*
X195738095Y-81367619D01*
X195404761Y-80939047D02*
X195452380Y-81034285D01*
X195452380Y-81224761D01*
X195404761Y-81320000D01*
X195357142Y-81367619D01*
X195261904Y-81415238D01*
X194976190Y-81415238D01*
X194880952Y-81367619D01*
X194833333Y-81320000D01*
X194785714Y-81224761D01*
X194785714Y-81034285D01*
X194833333Y-80939047D01*
X194785714Y-80462857D02*
X195452380Y-80462857D01*
X194880952Y-80462857D02*
X194833333Y-80415238D01*
X194785714Y-80320000D01*
X194785714Y-80177142D01*
X194833333Y-80081904D01*
X194928571Y-80034285D01*
X195452380Y-80034285D01*
X195452380Y-79558095D02*
X194785714Y-79558095D01*
X194452380Y-79558095D02*
X194500000Y-79605714D01*
X194547619Y-79558095D01*
X194500000Y-79510476D01*
X194452380Y-79558095D01*
X194547619Y-79558095D01*
X194785714Y-79224761D02*
X194785714Y-78843809D01*
X194452380Y-79081904D02*
X195309523Y-79081904D01*
X195404761Y-79034285D01*
X195452380Y-78939047D01*
X195452380Y-78843809D01*
X195404761Y-78129523D02*
X195452380Y-78224761D01*
X195452380Y-78415238D01*
X195404761Y-78510476D01*
X195309523Y-78558095D01*
X194928571Y-78558095D01*
X194833333Y-78510476D01*
X194785714Y-78415238D01*
X194785714Y-78224761D01*
X194833333Y-78129523D01*
X194928571Y-78081904D01*
X195023809Y-78081904D01*
X195119047Y-78558095D01*
X195452380Y-77653333D02*
X194785714Y-77653333D01*
X194976190Y-77653333D02*
X194880952Y-77605714D01*
X194833333Y-77558095D01*
X194785714Y-77462857D01*
X194785714Y-77367619D01*
X194452380Y-76367619D02*
X194452380Y-75748571D01*
X194833333Y-76081904D01*
X194833333Y-75939047D01*
X194880952Y-75843809D01*
X194928571Y-75796190D01*
X195023809Y-75748571D01*
X195261904Y-75748571D01*
X195357142Y-75796190D01*
X195404761Y-75843809D01*
X195452380Y-75939047D01*
X195452380Y-76224761D01*
X195404761Y-76320000D01*
X195357142Y-76367619D01*
%TO.C,J21*%
X195452380Y-71663809D02*
X194452380Y-71663809D01*
X194785714Y-70759047D02*
X195595238Y-70759047D01*
X195690476Y-70806666D01*
X195738095Y-70854285D01*
X195785714Y-70949523D01*
X195785714Y-71092380D01*
X195738095Y-71187619D01*
X195404761Y-70759047D02*
X195452380Y-70854285D01*
X195452380Y-71044761D01*
X195404761Y-71140000D01*
X195357142Y-71187619D01*
X195261904Y-71235238D01*
X194976190Y-71235238D01*
X194880952Y-71187619D01*
X194833333Y-71140000D01*
X194785714Y-71044761D01*
X194785714Y-70854285D01*
X194833333Y-70759047D01*
X194785714Y-70282857D02*
X195452380Y-70282857D01*
X194880952Y-70282857D02*
X194833333Y-70235238D01*
X194785714Y-70140000D01*
X194785714Y-69997142D01*
X194833333Y-69901904D01*
X194928571Y-69854285D01*
X195452380Y-69854285D01*
X195452380Y-69378095D02*
X194785714Y-69378095D01*
X194452380Y-69378095D02*
X194500000Y-69425714D01*
X194547619Y-69378095D01*
X194500000Y-69330476D01*
X194452380Y-69378095D01*
X194547619Y-69378095D01*
X194785714Y-69044761D02*
X194785714Y-68663809D01*
X194452380Y-68901904D02*
X195309523Y-68901904D01*
X195404761Y-68854285D01*
X195452380Y-68759047D01*
X195452380Y-68663809D01*
X195404761Y-67949523D02*
X195452380Y-68044761D01*
X195452380Y-68235238D01*
X195404761Y-68330476D01*
X195309523Y-68378095D01*
X194928571Y-68378095D01*
X194833333Y-68330476D01*
X194785714Y-68235238D01*
X194785714Y-68044761D01*
X194833333Y-67949523D01*
X194928571Y-67901904D01*
X195023809Y-67901904D01*
X195119047Y-68378095D01*
X195452380Y-67473333D02*
X194785714Y-67473333D01*
X194976190Y-67473333D02*
X194880952Y-67425714D01*
X194833333Y-67378095D01*
X194785714Y-67282857D01*
X194785714Y-67187619D01*
X194547619Y-66140000D02*
X194500000Y-66092380D01*
X194452380Y-65997142D01*
X194452380Y-65759047D01*
X194500000Y-65663809D01*
X194547619Y-65616190D01*
X194642857Y-65568571D01*
X194738095Y-65568571D01*
X194880952Y-65616190D01*
X195452380Y-66187619D01*
X195452380Y-65568571D01*
%TO.C,J25*%
X195452380Y-61343809D02*
X194452380Y-61343809D01*
X194785714Y-60439047D02*
X195595238Y-60439047D01*
X195690476Y-60486666D01*
X195738095Y-60534285D01*
X195785714Y-60629523D01*
X195785714Y-60772380D01*
X195738095Y-60867619D01*
X195404761Y-60439047D02*
X195452380Y-60534285D01*
X195452380Y-60724761D01*
X195404761Y-60820000D01*
X195357142Y-60867619D01*
X195261904Y-60915238D01*
X194976190Y-60915238D01*
X194880952Y-60867619D01*
X194833333Y-60820000D01*
X194785714Y-60724761D01*
X194785714Y-60534285D01*
X194833333Y-60439047D01*
X194785714Y-59962857D02*
X195452380Y-59962857D01*
X194880952Y-59962857D02*
X194833333Y-59915238D01*
X194785714Y-59820000D01*
X194785714Y-59677142D01*
X194833333Y-59581904D01*
X194928571Y-59534285D01*
X195452380Y-59534285D01*
X195452380Y-59058095D02*
X194785714Y-59058095D01*
X194452380Y-59058095D02*
X194500000Y-59105714D01*
X194547619Y-59058095D01*
X194500000Y-59010476D01*
X194452380Y-59058095D01*
X194547619Y-59058095D01*
X194785714Y-58724761D02*
X194785714Y-58343809D01*
X194452380Y-58581904D02*
X195309523Y-58581904D01*
X195404761Y-58534285D01*
X195452380Y-58439047D01*
X195452380Y-58343809D01*
X195404761Y-57629523D02*
X195452380Y-57724761D01*
X195452380Y-57915238D01*
X195404761Y-58010476D01*
X195309523Y-58058095D01*
X194928571Y-58058095D01*
X194833333Y-58010476D01*
X194785714Y-57915238D01*
X194785714Y-57724761D01*
X194833333Y-57629523D01*
X194928571Y-57581904D01*
X195023809Y-57581904D01*
X195119047Y-58058095D01*
X195452380Y-57153333D02*
X194785714Y-57153333D01*
X194976190Y-57153333D02*
X194880952Y-57105714D01*
X194833333Y-57058095D01*
X194785714Y-56962857D01*
X194785714Y-56867619D01*
X195452380Y-55248571D02*
X195452380Y-55820000D01*
X195452380Y-55534285D02*
X194452380Y-55534285D01*
X194595238Y-55629523D01*
X194690476Y-55724761D01*
X194738095Y-55820000D01*
%TO.C,F1*%
X123216666Y-119428571D02*
X122883333Y-119428571D01*
X122883333Y-119952380D02*
X122883333Y-118952380D01*
X123359523Y-118952380D01*
X124264285Y-119952380D02*
X123692857Y-119952380D01*
X123978571Y-119952380D02*
X123978571Y-118952380D01*
X123883333Y-119095238D01*
X123788095Y-119190476D01*
X123692857Y-119238095D01*
%TO.C,R4*%
X133464880Y-125666666D02*
X132988690Y-126000000D01*
X133464880Y-126238095D02*
X132464880Y-126238095D01*
X132464880Y-125857142D01*
X132512500Y-125761904D01*
X132560119Y-125714285D01*
X132655357Y-125666666D01*
X132798214Y-125666666D01*
X132893452Y-125714285D01*
X132941071Y-125761904D01*
X132988690Y-125857142D01*
X132988690Y-126238095D01*
X132798214Y-124809523D02*
X133464880Y-124809523D01*
X132417261Y-125047619D02*
X133131547Y-125285714D01*
X133131547Y-124666666D01*
%TO.C,J12*%
X122130952Y-51107142D02*
X122083333Y-51154761D01*
X121940476Y-51202380D01*
X121845238Y-51202380D01*
X121702380Y-51154761D01*
X121607142Y-51059523D01*
X121559523Y-50964285D01*
X121511904Y-50773809D01*
X121511904Y-50630952D01*
X121559523Y-50440476D01*
X121607142Y-50345238D01*
X121702380Y-50250000D01*
X121845238Y-50202380D01*
X121940476Y-50202380D01*
X122083333Y-50250000D01*
X122130952Y-50297619D01*
X122511904Y-50916666D02*
X122988095Y-50916666D01*
X122416666Y-51202380D02*
X122750000Y-50202380D01*
X123083333Y-51202380D01*
X123892857Y-51202380D02*
X123416666Y-51202380D01*
X123416666Y-50202380D01*
X124226190Y-51202380D02*
X124226190Y-50202380D01*
X125035714Y-50678571D02*
X125178571Y-50726190D01*
X125226190Y-50773809D01*
X125273809Y-50869047D01*
X125273809Y-51011904D01*
X125226190Y-51107142D01*
X125178571Y-51154761D01*
X125083333Y-51202380D01*
X124702380Y-51202380D01*
X124702380Y-50202380D01*
X125035714Y-50202380D01*
X125130952Y-50250000D01*
X125178571Y-50297619D01*
X125226190Y-50392857D01*
X125226190Y-50488095D01*
X125178571Y-50583333D01*
X125130952Y-50630952D01*
X125035714Y-50678571D01*
X124702380Y-50678571D01*
X125464285Y-51297619D02*
X126226190Y-51297619D01*
X126464285Y-51202380D02*
X126464285Y-50202380D01*
X126797619Y-50916666D01*
X127130952Y-50202380D01*
X127130952Y-51202380D01*
X127797619Y-50202380D02*
X127988095Y-50202380D01*
X128083333Y-50250000D01*
X128178571Y-50345238D01*
X128226190Y-50535714D01*
X128226190Y-50869047D01*
X128178571Y-51059523D01*
X128083333Y-51154761D01*
X127988095Y-51202380D01*
X127797619Y-51202380D01*
X127702380Y-51154761D01*
X127607142Y-51059523D01*
X127559523Y-50869047D01*
X127559523Y-50535714D01*
X127607142Y-50345238D01*
X127702380Y-50250000D01*
X127797619Y-50202380D01*
X128654761Y-51202380D02*
X128654761Y-50202380D01*
X128892857Y-50202380D01*
X129035714Y-50250000D01*
X129130952Y-50345238D01*
X129178571Y-50440476D01*
X129226190Y-50630952D01*
X129226190Y-50773809D01*
X129178571Y-50964285D01*
X129130952Y-51059523D01*
X129035714Y-51154761D01*
X128892857Y-51202380D01*
X128654761Y-51202380D01*
X129654761Y-50202380D02*
X129654761Y-51011904D01*
X129702380Y-51107142D01*
X129750000Y-51154761D01*
X129845238Y-51202380D01*
X130035714Y-51202380D01*
X130130952Y-51154761D01*
X130178571Y-51107142D01*
X130226190Y-51011904D01*
X130226190Y-50202380D01*
X131178571Y-51202380D02*
X130702380Y-51202380D01*
X130702380Y-50202380D01*
X131511904Y-50678571D02*
X131845238Y-50678571D01*
X131988095Y-51202380D02*
X131511904Y-51202380D01*
X131511904Y-50202380D01*
X131988095Y-50202380D01*
%TO.C,J14*%
X145190476Y-130597380D02*
X145190476Y-131311666D01*
X145142857Y-131454523D01*
X145047619Y-131549761D01*
X144904761Y-131597380D01*
X144809523Y-131597380D01*
X146190476Y-131597380D02*
X145619047Y-131597380D01*
X145904761Y-131597380D02*
X145904761Y-130597380D01*
X145809523Y-130740238D01*
X145714285Y-130835476D01*
X145619047Y-130883095D01*
X147047619Y-130930714D02*
X147047619Y-131597380D01*
X146809523Y-130549761D02*
X146571428Y-131264047D01*
X147190476Y-131264047D01*
%TO.C,R30*%
X151602380Y-46642857D02*
X151126190Y-46976190D01*
X151602380Y-47214285D02*
X150602380Y-47214285D01*
X150602380Y-46833333D01*
X150650000Y-46738095D01*
X150697619Y-46690476D01*
X150792857Y-46642857D01*
X150935714Y-46642857D01*
X151030952Y-46690476D01*
X151078571Y-46738095D01*
X151126190Y-46833333D01*
X151126190Y-47214285D01*
X150602380Y-46309523D02*
X150602380Y-45690476D01*
X150983333Y-46023809D01*
X150983333Y-45880952D01*
X151030952Y-45785714D01*
X151078571Y-45738095D01*
X151173809Y-45690476D01*
X151411904Y-45690476D01*
X151507142Y-45738095D01*
X151554761Y-45785714D01*
X151602380Y-45880952D01*
X151602380Y-46166666D01*
X151554761Y-46261904D01*
X151507142Y-46309523D01*
X150602380Y-45071428D02*
X150602380Y-44976190D01*
X150650000Y-44880952D01*
X150697619Y-44833333D01*
X150792857Y-44785714D01*
X150983333Y-44738095D01*
X151221428Y-44738095D01*
X151411904Y-44785714D01*
X151507142Y-44833333D01*
X151554761Y-44880952D01*
X151602380Y-44976190D01*
X151602380Y-45071428D01*
X151554761Y-45166666D01*
X151507142Y-45214285D01*
X151411904Y-45261904D01*
X151221428Y-45309523D01*
X150983333Y-45309523D01*
X150792857Y-45261904D01*
X150697619Y-45214285D01*
X150650000Y-45166666D01*
X150602380Y-45071428D01*
%TO.C,R13*%
X165857142Y-64622380D02*
X165523809Y-64146190D01*
X165285714Y-64622380D02*
X165285714Y-63622380D01*
X165666666Y-63622380D01*
X165761904Y-63670000D01*
X165809523Y-63717619D01*
X165857142Y-63812857D01*
X165857142Y-63955714D01*
X165809523Y-64050952D01*
X165761904Y-64098571D01*
X165666666Y-64146190D01*
X165285714Y-64146190D01*
X166809523Y-64622380D02*
X166238095Y-64622380D01*
X166523809Y-64622380D02*
X166523809Y-63622380D01*
X166428571Y-63765238D01*
X166333333Y-63860476D01*
X166238095Y-63908095D01*
X167142857Y-63622380D02*
X167761904Y-63622380D01*
X167428571Y-64003333D01*
X167571428Y-64003333D01*
X167666666Y-64050952D01*
X167714285Y-64098571D01*
X167761904Y-64193809D01*
X167761904Y-64431904D01*
X167714285Y-64527142D01*
X167666666Y-64574761D01*
X167571428Y-64622380D01*
X167285714Y-64622380D01*
X167190476Y-64574761D01*
X167142857Y-64527142D01*
%TO.C,J6*%
X101452380Y-109468095D02*
X102452380Y-109134761D01*
X101452380Y-108801428D01*
X102547619Y-108706190D02*
X102547619Y-107944285D01*
X101928571Y-107372857D02*
X101976190Y-107230000D01*
X102023809Y-107182380D01*
X102119047Y-107134761D01*
X102261904Y-107134761D01*
X102357142Y-107182380D01*
X102404761Y-107230000D01*
X102452380Y-107325238D01*
X102452380Y-107706190D01*
X101452380Y-107706190D01*
X101452380Y-107372857D01*
X101500000Y-107277619D01*
X101547619Y-107230000D01*
X101642857Y-107182380D01*
X101738095Y-107182380D01*
X101833333Y-107230000D01*
X101880952Y-107277619D01*
X101928571Y-107372857D01*
X101928571Y-107706190D01*
X102452380Y-106277619D02*
X101928571Y-106277619D01*
X101833333Y-106325238D01*
X101785714Y-106420476D01*
X101785714Y-106610952D01*
X101833333Y-106706190D01*
X102404761Y-106277619D02*
X102452380Y-106372857D01*
X102452380Y-106610952D01*
X102404761Y-106706190D01*
X102309523Y-106753809D01*
X102214285Y-106753809D01*
X102119047Y-106706190D01*
X102071428Y-106610952D01*
X102071428Y-106372857D01*
X102023809Y-106277619D01*
X101785714Y-105944285D02*
X101785714Y-105563333D01*
X101452380Y-105801428D02*
X102309523Y-105801428D01*
X102404761Y-105753809D01*
X102452380Y-105658571D01*
X102452380Y-105563333D01*
X101785714Y-105372857D02*
X101785714Y-104991904D01*
X101452380Y-105230000D02*
X102309523Y-105230000D01*
X102404761Y-105182380D01*
X102452380Y-105087142D01*
X102452380Y-104991904D01*
%TO.C,Q8*%
X166404761Y-68397619D02*
X166309523Y-68350000D01*
X166214285Y-68254761D01*
X166071428Y-68111904D01*
X165976190Y-68064285D01*
X165880952Y-68064285D01*
X165928571Y-68302380D02*
X165833333Y-68254761D01*
X165738095Y-68159523D01*
X165690476Y-67969047D01*
X165690476Y-67635714D01*
X165738095Y-67445238D01*
X165833333Y-67350000D01*
X165928571Y-67302380D01*
X166119047Y-67302380D01*
X166214285Y-67350000D01*
X166309523Y-67445238D01*
X166357142Y-67635714D01*
X166357142Y-67969047D01*
X166309523Y-68159523D01*
X166214285Y-68254761D01*
X166119047Y-68302380D01*
X165928571Y-68302380D01*
X166928571Y-67730952D02*
X166833333Y-67683333D01*
X166785714Y-67635714D01*
X166738095Y-67540476D01*
X166738095Y-67492857D01*
X166785714Y-67397619D01*
X166833333Y-67350000D01*
X166928571Y-67302380D01*
X167119047Y-67302380D01*
X167214285Y-67350000D01*
X167261904Y-67397619D01*
X167309523Y-67492857D01*
X167309523Y-67540476D01*
X167261904Y-67635714D01*
X167214285Y-67683333D01*
X167119047Y-67730952D01*
X166928571Y-67730952D01*
X166833333Y-67778571D01*
X166785714Y-67826190D01*
X166738095Y-67921428D01*
X166738095Y-68111904D01*
X166785714Y-68207142D01*
X166833333Y-68254761D01*
X166928571Y-68302380D01*
X167119047Y-68302380D01*
X167214285Y-68254761D01*
X167261904Y-68207142D01*
X167309523Y-68111904D01*
X167309523Y-67921428D01*
X167261904Y-67826190D01*
X167214285Y-67778571D01*
X167119047Y-67730952D01*
%TO.C,R8*%
X144802380Y-120166666D02*
X144326190Y-120500000D01*
X144802380Y-120738095D02*
X143802380Y-120738095D01*
X143802380Y-120357142D01*
X143850000Y-120261904D01*
X143897619Y-120214285D01*
X143992857Y-120166666D01*
X144135714Y-120166666D01*
X144230952Y-120214285D01*
X144278571Y-120261904D01*
X144326190Y-120357142D01*
X144326190Y-120738095D01*
X144230952Y-119595238D02*
X144183333Y-119690476D01*
X144135714Y-119738095D01*
X144040476Y-119785714D01*
X143992857Y-119785714D01*
X143897619Y-119738095D01*
X143850000Y-119690476D01*
X143802380Y-119595238D01*
X143802380Y-119404761D01*
X143850000Y-119309523D01*
X143897619Y-119261904D01*
X143992857Y-119214285D01*
X144040476Y-119214285D01*
X144135714Y-119261904D01*
X144183333Y-119309523D01*
X144230952Y-119404761D01*
X144230952Y-119595238D01*
X144278571Y-119690476D01*
X144326190Y-119738095D01*
X144421428Y-119785714D01*
X144611904Y-119785714D01*
X144707142Y-119738095D01*
X144754761Y-119690476D01*
X144802380Y-119595238D01*
X144802380Y-119404761D01*
X144754761Y-119309523D01*
X144707142Y-119261904D01*
X144611904Y-119214285D01*
X144421428Y-119214285D01*
X144326190Y-119261904D01*
X144278571Y-119309523D01*
X144230952Y-119404761D01*
%TO.C,R5*%
X137802380Y-120166666D02*
X137326190Y-120500000D01*
X137802380Y-120738095D02*
X136802380Y-120738095D01*
X136802380Y-120357142D01*
X136850000Y-120261904D01*
X136897619Y-120214285D01*
X136992857Y-120166666D01*
X137135714Y-120166666D01*
X137230952Y-120214285D01*
X137278571Y-120261904D01*
X137326190Y-120357142D01*
X137326190Y-120738095D01*
X136802380Y-119261904D02*
X136802380Y-119738095D01*
X137278571Y-119785714D01*
X137230952Y-119738095D01*
X137183333Y-119642857D01*
X137183333Y-119404761D01*
X137230952Y-119309523D01*
X137278571Y-119261904D01*
X137373809Y-119214285D01*
X137611904Y-119214285D01*
X137707142Y-119261904D01*
X137754761Y-119309523D01*
X137802380Y-119404761D01*
X137802380Y-119642857D01*
X137754761Y-119738095D01*
X137707142Y-119785714D01*
%TO.C,Q1*%
X137310119Y-125595238D02*
X137262500Y-125690476D01*
X137167261Y-125785714D01*
X137024404Y-125928571D01*
X136976785Y-126023809D01*
X136976785Y-126119047D01*
X137214880Y-126071428D02*
X137167261Y-126166666D01*
X137072023Y-126261904D01*
X136881547Y-126309523D01*
X136548214Y-126309523D01*
X136357738Y-126261904D01*
X136262500Y-126166666D01*
X136214880Y-126071428D01*
X136214880Y-125880952D01*
X136262500Y-125785714D01*
X136357738Y-125690476D01*
X136548214Y-125642857D01*
X136881547Y-125642857D01*
X137072023Y-125690476D01*
X137167261Y-125785714D01*
X137214880Y-125880952D01*
X137214880Y-126071428D01*
X137214880Y-124690476D02*
X137214880Y-125261904D01*
X137214880Y-124976190D02*
X136214880Y-124976190D01*
X136357738Y-125071428D01*
X136452976Y-125166666D01*
X136500595Y-125261904D01*
%TO.C,R3*%
X104602380Y-91666666D02*
X104126190Y-92000000D01*
X104602380Y-92238095D02*
X103602380Y-92238095D01*
X103602380Y-91857142D01*
X103650000Y-91761904D01*
X103697619Y-91714285D01*
X103792857Y-91666666D01*
X103935714Y-91666666D01*
X104030952Y-91714285D01*
X104078571Y-91761904D01*
X104126190Y-91857142D01*
X104126190Y-92238095D01*
X103602380Y-91333333D02*
X103602380Y-90714285D01*
X103983333Y-91047619D01*
X103983333Y-90904761D01*
X104030952Y-90809523D01*
X104078571Y-90761904D01*
X104173809Y-90714285D01*
X104411904Y-90714285D01*
X104507142Y-90761904D01*
X104554761Y-90809523D01*
X104602380Y-90904761D01*
X104602380Y-91190476D01*
X104554761Y-91285714D01*
X104507142Y-91333333D01*
%TO.C,J3*%
X130607142Y-84452380D02*
X130607142Y-83452380D01*
X130607142Y-83928571D02*
X131178571Y-83928571D01*
X131178571Y-84452380D02*
X131178571Y-83452380D01*
X132035714Y-84404761D02*
X131940476Y-84452380D01*
X131750000Y-84452380D01*
X131654761Y-84404761D01*
X131607142Y-84309523D01*
X131607142Y-83928571D01*
X131654761Y-83833333D01*
X131750000Y-83785714D01*
X131940476Y-83785714D01*
X132035714Y-83833333D01*
X132083333Y-83928571D01*
X132083333Y-84023809D01*
X131607142Y-84119047D01*
X132940476Y-84452380D02*
X132940476Y-83928571D01*
X132892857Y-83833333D01*
X132797619Y-83785714D01*
X132607142Y-83785714D01*
X132511904Y-83833333D01*
X132940476Y-84404761D02*
X132845238Y-84452380D01*
X132607142Y-84452380D01*
X132511904Y-84404761D01*
X132464285Y-84309523D01*
X132464285Y-84214285D01*
X132511904Y-84119047D01*
X132607142Y-84071428D01*
X132845238Y-84071428D01*
X132940476Y-84023809D01*
X133845238Y-84452380D02*
X133845238Y-83452380D01*
X133845238Y-84404761D02*
X133749999Y-84452380D01*
X133559523Y-84452380D01*
X133464285Y-84404761D01*
X133416666Y-84357142D01*
X133369047Y-84261904D01*
X133369047Y-83976190D01*
X133416666Y-83880952D01*
X133464285Y-83833333D01*
X133559523Y-83785714D01*
X133749999Y-83785714D01*
X133845238Y-83833333D01*
X134702380Y-84404761D02*
X134607142Y-84452380D01*
X134416666Y-84452380D01*
X134321428Y-84404761D01*
X134273809Y-84309523D01*
X134273809Y-83928571D01*
X134321428Y-83833333D01*
X134416666Y-83785714D01*
X134607142Y-83785714D01*
X134702380Y-83833333D01*
X134750000Y-83928571D01*
X134750000Y-84023809D01*
X134273809Y-84119047D01*
X135178571Y-84452380D02*
X135178571Y-83785714D01*
X135178571Y-83976190D02*
X135226190Y-83880952D01*
X135273809Y-83833333D01*
X135369047Y-83785714D01*
X135464285Y-83785714D01*
X135559523Y-84547619D02*
X136321428Y-84547619D01*
X136511904Y-84166666D02*
X136988095Y-84166666D01*
X136416666Y-84452380D02*
X136750000Y-83452380D01*
X137083333Y-84452380D01*
X137940476Y-84452380D02*
X137369047Y-84452380D01*
X137654761Y-84452380D02*
X137654761Y-83452380D01*
X137559523Y-83595238D01*
X137464285Y-83690476D01*
X137369047Y-83738095D01*
X138369047Y-84071428D02*
X139130952Y-84071428D01*
X139559523Y-84166666D02*
X140035714Y-84166666D01*
X139464285Y-84452380D02*
X139797619Y-83452380D01*
X140130952Y-84452380D01*
X140988095Y-84452380D02*
X140416666Y-84452380D01*
X140702380Y-84452380D02*
X140702380Y-83452380D01*
X140607142Y-83595238D01*
X140511904Y-83690476D01*
X140416666Y-83738095D01*
X141892857Y-83452380D02*
X141416666Y-83452380D01*
X141369047Y-83928571D01*
X141416666Y-83880952D01*
X141511904Y-83833333D01*
X141750000Y-83833333D01*
X141845238Y-83880952D01*
X141892857Y-83928571D01*
X141940476Y-84023809D01*
X141940476Y-84261904D01*
X141892857Y-84357142D01*
X141845238Y-84404761D01*
X141750000Y-84452380D01*
X141511904Y-84452380D01*
X141416666Y-84404761D01*
X141369047Y-84357142D01*
%TO.C,J7*%
X136547619Y-75452380D02*
X136547619Y-74452380D01*
X136547619Y-74928571D02*
X137119047Y-74928571D01*
X137119047Y-75452380D02*
X137119047Y-74452380D01*
X137976190Y-75404761D02*
X137880952Y-75452380D01*
X137690476Y-75452380D01*
X137595238Y-75404761D01*
X137547619Y-75309523D01*
X137547619Y-74928571D01*
X137595238Y-74833333D01*
X137690476Y-74785714D01*
X137880952Y-74785714D01*
X137976190Y-74833333D01*
X138023809Y-74928571D01*
X138023809Y-75023809D01*
X137547619Y-75119047D01*
X138880952Y-75452380D02*
X138880952Y-74928571D01*
X138833333Y-74833333D01*
X138738095Y-74785714D01*
X138547619Y-74785714D01*
X138452380Y-74833333D01*
X138880952Y-75404761D02*
X138785714Y-75452380D01*
X138547619Y-75452380D01*
X138452380Y-75404761D01*
X138404761Y-75309523D01*
X138404761Y-75214285D01*
X138452380Y-75119047D01*
X138547619Y-75071428D01*
X138785714Y-75071428D01*
X138880952Y-75023809D01*
X139785714Y-75452380D02*
X139785714Y-74452380D01*
X139785714Y-75404761D02*
X139690476Y-75452380D01*
X139500000Y-75452380D01*
X139404761Y-75404761D01*
X139357142Y-75357142D01*
X139309523Y-75261904D01*
X139309523Y-74976190D01*
X139357142Y-74880952D01*
X139404761Y-74833333D01*
X139500000Y-74785714D01*
X139690476Y-74785714D01*
X139785714Y-74833333D01*
X140642857Y-75404761D02*
X140547619Y-75452380D01*
X140357142Y-75452380D01*
X140261904Y-75404761D01*
X140214285Y-75309523D01*
X140214285Y-74928571D01*
X140261904Y-74833333D01*
X140357142Y-74785714D01*
X140547619Y-74785714D01*
X140642857Y-74833333D01*
X140690476Y-74928571D01*
X140690476Y-75023809D01*
X140214285Y-75119047D01*
X141119047Y-75452380D02*
X141119047Y-74785714D01*
X141119047Y-74976190D02*
X141166666Y-74880952D01*
X141214285Y-74833333D01*
X141309523Y-74785714D01*
X141404761Y-74785714D01*
X141500000Y-75547619D02*
X142261904Y-75547619D01*
X142500000Y-75452380D02*
X142500000Y-74452380D01*
X142928571Y-75404761D02*
X143071428Y-75452380D01*
X143309523Y-75452380D01*
X143404761Y-75404761D01*
X143452380Y-75357142D01*
X143500000Y-75261904D01*
X143500000Y-75166666D01*
X143452380Y-75071428D01*
X143404761Y-75023809D01*
X143309523Y-74976190D01*
X143119047Y-74928571D01*
X143023809Y-74880952D01*
X142976190Y-74833333D01*
X142928571Y-74738095D01*
X142928571Y-74642857D01*
X142976190Y-74547619D01*
X143023809Y-74500000D01*
X143119047Y-74452380D01*
X143357142Y-74452380D01*
X143500000Y-74500000D01*
X143928571Y-75452380D02*
X143928571Y-74452380D01*
X144309523Y-74452380D01*
X144404761Y-74500000D01*
X144452380Y-74547619D01*
X144500000Y-74642857D01*
X144500000Y-74785714D01*
X144452380Y-74880952D01*
X144404761Y-74928571D01*
X144309523Y-74976190D01*
X143928571Y-74976190D01*
%TO.C,R16*%
X157107142Y-75452380D02*
X156773809Y-74976190D01*
X156535714Y-75452380D02*
X156535714Y-74452380D01*
X156916666Y-74452380D01*
X157011904Y-74500000D01*
X157059523Y-74547619D01*
X157107142Y-74642857D01*
X157107142Y-74785714D01*
X157059523Y-74880952D01*
X157011904Y-74928571D01*
X156916666Y-74976190D01*
X156535714Y-74976190D01*
X158059523Y-75452380D02*
X157488095Y-75452380D01*
X157773809Y-75452380D02*
X157773809Y-74452380D01*
X157678571Y-74595238D01*
X157583333Y-74690476D01*
X157488095Y-74738095D01*
X158916666Y-74452380D02*
X158726190Y-74452380D01*
X158630952Y-74500000D01*
X158583333Y-74547619D01*
X158488095Y-74690476D01*
X158440476Y-74880952D01*
X158440476Y-75261904D01*
X158488095Y-75357142D01*
X158535714Y-75404761D01*
X158630952Y-75452380D01*
X158821428Y-75452380D01*
X158916666Y-75404761D01*
X158964285Y-75357142D01*
X159011904Y-75261904D01*
X159011904Y-75023809D01*
X158964285Y-74928571D01*
X158916666Y-74880952D01*
X158821428Y-74833333D01*
X158630952Y-74833333D01*
X158535714Y-74880952D01*
X158488095Y-74928571D01*
X158440476Y-75023809D01*
%TO.C,Q11*%
X179972619Y-80561428D02*
X179925000Y-80656666D01*
X179829761Y-80751904D01*
X179686904Y-80894761D01*
X179639285Y-80990000D01*
X179639285Y-81085238D01*
X179877380Y-81037619D02*
X179829761Y-81132857D01*
X179734523Y-81228095D01*
X179544047Y-81275714D01*
X179210714Y-81275714D01*
X179020238Y-81228095D01*
X178925000Y-81132857D01*
X178877380Y-81037619D01*
X178877380Y-80847142D01*
X178925000Y-80751904D01*
X179020238Y-80656666D01*
X179210714Y-80609047D01*
X179544047Y-80609047D01*
X179734523Y-80656666D01*
X179829761Y-80751904D01*
X179877380Y-80847142D01*
X179877380Y-81037619D01*
X179877380Y-79656666D02*
X179877380Y-80228095D01*
X179877380Y-79942380D02*
X178877380Y-79942380D01*
X179020238Y-80037619D01*
X179115476Y-80132857D01*
X179163095Y-80228095D01*
X179877380Y-78704285D02*
X179877380Y-79275714D01*
X179877380Y-78990000D02*
X178877380Y-78990000D01*
X179020238Y-79085238D01*
X179115476Y-79180476D01*
X179163095Y-79275714D01*
%TO.C,Q7*%
X174404761Y-137147619D02*
X174309523Y-137100000D01*
X174214285Y-137004761D01*
X174071428Y-136861904D01*
X173976190Y-136814285D01*
X173880952Y-136814285D01*
X173928571Y-137052380D02*
X173833333Y-137004761D01*
X173738095Y-136909523D01*
X173690476Y-136719047D01*
X173690476Y-136385714D01*
X173738095Y-136195238D01*
X173833333Y-136100000D01*
X173928571Y-136052380D01*
X174119047Y-136052380D01*
X174214285Y-136100000D01*
X174309523Y-136195238D01*
X174357142Y-136385714D01*
X174357142Y-136719047D01*
X174309523Y-136909523D01*
X174214285Y-137004761D01*
X174119047Y-137052380D01*
X173928571Y-137052380D01*
X174690476Y-136052380D02*
X175357142Y-136052380D01*
X174928571Y-137052380D01*
%TO.C,R28*%
X144802380Y-46642857D02*
X144326190Y-46976190D01*
X144802380Y-47214285D02*
X143802380Y-47214285D01*
X143802380Y-46833333D01*
X143850000Y-46738095D01*
X143897619Y-46690476D01*
X143992857Y-46642857D01*
X144135714Y-46642857D01*
X144230952Y-46690476D01*
X144278571Y-46738095D01*
X144326190Y-46833333D01*
X144326190Y-47214285D01*
X143897619Y-46261904D02*
X143850000Y-46214285D01*
X143802380Y-46119047D01*
X143802380Y-45880952D01*
X143850000Y-45785714D01*
X143897619Y-45738095D01*
X143992857Y-45690476D01*
X144088095Y-45690476D01*
X144230952Y-45738095D01*
X144802380Y-46309523D01*
X144802380Y-45690476D01*
X144230952Y-45119047D02*
X144183333Y-45214285D01*
X144135714Y-45261904D01*
X144040476Y-45309523D01*
X143992857Y-45309523D01*
X143897619Y-45261904D01*
X143850000Y-45214285D01*
X143802380Y-45119047D01*
X143802380Y-44928571D01*
X143850000Y-44833333D01*
X143897619Y-44785714D01*
X143992857Y-44738095D01*
X144040476Y-44738095D01*
X144135714Y-44785714D01*
X144183333Y-44833333D01*
X144230952Y-44928571D01*
X144230952Y-45119047D01*
X144278571Y-45214285D01*
X144326190Y-45261904D01*
X144421428Y-45309523D01*
X144611904Y-45309523D01*
X144707142Y-45261904D01*
X144754761Y-45214285D01*
X144802380Y-45119047D01*
X144802380Y-44928571D01*
X144754761Y-44833333D01*
X144707142Y-44785714D01*
X144611904Y-44738095D01*
X144421428Y-44738095D01*
X144326190Y-44785714D01*
X144278571Y-44833333D01*
X144230952Y-44928571D01*
%TO.C,R1*%
X100333333Y-95802380D02*
X100000000Y-95326190D01*
X99761904Y-95802380D02*
X99761904Y-94802380D01*
X100142857Y-94802380D01*
X100238095Y-94850000D01*
X100285714Y-94897619D01*
X100333333Y-94992857D01*
X100333333Y-95135714D01*
X100285714Y-95230952D01*
X100238095Y-95278571D01*
X100142857Y-95326190D01*
X99761904Y-95326190D01*
X101285714Y-95802380D02*
X100714285Y-95802380D01*
X101000000Y-95802380D02*
X101000000Y-94802380D01*
X100904761Y-94945238D01*
X100809523Y-95040476D01*
X100714285Y-95088095D01*
%TO.C,R12*%
X158802380Y-120642857D02*
X158326190Y-120976190D01*
X158802380Y-121214285D02*
X157802380Y-121214285D01*
X157802380Y-120833333D01*
X157850000Y-120738095D01*
X157897619Y-120690476D01*
X157992857Y-120642857D01*
X158135714Y-120642857D01*
X158230952Y-120690476D01*
X158278571Y-120738095D01*
X158326190Y-120833333D01*
X158326190Y-121214285D01*
X158802380Y-119690476D02*
X158802380Y-120261904D01*
X158802380Y-119976190D02*
X157802380Y-119976190D01*
X157945238Y-120071428D01*
X158040476Y-120166666D01*
X158088095Y-120261904D01*
X157897619Y-119309523D02*
X157850000Y-119261904D01*
X157802380Y-119166666D01*
X157802380Y-118928571D01*
X157850000Y-118833333D01*
X157897619Y-118785714D01*
X157992857Y-118738095D01*
X158088095Y-118738095D01*
X158230952Y-118785714D01*
X158802380Y-119357142D01*
X158802380Y-118738095D01*
%TO.C,C2*%
X160833333Y-69497142D02*
X160785714Y-69544761D01*
X160642857Y-69592380D01*
X160547619Y-69592380D01*
X160404761Y-69544761D01*
X160309523Y-69449523D01*
X160261904Y-69354285D01*
X160214285Y-69163809D01*
X160214285Y-69020952D01*
X160261904Y-68830476D01*
X160309523Y-68735238D01*
X160404761Y-68640000D01*
X160547619Y-68592380D01*
X160642857Y-68592380D01*
X160785714Y-68640000D01*
X160833333Y-68687619D01*
X161214285Y-68687619D02*
X161261904Y-68640000D01*
X161357142Y-68592380D01*
X161595238Y-68592380D01*
X161690476Y-68640000D01*
X161738095Y-68687619D01*
X161785714Y-68782857D01*
X161785714Y-68878095D01*
X161738095Y-69020952D01*
X161166666Y-69592380D01*
X161785714Y-69592380D01*
%TO.C,J22*%
X156832380Y-86937857D02*
X156832380Y-87414047D01*
X155832380Y-87414047D01*
X156308571Y-86604523D02*
X156308571Y-86271190D01*
X156832380Y-86128333D02*
X156832380Y-86604523D01*
X155832380Y-86604523D01*
X155832380Y-86128333D01*
X156832380Y-85699761D02*
X155832380Y-85699761D01*
X155832380Y-85461666D01*
X155880000Y-85318809D01*
X155975238Y-85223571D01*
X156070476Y-85175952D01*
X156260952Y-85128333D01*
X156403809Y-85128333D01*
X156594285Y-85175952D01*
X156689523Y-85223571D01*
X156784761Y-85318809D01*
X156832380Y-85461666D01*
X156832380Y-85699761D01*
X156927619Y-84937857D02*
X156927619Y-84175952D01*
X156784761Y-83556904D02*
X156832380Y-83652142D01*
X156832380Y-83842619D01*
X156784761Y-83937857D01*
X156689523Y-83985476D01*
X156308571Y-83985476D01*
X156213333Y-83937857D01*
X156165714Y-83842619D01*
X156165714Y-83652142D01*
X156213333Y-83556904D01*
X156308571Y-83509285D01*
X156403809Y-83509285D01*
X156499047Y-83985476D01*
X156832380Y-83175952D02*
X156165714Y-82652142D01*
X156165714Y-83175952D02*
X156832380Y-82652142D01*
X156165714Y-82414047D02*
X156165714Y-82033095D01*
X155832380Y-82271190D02*
X156689523Y-82271190D01*
X156784761Y-82223571D01*
X156832380Y-82128333D01*
X156832380Y-82033095D01*
%TO.C,Q9*%
X179977619Y-69095238D02*
X179930000Y-69190476D01*
X179834761Y-69285714D01*
X179691904Y-69428571D01*
X179644285Y-69523809D01*
X179644285Y-69619047D01*
X179882380Y-69571428D02*
X179834761Y-69666666D01*
X179739523Y-69761904D01*
X179549047Y-69809523D01*
X179215714Y-69809523D01*
X179025238Y-69761904D01*
X178930000Y-69666666D01*
X178882380Y-69571428D01*
X178882380Y-69380952D01*
X178930000Y-69285714D01*
X179025238Y-69190476D01*
X179215714Y-69142857D01*
X179549047Y-69142857D01*
X179739523Y-69190476D01*
X179834761Y-69285714D01*
X179882380Y-69380952D01*
X179882380Y-69571428D01*
X179882380Y-68666666D02*
X179882380Y-68476190D01*
X179834761Y-68380952D01*
X179787142Y-68333333D01*
X179644285Y-68238095D01*
X179453809Y-68190476D01*
X179072857Y-68190476D01*
X178977619Y-68238095D01*
X178930000Y-68285714D01*
X178882380Y-68380952D01*
X178882380Y-68571428D01*
X178930000Y-68666666D01*
X178977619Y-68714285D01*
X179072857Y-68761904D01*
X179310952Y-68761904D01*
X179406190Y-68714285D01*
X179453809Y-68666666D01*
X179501428Y-68571428D01*
X179501428Y-68380952D01*
X179453809Y-68285714D01*
X179406190Y-68238095D01*
X179310952Y-68190476D01*
%TO.C,C3*%
X163787142Y-88916666D02*
X163834761Y-88964285D01*
X163882380Y-89107142D01*
X163882380Y-89202380D01*
X163834761Y-89345238D01*
X163739523Y-89440476D01*
X163644285Y-89488095D01*
X163453809Y-89535714D01*
X163310952Y-89535714D01*
X163120476Y-89488095D01*
X163025238Y-89440476D01*
X162930000Y-89345238D01*
X162882380Y-89202380D01*
X162882380Y-89107142D01*
X162930000Y-88964285D01*
X162977619Y-88916666D01*
X162882380Y-88583333D02*
X162882380Y-87964285D01*
X163263333Y-88297619D01*
X163263333Y-88154761D01*
X163310952Y-88059523D01*
X163358571Y-88011904D01*
X163453809Y-87964285D01*
X163691904Y-87964285D01*
X163787142Y-88011904D01*
X163834761Y-88059523D01*
X163882380Y-88154761D01*
X163882380Y-88440476D01*
X163834761Y-88535714D01*
X163787142Y-88583333D01*
%TO.C,J10*%
X195428571Y-100309523D02*
X195476190Y-100166666D01*
X195523809Y-100119047D01*
X195619047Y-100071428D01*
X195761904Y-100071428D01*
X195857142Y-100119047D01*
X195904761Y-100166666D01*
X195952380Y-100261904D01*
X195952380Y-100642857D01*
X194952380Y-100642857D01*
X194952380Y-100309523D01*
X195000000Y-100214285D01*
X195047619Y-100166666D01*
X195142857Y-100119047D01*
X195238095Y-100119047D01*
X195333333Y-100166666D01*
X195380952Y-100214285D01*
X195428571Y-100309523D01*
X195428571Y-100642857D01*
X194952380Y-99785714D02*
X194952380Y-99214285D01*
X195952380Y-99500000D02*
X194952380Y-99500000D01*
X195952380Y-98880952D02*
X194952380Y-98880952D01*
X195952380Y-98309523D01*
X194952380Y-98309523D01*
X195904761Y-97880952D02*
X195952380Y-97738095D01*
X195952380Y-97500000D01*
X195904761Y-97404761D01*
X195857142Y-97357142D01*
X195761904Y-97309523D01*
X195666666Y-97309523D01*
X195571428Y-97357142D01*
X195523809Y-97404761D01*
X195476190Y-97500000D01*
X195428571Y-97690476D01*
X195380952Y-97785714D01*
X195333333Y-97833333D01*
X195238095Y-97880952D01*
X195142857Y-97880952D01*
X195047619Y-97833333D01*
X195000000Y-97785714D01*
X194952380Y-97690476D01*
X194952380Y-97452380D01*
X195000000Y-97309523D01*
%TO.C,C1*%
X101037142Y-91666666D02*
X101084761Y-91714285D01*
X101132380Y-91857142D01*
X101132380Y-91952380D01*
X101084761Y-92095238D01*
X100989523Y-92190476D01*
X100894285Y-92238095D01*
X100703809Y-92285714D01*
X100560952Y-92285714D01*
X100370476Y-92238095D01*
X100275238Y-92190476D01*
X100180000Y-92095238D01*
X100132380Y-91952380D01*
X100132380Y-91857142D01*
X100180000Y-91714285D01*
X100227619Y-91666666D01*
X101132380Y-90714285D02*
X101132380Y-91285714D01*
X101132380Y-91000000D02*
X100132380Y-91000000D01*
X100275238Y-91095238D01*
X100370476Y-91190476D01*
X100418095Y-91285714D01*
%TO.C,J16*%
X161979276Y-130597380D02*
X161979276Y-131311666D01*
X161931657Y-131454523D01*
X161836419Y-131549761D01*
X161693561Y-131597380D01*
X161598323Y-131597380D01*
X162979276Y-131597380D02*
X162407847Y-131597380D01*
X162693561Y-131597380D02*
X162693561Y-130597380D01*
X162598323Y-130740238D01*
X162503085Y-130835476D01*
X162407847Y-130883095D01*
X163836419Y-130597380D02*
X163645942Y-130597380D01*
X163550704Y-130645000D01*
X163503085Y-130692619D01*
X163407847Y-130835476D01*
X163360228Y-131025952D01*
X163360228Y-131406904D01*
X163407847Y-131502142D01*
X163455466Y-131549761D01*
X163550704Y-131597380D01*
X163741180Y-131597380D01*
X163836419Y-131549761D01*
X163884038Y-131502142D01*
X163931657Y-131406904D01*
X163931657Y-131168809D01*
X163884038Y-131073571D01*
X163836419Y-131025952D01*
X163741180Y-130978333D01*
X163550704Y-130978333D01*
X163455466Y-131025952D01*
X163407847Y-131073571D01*
X163360228Y-131168809D01*
%TO.C,R7*%
X141452380Y-120166666D02*
X140976190Y-120500000D01*
X141452380Y-120738095D02*
X140452380Y-120738095D01*
X140452380Y-120357142D01*
X140500000Y-120261904D01*
X140547619Y-120214285D01*
X140642857Y-120166666D01*
X140785714Y-120166666D01*
X140880952Y-120214285D01*
X140928571Y-120261904D01*
X140976190Y-120357142D01*
X140976190Y-120738095D01*
X140452380Y-119833333D02*
X140452380Y-119166666D01*
X141452380Y-119595238D01*
%TO.C,R20*%
X163852380Y-84892857D02*
X163376190Y-85226190D01*
X163852380Y-85464285D02*
X162852380Y-85464285D01*
X162852380Y-85083333D01*
X162900000Y-84988095D01*
X162947619Y-84940476D01*
X163042857Y-84892857D01*
X163185714Y-84892857D01*
X163280952Y-84940476D01*
X163328571Y-84988095D01*
X163376190Y-85083333D01*
X163376190Y-85464285D01*
X162947619Y-84511904D02*
X162900000Y-84464285D01*
X162852380Y-84369047D01*
X162852380Y-84130952D01*
X162900000Y-84035714D01*
X162947619Y-83988095D01*
X163042857Y-83940476D01*
X163138095Y-83940476D01*
X163280952Y-83988095D01*
X163852380Y-84559523D01*
X163852380Y-83940476D01*
X162852380Y-83321428D02*
X162852380Y-83226190D01*
X162900000Y-83130952D01*
X162947619Y-83083333D01*
X163042857Y-83035714D01*
X163233333Y-82988095D01*
X163471428Y-82988095D01*
X163661904Y-83035714D01*
X163757142Y-83083333D01*
X163804761Y-83130952D01*
X163852380Y-83226190D01*
X163852380Y-83321428D01*
X163804761Y-83416666D01*
X163757142Y-83464285D01*
X163661904Y-83511904D01*
X163471428Y-83559523D01*
X163233333Y-83559523D01*
X163042857Y-83511904D01*
X162947619Y-83464285D01*
X162900000Y-83416666D01*
X162852380Y-83321428D01*
%TO.C,Q12*%
X165928571Y-50967619D02*
X165833333Y-50920000D01*
X165738095Y-50824761D01*
X165595238Y-50681904D01*
X165500000Y-50634285D01*
X165404761Y-50634285D01*
X165452380Y-50872380D02*
X165357142Y-50824761D01*
X165261904Y-50729523D01*
X165214285Y-50539047D01*
X165214285Y-50205714D01*
X165261904Y-50015238D01*
X165357142Y-49920000D01*
X165452380Y-49872380D01*
X165642857Y-49872380D01*
X165738095Y-49920000D01*
X165833333Y-50015238D01*
X165880952Y-50205714D01*
X165880952Y-50539047D01*
X165833333Y-50729523D01*
X165738095Y-50824761D01*
X165642857Y-50872380D01*
X165452380Y-50872380D01*
X166833333Y-50872380D02*
X166261904Y-50872380D01*
X166547619Y-50872380D02*
X166547619Y-49872380D01*
X166452380Y-50015238D01*
X166357142Y-50110476D01*
X166261904Y-50158095D01*
X167214285Y-49967619D02*
X167261904Y-49920000D01*
X167357142Y-49872380D01*
X167595238Y-49872380D01*
X167690476Y-49920000D01*
X167738095Y-49967619D01*
X167785714Y-50062857D01*
X167785714Y-50158095D01*
X167738095Y-50300952D01*
X167166666Y-50872380D01*
X167785714Y-50872380D01*
%TO.C,C4*%
X140357142Y-46166666D02*
X140404761Y-46214285D01*
X140452380Y-46357142D01*
X140452380Y-46452380D01*
X140404761Y-46595238D01*
X140309523Y-46690476D01*
X140214285Y-46738095D01*
X140023809Y-46785714D01*
X139880952Y-46785714D01*
X139690476Y-46738095D01*
X139595238Y-46690476D01*
X139500000Y-46595238D01*
X139452380Y-46452380D01*
X139452380Y-46357142D01*
X139500000Y-46214285D01*
X139547619Y-46166666D01*
X139785714Y-45309523D02*
X140452380Y-45309523D01*
X139404761Y-45547619D02*
X140119047Y-45785714D01*
X140119047Y-45166666D01*
%TO.C,R18*%
X160357142Y-66122380D02*
X160023809Y-65646190D01*
X159785714Y-66122380D02*
X159785714Y-65122380D01*
X160166666Y-65122380D01*
X160261904Y-65170000D01*
X160309523Y-65217619D01*
X160357142Y-65312857D01*
X160357142Y-65455714D01*
X160309523Y-65550952D01*
X160261904Y-65598571D01*
X160166666Y-65646190D01*
X159785714Y-65646190D01*
X161309523Y-66122380D02*
X160738095Y-66122380D01*
X161023809Y-66122380D02*
X161023809Y-65122380D01*
X160928571Y-65265238D01*
X160833333Y-65360476D01*
X160738095Y-65408095D01*
X161880952Y-65550952D02*
X161785714Y-65503333D01*
X161738095Y-65455714D01*
X161690476Y-65360476D01*
X161690476Y-65312857D01*
X161738095Y-65217619D01*
X161785714Y-65170000D01*
X161880952Y-65122380D01*
X162071428Y-65122380D01*
X162166666Y-65170000D01*
X162214285Y-65217619D01*
X162261904Y-65312857D01*
X162261904Y-65360476D01*
X162214285Y-65455714D01*
X162166666Y-65503333D01*
X162071428Y-65550952D01*
X161880952Y-65550952D01*
X161785714Y-65598571D01*
X161738095Y-65646190D01*
X161690476Y-65741428D01*
X161690476Y-65931904D01*
X161738095Y-66027142D01*
X161785714Y-66074761D01*
X161880952Y-66122380D01*
X162071428Y-66122380D01*
X162166666Y-66074761D01*
X162214285Y-66027142D01*
X162261904Y-65931904D01*
X162261904Y-65741428D01*
X162214285Y-65646190D01*
X162166666Y-65598571D01*
X162071428Y-65550952D01*
%TO.C,R21*%
X179452380Y-89462857D02*
X178976190Y-89796190D01*
X179452380Y-90034285D02*
X178452380Y-90034285D01*
X178452380Y-89653333D01*
X178500000Y-89558095D01*
X178547619Y-89510476D01*
X178642857Y-89462857D01*
X178785714Y-89462857D01*
X178880952Y-89510476D01*
X178928571Y-89558095D01*
X178976190Y-89653333D01*
X178976190Y-90034285D01*
X178547619Y-89081904D02*
X178500000Y-89034285D01*
X178452380Y-88939047D01*
X178452380Y-88700952D01*
X178500000Y-88605714D01*
X178547619Y-88558095D01*
X178642857Y-88510476D01*
X178738095Y-88510476D01*
X178880952Y-88558095D01*
X179452380Y-89129523D01*
X179452380Y-88510476D01*
X179452380Y-87558095D02*
X179452380Y-88129523D01*
X179452380Y-87843809D02*
X178452380Y-87843809D01*
X178595238Y-87939047D01*
X178690476Y-88034285D01*
X178738095Y-88129523D01*
%TO.C,Q13*%
X179972619Y-58611428D02*
X179925000Y-58706666D01*
X179829761Y-58801904D01*
X179686904Y-58944761D01*
X179639285Y-59040000D01*
X179639285Y-59135238D01*
X179877380Y-59087619D02*
X179829761Y-59182857D01*
X179734523Y-59278095D01*
X179544047Y-59325714D01*
X179210714Y-59325714D01*
X179020238Y-59278095D01*
X178925000Y-59182857D01*
X178877380Y-59087619D01*
X178877380Y-58897142D01*
X178925000Y-58801904D01*
X179020238Y-58706666D01*
X179210714Y-58659047D01*
X179544047Y-58659047D01*
X179734523Y-58706666D01*
X179829761Y-58801904D01*
X179877380Y-58897142D01*
X179877380Y-59087619D01*
X179877380Y-57706666D02*
X179877380Y-58278095D01*
X179877380Y-57992380D02*
X178877380Y-57992380D01*
X179020238Y-58087619D01*
X179115476Y-58182857D01*
X179163095Y-58278095D01*
X178877380Y-57373333D02*
X178877380Y-56754285D01*
X179258333Y-57087619D01*
X179258333Y-56944761D01*
X179305952Y-56849523D01*
X179353571Y-56801904D01*
X179448809Y-56754285D01*
X179686904Y-56754285D01*
X179782142Y-56801904D01*
X179829761Y-56849523D01*
X179877380Y-56944761D01*
X179877380Y-57230476D01*
X179829761Y-57325714D01*
X179782142Y-57373333D01*
%TO.C,J13*%
X139702380Y-54571428D02*
X138702380Y-54571428D01*
X138702380Y-54333333D01*
X138750000Y-54190476D01*
X138845238Y-54095238D01*
X138940476Y-54047619D01*
X139130952Y-54000000D01*
X139273809Y-54000000D01*
X139464285Y-54047619D01*
X139559523Y-54095238D01*
X139654761Y-54190476D01*
X139702380Y-54333333D01*
X139702380Y-54571428D01*
X139702380Y-53571428D02*
X138702380Y-53571428D01*
X139654761Y-53142857D02*
X139702380Y-53000000D01*
X139702380Y-52761904D01*
X139654761Y-52666666D01*
X139607142Y-52619047D01*
X139511904Y-52571428D01*
X139416666Y-52571428D01*
X139321428Y-52619047D01*
X139273809Y-52666666D01*
X139226190Y-52761904D01*
X139178571Y-52952380D01*
X139130952Y-53047619D01*
X139083333Y-53095238D01*
X138988095Y-53142857D01*
X138892857Y-53142857D01*
X138797619Y-53095238D01*
X138750000Y-53047619D01*
X138702380Y-52952380D01*
X138702380Y-52714285D01*
X138750000Y-52571428D01*
X139702380Y-52142857D02*
X138702380Y-52142857D01*
X138702380Y-51761904D01*
X138750000Y-51666666D01*
X138797619Y-51619047D01*
X138892857Y-51571428D01*
X139035714Y-51571428D01*
X139130952Y-51619047D01*
X139178571Y-51666666D01*
X139226190Y-51761904D01*
X139226190Y-52142857D01*
X139797619Y-51380952D02*
X139797619Y-50619047D01*
X139702380Y-50380952D02*
X138702380Y-50380952D01*
X138797619Y-49952380D02*
X138750000Y-49904761D01*
X138702380Y-49809523D01*
X138702380Y-49571428D01*
X138750000Y-49476190D01*
X138797619Y-49428571D01*
X138892857Y-49380952D01*
X138988095Y-49380952D01*
X139130952Y-49428571D01*
X139702380Y-50000000D01*
X139702380Y-49380952D01*
X139607142Y-48380952D02*
X139654761Y-48428571D01*
X139702380Y-48571428D01*
X139702380Y-48666666D01*
X139654761Y-48809523D01*
X139559523Y-48904761D01*
X139464285Y-48952380D01*
X139273809Y-49000000D01*
X139130952Y-49000000D01*
X138940476Y-48952380D01*
X138845238Y-48904761D01*
X138750000Y-48809523D01*
X138702380Y-48666666D01*
X138702380Y-48571428D01*
X138750000Y-48428571D01*
X138797619Y-48380952D01*
%TO.C,J4*%
X110388095Y-71064380D02*
X110388095Y-70064380D01*
X110388095Y-70540571D02*
X110959523Y-70540571D01*
X110959523Y-71064380D02*
X110959523Y-70064380D01*
X111816666Y-71016761D02*
X111721428Y-71064380D01*
X111530952Y-71064380D01*
X111435714Y-71016761D01*
X111388095Y-70921523D01*
X111388095Y-70540571D01*
X111435714Y-70445333D01*
X111530952Y-70397714D01*
X111721428Y-70397714D01*
X111816666Y-70445333D01*
X111864285Y-70540571D01*
X111864285Y-70635809D01*
X111388095Y-70731047D01*
X112721428Y-71064380D02*
X112721428Y-70540571D01*
X112673809Y-70445333D01*
X112578571Y-70397714D01*
X112388095Y-70397714D01*
X112292857Y-70445333D01*
X112721428Y-71016761D02*
X112626190Y-71064380D01*
X112388095Y-71064380D01*
X112292857Y-71016761D01*
X112245238Y-70921523D01*
X112245238Y-70826285D01*
X112292857Y-70731047D01*
X112388095Y-70683428D01*
X112626190Y-70683428D01*
X112721428Y-70635809D01*
X113626190Y-71064380D02*
X113626190Y-70064380D01*
X113626190Y-71016761D02*
X113530952Y-71064380D01*
X113340476Y-71064380D01*
X113245238Y-71016761D01*
X113197619Y-70969142D01*
X113150000Y-70873904D01*
X113150000Y-70588190D01*
X113197619Y-70492952D01*
X113245238Y-70445333D01*
X113340476Y-70397714D01*
X113530952Y-70397714D01*
X113626190Y-70445333D01*
X114483333Y-71016761D02*
X114388095Y-71064380D01*
X114197619Y-71064380D01*
X114102380Y-71016761D01*
X114054761Y-70921523D01*
X114054761Y-70540571D01*
X114102380Y-70445333D01*
X114197619Y-70397714D01*
X114388095Y-70397714D01*
X114483333Y-70445333D01*
X114530952Y-70540571D01*
X114530952Y-70635809D01*
X114054761Y-70731047D01*
X114959523Y-71064380D02*
X114959523Y-70397714D01*
X114959523Y-70588190D02*
X115007142Y-70492952D01*
X115054761Y-70445333D01*
X115150000Y-70397714D01*
X115245238Y-70397714D01*
X115340476Y-71159619D02*
X116102380Y-71159619D01*
X116340476Y-71064380D02*
X116340476Y-70064380D01*
X116578571Y-70064380D01*
X116721428Y-70112000D01*
X116816666Y-70207238D01*
X116864285Y-70302476D01*
X116911904Y-70492952D01*
X116911904Y-70635809D01*
X116864285Y-70826285D01*
X116816666Y-70921523D01*
X116721428Y-71016761D01*
X116578571Y-71064380D01*
X116340476Y-71064380D01*
X117864285Y-71064380D02*
X117292857Y-71064380D01*
X117578571Y-71064380D02*
X117578571Y-70064380D01*
X117483333Y-70207238D01*
X117388095Y-70302476D01*
X117292857Y-70350095D01*
X118721428Y-70397714D02*
X118721428Y-71064380D01*
X118483333Y-70016761D02*
X118245238Y-70731047D01*
X118864285Y-70731047D01*
X119245238Y-70683428D02*
X120007142Y-70683428D01*
X121007142Y-71064380D02*
X120435714Y-71064380D01*
X120721428Y-71064380D02*
X120721428Y-70064380D01*
X120626190Y-70207238D01*
X120530952Y-70302476D01*
X120435714Y-70350095D01*
X121483333Y-71064380D02*
X121673809Y-71064380D01*
X121769047Y-71016761D01*
X121816666Y-70969142D01*
X121911904Y-70826285D01*
X121959523Y-70635809D01*
X121959523Y-70254857D01*
X121911904Y-70159619D01*
X121864285Y-70112000D01*
X121769047Y-70064380D01*
X121578571Y-70064380D01*
X121483333Y-70112000D01*
X121435714Y-70159619D01*
X121388095Y-70254857D01*
X121388095Y-70492952D01*
X121435714Y-70588190D01*
X121483333Y-70635809D01*
X121578571Y-70683428D01*
X121769047Y-70683428D01*
X121864285Y-70635809D01*
X121911904Y-70588190D01*
X121959523Y-70492952D01*
X122150000Y-71159619D02*
X122911904Y-71159619D01*
X123150000Y-71064380D02*
X123150000Y-70064380D01*
X123388095Y-70064380D01*
X123530952Y-70112000D01*
X123626190Y-70207238D01*
X123673809Y-70302476D01*
X123721428Y-70492952D01*
X123721428Y-70635809D01*
X123673809Y-70826285D01*
X123626190Y-70921523D01*
X123530952Y-71016761D01*
X123388095Y-71064380D01*
X123150000Y-71064380D01*
X124578571Y-70397714D02*
X124578571Y-71064380D01*
X124340476Y-70016761D02*
X124102380Y-70731047D01*
X124721428Y-70731047D01*
X125150000Y-71064380D02*
X125340476Y-71064380D01*
X125435714Y-71016761D01*
X125483333Y-70969142D01*
X125578571Y-70826285D01*
X125626190Y-70635809D01*
X125626190Y-70254857D01*
X125578571Y-70159619D01*
X125530952Y-70112000D01*
X125435714Y-70064380D01*
X125245238Y-70064380D01*
X125150000Y-70112000D01*
X125102380Y-70159619D01*
X125054761Y-70254857D01*
X125054761Y-70492952D01*
X125102380Y-70588190D01*
X125150000Y-70635809D01*
X125245238Y-70683428D01*
X125435714Y-70683428D01*
X125530952Y-70635809D01*
X125578571Y-70588190D01*
X125626190Y-70492952D01*
X125816666Y-71159619D02*
X126578571Y-71159619D01*
X127292857Y-70064380D02*
X126816666Y-70064380D01*
X126769047Y-70540571D01*
X126816666Y-70492952D01*
X126911904Y-70445333D01*
X127150000Y-70445333D01*
X127245238Y-70492952D01*
X127292857Y-70540571D01*
X127340476Y-70635809D01*
X127340476Y-70873904D01*
X127292857Y-70969142D01*
X127245238Y-71016761D01*
X127150000Y-71064380D01*
X126911904Y-71064380D01*
X126816666Y-71016761D01*
X126769047Y-70969142D01*
X128292857Y-71064380D02*
X127721428Y-71064380D01*
X128007142Y-71064380D02*
X128007142Y-70064380D01*
X127911904Y-70207238D01*
X127816666Y-70302476D01*
X127721428Y-70350095D01*
X128483333Y-71159619D02*
X129245238Y-71159619D01*
X129959523Y-70064380D02*
X129483333Y-70064380D01*
X129435714Y-70540571D01*
X129483333Y-70492952D01*
X129578571Y-70445333D01*
X129816666Y-70445333D01*
X129911904Y-70492952D01*
X129959523Y-70540571D01*
X130007142Y-70635809D01*
X130007142Y-70873904D01*
X129959523Y-70969142D01*
X129911904Y-71016761D01*
X129816666Y-71064380D01*
X129578571Y-71064380D01*
X129483333Y-71016761D01*
X129435714Y-70969142D01*
X130340476Y-70064380D02*
X130959523Y-70064380D01*
X130626190Y-70445333D01*
X130769047Y-70445333D01*
X130864285Y-70492952D01*
X130911904Y-70540571D01*
X130959523Y-70635809D01*
X130959523Y-70873904D01*
X130911904Y-70969142D01*
X130864285Y-71016761D01*
X130769047Y-71064380D01*
X130483333Y-71064380D01*
X130388095Y-71016761D01*
X130340476Y-70969142D01*
%TO.C,R14*%
X157107142Y-73202380D02*
X156773809Y-72726190D01*
X156535714Y-73202380D02*
X156535714Y-72202380D01*
X156916666Y-72202380D01*
X157011904Y-72250000D01*
X157059523Y-72297619D01*
X157107142Y-72392857D01*
X157107142Y-72535714D01*
X157059523Y-72630952D01*
X157011904Y-72678571D01*
X156916666Y-72726190D01*
X156535714Y-72726190D01*
X158059523Y-73202380D02*
X157488095Y-73202380D01*
X157773809Y-73202380D02*
X157773809Y-72202380D01*
X157678571Y-72345238D01*
X157583333Y-72440476D01*
X157488095Y-72488095D01*
X158916666Y-72535714D02*
X158916666Y-73202380D01*
X158678571Y-72154761D02*
X158440476Y-72869047D01*
X159059523Y-72869047D01*
%TO.C,R22*%
X160452380Y-84892857D02*
X159976190Y-85226190D01*
X160452380Y-85464285D02*
X159452380Y-85464285D01*
X159452380Y-85083333D01*
X159500000Y-84988095D01*
X159547619Y-84940476D01*
X159642857Y-84892857D01*
X159785714Y-84892857D01*
X159880952Y-84940476D01*
X159928571Y-84988095D01*
X159976190Y-85083333D01*
X159976190Y-85464285D01*
X159547619Y-84511904D02*
X159500000Y-84464285D01*
X159452380Y-84369047D01*
X159452380Y-84130952D01*
X159500000Y-84035714D01*
X159547619Y-83988095D01*
X159642857Y-83940476D01*
X159738095Y-83940476D01*
X159880952Y-83988095D01*
X160452380Y-84559523D01*
X160452380Y-83940476D01*
X159547619Y-83559523D02*
X159500000Y-83511904D01*
X159452380Y-83416666D01*
X159452380Y-83178571D01*
X159500000Y-83083333D01*
X159547619Y-83035714D01*
X159642857Y-82988095D01*
X159738095Y-82988095D01*
X159880952Y-83035714D01*
X160452380Y-83607142D01*
X160452380Y-82988095D01*
%TO.C,Q10*%
X165928571Y-84467619D02*
X165833333Y-84420000D01*
X165738095Y-84324761D01*
X165595238Y-84181904D01*
X165500000Y-84134285D01*
X165404761Y-84134285D01*
X165452380Y-84372380D02*
X165357142Y-84324761D01*
X165261904Y-84229523D01*
X165214285Y-84039047D01*
X165214285Y-83705714D01*
X165261904Y-83515238D01*
X165357142Y-83420000D01*
X165452380Y-83372380D01*
X165642857Y-83372380D01*
X165738095Y-83420000D01*
X165833333Y-83515238D01*
X165880952Y-83705714D01*
X165880952Y-84039047D01*
X165833333Y-84229523D01*
X165738095Y-84324761D01*
X165642857Y-84372380D01*
X165452380Y-84372380D01*
X166833333Y-84372380D02*
X166261904Y-84372380D01*
X166547619Y-84372380D02*
X166547619Y-83372380D01*
X166452380Y-83515238D01*
X166357142Y-83610476D01*
X166261904Y-83658095D01*
X167452380Y-83372380D02*
X167547619Y-83372380D01*
X167642857Y-83420000D01*
X167690476Y-83467619D01*
X167738095Y-83562857D01*
X167785714Y-83753333D01*
X167785714Y-83991428D01*
X167738095Y-84181904D01*
X167690476Y-84277142D01*
X167642857Y-84324761D01*
X167547619Y-84372380D01*
X167452380Y-84372380D01*
X167357142Y-84324761D01*
X167309523Y-84277142D01*
X167261904Y-84181904D01*
X167214285Y-83991428D01*
X167214285Y-83753333D01*
X167261904Y-83562857D01*
X167309523Y-83467619D01*
X167357142Y-83420000D01*
X167452380Y-83372380D01*
%TO.C,Q3*%
X148447619Y-128095238D02*
X148400000Y-128190476D01*
X148304761Y-128285714D01*
X148161904Y-128428571D01*
X148114285Y-128523809D01*
X148114285Y-128619047D01*
X148352380Y-128571428D02*
X148304761Y-128666666D01*
X148209523Y-128761904D01*
X148019047Y-128809523D01*
X147685714Y-128809523D01*
X147495238Y-128761904D01*
X147400000Y-128666666D01*
X147352380Y-128571428D01*
X147352380Y-128380952D01*
X147400000Y-128285714D01*
X147495238Y-128190476D01*
X147685714Y-128142857D01*
X148019047Y-128142857D01*
X148209523Y-128190476D01*
X148304761Y-128285714D01*
X148352380Y-128380952D01*
X148352380Y-128571428D01*
X147352380Y-127809523D02*
X147352380Y-127190476D01*
X147733333Y-127523809D01*
X147733333Y-127380952D01*
X147780952Y-127285714D01*
X147828571Y-127238095D01*
X147923809Y-127190476D01*
X148161904Y-127190476D01*
X148257142Y-127238095D01*
X148304761Y-127285714D01*
X148352380Y-127380952D01*
X148352380Y-127666666D01*
X148304761Y-127761904D01*
X148257142Y-127809523D01*
%TO.C,Q2*%
X153697619Y-128157738D02*
X153650000Y-128252976D01*
X153554761Y-128348214D01*
X153411904Y-128491071D01*
X153364285Y-128586309D01*
X153364285Y-128681547D01*
X153602380Y-128633928D02*
X153554761Y-128729166D01*
X153459523Y-128824404D01*
X153269047Y-128872023D01*
X152935714Y-128872023D01*
X152745238Y-128824404D01*
X152650000Y-128729166D01*
X152602380Y-128633928D01*
X152602380Y-128443452D01*
X152650000Y-128348214D01*
X152745238Y-128252976D01*
X152935714Y-128205357D01*
X153269047Y-128205357D01*
X153459523Y-128252976D01*
X153554761Y-128348214D01*
X153602380Y-128443452D01*
X153602380Y-128633928D01*
X152697619Y-127824404D02*
X152650000Y-127776785D01*
X152602380Y-127681547D01*
X152602380Y-127443452D01*
X152650000Y-127348214D01*
X152697619Y-127300595D01*
X152792857Y-127252976D01*
X152888095Y-127252976D01*
X153030952Y-127300595D01*
X153602380Y-127872023D01*
X153602380Y-127252976D01*
%TO.C,R26*%
X147357142Y-49452380D02*
X147023809Y-48976190D01*
X146785714Y-49452380D02*
X146785714Y-48452380D01*
X147166666Y-48452380D01*
X147261904Y-48500000D01*
X147309523Y-48547619D01*
X147357142Y-48642857D01*
X147357142Y-48785714D01*
X147309523Y-48880952D01*
X147261904Y-48928571D01*
X147166666Y-48976190D01*
X146785714Y-48976190D01*
X147738095Y-48547619D02*
X147785714Y-48500000D01*
X147880952Y-48452380D01*
X148119047Y-48452380D01*
X148214285Y-48500000D01*
X148261904Y-48547619D01*
X148309523Y-48642857D01*
X148309523Y-48738095D01*
X148261904Y-48880952D01*
X147690476Y-49452380D01*
X148309523Y-49452380D01*
X149166666Y-48452380D02*
X148976190Y-48452380D01*
X148880952Y-48500000D01*
X148833333Y-48547619D01*
X148738095Y-48690476D01*
X148690476Y-48880952D01*
X148690476Y-49261904D01*
X148738095Y-49357142D01*
X148785714Y-49404761D01*
X148880952Y-49452380D01*
X149071428Y-49452380D01*
X149166666Y-49404761D01*
X149214285Y-49357142D01*
X149261904Y-49261904D01*
X149261904Y-49023809D01*
X149214285Y-48928571D01*
X149166666Y-48880952D01*
X149071428Y-48833333D01*
X148880952Y-48833333D01*
X148785714Y-48880952D01*
X148738095Y-48928571D01*
X148690476Y-49023809D01*
%TO.C,D2*%
X170761904Y-91272380D02*
X170761904Y-90272380D01*
X171000000Y-90272380D01*
X171142857Y-90320000D01*
X171238095Y-90415238D01*
X171285714Y-90510476D01*
X171333333Y-90700952D01*
X171333333Y-90843809D01*
X171285714Y-91034285D01*
X171238095Y-91129523D01*
X171142857Y-91224761D01*
X171000000Y-91272380D01*
X170761904Y-91272380D01*
X171714285Y-90367619D02*
X171761904Y-90320000D01*
X171857142Y-90272380D01*
X172095238Y-90272380D01*
X172190476Y-90320000D01*
X172238095Y-90367619D01*
X172285714Y-90462857D01*
X172285714Y-90558095D01*
X172238095Y-90700952D01*
X171666666Y-91272380D01*
X172285714Y-91272380D01*
%TO.C,R17*%
X176107142Y-73702380D02*
X175773809Y-73226190D01*
X175535714Y-73702380D02*
X175535714Y-72702380D01*
X175916666Y-72702380D01*
X176011904Y-72750000D01*
X176059523Y-72797619D01*
X176107142Y-72892857D01*
X176107142Y-73035714D01*
X176059523Y-73130952D01*
X176011904Y-73178571D01*
X175916666Y-73226190D01*
X175535714Y-73226190D01*
X177059523Y-73702380D02*
X176488095Y-73702380D01*
X176773809Y-73702380D02*
X176773809Y-72702380D01*
X176678571Y-72845238D01*
X176583333Y-72940476D01*
X176488095Y-72988095D01*
X177392857Y-72702380D02*
X178059523Y-72702380D01*
X177630952Y-73702380D01*
%TO.C,R24*%
X157607142Y-92202380D02*
X157273809Y-91726190D01*
X157035714Y-92202380D02*
X157035714Y-91202380D01*
X157416666Y-91202380D01*
X157511904Y-91250000D01*
X157559523Y-91297619D01*
X157607142Y-91392857D01*
X157607142Y-91535714D01*
X157559523Y-91630952D01*
X157511904Y-91678571D01*
X157416666Y-91726190D01*
X157035714Y-91726190D01*
X157988095Y-91297619D02*
X158035714Y-91250000D01*
X158130952Y-91202380D01*
X158369047Y-91202380D01*
X158464285Y-91250000D01*
X158511904Y-91297619D01*
X158559523Y-91392857D01*
X158559523Y-91488095D01*
X158511904Y-91630952D01*
X157940476Y-92202380D01*
X158559523Y-92202380D01*
X159416666Y-91535714D02*
X159416666Y-92202380D01*
X159178571Y-91154761D02*
X158940476Y-91869047D01*
X159559523Y-91869047D01*
%TO.C,R27*%
X167857142Y-62772380D02*
X167523809Y-62296190D01*
X167285714Y-62772380D02*
X167285714Y-61772380D01*
X167666666Y-61772380D01*
X167761904Y-61820000D01*
X167809523Y-61867619D01*
X167857142Y-61962857D01*
X167857142Y-62105714D01*
X167809523Y-62200952D01*
X167761904Y-62248571D01*
X167666666Y-62296190D01*
X167285714Y-62296190D01*
X168238095Y-61867619D02*
X168285714Y-61820000D01*
X168380952Y-61772380D01*
X168619047Y-61772380D01*
X168714285Y-61820000D01*
X168761904Y-61867619D01*
X168809523Y-61962857D01*
X168809523Y-62058095D01*
X168761904Y-62200952D01*
X168190476Y-62772380D01*
X168809523Y-62772380D01*
X169142857Y-61772380D02*
X169809523Y-61772380D01*
X169380952Y-62772380D01*
%TO.C,Q5*%
X157904761Y-137147619D02*
X157809523Y-137100000D01*
X157714285Y-137004761D01*
X157571428Y-136861904D01*
X157476190Y-136814285D01*
X157380952Y-136814285D01*
X157428571Y-137052380D02*
X157333333Y-137004761D01*
X157238095Y-136909523D01*
X157190476Y-136719047D01*
X157190476Y-136385714D01*
X157238095Y-136195238D01*
X157333333Y-136100000D01*
X157428571Y-136052380D01*
X157619047Y-136052380D01*
X157714285Y-136100000D01*
X157809523Y-136195238D01*
X157857142Y-136385714D01*
X157857142Y-136719047D01*
X157809523Y-136909523D01*
X157714285Y-137004761D01*
X157619047Y-137052380D01*
X157428571Y-137052380D01*
X158761904Y-136052380D02*
X158285714Y-136052380D01*
X158238095Y-136528571D01*
X158285714Y-136480952D01*
X158380952Y-136433333D01*
X158619047Y-136433333D01*
X158714285Y-136480952D01*
X158761904Y-136528571D01*
X158809523Y-136623809D01*
X158809523Y-136861904D01*
X158761904Y-136957142D01*
X158714285Y-137004761D01*
X158619047Y-137052380D01*
X158380952Y-137052380D01*
X158285714Y-137004761D01*
X158238095Y-136957142D01*
%TO.C,R25*%
X161052380Y-53392857D02*
X160576190Y-53726190D01*
X161052380Y-53964285D02*
X160052380Y-53964285D01*
X160052380Y-53583333D01*
X160100000Y-53488095D01*
X160147619Y-53440476D01*
X160242857Y-53392857D01*
X160385714Y-53392857D01*
X160480952Y-53440476D01*
X160528571Y-53488095D01*
X160576190Y-53583333D01*
X160576190Y-53964285D01*
X160147619Y-53011904D02*
X160100000Y-52964285D01*
X160052380Y-52869047D01*
X160052380Y-52630952D01*
X160100000Y-52535714D01*
X160147619Y-52488095D01*
X160242857Y-52440476D01*
X160338095Y-52440476D01*
X160480952Y-52488095D01*
X161052380Y-53059523D01*
X161052380Y-52440476D01*
X160052380Y-51535714D02*
X160052380Y-52011904D01*
X160528571Y-52059523D01*
X160480952Y-52011904D01*
X160433333Y-51916666D01*
X160433333Y-51678571D01*
X160480952Y-51583333D01*
X160528571Y-51535714D01*
X160623809Y-51488095D01*
X160861904Y-51488095D01*
X160957142Y-51535714D01*
X161004761Y-51583333D01*
X161052380Y-51678571D01*
X161052380Y-51916666D01*
X161004761Y-52011904D01*
X160957142Y-52059523D01*
%TO.C,JP1*%
X178252380Y-124233333D02*
X178966666Y-124233333D01*
X179109523Y-124280952D01*
X179204761Y-124376190D01*
X179252380Y-124519047D01*
X179252380Y-124614285D01*
X179252380Y-123757142D02*
X178252380Y-123757142D01*
X178252380Y-123376190D01*
X178300000Y-123280952D01*
X178347619Y-123233333D01*
X178442857Y-123185714D01*
X178585714Y-123185714D01*
X178680952Y-123233333D01*
X178728571Y-123280952D01*
X178776190Y-123376190D01*
X178776190Y-123757142D01*
X179252380Y-122233333D02*
X179252380Y-122804761D01*
X179252380Y-122519047D02*
X178252380Y-122519047D01*
X178395238Y-122614285D01*
X178490476Y-122709523D01*
X178538095Y-122804761D01*
%TO.C,R11*%
X155452380Y-120692857D02*
X154976190Y-121026190D01*
X155452380Y-121264285D02*
X154452380Y-121264285D01*
X154452380Y-120883333D01*
X154500000Y-120788095D01*
X154547619Y-120740476D01*
X154642857Y-120692857D01*
X154785714Y-120692857D01*
X154880952Y-120740476D01*
X154928571Y-120788095D01*
X154976190Y-120883333D01*
X154976190Y-121264285D01*
X155452380Y-119740476D02*
X155452380Y-120311904D01*
X155452380Y-120026190D02*
X154452380Y-120026190D01*
X154595238Y-120121428D01*
X154690476Y-120216666D01*
X154738095Y-120311904D01*
X155452380Y-118788095D02*
X155452380Y-119359523D01*
X155452380Y-119073809D02*
X154452380Y-119073809D01*
X154595238Y-119169047D01*
X154690476Y-119264285D01*
X154738095Y-119359523D01*
%TO.C,J1*%
X129666666Y-130122380D02*
X129666666Y-130836666D01*
X129619047Y-130979523D01*
X129523809Y-131074761D01*
X129380952Y-131122380D01*
X129285714Y-131122380D01*
X130666666Y-131122380D02*
X130095238Y-131122380D01*
X130380952Y-131122380D02*
X130380952Y-130122380D01*
X130285714Y-130265238D01*
X130190476Y-130360476D01*
X130095238Y-130408095D01*
%TO.C,R9*%
X148327380Y-120166666D02*
X147851190Y-120500000D01*
X148327380Y-120738095D02*
X147327380Y-120738095D01*
X147327380Y-120357142D01*
X147375000Y-120261904D01*
X147422619Y-120214285D01*
X147517857Y-120166666D01*
X147660714Y-120166666D01*
X147755952Y-120214285D01*
X147803571Y-120261904D01*
X147851190Y-120357142D01*
X147851190Y-120738095D01*
X148327380Y-119690476D02*
X148327380Y-119500000D01*
X148279761Y-119404761D01*
X148232142Y-119357142D01*
X148089285Y-119261904D01*
X147898809Y-119214285D01*
X147517857Y-119214285D01*
X147422619Y-119261904D01*
X147375000Y-119309523D01*
X147327380Y-119404761D01*
X147327380Y-119595238D01*
X147375000Y-119690476D01*
X147422619Y-119738095D01*
X147517857Y-119785714D01*
X147755952Y-119785714D01*
X147851190Y-119738095D01*
X147898809Y-119690476D01*
X147946428Y-119595238D01*
X147946428Y-119404761D01*
X147898809Y-119309523D01*
X147851190Y-119261904D01*
X147755952Y-119214285D01*
%TO.C,D1*%
X174952380Y-69568095D02*
X173952380Y-69568095D01*
X173952380Y-69330000D01*
X174000000Y-69187142D01*
X174095238Y-69091904D01*
X174190476Y-69044285D01*
X174380952Y-68996666D01*
X174523809Y-68996666D01*
X174714285Y-69044285D01*
X174809523Y-69091904D01*
X174904761Y-69187142D01*
X174952380Y-69330000D01*
X174952380Y-69568095D01*
X174952380Y-68044285D02*
X174952380Y-68615714D01*
X174952380Y-68330000D02*
X173952380Y-68330000D01*
X174095238Y-68425238D01*
X174190476Y-68520476D01*
X174238095Y-68615714D01*
%TO.C,J20*%
X157202380Y-70392857D02*
X157202380Y-70869047D01*
X156202380Y-70869047D01*
X156678571Y-70059523D02*
X156678571Y-69726190D01*
X157202380Y-69583333D02*
X157202380Y-70059523D01*
X156202380Y-70059523D01*
X156202380Y-69583333D01*
X157202380Y-69154761D02*
X156202380Y-69154761D01*
X156202380Y-68916666D01*
X156250000Y-68773809D01*
X156345238Y-68678571D01*
X156440476Y-68630952D01*
X156630952Y-68583333D01*
X156773809Y-68583333D01*
X156964285Y-68630952D01*
X157059523Y-68678571D01*
X157154761Y-68773809D01*
X157202380Y-68916666D01*
X157202380Y-69154761D01*
X157297619Y-68392857D02*
X157297619Y-67630952D01*
X157154761Y-67011904D02*
X157202380Y-67107142D01*
X157202380Y-67297619D01*
X157154761Y-67392857D01*
X157059523Y-67440476D01*
X156678571Y-67440476D01*
X156583333Y-67392857D01*
X156535714Y-67297619D01*
X156535714Y-67107142D01*
X156583333Y-67011904D01*
X156678571Y-66964285D01*
X156773809Y-66964285D01*
X156869047Y-67440476D01*
X157202380Y-66630952D02*
X156535714Y-66107142D01*
X156535714Y-66630952D02*
X157202380Y-66107142D01*
X156535714Y-65869047D02*
X156535714Y-65488095D01*
X156202380Y-65726190D02*
X157059523Y-65726190D01*
X157154761Y-65678571D01*
X157202380Y-65583333D01*
X157202380Y-65488095D01*
%TO.C,R10*%
X151802380Y-120642857D02*
X151326190Y-120976190D01*
X151802380Y-121214285D02*
X150802380Y-121214285D01*
X150802380Y-120833333D01*
X150850000Y-120738095D01*
X150897619Y-120690476D01*
X150992857Y-120642857D01*
X151135714Y-120642857D01*
X151230952Y-120690476D01*
X151278571Y-120738095D01*
X151326190Y-120833333D01*
X151326190Y-121214285D01*
X151802380Y-119690476D02*
X151802380Y-120261904D01*
X151802380Y-119976190D02*
X150802380Y-119976190D01*
X150945238Y-120071428D01*
X151040476Y-120166666D01*
X151088095Y-120261904D01*
X150802380Y-119071428D02*
X150802380Y-118976190D01*
X150850000Y-118880952D01*
X150897619Y-118833333D01*
X150992857Y-118785714D01*
X151183333Y-118738095D01*
X151421428Y-118738095D01*
X151611904Y-118785714D01*
X151707142Y-118833333D01*
X151754761Y-118880952D01*
X151802380Y-118976190D01*
X151802380Y-119071428D01*
X151754761Y-119166666D01*
X151707142Y-119214285D01*
X151611904Y-119261904D01*
X151421428Y-119309523D01*
X151183333Y-119309523D01*
X150992857Y-119261904D01*
X150897619Y-119214285D01*
X150850000Y-119166666D01*
X150802380Y-119071428D01*
%TO.C,D3*%
X174952380Y-52058095D02*
X173952380Y-52058095D01*
X173952380Y-51820000D01*
X174000000Y-51677142D01*
X174095238Y-51581904D01*
X174190476Y-51534285D01*
X174380952Y-51486666D01*
X174523809Y-51486666D01*
X174714285Y-51534285D01*
X174809523Y-51581904D01*
X174904761Y-51677142D01*
X174952380Y-51820000D01*
X174952380Y-52058095D01*
X173952380Y-51153333D02*
X173952380Y-50534285D01*
X174333333Y-50867619D01*
X174333333Y-50724761D01*
X174380952Y-50629523D01*
X174428571Y-50581904D01*
X174523809Y-50534285D01*
X174761904Y-50534285D01*
X174857142Y-50581904D01*
X174904761Y-50629523D01*
X174952380Y-50724761D01*
X174952380Y-51010476D01*
X174904761Y-51105714D01*
X174857142Y-51153333D01*
%TO.C,R23*%
X185352380Y-89462857D02*
X184876190Y-89796190D01*
X185352380Y-90034285D02*
X184352380Y-90034285D01*
X184352380Y-89653333D01*
X184400000Y-89558095D01*
X184447619Y-89510476D01*
X184542857Y-89462857D01*
X184685714Y-89462857D01*
X184780952Y-89510476D01*
X184828571Y-89558095D01*
X184876190Y-89653333D01*
X184876190Y-90034285D01*
X184447619Y-89081904D02*
X184400000Y-89034285D01*
X184352380Y-88939047D01*
X184352380Y-88700952D01*
X184400000Y-88605714D01*
X184447619Y-88558095D01*
X184542857Y-88510476D01*
X184638095Y-88510476D01*
X184780952Y-88558095D01*
X185352380Y-89129523D01*
X185352380Y-88510476D01*
X184352380Y-88177142D02*
X184352380Y-87558095D01*
X184733333Y-87891428D01*
X184733333Y-87748571D01*
X184780952Y-87653333D01*
X184828571Y-87605714D01*
X184923809Y-87558095D01*
X185161904Y-87558095D01*
X185257142Y-87605714D01*
X185304761Y-87653333D01*
X185352380Y-87748571D01*
X185352380Y-88034285D01*
X185304761Y-88129523D01*
X185257142Y-88177142D01*
%TO.C,JP2*%
X103671666Y-109722380D02*
X103671666Y-110436666D01*
X103624047Y-110579523D01*
X103528809Y-110674761D01*
X103385952Y-110722380D01*
X103290714Y-110722380D01*
X104147857Y-110722380D02*
X104147857Y-109722380D01*
X104528809Y-109722380D01*
X104624047Y-109770000D01*
X104671666Y-109817619D01*
X104719285Y-109912857D01*
X104719285Y-110055714D01*
X104671666Y-110150952D01*
X104624047Y-110198571D01*
X104528809Y-110246190D01*
X104147857Y-110246190D01*
X105100238Y-109817619D02*
X105147857Y-109770000D01*
X105243095Y-109722380D01*
X105481190Y-109722380D01*
X105576428Y-109770000D01*
X105624047Y-109817619D01*
X105671666Y-109912857D01*
X105671666Y-110008095D01*
X105624047Y-110150952D01*
X105052619Y-110722380D01*
X105671666Y-110722380D01*
X99682380Y-114936666D02*
X100158571Y-114936666D01*
X99587142Y-115222380D02*
X99920476Y-114222380D01*
X100253809Y-115222380D01*
X100587142Y-115222380D02*
X100587142Y-114555714D01*
X100587142Y-114746190D02*
X100634761Y-114650952D01*
X100682380Y-114603333D01*
X100777619Y-114555714D01*
X100872857Y-114555714D01*
X101634761Y-115222380D02*
X101634761Y-114222380D01*
X101634761Y-115174761D02*
X101539523Y-115222380D01*
X101349047Y-115222380D01*
X101253809Y-115174761D01*
X101206190Y-115127142D01*
X101158571Y-115031904D01*
X101158571Y-114746190D01*
X101206190Y-114650952D01*
X101253809Y-114603333D01*
X101349047Y-114555714D01*
X101539523Y-114555714D01*
X101634761Y-114603333D01*
X102539523Y-114555714D02*
X102539523Y-115222380D01*
X102110952Y-114555714D02*
X102110952Y-115079523D01*
X102158571Y-115174761D01*
X102253809Y-115222380D01*
X102396666Y-115222380D01*
X102491904Y-115174761D01*
X102539523Y-115127142D01*
X103015714Y-115222380D02*
X103015714Y-114555714D01*
X103015714Y-114222380D02*
X102968095Y-114270000D01*
X103015714Y-114317619D01*
X103063333Y-114270000D01*
X103015714Y-114222380D01*
X103015714Y-114317619D01*
X103491904Y-114555714D02*
X103491904Y-115222380D01*
X103491904Y-114650952D02*
X103539523Y-114603333D01*
X103634761Y-114555714D01*
X103777619Y-114555714D01*
X103872857Y-114603333D01*
X103920476Y-114698571D01*
X103920476Y-115222380D01*
X104539523Y-115222380D02*
X104444285Y-115174761D01*
X104396666Y-115127142D01*
X104349047Y-115031904D01*
X104349047Y-114746190D01*
X104396666Y-114650952D01*
X104444285Y-114603333D01*
X104539523Y-114555714D01*
X104682380Y-114555714D01*
X104777619Y-114603333D01*
X104825238Y-114650952D01*
X104872857Y-114746190D01*
X104872857Y-115031904D01*
X104825238Y-115127142D01*
X104777619Y-115174761D01*
X104682380Y-115222380D01*
X104539523Y-115222380D01*
X105063333Y-115317619D02*
X105825238Y-115317619D01*
X106063333Y-115222380D02*
X106063333Y-114222380D01*
X106444285Y-114222380D01*
X106539523Y-114270000D01*
X106587142Y-114317619D01*
X106634761Y-114412857D01*
X106634761Y-114555714D01*
X106587142Y-114650952D01*
X106539523Y-114698571D01*
X106444285Y-114746190D01*
X106063333Y-114746190D01*
X106968095Y-114222380D02*
X107206190Y-115222380D01*
X107396666Y-114508095D01*
X107587142Y-115222380D01*
X107825238Y-114222380D01*
X108777619Y-115222380D02*
X108444285Y-114746190D01*
X108206190Y-115222380D02*
X108206190Y-114222380D01*
X108587142Y-114222380D01*
X108682380Y-114270000D01*
X108730000Y-114317619D01*
X108777619Y-114412857D01*
X108777619Y-114555714D01*
X108730000Y-114650952D01*
X108682380Y-114698571D01*
X108587142Y-114746190D01*
X108206190Y-114746190D01*
%TO.C,Q4*%
X157904761Y-132147619D02*
X157809523Y-132100000D01*
X157714285Y-132004761D01*
X157571428Y-131861904D01*
X157476190Y-131814285D01*
X157380952Y-131814285D01*
X157428571Y-132052380D02*
X157333333Y-132004761D01*
X157238095Y-131909523D01*
X157190476Y-131719047D01*
X157190476Y-131385714D01*
X157238095Y-131195238D01*
X157333333Y-131100000D01*
X157428571Y-131052380D01*
X157619047Y-131052380D01*
X157714285Y-131100000D01*
X157809523Y-131195238D01*
X157857142Y-131385714D01*
X157857142Y-131719047D01*
X157809523Y-131909523D01*
X157714285Y-132004761D01*
X157619047Y-132052380D01*
X157428571Y-132052380D01*
X158714285Y-131385714D02*
X158714285Y-132052380D01*
X158476190Y-131004761D02*
X158238095Y-131719047D01*
X158857142Y-131719047D01*
%TO.C,R19*%
X168702380Y-91142857D02*
X168226190Y-91476190D01*
X168702380Y-91714285D02*
X167702380Y-91714285D01*
X167702380Y-91333333D01*
X167750000Y-91238095D01*
X167797619Y-91190476D01*
X167892857Y-91142857D01*
X168035714Y-91142857D01*
X168130952Y-91190476D01*
X168178571Y-91238095D01*
X168226190Y-91333333D01*
X168226190Y-91714285D01*
X168702380Y-90190476D02*
X168702380Y-90761904D01*
X168702380Y-90476190D02*
X167702380Y-90476190D01*
X167845238Y-90571428D01*
X167940476Y-90666666D01*
X167988095Y-90761904D01*
X168702380Y-89714285D02*
X168702380Y-89523809D01*
X168654761Y-89428571D01*
X168607142Y-89380952D01*
X168464285Y-89285714D01*
X168273809Y-89238095D01*
X167892857Y-89238095D01*
X167797619Y-89285714D01*
X167750000Y-89333333D01*
X167702380Y-89428571D01*
X167702380Y-89619047D01*
X167750000Y-89714285D01*
X167797619Y-89761904D01*
X167892857Y-89809523D01*
X168130952Y-89809523D01*
X168226190Y-89761904D01*
X168273809Y-89714285D01*
X168321428Y-89619047D01*
X168321428Y-89428571D01*
X168273809Y-89333333D01*
X168226190Y-89285714D01*
X168130952Y-89238095D01*
%TO.C,Q6*%
X174404761Y-132147619D02*
X174309523Y-132100000D01*
X174214285Y-132004761D01*
X174071428Y-131861904D01*
X173976190Y-131814285D01*
X173880952Y-131814285D01*
X173928571Y-132052380D02*
X173833333Y-132004761D01*
X173738095Y-131909523D01*
X173690476Y-131719047D01*
X173690476Y-131385714D01*
X173738095Y-131195238D01*
X173833333Y-131100000D01*
X173928571Y-131052380D01*
X174119047Y-131052380D01*
X174214285Y-131100000D01*
X174309523Y-131195238D01*
X174357142Y-131385714D01*
X174357142Y-131719047D01*
X174309523Y-131909523D01*
X174214285Y-132004761D01*
X174119047Y-132052380D01*
X173928571Y-132052380D01*
X175214285Y-131052380D02*
X175023809Y-131052380D01*
X174928571Y-131100000D01*
X174880952Y-131147619D01*
X174785714Y-131290476D01*
X174738095Y-131480952D01*
X174738095Y-131861904D01*
X174785714Y-131957142D01*
X174833333Y-132004761D01*
X174928571Y-132052380D01*
X175119047Y-132052380D01*
X175214285Y-132004761D01*
X175261904Y-131957142D01*
X175309523Y-131861904D01*
X175309523Y-131623809D01*
X175261904Y-131528571D01*
X175214285Y-131480952D01*
X175119047Y-131433333D01*
X174928571Y-131433333D01*
X174833333Y-131480952D01*
X174785714Y-131528571D01*
X174738095Y-131623809D01*
%TO.C,R2*%
X108202380Y-91666666D02*
X107726190Y-92000000D01*
X108202380Y-92238095D02*
X107202380Y-92238095D01*
X107202380Y-91857142D01*
X107250000Y-91761904D01*
X107297619Y-91714285D01*
X107392857Y-91666666D01*
X107535714Y-91666666D01*
X107630952Y-91714285D01*
X107678571Y-91761904D01*
X107726190Y-91857142D01*
X107726190Y-92238095D01*
X107297619Y-91285714D02*
X107250000Y-91238095D01*
X107202380Y-91142857D01*
X107202380Y-90904761D01*
X107250000Y-90809523D01*
X107297619Y-90761904D01*
X107392857Y-90714285D01*
X107488095Y-90714285D01*
X107630952Y-90761904D01*
X108202380Y-91333333D01*
X108202380Y-90714285D01*
%TO.C,J18*%
X178190476Y-130597380D02*
X178190476Y-131311666D01*
X178142857Y-131454523D01*
X178047619Y-131549761D01*
X177904761Y-131597380D01*
X177809523Y-131597380D01*
X179190476Y-131597380D02*
X178619047Y-131597380D01*
X178904761Y-131597380D02*
X178904761Y-130597380D01*
X178809523Y-130740238D01*
X178714285Y-130835476D01*
X178619047Y-130883095D01*
X179761904Y-131025952D02*
X179666666Y-130978333D01*
X179619047Y-130930714D01*
X179571428Y-130835476D01*
X179571428Y-130787857D01*
X179619047Y-130692619D01*
X179666666Y-130645000D01*
X179761904Y-130597380D01*
X179952380Y-130597380D01*
X180047619Y-130645000D01*
X180095238Y-130692619D01*
X180142857Y-130787857D01*
X180142857Y-130835476D01*
X180095238Y-130930714D01*
X180047619Y-130978333D01*
X179952380Y-131025952D01*
X179761904Y-131025952D01*
X179666666Y-131073571D01*
X179619047Y-131121190D01*
X179571428Y-131216428D01*
X179571428Y-131406904D01*
X179619047Y-131502142D01*
X179666666Y-131549761D01*
X179761904Y-131597380D01*
X179952380Y-131597380D01*
X180047619Y-131549761D01*
X180095238Y-131502142D01*
X180142857Y-131406904D01*
X180142857Y-131216428D01*
X180095238Y-131121190D01*
X180047619Y-131073571D01*
X179952380Y-131025952D01*
%TO.C,R15*%
X170107142Y-75302380D02*
X169773809Y-74826190D01*
X169535714Y-75302380D02*
X169535714Y-74302380D01*
X169916666Y-74302380D01*
X170011904Y-74350000D01*
X170059523Y-74397619D01*
X170107142Y-74492857D01*
X170107142Y-74635714D01*
X170059523Y-74730952D01*
X170011904Y-74778571D01*
X169916666Y-74826190D01*
X169535714Y-74826190D01*
X171059523Y-75302380D02*
X170488095Y-75302380D01*
X170773809Y-75302380D02*
X170773809Y-74302380D01*
X170678571Y-74445238D01*
X170583333Y-74540476D01*
X170488095Y-74588095D01*
X171964285Y-74302380D02*
X171488095Y-74302380D01*
X171440476Y-74778571D01*
X171488095Y-74730952D01*
X171583333Y-74683333D01*
X171821428Y-74683333D01*
X171916666Y-74730952D01*
X171964285Y-74778571D01*
X172011904Y-74873809D01*
X172011904Y-75111904D01*
X171964285Y-75207142D01*
X171916666Y-75254761D01*
X171821428Y-75302380D01*
X171583333Y-75302380D01*
X171488095Y-75254761D01*
X171440476Y-75207142D01*
%TO.C,J24*%
X157452380Y-55917857D02*
X157452380Y-56394047D01*
X156452380Y-56394047D01*
X156928571Y-55584523D02*
X156928571Y-55251190D01*
X157452380Y-55108333D02*
X157452380Y-55584523D01*
X156452380Y-55584523D01*
X156452380Y-55108333D01*
X157452380Y-54679761D02*
X156452380Y-54679761D01*
X156452380Y-54441666D01*
X156500000Y-54298809D01*
X156595238Y-54203571D01*
X156690476Y-54155952D01*
X156880952Y-54108333D01*
X157023809Y-54108333D01*
X157214285Y-54155952D01*
X157309523Y-54203571D01*
X157404761Y-54298809D01*
X157452380Y-54441666D01*
X157452380Y-54679761D01*
X157547619Y-53917857D02*
X157547619Y-53155952D01*
X157404761Y-52536904D02*
X157452380Y-52632142D01*
X157452380Y-52822619D01*
X157404761Y-52917857D01*
X157309523Y-52965476D01*
X156928571Y-52965476D01*
X156833333Y-52917857D01*
X156785714Y-52822619D01*
X156785714Y-52632142D01*
X156833333Y-52536904D01*
X156928571Y-52489285D01*
X157023809Y-52489285D01*
X157119047Y-52965476D01*
X157452380Y-52155952D02*
X156785714Y-51632142D01*
X156785714Y-52155952D02*
X157452380Y-51632142D01*
X156785714Y-51394047D02*
X156785714Y-51013095D01*
X156452380Y-51251190D02*
X157309523Y-51251190D01*
X157404761Y-51203571D01*
X157452380Y-51108333D01*
X157452380Y-51013095D01*
%TO.C,SW1*%
X98011904Y-132904761D02*
X98154761Y-132952380D01*
X98392857Y-132952380D01*
X98488095Y-132904761D01*
X98535714Y-132857142D01*
X98583333Y-132761904D01*
X98583333Y-132666666D01*
X98535714Y-132571428D01*
X98488095Y-132523809D01*
X98392857Y-132476190D01*
X98202380Y-132428571D01*
X98107142Y-132380952D01*
X98059523Y-132333333D01*
X98011904Y-132238095D01*
X98011904Y-132142857D01*
X98059523Y-132047619D01*
X98107142Y-132000000D01*
X98202380Y-131952380D01*
X98440476Y-131952380D01*
X98583333Y-132000000D01*
X98916666Y-131952380D02*
X99154761Y-132952380D01*
X99345238Y-132238095D01*
X99535714Y-132952380D01*
X99773809Y-131952380D01*
X99916666Y-133047619D02*
X100678571Y-133047619D01*
X100916666Y-132428571D02*
X101250000Y-132428571D01*
X101392857Y-132952380D02*
X100916666Y-132952380D01*
X100916666Y-131952380D01*
X101392857Y-131952380D01*
X101821428Y-132285714D02*
X101821428Y-132952380D01*
X101821428Y-132380952D02*
X101869047Y-132333333D01*
X101964285Y-132285714D01*
X102107142Y-132285714D01*
X102202380Y-132333333D01*
X102250000Y-132428571D01*
X102250000Y-132952380D01*
X103154761Y-132952380D02*
X103154761Y-132428571D01*
X103107142Y-132333333D01*
X103011904Y-132285714D01*
X102821428Y-132285714D01*
X102726190Y-132333333D01*
X103154761Y-132904761D02*
X103059523Y-132952380D01*
X102821428Y-132952380D01*
X102726190Y-132904761D01*
X102678571Y-132809523D01*
X102678571Y-132714285D01*
X102726190Y-132619047D01*
X102821428Y-132571428D01*
X103059523Y-132571428D01*
X103154761Y-132523809D01*
X103630952Y-132952380D02*
X103630952Y-131952380D01*
X103630952Y-132333333D02*
X103726190Y-132285714D01*
X103916666Y-132285714D01*
X104011904Y-132333333D01*
X104059523Y-132380952D01*
X104107142Y-132476190D01*
X104107142Y-132761904D01*
X104059523Y-132857142D01*
X104011904Y-132904761D01*
X103916666Y-132952380D01*
X103726190Y-132952380D01*
X103630952Y-132904761D01*
X104678571Y-132952380D02*
X104583333Y-132904761D01*
X104535714Y-132809523D01*
X104535714Y-131952380D01*
X105440476Y-132904761D02*
X105345238Y-132952380D01*
X105154761Y-132952380D01*
X105059523Y-132904761D01*
X105011904Y-132809523D01*
X105011904Y-132428571D01*
X105059523Y-132333333D01*
X105154761Y-132285714D01*
X105345238Y-132285714D01*
X105440476Y-132333333D01*
X105488095Y-132428571D01*
X105488095Y-132523809D01*
X105011904Y-132619047D01*
%TO.C,R29*%
X177452380Y-65962857D02*
X176976190Y-66296190D01*
X177452380Y-66534285D02*
X176452380Y-66534285D01*
X176452380Y-66153333D01*
X176500000Y-66058095D01*
X176547619Y-66010476D01*
X176642857Y-65962857D01*
X176785714Y-65962857D01*
X176880952Y-66010476D01*
X176928571Y-66058095D01*
X176976190Y-66153333D01*
X176976190Y-66534285D01*
X176547619Y-65581904D02*
X176500000Y-65534285D01*
X176452380Y-65439047D01*
X176452380Y-65200952D01*
X176500000Y-65105714D01*
X176547619Y-65058095D01*
X176642857Y-65010476D01*
X176738095Y-65010476D01*
X176880952Y-65058095D01*
X177452380Y-65629523D01*
X177452380Y-65010476D01*
X177452380Y-64534285D02*
X177452380Y-64343809D01*
X177404761Y-64248571D01*
X177357142Y-64200952D01*
X177214285Y-64105714D01*
X177023809Y-64058095D01*
X176642857Y-64058095D01*
X176547619Y-64105714D01*
X176500000Y-64153333D01*
X176452380Y-64248571D01*
X176452380Y-64439047D01*
X176500000Y-64534285D01*
X176547619Y-64581904D01*
X176642857Y-64629523D01*
X176880952Y-64629523D01*
X176976190Y-64581904D01*
X177023809Y-64534285D01*
X177071428Y-64439047D01*
X177071428Y-64248571D01*
X177023809Y-64153333D01*
X176976190Y-64105714D01*
X176880952Y-64058095D01*
D11*
%TO.C,R6*%
X151645000Y-95500000D02*
X103405000Y-95500000D01*
X103405000Y-107500000D02*
X151645000Y-107500000D01*
X151645000Y-107500000D02*
X151645000Y-95500000D01*
X154025000Y-101500000D02*
X151645000Y-101500000D01*
X103405000Y-95500000D02*
X103405000Y-107500000D01*
X101025000Y-101500000D02*
X103405000Y-101500000D01*
D12*
%TO.C,J19*%
X186715300Y-138000000D02*
X186715300Y-141700000D01*
X182415300Y-134500000D02*
X181715300Y-134500000D01*
X181715300Y-141700000D02*
X181715300Y-138000000D01*
X181715300Y-134500000D02*
X181715300Y-134800000D01*
X186715300Y-134500000D02*
X186715300Y-134800000D01*
X186015300Y-134500000D02*
X186715300Y-134500000D01*
D13*
X187409700Y-141223600D02*
G75*
G03*
X187409700Y-141223600I-150000J0D01*
G01*
D12*
%TO.C,J17*%
X165504100Y-141673600D02*
X165504100Y-137973600D01*
X166204100Y-134473600D02*
X165504100Y-134473600D01*
X170504100Y-134473600D02*
X170504100Y-134773600D01*
X165504100Y-134473600D02*
X165504100Y-134773600D01*
X170504100Y-137973600D02*
X170504100Y-141673600D01*
X169804100Y-134473600D02*
X170504100Y-134473600D01*
D13*
X171198500Y-141197200D02*
G75*
G03*
X171198500Y-141197200I-150000J0D01*
G01*
D12*
%TO.C,J15*%
X154000000Y-134500000D02*
X154000000Y-134800000D01*
X149000000Y-134500000D02*
X149000000Y-134800000D01*
X149000000Y-141700000D02*
X149000000Y-138000000D01*
X153300000Y-134500000D02*
X154000000Y-134500000D01*
X149700000Y-134500000D02*
X149000000Y-134500000D01*
X154000000Y-138000000D02*
X154000000Y-141700000D01*
D13*
X154694400Y-141223600D02*
G75*
G03*
X154694400Y-141223600I-150000J0D01*
G01*
D11*
%TO.C,J2*%
X141620000Y-127880000D02*
X141620000Y-141550000D01*
X133180000Y-127880000D02*
X141620000Y-127880000D01*
X133180000Y-141550000D02*
X133180000Y-127880000D01*
%TO.C,J8*%
X120818000Y-133396000D02*
X120711000Y-133503000D01*
X125818000Y-133396000D02*
X125438000Y-133776000D01*
X116870000Y-138550000D02*
X126990000Y-138550000D01*
X116870000Y-130990000D02*
X126990000Y-130990000D01*
X123172000Y-136042000D02*
X122777000Y-136438000D01*
X126084000Y-133662000D02*
X125689000Y-134058000D01*
X118148000Y-136597000D02*
X118042000Y-136704000D01*
X116870000Y-139650000D02*
X126990000Y-139650000D01*
X121084000Y-133662000D02*
X120977000Y-133769000D01*
X117882000Y-136331000D02*
X117776000Y-136438000D01*
X126990000Y-130990000D02*
X126990000Y-140110000D01*
X123423000Y-136324000D02*
X123043000Y-136704000D01*
X116870000Y-140110000D02*
X126990000Y-140110000D01*
X121610000Y-135050000D02*
G75*
G03*
X121610000Y-135050000I-2180000J0D01*
G01*
X126610000Y-135050000D02*
G75*
G03*
X126610000Y-135050000I-2180000J0D01*
G01*
%TO.C,J9*%
X111610000Y-135050000D02*
G75*
G03*
X111610000Y-135050000I-2180000J0D01*
G01*
X116610000Y-135050000D02*
G75*
G03*
X116610000Y-135050000I-2180000J0D01*
G01*
X113172000Y-136042000D02*
X112777000Y-136438000D01*
X113423000Y-136324000D02*
X113043000Y-136704000D01*
X106870000Y-130990000D02*
X106870000Y-140110000D01*
X106870000Y-139650000D02*
X116990000Y-139650000D01*
X107882000Y-136331000D02*
X107776000Y-136438000D01*
X115818000Y-133396000D02*
X115438000Y-133776000D01*
X106630000Y-140350000D02*
X107030000Y-140350000D01*
X106870000Y-140110000D02*
X116990000Y-140110000D01*
X116990000Y-130990000D02*
X116990000Y-140110000D01*
X116084000Y-133662000D02*
X115689000Y-134058000D01*
X110818000Y-133396000D02*
X110711000Y-133503000D01*
X106870000Y-130990000D02*
X116990000Y-130990000D01*
X106870000Y-138550000D02*
X116990000Y-138550000D01*
X111084000Y-133662000D02*
X110977000Y-133769000D01*
X108148000Y-136597000D02*
X108042000Y-136704000D01*
X106630000Y-139710000D02*
X106630000Y-140350000D01*
%TO.C,J23*%
X184440000Y-83560000D02*
X193560000Y-83560000D01*
X189774000Y-77007000D02*
X190154000Y-77387000D01*
X186846000Y-74612000D02*
X187226000Y-74992000D01*
X193160000Y-83800000D02*
X193800000Y-83800000D01*
X189781000Y-82548000D02*
X189888000Y-82654000D01*
X192000000Y-83560000D02*
X192000000Y-73440000D01*
X186846000Y-79612000D02*
X186953000Y-79719000D01*
X187112000Y-74346000D02*
X187508000Y-74741000D01*
X187112000Y-79346000D02*
X187219000Y-79453000D01*
X193560000Y-83560000D02*
X193560000Y-73440000D01*
X193100000Y-83560000D02*
X193100000Y-73440000D01*
X193800000Y-83800000D02*
X193800000Y-83400000D01*
X184440000Y-83560000D02*
X184440000Y-73440000D01*
X190047000Y-82282000D02*
X190154000Y-82388000D01*
X189492000Y-77258000D02*
X189888000Y-77653000D01*
X190680000Y-81000000D02*
G75*
G03*
X190680000Y-81000000I-2180000J0D01*
G01*
X190680000Y-76000000D02*
G75*
G03*
X190680000Y-76000000I-2180000J0D01*
G01*
%TO.C,J21*%
X193560000Y-73560000D02*
X193560000Y-63440000D01*
X184440000Y-73560000D02*
X184440000Y-63440000D01*
X193100000Y-73560000D02*
X193100000Y-63440000D01*
X189774000Y-67007000D02*
X190154000Y-67387000D01*
X189781000Y-72548000D02*
X189888000Y-72654000D01*
X184440000Y-73560000D02*
X193560000Y-73560000D01*
X186846000Y-69612000D02*
X186953000Y-69719000D01*
X192000000Y-73560000D02*
X192000000Y-63440000D01*
X189492000Y-67258000D02*
X189888000Y-67653000D01*
X187112000Y-64346000D02*
X187508000Y-64741000D01*
X187112000Y-69346000D02*
X187219000Y-69453000D01*
X186846000Y-64612000D02*
X187226000Y-64992000D01*
X184440000Y-63440000D02*
X193560000Y-63440000D01*
X190047000Y-72282000D02*
X190154000Y-72388000D01*
X190680000Y-66000000D02*
G75*
G03*
X190680000Y-66000000I-2180000J0D01*
G01*
X190680000Y-71000000D02*
G75*
G03*
X190680000Y-71000000I-2180000J0D01*
G01*
%TO.C,J25*%
X192000000Y-63560000D02*
X192000000Y-53440000D01*
X187112000Y-54346000D02*
X187508000Y-54741000D01*
X189492000Y-57258000D02*
X189888000Y-57653000D01*
X189781000Y-62548000D02*
X189888000Y-62654000D01*
X189774000Y-57007000D02*
X190154000Y-57387000D01*
X187112000Y-59346000D02*
X187219000Y-59453000D01*
X193100000Y-63560000D02*
X193100000Y-53440000D01*
X184440000Y-63560000D02*
X184440000Y-53440000D01*
X190047000Y-62282000D02*
X190154000Y-62388000D01*
X186846000Y-54612000D02*
X187226000Y-54992000D01*
X186846000Y-59612000D02*
X186953000Y-59719000D01*
X193560000Y-63560000D02*
X193560000Y-53440000D01*
X184440000Y-53440000D02*
X193560000Y-53440000D01*
X190680000Y-56000000D02*
G75*
G03*
X190680000Y-56000000I-2180000J0D01*
G01*
X190680000Y-61000000D02*
G75*
G03*
X190680000Y-61000000I-2180000J0D01*
G01*
%TO.C,F1*%
X134800000Y-115500000D02*
X134800000Y-118300000D01*
X134800000Y-108700000D02*
X134800000Y-111500000D01*
X112200000Y-115500000D02*
X112200000Y-118300000D01*
X134800000Y-118300000D02*
X112200000Y-118300000D01*
X134800000Y-108700000D02*
X112200000Y-108700000D01*
X112200000Y-108700000D02*
X112200000Y-111500000D01*
D12*
%TO.C,S5*%
X183230000Y-111820000D02*
X183230000Y-114180000D01*
X188030000Y-115550000D02*
X183530000Y-115550000D01*
X188330000Y-114180000D02*
X188330000Y-111820000D01*
X188030000Y-110450000D02*
X183530000Y-110450000D01*
D14*
X181630000Y-111125000D02*
G75*
G03*
X181630000Y-111125000I-100000J0D01*
G01*
D11*
%TO.C,R4*%
X135397500Y-125727064D02*
X135397500Y-125272936D01*
X133927500Y-125727064D02*
X133927500Y-125272936D01*
%TO.C,J12*%
X132335000Y-54830000D02*
X132335000Y-52170000D01*
X101795000Y-54830000D02*
X132335000Y-54830000D01*
X99195000Y-54830000D02*
X99195000Y-53500000D01*
X100525000Y-54830000D02*
X99195000Y-54830000D01*
X101795000Y-52170000D02*
X132335000Y-52170000D01*
X101795000Y-54830000D02*
X101795000Y-52170000D01*
%TO.C,J14*%
X144670000Y-132145000D02*
X146000000Y-132145000D01*
X144670000Y-134745000D02*
X144670000Y-139885000D01*
X144670000Y-134745000D02*
X147330000Y-134745000D01*
X144670000Y-139885000D02*
X147330000Y-139885000D01*
X144670000Y-133475000D02*
X144670000Y-132145000D01*
X147330000Y-134745000D02*
X147330000Y-139885000D01*
%TO.C,R30*%
X148765000Y-45772936D02*
X148765000Y-46227064D01*
X150235000Y-45772936D02*
X150235000Y-46227064D01*
%TO.C,R13*%
X166272936Y-65085000D02*
X166727064Y-65085000D01*
X166272936Y-66555000D02*
X166727064Y-66555000D01*
%TO.C,J6*%
X98170000Y-107230000D02*
X98170000Y-104630000D01*
X100830000Y-104630000D02*
X98170000Y-104630000D01*
X100830000Y-107230000D02*
X98170000Y-107230000D01*
X100830000Y-107230000D02*
X100830000Y-104630000D01*
X100830000Y-108500000D02*
X100830000Y-109830000D01*
X100830000Y-109830000D02*
X99500000Y-109830000D01*
%TO.C,Q8*%
X166500000Y-71810000D02*
X167150000Y-71810000D01*
X166500000Y-71810000D02*
X165850000Y-71810000D01*
X166500000Y-68690000D02*
X164825000Y-68690000D01*
X166500000Y-68690000D02*
X167150000Y-68690000D01*
%TO.C,R8*%
X145265000Y-120227064D02*
X145265000Y-119772936D01*
X146735000Y-120227064D02*
X146735000Y-119772936D01*
%TO.C,R5*%
X139735000Y-120227064D02*
X139735000Y-119772936D01*
X138265000Y-120227064D02*
X138265000Y-119772936D01*
%TO.C,Q1*%
X137602500Y-125500000D02*
X137602500Y-127175000D01*
X140722500Y-125500000D02*
X140722500Y-126150000D01*
X140722500Y-125500000D02*
X140722500Y-124850000D01*
X137602500Y-125500000D02*
X137602500Y-124850000D01*
%TO.C,R3*%
X103235000Y-91272936D02*
X103235000Y-91727064D01*
X101765000Y-91272936D02*
X101765000Y-91727064D01*
%TO.C,J3*%
X101445000Y-82330000D02*
X101445000Y-79670000D01*
X98845000Y-82330000D02*
X98845000Y-81000000D01*
X142145000Y-82330000D02*
X142145000Y-79670000D01*
X101445000Y-82330000D02*
X142145000Y-82330000D01*
X101445000Y-79670000D02*
X142145000Y-79670000D01*
X100175000Y-82330000D02*
X98845000Y-82330000D01*
%TO.C,J7*%
X143580000Y-63350000D02*
X140920000Y-63350000D01*
X143580000Y-71030000D02*
X143580000Y-63350000D01*
X143580000Y-73630000D02*
X142250000Y-73630000D01*
X143580000Y-72300000D02*
X143580000Y-73630000D01*
X140920000Y-71030000D02*
X140920000Y-63350000D01*
X143580000Y-71030000D02*
X140920000Y-71030000D01*
%TO.C,R16*%
X154022936Y-74265000D02*
X154477064Y-74265000D01*
X154022936Y-75735000D02*
X154477064Y-75735000D01*
%TO.C,Q11*%
X178675000Y-85120000D02*
X183316000Y-85120000D01*
X178675000Y-78149000D02*
X180185000Y-78149000D01*
X183316000Y-85120000D02*
X183316000Y-74880000D01*
X178675000Y-85120000D02*
X178675000Y-74880000D01*
X178675000Y-74880000D02*
X183316000Y-74880000D01*
X178675000Y-81850000D02*
X180185000Y-81850000D01*
X180185000Y-85120000D02*
X180185000Y-74880000D01*
%TO.C,Q7*%
X174500000Y-137440000D02*
X175150000Y-137440000D01*
X174500000Y-140560000D02*
X173850000Y-140560000D01*
X174500000Y-137440000D02*
X172825000Y-137440000D01*
X174500000Y-140560000D02*
X175150000Y-140560000D01*
%TO.C,R28*%
X145265000Y-46227064D02*
X145265000Y-45772936D01*
X146735000Y-46227064D02*
X146735000Y-45772936D01*
%TO.C,R1*%
X100272936Y-96265000D02*
X100727064Y-96265000D01*
X100272936Y-97735000D02*
X100727064Y-97735000D01*
%TO.C,R12*%
X159265000Y-120227064D02*
X159265000Y-119772936D01*
X160735000Y-120227064D02*
X160735000Y-119772936D01*
%TO.C,C2*%
X160738748Y-70085000D02*
X161261252Y-70085000D01*
X160738748Y-71555000D02*
X161261252Y-71555000D01*
%TO.C,J22*%
X152670000Y-84755000D02*
X152670000Y-82155000D01*
X155330000Y-86025000D02*
X155330000Y-87355000D01*
X155330000Y-82155000D02*
X152670000Y-82155000D01*
X155330000Y-84755000D02*
X155330000Y-82155000D01*
X155330000Y-84755000D02*
X152670000Y-84755000D01*
X155330000Y-87355000D02*
X154000000Y-87355000D01*
%TO.C,Q9*%
X178675000Y-63880000D02*
X183316000Y-63880000D01*
X180185000Y-74120000D02*
X180185000Y-63880000D01*
X178675000Y-70850000D02*
X180185000Y-70850000D01*
X178675000Y-67149000D02*
X180185000Y-67149000D01*
X178675000Y-74120000D02*
X183316000Y-74120000D01*
X178675000Y-74120000D02*
X178675000Y-63880000D01*
X183316000Y-74120000D02*
X183316000Y-63880000D01*
%TO.C,C3*%
X162485000Y-88488748D02*
X162485000Y-89011252D01*
X161015000Y-88488748D02*
X161015000Y-89011252D01*
%TO.C,J10*%
X194445000Y-100330000D02*
X194445000Y-97670000D01*
X176545000Y-100330000D02*
X176545000Y-99000000D01*
X177875000Y-100330000D02*
X176545000Y-100330000D01*
X179145000Y-100330000D02*
X179145000Y-97670000D01*
X179145000Y-100330000D02*
X194445000Y-100330000D01*
X179145000Y-97670000D02*
X194445000Y-97670000D01*
%TO.C,C1*%
X98265000Y-91238748D02*
X98265000Y-91761252D01*
X99735000Y-91238748D02*
X99735000Y-91761252D01*
%TO.C,J16*%
X161458800Y-132145000D02*
X162788800Y-132145000D01*
X161458800Y-134745000D02*
X164118800Y-134745000D01*
X164118800Y-134745000D02*
X164118800Y-139885000D01*
X161458800Y-133475000D02*
X161458800Y-132145000D01*
X161458800Y-139885000D02*
X164118800Y-139885000D01*
X161458800Y-134745000D02*
X161458800Y-139885000D01*
%TO.C,R7*%
X141765000Y-119772936D02*
X141765000Y-120227064D01*
X143235000Y-119772936D02*
X143235000Y-120227064D01*
%TO.C,R20*%
X162485000Y-84022936D02*
X162485000Y-84477064D01*
X161015000Y-84022936D02*
X161015000Y-84477064D01*
%TO.C,Q12*%
X166500000Y-51260000D02*
X164825000Y-51260000D01*
X166500000Y-54380000D02*
X165850000Y-54380000D01*
X166500000Y-51260000D02*
X167150000Y-51260000D01*
X166500000Y-54380000D02*
X167150000Y-54380000D01*
%TO.C,C4*%
X142735000Y-45738748D02*
X142735000Y-46261252D01*
X141265000Y-45738748D02*
X141265000Y-46261252D01*
%TO.C,R18*%
X160772936Y-68055000D02*
X161227064Y-68055000D01*
X160772936Y-66585000D02*
X161227064Y-66585000D01*
%TO.C,R21*%
X181485000Y-89047064D02*
X181485000Y-88592936D01*
X180015000Y-89047064D02*
X180015000Y-88592936D01*
%TO.C,Q13*%
X178730000Y-63160000D02*
X178730000Y-52920000D01*
X178730000Y-52920000D02*
X183371000Y-52920000D01*
X180240000Y-63160000D02*
X180240000Y-52920000D01*
X178730000Y-59890000D02*
X180240000Y-59890000D01*
X183371000Y-63160000D02*
X183371000Y-52920000D01*
X178730000Y-63160000D02*
X183371000Y-63160000D01*
X178730000Y-56189000D02*
X180240000Y-56189000D01*
%TO.C,J13*%
X135170000Y-54900000D02*
X137830000Y-54900000D01*
X135170000Y-44620000D02*
X136500000Y-44620000D01*
X135170000Y-47220000D02*
X137830000Y-47220000D01*
X137830000Y-47220000D02*
X137830000Y-54900000D01*
X135170000Y-45950000D02*
X135170000Y-44620000D01*
X135170000Y-47220000D02*
X135170000Y-54900000D01*
%TO.C,J4*%
X135605000Y-66488000D02*
X110145000Y-66488000D01*
X110145000Y-66488000D02*
X110145000Y-69148000D01*
X136875000Y-66488000D02*
X138205000Y-66488000D01*
X138205000Y-66488000D02*
X138205000Y-67818000D01*
X135605000Y-69148000D02*
X110145000Y-69148000D01*
X135605000Y-66488000D02*
X135605000Y-69148000D01*
%TO.C,R14*%
X154477064Y-73485000D02*
X154022936Y-73485000D01*
X154477064Y-72015000D02*
X154022936Y-72015000D01*
%TO.C,R22*%
X157515000Y-84477064D02*
X157515000Y-84022936D01*
X158985000Y-84477064D02*
X158985000Y-84022936D01*
%TO.C,Q10*%
X166500000Y-84760000D02*
X164825000Y-84760000D01*
X166500000Y-87880000D02*
X165850000Y-87880000D01*
X166500000Y-87880000D02*
X167150000Y-87880000D01*
X166500000Y-84760000D02*
X167150000Y-84760000D01*
%TO.C,Q3*%
X143940000Y-128000000D02*
X143940000Y-128650000D01*
X147060000Y-128000000D02*
X147060000Y-126325000D01*
X147060000Y-128000000D02*
X147060000Y-128650000D01*
X143940000Y-128000000D02*
X143940000Y-127350000D01*
%TO.C,Q2*%
X149190000Y-128062500D02*
X149190000Y-127412500D01*
X149190000Y-128062500D02*
X149190000Y-128712500D01*
X152310000Y-128062500D02*
X152310000Y-126387500D01*
X152310000Y-128062500D02*
X152310000Y-128712500D01*
%TO.C,R26*%
X148227064Y-51235000D02*
X147772936Y-51235000D01*
X148227064Y-49765000D02*
X147772936Y-49765000D01*
%TO.C,D2*%
X174038820Y-83032800D02*
X170738820Y-83032800D01*
X170738820Y-83032800D02*
X170738820Y-88432800D01*
X174038820Y-83032800D02*
X174038820Y-88432800D01*
%TO.C,R17*%
X176765000Y-75772936D02*
X176765000Y-76227064D01*
X178235000Y-75772936D02*
X178235000Y-76227064D01*
%TO.C,R24*%
X158985000Y-88522936D02*
X158985000Y-88977064D01*
X157515000Y-88522936D02*
X157515000Y-88977064D01*
%TO.C,R27*%
X168272936Y-61105000D02*
X168727064Y-61105000D01*
X168272936Y-59635000D02*
X168727064Y-59635000D01*
%TO.C,Q5*%
X158000000Y-140560000D02*
X158650000Y-140560000D01*
X158000000Y-140560000D02*
X157350000Y-140560000D01*
X158000000Y-137440000D02*
X156325000Y-137440000D01*
X158000000Y-137440000D02*
X158650000Y-137440000D01*
D12*
%TO.C,S3*%
X179440000Y-107830000D02*
X179440000Y-105470000D01*
X179140000Y-104100000D02*
X174640000Y-104100000D01*
X174340000Y-105470000D02*
X174340000Y-107830000D01*
X179140000Y-109200000D02*
X174640000Y-109200000D01*
D14*
X172740000Y-104775000D02*
G75*
G03*
X172740000Y-104775000I-100000J0D01*
G01*
D11*
%TO.C,R25*%
X161515000Y-52977064D02*
X161515000Y-52522936D01*
X162985000Y-52977064D02*
X162985000Y-52522936D01*
D12*
%TO.C,S1*%
X170550000Y-121800000D02*
X170550000Y-119440000D01*
X170250000Y-123170000D02*
X165750000Y-123170000D01*
X170250000Y-118070000D02*
X165750000Y-118070000D01*
X165450000Y-119440000D02*
X165450000Y-121800000D01*
D14*
X163850000Y-118745000D02*
G75*
G03*
X163850000Y-118745000I-100000J0D01*
G01*
D12*
%TO.C,S6*%
X188030000Y-123170000D02*
X183530000Y-123170000D01*
X188030000Y-118070000D02*
X183530000Y-118070000D01*
X188330000Y-121800000D02*
X188330000Y-119440000D01*
X183230000Y-119440000D02*
X183230000Y-121800000D01*
D14*
X181630000Y-118745000D02*
G75*
G03*
X181630000Y-118745000I-100000J0D01*
G01*
D11*
%TO.C,JP1*%
X176000000Y-124100000D02*
X176000000Y-122700000D01*
X178000000Y-122700000D02*
X178000000Y-124100000D01*
X177300000Y-124800000D02*
X176700000Y-124800000D01*
X176700000Y-122000000D02*
X177300000Y-122000000D01*
X177300000Y-124800000D02*
G75*
G03*
X178000000Y-124100000I0J700000D01*
G01*
X178000000Y-122700000D02*
G75*
G03*
X177300000Y-122000000I-699999J1D01*
G01*
X176700000Y-122000000D02*
G75*
G03*
X176000000Y-122700000I-1J-699999D01*
G01*
X176000000Y-124100000D02*
G75*
G03*
X176700000Y-124800000I700000J0D01*
G01*
%TO.C,R11*%
X157235000Y-119822936D02*
X157235000Y-120277064D01*
X155765000Y-119822936D02*
X155765000Y-120277064D01*
%TO.C,J1*%
X128670000Y-134270000D02*
X128670000Y-139410000D01*
X128670000Y-134270000D02*
X131330000Y-134270000D01*
X128670000Y-131670000D02*
X130000000Y-131670000D01*
X128670000Y-133000000D02*
X128670000Y-131670000D01*
X131330000Y-134270000D02*
X131330000Y-139410000D01*
X128670000Y-139410000D02*
X131330000Y-139410000D01*
%TO.C,R9*%
X150110000Y-119772936D02*
X150110000Y-120227064D01*
X148640000Y-119772936D02*
X148640000Y-120227064D01*
D12*
%TO.C,S2*%
X179140000Y-110450000D02*
X174640000Y-110450000D01*
X179140000Y-115550000D02*
X174640000Y-115550000D01*
X179440000Y-114180000D02*
X179440000Y-111820000D01*
X174340000Y-111820000D02*
X174340000Y-114180000D01*
D14*
X172740000Y-111125000D02*
G75*
G03*
X172740000Y-111125000I-100000J0D01*
G01*
D11*
%TO.C,D1*%
X170350000Y-65430000D02*
X170350000Y-70830000D01*
X173650000Y-65430000D02*
X173650000Y-70830000D01*
X173650000Y-65430000D02*
X170350000Y-65430000D01*
D12*
%TO.C,S4*%
X170550000Y-114180000D02*
X170550000Y-111820000D01*
X165450000Y-111820000D02*
X165450000Y-114180000D01*
X170250000Y-110450000D02*
X165750000Y-110450000D01*
X170250000Y-115550000D02*
X165750000Y-115550000D01*
D14*
X163850000Y-111125000D02*
G75*
G03*
X163850000Y-111125000I-100000J0D01*
G01*
D11*
%TO.C,J20*%
X152920000Y-68255000D02*
X152920000Y-65655000D01*
X155580000Y-68255000D02*
X155580000Y-65655000D01*
X155580000Y-70855000D02*
X154250000Y-70855000D01*
X155580000Y-68255000D02*
X152920000Y-68255000D01*
X155580000Y-69525000D02*
X155580000Y-70855000D01*
X155580000Y-65655000D02*
X152920000Y-65655000D01*
%TO.C,R10*%
X152265000Y-120227064D02*
X152265000Y-119772936D01*
X153735000Y-120227064D02*
X153735000Y-119772936D01*
%TO.C,D3*%
X173650000Y-47920000D02*
X170350000Y-47920000D01*
X173650000Y-47920000D02*
X173650000Y-53320000D01*
X170350000Y-47920000D02*
X170350000Y-53320000D01*
%TO.C,R23*%
X182515000Y-88592936D02*
X182515000Y-89047064D01*
X183985000Y-88592936D02*
X183985000Y-89047064D01*
%TO.C,JP2*%
X105775000Y-111170000D02*
X107105000Y-111170000D01*
X104505000Y-111170000D02*
X101905000Y-111170000D01*
X107105000Y-111170000D02*
X107105000Y-112500000D01*
X104505000Y-113830000D02*
X101905000Y-113830000D01*
X101905000Y-111170000D02*
X101905000Y-113830000D01*
X104505000Y-111170000D02*
X104505000Y-113830000D01*
%TO.C,Q4*%
X158000000Y-132440000D02*
X156325000Y-132440000D01*
X158000000Y-135560000D02*
X157350000Y-135560000D01*
X158000000Y-135560000D02*
X158650000Y-135560000D01*
X158000000Y-132440000D02*
X158650000Y-132440000D01*
%TO.C,R19*%
X165765000Y-90727064D02*
X165765000Y-90272936D01*
X167235000Y-90727064D02*
X167235000Y-90272936D01*
%TO.C,Q6*%
X174500000Y-132440000D02*
X172825000Y-132440000D01*
X174500000Y-132440000D02*
X175150000Y-132440000D01*
X174500000Y-135560000D02*
X173850000Y-135560000D01*
X174500000Y-135560000D02*
X175150000Y-135560000D01*
%TO.C,R2*%
X106735000Y-91727064D02*
X106735000Y-91272936D01*
X105265000Y-91727064D02*
X105265000Y-91272936D01*
%TO.C,J18*%
X177670000Y-132145000D02*
X179000000Y-132145000D01*
X177670000Y-134745000D02*
X180330000Y-134745000D01*
X177670000Y-139885000D02*
X180330000Y-139885000D01*
X180330000Y-134745000D02*
X180330000Y-139885000D01*
X177670000Y-133475000D02*
X177670000Y-132145000D01*
X177670000Y-134745000D02*
X177670000Y-139885000D01*
%TO.C,R15*%
X170522936Y-75765000D02*
X170977064Y-75765000D01*
X170522936Y-77235000D02*
X170977064Y-77235000D01*
%TO.C,J24*%
X155830000Y-54005000D02*
X155830000Y-51405000D01*
X155830000Y-54005000D02*
X153170000Y-54005000D01*
X155830000Y-55275000D02*
X155830000Y-56605000D01*
X155830000Y-56605000D02*
X154500000Y-56605000D01*
X153170000Y-54005000D02*
X153170000Y-51405000D01*
X155830000Y-51405000D02*
X153170000Y-51405000D01*
%TO.C,SW1*%
X98450000Y-118150000D02*
X105050000Y-118150000D01*
X105050000Y-118150000D02*
X105050000Y-130950000D01*
X105050000Y-130950000D02*
X98450000Y-130950000D01*
X98450000Y-130950000D02*
X98450000Y-118150000D01*
%TO.C,R29*%
X176265000Y-61592936D02*
X176265000Y-62047064D01*
X177735000Y-61592936D02*
X177735000Y-62047064D01*
%TD*%
M02*
