%TF.GenerationSoftware,KiCad,Pcbnew,6.0.11-2627ca5db0~126~ubuntu22.04.1*%
%TF.CreationDate,2023-02-25T17:34:07+01:00*%
%TF.ProjectId,pyroDirector,7079726f-4469-4726-9563-746f722e6b69,rev?*%
%TF.SameCoordinates,Original*%
%TF.FileFunction,Paste,Top*%
%TF.FilePolarity,Positive*%
%FSLAX46Y46*%
G04 Gerber Fmt 4.6, Leading zero omitted, Abs format (unit mm)*
G04 Created by KiCad (PCBNEW 6.0.11-2627ca5db0~126~ubuntu22.04.1) date 2023-02-25 17:34:07*
%MOMM*%
%LPD*%
G01*
G04 APERTURE LIST*
G04 Aperture macros list*
%AMRoundRect*
0 Rectangle with rounded corners*
0 $1 Rounding radius*
0 $2 $3 $4 $5 $6 $7 $8 $9 X,Y pos of 4 corners*
0 Add a 4 corners polygon primitive as box body*
4,1,4,$2,$3,$4,$5,$6,$7,$8,$9,$2,$3,0*
0 Add four circle primitives for the rounded corners*
1,1,$1+$1,$2,$3*
1,1,$1+$1,$4,$5*
1,1,$1+$1,$6,$7*
1,1,$1+$1,$8,$9*
0 Add four rect primitives between the rounded corners*
20,1,$1+$1,$2,$3,$4,$5,0*
20,1,$1+$1,$4,$5,$6,$7,0*
20,1,$1+$1,$6,$7,$8,$9,0*
20,1,$1+$1,$8,$9,$2,$3,0*%
G04 Aperture macros list end*
%ADD10R,1.000000X0.750000*%
%ADD11RoundRect,0.250000X0.450000X-0.350000X0.450000X0.350000X-0.450000X0.350000X-0.450000X-0.350000X0*%
%ADD12RoundRect,0.250000X-0.450000X0.350000X-0.450000X-0.350000X0.450000X-0.350000X0.450000X0.350000X0*%
%ADD13RoundRect,0.250000X-0.350000X-0.450000X0.350000X-0.450000X0.350000X0.450000X-0.350000X0.450000X0*%
%ADD14RoundRect,0.150000X-0.587500X-0.150000X0.587500X-0.150000X0.587500X0.150000X-0.587500X0.150000X0*%
%ADD15RoundRect,0.150000X0.150000X-0.587500X0.150000X0.587500X-0.150000X0.587500X-0.150000X-0.587500X0*%
%ADD16RoundRect,0.250000X-0.337500X-0.475000X0.337500X-0.475000X0.337500X0.475000X-0.337500X0.475000X0*%
%ADD17RoundRect,0.250000X-0.475000X0.337500X-0.475000X-0.337500X0.475000X-0.337500X0.475000X0.337500X0*%
%ADD18RoundRect,0.250000X0.350000X0.450000X-0.350000X0.450000X-0.350000X-0.450000X0.350000X-0.450000X0*%
%ADD19RoundRect,0.150000X-0.150000X0.587500X-0.150000X-0.587500X0.150000X-0.587500X0.150000X0.587500X0*%
%ADD20R,1.800000X2.500000*%
G04 APERTURE END LIST*
D10*
%TO.C,S5*%
X182780000Y-111125000D03*
X188780000Y-111125000D03*
X182780000Y-114875000D03*
X188780000Y-114875000D03*
%TD*%
D11*
%TO.C,R4*%
X134662500Y-126500000D03*
X134662500Y-124500000D03*
%TD*%
D12*
%TO.C,R30*%
X149500000Y-45000000D03*
X149500000Y-47000000D03*
%TD*%
D13*
%TO.C,R13*%
X165500000Y-65820000D03*
X167500000Y-65820000D03*
%TD*%
D14*
%TO.C,Q8*%
X165562500Y-69300000D03*
X165562500Y-71200000D03*
X167437500Y-70250000D03*
%TD*%
D11*
%TO.C,R8*%
X146000000Y-121000000D03*
X146000000Y-119000000D03*
%TD*%
%TO.C,R5*%
X139000000Y-121000000D03*
X139000000Y-119000000D03*
%TD*%
D15*
%TO.C,Q1*%
X138212500Y-126437500D03*
X140112500Y-126437500D03*
X139162500Y-124562500D03*
%TD*%
D12*
%TO.C,R3*%
X102500000Y-90500000D03*
X102500000Y-92500000D03*
%TD*%
D13*
%TO.C,R16*%
X153250000Y-75000000D03*
X155250000Y-75000000D03*
%TD*%
D14*
%TO.C,Q7*%
X173562500Y-138050000D03*
X173562500Y-139950000D03*
X175437500Y-139000000D03*
%TD*%
D11*
%TO.C,R28*%
X146000000Y-47000000D03*
X146000000Y-45000000D03*
%TD*%
D13*
%TO.C,R1*%
X99500000Y-97000000D03*
X101500000Y-97000000D03*
%TD*%
D11*
%TO.C,R12*%
X160000000Y-121000000D03*
X160000000Y-119000000D03*
%TD*%
D16*
%TO.C,C2*%
X159962500Y-70820000D03*
X162037500Y-70820000D03*
%TD*%
D17*
%TO.C,C3*%
X161750000Y-87712500D03*
X161750000Y-89787500D03*
%TD*%
%TO.C,C1*%
X99000000Y-90462500D03*
X99000000Y-92537500D03*
%TD*%
D12*
%TO.C,R7*%
X142500000Y-119000000D03*
X142500000Y-121000000D03*
%TD*%
%TO.C,R20*%
X161750000Y-83250000D03*
X161750000Y-85250000D03*
%TD*%
D14*
%TO.C,Q12*%
X165562500Y-51870000D03*
X165562500Y-53770000D03*
X167437500Y-52820000D03*
%TD*%
D17*
%TO.C,C4*%
X142000000Y-44962500D03*
X142000000Y-47037500D03*
%TD*%
D13*
%TO.C,R18*%
X160000000Y-67320000D03*
X162000000Y-67320000D03*
%TD*%
D11*
%TO.C,R21*%
X180750000Y-89820000D03*
X180750000Y-87820000D03*
%TD*%
D18*
%TO.C,R14*%
X155250000Y-72750000D03*
X153250000Y-72750000D03*
%TD*%
D11*
%TO.C,R22*%
X158250000Y-85250000D03*
X158250000Y-83250000D03*
%TD*%
D14*
%TO.C,Q10*%
X165562500Y-85370000D03*
X165562500Y-87270000D03*
X167437500Y-86320000D03*
%TD*%
D19*
%TO.C,Q3*%
X146450000Y-127062500D03*
X144550000Y-127062500D03*
X145500000Y-128937500D03*
%TD*%
%TO.C,Q2*%
X151700000Y-127125000D03*
X149800000Y-127125000D03*
X150750000Y-129000000D03*
%TD*%
D18*
%TO.C,R26*%
X149000000Y-50500000D03*
X147000000Y-50500000D03*
%TD*%
D20*
%TO.C,D2*%
X172388820Y-84432800D03*
X172388820Y-88432800D03*
%TD*%
D12*
%TO.C,R17*%
X177500000Y-75000000D03*
X177500000Y-77000000D03*
%TD*%
%TO.C,R24*%
X158250000Y-87750000D03*
X158250000Y-89750000D03*
%TD*%
D13*
%TO.C,R27*%
X167500000Y-60370000D03*
X169500000Y-60370000D03*
%TD*%
D14*
%TO.C,Q5*%
X157062500Y-138050000D03*
X157062500Y-139950000D03*
X158937500Y-139000000D03*
%TD*%
D10*
%TO.C,S3*%
X173890000Y-104775000D03*
X179890000Y-104775000D03*
X173890000Y-108525000D03*
X179890000Y-108525000D03*
%TD*%
D11*
%TO.C,R25*%
X162250000Y-53750000D03*
X162250000Y-51750000D03*
%TD*%
D10*
%TO.C,S1*%
X165000000Y-118745000D03*
X171000000Y-118745000D03*
X165000000Y-122495000D03*
X171000000Y-122495000D03*
%TD*%
%TO.C,S6*%
X182780000Y-118745000D03*
X188780000Y-118745000D03*
X182780000Y-122495000D03*
X188780000Y-122495000D03*
%TD*%
D12*
%TO.C,R11*%
X156500000Y-119050000D03*
X156500000Y-121050000D03*
%TD*%
%TO.C,R9*%
X149375000Y-119000000D03*
X149375000Y-121000000D03*
%TD*%
D10*
%TO.C,S2*%
X173890000Y-111125000D03*
X179890000Y-111125000D03*
X173890000Y-114875000D03*
X179890000Y-114875000D03*
%TD*%
D20*
%TO.C,D1*%
X172000000Y-66830000D03*
X172000000Y-70830000D03*
%TD*%
D10*
%TO.C,S4*%
X165000000Y-111125000D03*
X171000000Y-111125000D03*
X165000000Y-114875000D03*
X171000000Y-114875000D03*
%TD*%
D11*
%TO.C,R10*%
X153000000Y-121000000D03*
X153000000Y-119000000D03*
%TD*%
D20*
%TO.C,D3*%
X172000000Y-49320000D03*
X172000000Y-53320000D03*
%TD*%
D12*
%TO.C,R23*%
X183250000Y-87820000D03*
X183250000Y-89820000D03*
%TD*%
D14*
%TO.C,Q4*%
X157062500Y-133050000D03*
X157062500Y-134950000D03*
X158937500Y-134000000D03*
%TD*%
D11*
%TO.C,R19*%
X166500000Y-91500000D03*
X166500000Y-89500000D03*
%TD*%
D14*
%TO.C,Q6*%
X173562500Y-133050000D03*
X173562500Y-134950000D03*
X175437500Y-134000000D03*
%TD*%
D11*
%TO.C,R2*%
X106000000Y-92500000D03*
X106000000Y-90500000D03*
%TD*%
D13*
%TO.C,R15*%
X169750000Y-76500000D03*
X171750000Y-76500000D03*
%TD*%
D12*
%TO.C,R29*%
X177000000Y-60820000D03*
X177000000Y-62820000D03*
%TD*%
M02*
