%TF.GenerationSoftware,KiCad,Pcbnew,6.0.11-2627ca5db0~126~ubuntu22.04.1*%
%TF.CreationDate,2023-02-25T17:34:07+01:00*%
%TF.ProjectId,pyroDirector,7079726f-4469-4726-9563-746f722e6b69,rev?*%
%TF.SameCoordinates,Original*%
%TF.FileFunction,Soldermask,Bot*%
%TF.FilePolarity,Negative*%
%FSLAX46Y46*%
G04 Gerber Fmt 4.6, Leading zero omitted, Abs format (unit mm)*
G04 Created by KiCad (PCBNEW 6.0.11-2627ca5db0~126~ubuntu22.04.1) date 2023-02-25 17:34:07*
%MOMM*%
%LPD*%
G01*
G04 APERTURE LIST*
%ADD10C,2.400000*%
%ADD11O,2.400000X2.400000*%
%ADD12C,1.200000*%
%ADD13O,2.416000X1.208000*%
%ADD14O,1.208000X2.416000*%
%ADD15O,2.800000X1.800000*%
%ADD16R,2.600000X2.600000*%
%ADD17C,2.600000*%
%ADD18C,2.800000*%
%ADD19R,1.700000X1.700000*%
%ADD20O,1.700000X1.700000*%
%ADD21R,2.000000X1.905000*%
%ADD22O,2.000000X1.905000*%
%ADD23C,0.800000*%
%ADD24C,6.400000*%
%ADD25R,1.950000X1.950000*%
%ADD26C,1.950000*%
%ADD27C,1.676400*%
G04 APERTURE END LIST*
D10*
%TO.C,R6*%
X99585000Y-101500000D03*
D11*
X155465000Y-101500000D03*
%TD*%
D12*
%TO.C,J19*%
X184215300Y-138800000D03*
D13*
X184215300Y-141200000D03*
D14*
X186065300Y-136300000D03*
X182365300Y-136300000D03*
D13*
X184215300Y-134300000D03*
%TD*%
D12*
%TO.C,J17*%
X168004100Y-138773600D03*
D13*
X168004100Y-141173600D03*
D14*
X169854100Y-136273600D03*
X166154100Y-136273600D03*
D13*
X168004100Y-134273600D03*
%TD*%
D12*
%TO.C,J15*%
X151500000Y-138800000D03*
D13*
X151500000Y-141200000D03*
D14*
X153350000Y-136300000D03*
X149650000Y-136300000D03*
D13*
X151500000Y-134300000D03*
%TD*%
D15*
%TO.C,J2*%
X135500000Y-132900000D03*
X137500000Y-134700000D03*
X137500000Y-140800000D03*
X135500000Y-138400000D03*
X137500000Y-129200000D03*
%TD*%
D16*
%TO.C,J8*%
X119430000Y-135050000D03*
D17*
X124430000Y-135050000D03*
%TD*%
%TO.C,J9*%
X114430000Y-135050000D03*
D16*
X109430000Y-135050000D03*
%TD*%
%TO.C,J23*%
X188500000Y-81000000D03*
D17*
X188500000Y-76000000D03*
%TD*%
D16*
%TO.C,J21*%
X188500000Y-71000000D03*
D17*
X188500000Y-66000000D03*
%TD*%
D16*
%TO.C,J25*%
X188500000Y-61000000D03*
D17*
X188500000Y-56000000D03*
%TD*%
D18*
%TO.C,F1*%
X134800000Y-113500000D03*
X112200000Y-113500000D03*
%TD*%
D19*
%TO.C,J12*%
X100525000Y-53500000D03*
D20*
X103065000Y-53500000D03*
X105605000Y-53500000D03*
X108145000Y-53500000D03*
X110685000Y-53500000D03*
X113225000Y-53500000D03*
X115765000Y-53500000D03*
X118305000Y-53500000D03*
X120845000Y-53500000D03*
X123385000Y-53500000D03*
X125925000Y-53500000D03*
X128465000Y-53500000D03*
X131005000Y-53500000D03*
%TD*%
D19*
%TO.C,J14*%
X146000000Y-133475000D03*
D20*
X146000000Y-136015000D03*
X146000000Y-138555000D03*
%TD*%
D19*
%TO.C,J6*%
X99500000Y-108500000D03*
D20*
X99500000Y-105960000D03*
%TD*%
D19*
%TO.C,J3*%
X100175000Y-81000000D03*
D20*
X102715000Y-81000000D03*
X105255000Y-81000000D03*
X107795000Y-81000000D03*
X110335000Y-81000000D03*
X112875000Y-81000000D03*
X115415000Y-81000000D03*
X117955000Y-81000000D03*
X120495000Y-81000000D03*
X123035000Y-81000000D03*
X125575000Y-81000000D03*
X128115000Y-81000000D03*
X130655000Y-81000000D03*
X133195000Y-81000000D03*
X135735000Y-81000000D03*
X138275000Y-81000000D03*
X140815000Y-81000000D03*
%TD*%
D19*
%TO.C,J7*%
X142250000Y-72300000D03*
D20*
X142250000Y-69760000D03*
X142250000Y-67220000D03*
X142250000Y-64680000D03*
%TD*%
D21*
%TO.C,Q11*%
X181945000Y-82540000D03*
D22*
X181945000Y-80000000D03*
X181945000Y-77460000D03*
%TD*%
D23*
%TO.C,H3*%
X100052944Y-45852944D03*
X101750000Y-49950000D03*
X104150000Y-47550000D03*
D24*
X101750000Y-47550000D03*
D23*
X103447056Y-49247056D03*
X101750000Y-45150000D03*
X99350000Y-47550000D03*
X100052944Y-49247056D03*
X103447056Y-45852944D03*
%TD*%
D19*
%TO.C,J22*%
X154000000Y-86025000D03*
D20*
X154000000Y-83485000D03*
%TD*%
D21*
%TO.C,Q9*%
X181945000Y-71540000D03*
D22*
X181945000Y-69000000D03*
X181945000Y-66460000D03*
%TD*%
D23*
%TO.C,H4*%
X190052944Y-49247056D03*
X191750000Y-49950000D03*
X194150000Y-47550000D03*
X193447056Y-45852944D03*
X190052944Y-45852944D03*
X191750000Y-45150000D03*
D24*
X191750000Y-47550000D03*
D23*
X189350000Y-47550000D03*
X193447056Y-49247056D03*
%TD*%
D19*
%TO.C,J10*%
X177875000Y-99000000D03*
D20*
X180415000Y-99000000D03*
X182955000Y-99000000D03*
X185495000Y-99000000D03*
X188035000Y-99000000D03*
X190575000Y-99000000D03*
X193115000Y-99000000D03*
%TD*%
D19*
%TO.C,J16*%
X162788800Y-133475000D03*
D20*
X162788800Y-136015000D03*
X162788800Y-138555000D03*
%TD*%
D21*
%TO.C,Q13*%
X182000000Y-60580000D03*
D22*
X182000000Y-58040000D03*
X182000000Y-55500000D03*
%TD*%
D19*
%TO.C,J13*%
X136500000Y-45950000D03*
D20*
X136500000Y-48490000D03*
X136500000Y-51030000D03*
X136500000Y-53570000D03*
%TD*%
D19*
%TO.C,J4*%
X136875000Y-67818000D03*
D20*
X134335000Y-67818000D03*
X131795000Y-67818000D03*
X129255000Y-67818000D03*
X126715000Y-67818000D03*
X124175000Y-67818000D03*
X121635000Y-67818000D03*
X119095000Y-67818000D03*
X116555000Y-67818000D03*
X114015000Y-67818000D03*
X111475000Y-67818000D03*
%TD*%
D23*
%TO.C,H1*%
X190052944Y-135852944D03*
D24*
X191750000Y-137550000D03*
D23*
X194150000Y-137550000D03*
X191750000Y-135150000D03*
X189350000Y-137550000D03*
X191750000Y-139950000D03*
X190052944Y-139247056D03*
X193447056Y-135852944D03*
X193447056Y-139247056D03*
%TD*%
%TO.C,H2*%
X104150000Y-137550000D03*
X103447056Y-135852944D03*
X100052944Y-139247056D03*
X101750000Y-139950000D03*
X103447056Y-139247056D03*
D24*
X101750000Y-137550000D03*
D23*
X100052944Y-135852944D03*
X101750000Y-135150000D03*
X99350000Y-137550000D03*
%TD*%
D19*
%TO.C,J1*%
X130000000Y-133000000D03*
D20*
X130000000Y-135540000D03*
X130000000Y-138080000D03*
%TD*%
D19*
%TO.C,J20*%
X154250000Y-69525000D03*
D20*
X154250000Y-66985000D03*
%TD*%
D19*
%TO.C,JP2*%
X105775000Y-112500000D03*
D20*
X103235000Y-112500000D03*
%TD*%
D19*
%TO.C,J18*%
X179000000Y-133475000D03*
D20*
X179000000Y-136015000D03*
X179000000Y-138555000D03*
%TD*%
D19*
%TO.C,J24*%
X154500000Y-55275000D03*
D20*
X154500000Y-52735000D03*
%TD*%
D17*
%TO.C,SW1*%
X101750000Y-119850000D03*
X101750000Y-124550000D03*
X101750000Y-129250000D03*
%TD*%
D25*
%TO.C,K2*%
X174500000Y-80330000D03*
D26*
X174500000Y-92330000D03*
X176500000Y-86330000D03*
X162300000Y-80330000D03*
X162300000Y-92330000D03*
%TD*%
D27*
%TO.C,U1*%
X106170000Y-57770000D03*
X106170000Y-60310000D03*
X103630000Y-57770000D03*
X103630000Y-60310000D03*
X149350000Y-75550000D03*
X111250000Y-93330000D03*
X111250000Y-90790000D03*
X113790000Y-93330000D03*
X113790000Y-90790000D03*
X116330000Y-93330000D03*
X116330000Y-90790000D03*
X118870000Y-93330000D03*
X118870000Y-90790000D03*
X121410000Y-93330000D03*
X121410000Y-90790000D03*
X123950000Y-93330000D03*
X123950000Y-90790000D03*
X126490000Y-93330000D03*
X126490000Y-90790000D03*
X129030000Y-93330000D03*
X129030000Y-90790000D03*
X108710000Y-60310000D03*
X113790000Y-60310000D03*
X113790000Y-57770000D03*
X116330000Y-60310000D03*
X116330000Y-57770000D03*
X118870000Y-60310000D03*
X118870000Y-57770000D03*
X121410000Y-60310000D03*
X121410000Y-57770000D03*
X123950000Y-60310000D03*
X123950000Y-57770000D03*
X126490000Y-60310000D03*
X126490000Y-57770000D03*
X129030000Y-60310000D03*
X129030000Y-57770000D03*
X131570000Y-60310000D03*
X131570000Y-57770000D03*
X134110000Y-60310000D03*
X134110000Y-57770000D03*
X136650000Y-60310000D03*
X136650000Y-57770000D03*
X139190000Y-60310000D03*
X139190000Y-57770000D03*
X141730000Y-60310000D03*
X141730000Y-57770000D03*
X144270000Y-60310000D03*
X144270000Y-57770000D03*
X146810000Y-60310000D03*
X146810000Y-57770000D03*
X149350000Y-60310000D03*
X149350000Y-57770000D03*
X131570000Y-93330000D03*
X131570000Y-90790000D03*
X134110000Y-93330000D03*
X134110000Y-90790000D03*
X136650000Y-93330000D03*
X136650000Y-90790000D03*
X139190000Y-93330000D03*
X139190000Y-90790000D03*
X141730000Y-93330000D03*
X141730000Y-90790000D03*
X144270000Y-93330000D03*
X144270000Y-90790000D03*
X146810000Y-93330000D03*
X146810000Y-90790000D03*
X149350000Y-93330000D03*
X149350000Y-90790000D03*
X149350000Y-88250000D03*
X146810000Y-88250000D03*
X149350000Y-85710000D03*
X146810000Y-85710000D03*
X149350000Y-83170000D03*
X146810000Y-83170000D03*
X101090000Y-57770000D03*
X101090000Y-60310000D03*
X149350000Y-70470000D03*
X146810000Y-75550000D03*
X149350000Y-73010000D03*
X146810000Y-70470000D03*
X108710000Y-57770000D03*
X111250000Y-60310000D03*
X146810000Y-73010000D03*
X111250000Y-57770000D03*
X98550000Y-57770000D03*
X98550000Y-60310000D03*
%TD*%
D19*
%TO.C,J11*%
X108250000Y-117700000D03*
D20*
X108250000Y-120240000D03*
X108250000Y-122780000D03*
X108250000Y-125320000D03*
%TD*%
D25*
%TO.C,K3*%
X174500000Y-45320000D03*
D26*
X174500000Y-57320000D03*
X176500000Y-51320000D03*
X162300000Y-45320000D03*
X162300000Y-57320000D03*
%TD*%
D25*
%TO.C,K1*%
X174500000Y-62830000D03*
D26*
X174500000Y-74830000D03*
X176500000Y-68830000D03*
X162300000Y-62830000D03*
X162300000Y-74830000D03*
%TD*%
M02*
