M48
; DRILL file {KiCad (6.0.9)} date Sun Jan  8 16:31:07 2023
; FORMAT={-:-/ absolute / metric / decimal}
; #@! TF.CreationDate,2023-01-08T16:31:07+01:00
; #@! TF.GenerationSoftware,Kicad,Pcbnew,(6.0.9)
; #@! TF.FileFunction,Plated,1,2,PTH
FMAT,2
METRIC
; #@! TA.AperFunction,Plated,PTH,ComponentDrill
T1C0.700
; #@! TA.AperFunction,Plated,PTH,ComponentDrill
T2C0.750
; #@! TA.AperFunction,Plated,PTH,ComponentDrill
T3C0.900
; #@! TA.AperFunction,Plated,PTH,ComponentDrill
T4C1.000
%
G90
G05
T1
X54.0Y-67.69
X54.0Y-75.31
X62.5Y-52.5
X70.12Y-52.5
X72.0Y-73.19
X72.0Y-80.81
X72.5Y-52.5
X78.0Y-73.19
X78.0Y-80.81
X80.12Y-52.5
X82.5Y-52.5
X90.12Y-52.5
X92.5Y-52.5
X98.515Y-70.332
X98.515Y-77.952
X100.12Y-52.5
X102.5Y-52.5
X109.5Y-71.19
X109.5Y-78.81
X110.12Y-52.5
X112.5Y-52.5
X120.12Y-52.5
X122.5Y-52.5
X130.12Y-52.5
X131.19Y-77.0
X131.5Y-66.19
X131.5Y-73.81
X132.5Y-52.5
X138.5Y-66.19
X138.5Y-73.81
X138.81Y-77.0
X140.12Y-52.5
T2
X91.23Y-71.53
X92.5Y-70.26
X93.77Y-71.53
T3
X53.75Y-61.0
X56.29Y-61.0
X63.75Y-61.0
X63.75Y-71.16
X66.29Y-61.0
X66.29Y-71.16
X73.75Y-61.0
X76.29Y-61.0
X83.75Y-61.0
X83.75Y-71.16
X86.29Y-61.0
X86.29Y-71.16
X93.75Y-61.0
X96.29Y-61.0
X103.75Y-61.0
X103.75Y-71.16
X106.29Y-61.0
X106.29Y-71.16
X113.75Y-61.0
X116.29Y-61.0
X123.75Y-61.0
X123.75Y-71.16
X126.29Y-61.0
X126.29Y-71.16
X133.75Y-61.0
X136.29Y-61.0
X143.75Y-61.0
X143.75Y-71.16
X146.29Y-61.0
X146.29Y-71.16
T4
X104.27Y-82.0
X106.81Y-82.0
X109.35Y-82.0
X111.89Y-82.0
X114.43Y-82.0
X116.97Y-82.0
X119.51Y-82.0
X122.05Y-82.0
X124.59Y-82.0
X127.13Y-82.0
X129.67Y-82.0
X132.21Y-82.0
X134.75Y-82.0
T0
M30
