%TF.GenerationSoftware,KiCad,Pcbnew,(6.0.9)*%
%TF.CreationDate,2023-01-08T16:32:16+01:00*%
%TF.ProjectId,led-counter,6c65642d-636f-4756-9e74-65722e6b6963,0.1*%
%TF.SameCoordinates,Original*%
%TF.FileFunction,Copper,L2,Bot*%
%TF.FilePolarity,Positive*%
%FSLAX46Y46*%
G04 Gerber Fmt 4.6, Leading zero omitted, Abs format (unit mm)*
G04 Created by KiCad (PCBNEW (6.0.9)) date 2023-01-08 16:32:16*
%MOMM*%
%LPD*%
G01*
G04 APERTURE LIST*
%TA.AperFunction,ComponentPad*%
%ADD10R,1.700000X1.700000*%
%TD*%
%TA.AperFunction,ComponentPad*%
%ADD11O,1.700000X1.700000*%
%TD*%
%TA.AperFunction,ComponentPad*%
%ADD12R,1.300000X1.300000*%
%TD*%
%TA.AperFunction,ComponentPad*%
%ADD13C,1.300000*%
%TD*%
%TA.AperFunction,ComponentPad*%
%ADD14O,1.400000X1.400000*%
%TD*%
%TA.AperFunction,ComponentPad*%
%ADD15C,1.400000*%
%TD*%
%TA.AperFunction,ComponentPad*%
%ADD16C,1.800000*%
%TD*%
%TA.AperFunction,ComponentPad*%
%ADD17R,1.800000X1.800000*%
%TD*%
%TA.AperFunction,Conductor*%
%ADD18C,0.500000*%
%TD*%
G04 APERTURE END LIST*
D10*
%TO.P,J1,1,Pin_1*%
%TO.N,Net-(D1-Pad2)*%
X134750000Y-82000000D03*
D11*
%TO.P,J1,2,Pin_2*%
%TO.N,Net-(D2-Pad2)*%
X132210000Y-82000000D03*
%TO.P,J1,3,Pin_3*%
%TO.N,Net-(D3-Pad2)*%
X129670000Y-82000000D03*
%TO.P,J1,4,Pin_4*%
%TO.N,Net-(D4-Pad2)*%
X127130000Y-82000000D03*
%TO.P,J1,5,Pin_5*%
%TO.N,Net-(D5-Pad2)*%
X124590000Y-82000000D03*
%TO.P,J1,6,Pin_6*%
%TO.N,Net-(D6-Pad2)*%
X122050000Y-82000000D03*
%TO.P,J1,7,Pin_7*%
%TO.N,Net-(D7-Pad2)*%
X119510000Y-82000000D03*
%TO.P,J1,8,Pin_8*%
%TO.N,Net-(D8-Pad2)*%
X116970000Y-82000000D03*
%TO.P,J1,9,Pin_9*%
%TO.N,Net-(D9-Pad2)*%
X114430000Y-82000000D03*
%TO.P,J1,10,Pin_10*%
%TO.N,Net-(D10-Pad2)*%
X111890000Y-82000000D03*
%TO.P,J1,11,Pin_11*%
%TO.N,Net-(J1-Pad11)*%
X109350000Y-82000000D03*
%TO.P,J1,12,Pin_12*%
%TO.N,+5V*%
X106810000Y-82000000D03*
%TO.P,J1,13,Pin_13*%
%TO.N,GND*%
X104270000Y-82000000D03*
%TD*%
D12*
%TO.P,Q1,1,E*%
%TO.N,GND*%
X91230000Y-71530000D03*
D13*
%TO.P,Q1,2,B*%
%TO.N,Net-(Q1-Pad2)*%
X92500000Y-70260000D03*
%TO.P,Q1,3,C*%
%TO.N,Net-(D11-Pad1)*%
X93770000Y-71530000D03*
%TD*%
D14*
%TO.P,R16,2*%
%TO.N,Net-(D15-Pad2)*%
X138810000Y-77000000D03*
D15*
%TO.P,R16,1*%
%TO.N,+5V*%
X131190000Y-77000000D03*
%TD*%
%TO.P,R15,1*%
%TO.N,+5V*%
X131500000Y-73810000D03*
D14*
%TO.P,R15,2*%
%TO.N,Net-(D14-Pad2)*%
X131500000Y-66190000D03*
%TD*%
D15*
%TO.P,R14,1*%
%TO.N,+5V*%
X109500000Y-78810000D03*
D14*
%TO.P,R14,2*%
%TO.N,Net-(D13-Pad2)*%
X109500000Y-71190000D03*
%TD*%
D15*
%TO.P,R13,1*%
%TO.N,+5V*%
X78000000Y-80810000D03*
D14*
%TO.P,R13,2*%
%TO.N,Net-(D12-Pad2)*%
X78000000Y-73190000D03*
%TD*%
%TO.P,R12,2*%
%TO.N,Net-(D11-Pad2)*%
X72000000Y-73190000D03*
D15*
%TO.P,R12,1*%
%TO.N,+5V*%
X72000000Y-80810000D03*
%TD*%
%TO.P,R11,1*%
%TO.N,Net-(J1-Pad11)*%
X98514970Y-77951564D03*
D14*
%TO.P,R11,2*%
%TO.N,Net-(Q1-Pad2)*%
X98514970Y-70331564D03*
%TD*%
%TO.P,R10,2*%
%TO.N,GND*%
X54000000Y-75310000D03*
D15*
%TO.P,R10,1*%
%TO.N,Net-(D10-Pad1)*%
X54000000Y-67690000D03*
%TD*%
%TO.P,R9,1*%
%TO.N,Net-(D9-Pad1)*%
X62500000Y-52500000D03*
D14*
%TO.P,R9,2*%
%TO.N,GND*%
X70120000Y-52500000D03*
%TD*%
D15*
%TO.P,R8,1*%
%TO.N,Net-(D8-Pad1)*%
X72500000Y-52500000D03*
D14*
%TO.P,R8,2*%
%TO.N,GND*%
X80120000Y-52500000D03*
%TD*%
D15*
%TO.P,R7,1*%
%TO.N,Net-(D7-Pad1)*%
X82500000Y-52500000D03*
D14*
%TO.P,R7,2*%
%TO.N,GND*%
X90120000Y-52500000D03*
%TD*%
D15*
%TO.P,R6,1*%
%TO.N,Net-(D6-Pad1)*%
X92500000Y-52500000D03*
D14*
%TO.P,R6,2*%
%TO.N,GND*%
X100120000Y-52500000D03*
%TD*%
D15*
%TO.P,R5,1*%
%TO.N,Net-(D5-Pad1)*%
X102500000Y-52500000D03*
D14*
%TO.P,R5,2*%
%TO.N,GND*%
X110120000Y-52500000D03*
%TD*%
D15*
%TO.P,R4,1*%
%TO.N,Net-(D4-Pad1)*%
X112500000Y-52500000D03*
D14*
%TO.P,R4,2*%
%TO.N,GND*%
X120120000Y-52500000D03*
%TD*%
D15*
%TO.P,R3,1*%
%TO.N,Net-(D3-Pad1)*%
X122500000Y-52500000D03*
D14*
%TO.P,R3,2*%
%TO.N,GND*%
X130120000Y-52500000D03*
%TD*%
D15*
%TO.P,R2,1*%
%TO.N,Net-(D2-Pad1)*%
X132500000Y-52500000D03*
D14*
%TO.P,R2,2*%
%TO.N,GND*%
X140120000Y-52500000D03*
%TD*%
D15*
%TO.P,R1,1*%
%TO.N,Net-(D1-Pad1)*%
X138500000Y-66190000D03*
D14*
%TO.P,R1,2*%
%TO.N,GND*%
X138500000Y-73810000D03*
%TD*%
D16*
%TO.P,D14,2,A*%
%TO.N,Net-(D14-Pad2)*%
X126290000Y-71160000D03*
D17*
%TO.P,D14,1,K*%
%TO.N,Net-(D11-Pad1)*%
X123750000Y-71160000D03*
%TD*%
D16*
%TO.P,D15,2,A*%
%TO.N,Net-(D15-Pad2)*%
X146290000Y-71160000D03*
D17*
%TO.P,D15,1,K*%
%TO.N,Net-(D11-Pad1)*%
X143750000Y-71160000D03*
%TD*%
%TO.P,D9,1,K*%
%TO.N,Net-(D9-Pad1)*%
X63750000Y-61000000D03*
D16*
%TO.P,D9,2,A*%
%TO.N,Net-(D9-Pad2)*%
X66290000Y-61000000D03*
%TD*%
%TO.P,D8,2,A*%
%TO.N,Net-(D8-Pad2)*%
X76290000Y-61000000D03*
D17*
%TO.P,D8,1,K*%
%TO.N,Net-(D8-Pad1)*%
X73750000Y-61000000D03*
%TD*%
D16*
%TO.P,D7,2,A*%
%TO.N,Net-(D7-Pad2)*%
X86290000Y-61000000D03*
D17*
%TO.P,D7,1,K*%
%TO.N,Net-(D7-Pad1)*%
X83750000Y-61000000D03*
%TD*%
D16*
%TO.P,D5,2,A*%
%TO.N,Net-(D5-Pad2)*%
X106290000Y-61000000D03*
D17*
%TO.P,D5,1,K*%
%TO.N,Net-(D5-Pad1)*%
X103750000Y-61000000D03*
%TD*%
D16*
%TO.P,D1,2,A*%
%TO.N,Net-(D1-Pad2)*%
X146290000Y-61000000D03*
D17*
%TO.P,D1,1,K*%
%TO.N,Net-(D1-Pad1)*%
X143750000Y-61000000D03*
%TD*%
D16*
%TO.P,D11,2,A*%
%TO.N,Net-(D11-Pad2)*%
X66290000Y-71160000D03*
D17*
%TO.P,D11,1,K*%
%TO.N,Net-(D11-Pad1)*%
X63750000Y-71160000D03*
%TD*%
D16*
%TO.P,D10,2,A*%
%TO.N,Net-(D10-Pad2)*%
X56290000Y-61000000D03*
D17*
%TO.P,D10,1,K*%
%TO.N,Net-(D10-Pad1)*%
X53750000Y-61000000D03*
%TD*%
D16*
%TO.P,D12,2,A*%
%TO.N,Net-(D12-Pad2)*%
X86290000Y-71160000D03*
D17*
%TO.P,D12,1,K*%
%TO.N,Net-(D11-Pad1)*%
X83750000Y-71160000D03*
%TD*%
D16*
%TO.P,D13,2,A*%
%TO.N,Net-(D13-Pad2)*%
X106290000Y-71160000D03*
D17*
%TO.P,D13,1,K*%
%TO.N,Net-(D11-Pad1)*%
X103750000Y-71160000D03*
%TD*%
%TO.P,D2,1,K*%
%TO.N,Net-(D2-Pad1)*%
X133750000Y-61000000D03*
D16*
%TO.P,D2,2,A*%
%TO.N,Net-(D2-Pad2)*%
X136290000Y-61000000D03*
%TD*%
D17*
%TO.P,D3,1,K*%
%TO.N,Net-(D3-Pad1)*%
X123750000Y-61000000D03*
D16*
%TO.P,D3,2,A*%
%TO.N,Net-(D3-Pad2)*%
X126290000Y-61000000D03*
%TD*%
%TO.P,D4,2,A*%
%TO.N,Net-(D4-Pad2)*%
X116290000Y-61000000D03*
D17*
%TO.P,D4,1,K*%
%TO.N,Net-(D4-Pad1)*%
X113750000Y-61000000D03*
%TD*%
D16*
%TO.P,D6,2,A*%
%TO.N,Net-(D6-Pad2)*%
X96290000Y-61000000D03*
D17*
%TO.P,D6,1,K*%
%TO.N,Net-(D6-Pad1)*%
X93750000Y-61000000D03*
%TD*%
D18*
%TO.N,+5V*%
X106810000Y-81500000D02*
X109500000Y-78810000D01*
X106810000Y-82000000D02*
X106810000Y-81500000D01*
%TO.N,Net-(D11-Pad1)*%
X105200000Y-72610000D02*
X103750000Y-71160000D01*
X122300000Y-72610000D02*
X105200000Y-72610000D01*
X123750000Y-71160000D02*
X122300000Y-72610000D01*
%TO.N,+5V*%
X129380000Y-78810000D02*
X131190000Y-77000000D01*
X109500000Y-78810000D02*
X129380000Y-78810000D01*
%TD*%
%TA.AperFunction,Conductor*%
%TO.N,GND*%
G36*
X144984563Y-46302414D02*
G01*
X145000000Y-46305136D01*
X145010855Y-46303222D01*
X145016550Y-46303222D01*
X145034862Y-46302022D01*
X145404093Y-46318143D01*
X145415042Y-46319101D01*
X145810606Y-46371178D01*
X145821432Y-46373087D01*
X146210951Y-46459442D01*
X146221568Y-46462287D01*
X146396691Y-46517503D01*
X146602081Y-46582262D01*
X146612395Y-46586015D01*
X146981028Y-46738708D01*
X146990972Y-46743346D01*
X147344867Y-46927572D01*
X147354387Y-46933068D01*
X147690877Y-47147436D01*
X147699881Y-47153740D01*
X148016421Y-47396629D01*
X148024841Y-47403695D01*
X148318992Y-47673235D01*
X148326765Y-47681008D01*
X148596305Y-47975159D01*
X148603371Y-47983579D01*
X148846260Y-48300119D01*
X148852564Y-48309123D01*
X149066932Y-48645613D01*
X149072428Y-48655133D01*
X149256650Y-49009019D01*
X149261292Y-49018972D01*
X149402461Y-49359784D01*
X149413982Y-49387598D01*
X149417738Y-49397919D01*
X149473909Y-49576070D01*
X149537713Y-49778432D01*
X149540558Y-49789049D01*
X149626913Y-50178568D01*
X149628822Y-50189394D01*
X149680899Y-50584958D01*
X149681857Y-50595908D01*
X149697978Y-50965138D01*
X149696778Y-50983450D01*
X149696778Y-50989145D01*
X149694864Y-51000000D01*
X149696778Y-51010855D01*
X149697586Y-51015437D01*
X149699500Y-51037317D01*
X149699500Y-80962683D01*
X149697586Y-80984563D01*
X149694864Y-81000000D01*
X149696778Y-81010855D01*
X149696778Y-81016550D01*
X149697978Y-81034862D01*
X149681972Y-81401469D01*
X149681857Y-81404092D01*
X149680899Y-81415042D01*
X149628822Y-81810606D01*
X149626913Y-81821432D01*
X149540558Y-82210951D01*
X149537713Y-82221568D01*
X149524330Y-82264013D01*
X149419422Y-82596743D01*
X149417741Y-82602073D01*
X149413985Y-82612395D01*
X149290109Y-82911459D01*
X149261296Y-82981019D01*
X149256654Y-82990972D01*
X149081583Y-83327281D01*
X149072428Y-83344867D01*
X149066932Y-83354387D01*
X148852564Y-83690877D01*
X148846260Y-83699881D01*
X148603371Y-84016421D01*
X148596305Y-84024841D01*
X148326765Y-84318992D01*
X148318992Y-84326765D01*
X148024841Y-84596305D01*
X148016421Y-84603371D01*
X147699881Y-84846260D01*
X147690877Y-84852564D01*
X147354387Y-85066932D01*
X147344868Y-85072427D01*
X146990972Y-85256654D01*
X146981028Y-85261292D01*
X146612395Y-85413985D01*
X146602081Y-85417738D01*
X146396691Y-85482497D01*
X146221568Y-85537713D01*
X146210951Y-85540558D01*
X145821432Y-85626913D01*
X145810606Y-85628822D01*
X145415042Y-85680899D01*
X145404093Y-85681857D01*
X145034862Y-85697978D01*
X145016550Y-85696778D01*
X145010855Y-85696778D01*
X145000000Y-85694864D01*
X144989145Y-85696778D01*
X144984563Y-85697586D01*
X144962683Y-85699500D01*
X55037317Y-85699500D01*
X55015437Y-85697586D01*
X55010855Y-85696778D01*
X55000000Y-85694864D01*
X54989145Y-85696778D01*
X54983450Y-85696778D01*
X54965138Y-85697978D01*
X54595907Y-85681857D01*
X54584958Y-85680899D01*
X54189394Y-85628822D01*
X54178568Y-85626913D01*
X53789049Y-85540558D01*
X53778432Y-85537713D01*
X53603309Y-85482497D01*
X53397919Y-85417738D01*
X53387605Y-85413985D01*
X53018972Y-85261292D01*
X53009028Y-85256654D01*
X52655132Y-85072427D01*
X52645613Y-85066932D01*
X52309123Y-84852564D01*
X52300119Y-84846260D01*
X51983579Y-84603371D01*
X51975159Y-84596305D01*
X51681008Y-84326765D01*
X51673235Y-84318992D01*
X51403695Y-84024841D01*
X51396629Y-84016421D01*
X51153740Y-83699881D01*
X51147436Y-83690877D01*
X50933068Y-83354387D01*
X50927572Y-83344867D01*
X50918417Y-83327281D01*
X50743346Y-82990972D01*
X50738704Y-82981019D01*
X50709892Y-82911459D01*
X50586015Y-82612395D01*
X50582259Y-82602073D01*
X50580579Y-82596743D01*
X50475670Y-82264013D01*
X50462287Y-82221568D01*
X50459442Y-82210951D01*
X50373087Y-81821432D01*
X50371178Y-81810606D01*
X50319101Y-81415042D01*
X50318143Y-81404092D01*
X50318029Y-81401469D01*
X50302387Y-81043233D01*
X53094906Y-81043233D01*
X53121102Y-81317792D01*
X53122187Y-81322226D01*
X53122188Y-81322232D01*
X53185447Y-81580749D01*
X53186657Y-81585694D01*
X53290199Y-81841326D01*
X53292500Y-81845256D01*
X53292503Y-81845262D01*
X53427255Y-82075403D01*
X53427260Y-82075410D01*
X53429558Y-82079335D01*
X53432405Y-82082895D01*
X53550028Y-82229974D01*
X53601816Y-82294732D01*
X53605157Y-82297853D01*
X53742874Y-82426501D01*
X53803364Y-82483008D01*
X54029979Y-82640216D01*
X54034055Y-82642244D01*
X54034057Y-82642245D01*
X54272827Y-82761032D01*
X54272830Y-82761033D01*
X54276914Y-82763065D01*
X54538998Y-82848980D01*
X54543489Y-82849760D01*
X54543490Y-82849760D01*
X54806957Y-82895506D01*
X54806965Y-82895507D01*
X54810738Y-82896162D01*
X54814575Y-82896353D01*
X54896305Y-82900422D01*
X54896313Y-82900422D01*
X54897876Y-82900500D01*
X55070070Y-82900500D01*
X55072338Y-82900335D01*
X55072350Y-82900335D01*
X55206603Y-82890594D01*
X55275083Y-82885625D01*
X55279538Y-82884641D01*
X55279541Y-82884641D01*
X55539947Y-82827148D01*
X55539950Y-82827147D01*
X55544403Y-82826164D01*
X55802319Y-82728449D01*
X55812956Y-82722541D01*
X56039435Y-82596743D01*
X56039436Y-82596742D01*
X56043428Y-82594525D01*
X56193633Y-82479892D01*
X56259046Y-82429970D01*
X56259047Y-82429969D01*
X56262678Y-82427198D01*
X56282384Y-82407040D01*
X56423660Y-82262522D01*
X102942719Y-82262522D01*
X102995146Y-82458181D01*
X102998892Y-82468473D01*
X103094074Y-82672591D01*
X103099557Y-82682087D01*
X103228731Y-82866567D01*
X103235787Y-82874975D01*
X103395025Y-83034213D01*
X103403433Y-83041269D01*
X103587913Y-83170443D01*
X103597408Y-83175926D01*
X103801527Y-83271108D01*
X103811819Y-83274854D01*
X104002503Y-83325948D01*
X104016599Y-83325612D01*
X104020000Y-83317670D01*
X104020000Y-83312521D01*
X104520000Y-83312521D01*
X104523973Y-83326052D01*
X104532522Y-83327281D01*
X104728181Y-83274854D01*
X104738473Y-83271108D01*
X104942592Y-83175926D01*
X104952087Y-83170443D01*
X105136567Y-83041269D01*
X105144975Y-83034213D01*
X105304213Y-82874975D01*
X105311269Y-82866567D01*
X105440443Y-82682087D01*
X105445926Y-82672591D01*
X105535833Y-82479786D01*
X105582751Y-82426501D01*
X105651028Y-82407040D01*
X105718988Y-82427582D01*
X105764453Y-82480284D01*
X105809369Y-82577714D01*
X105931405Y-82750391D01*
X105935539Y-82754418D01*
X106075727Y-82890983D01*
X106082865Y-82897937D01*
X106087661Y-82901142D01*
X106087664Y-82901144D01*
X106207206Y-82981019D01*
X106258677Y-83015411D01*
X106263985Y-83017692D01*
X106263986Y-83017692D01*
X106447650Y-83096600D01*
X106447653Y-83096601D01*
X106452953Y-83098878D01*
X106458582Y-83100152D01*
X106458583Y-83100152D01*
X106653550Y-83144269D01*
X106653553Y-83144269D01*
X106659186Y-83145544D01*
X106664957Y-83145771D01*
X106664959Y-83145771D01*
X106726989Y-83148208D01*
X106870470Y-83153846D01*
X106876179Y-83153018D01*
X106876183Y-83153018D01*
X107074015Y-83124333D01*
X107074019Y-83124332D01*
X107079730Y-83123504D01*
X107166579Y-83094023D01*
X107274483Y-83057395D01*
X107274488Y-83057393D01*
X107279955Y-83055537D01*
X107284998Y-83052713D01*
X107459395Y-82955046D01*
X107459399Y-82955043D01*
X107464442Y-82952219D01*
X107627012Y-82817012D01*
X107762219Y-82654442D01*
X107765043Y-82649399D01*
X107765046Y-82649395D01*
X107862713Y-82474998D01*
X107862714Y-82474996D01*
X107865537Y-82469955D01*
X107867393Y-82464488D01*
X107867395Y-82464483D01*
X107922445Y-82302308D01*
X107933504Y-82269730D01*
X107935948Y-82252876D01*
X107955090Y-82120860D01*
X107984660Y-82056315D01*
X108044432Y-82018003D01*
X108115429Y-82018087D01*
X108175109Y-82056542D01*
X108204525Y-82121158D01*
X108205515Y-82130695D01*
X108208796Y-82180749D01*
X108210217Y-82186345D01*
X108210218Y-82186350D01*
X108237744Y-82294732D01*
X108260845Y-82385690D01*
X108349369Y-82577714D01*
X108471405Y-82750391D01*
X108475539Y-82754418D01*
X108615727Y-82890983D01*
X108622865Y-82897937D01*
X108627661Y-82901142D01*
X108627664Y-82901144D01*
X108747206Y-82981019D01*
X108798677Y-83015411D01*
X108803985Y-83017692D01*
X108803986Y-83017692D01*
X108987650Y-83096600D01*
X108987653Y-83096601D01*
X108992953Y-83098878D01*
X108998582Y-83100152D01*
X108998583Y-83100152D01*
X109193550Y-83144269D01*
X109193553Y-83144269D01*
X109199186Y-83145544D01*
X109204957Y-83145771D01*
X109204959Y-83145771D01*
X109266989Y-83148208D01*
X109410470Y-83153846D01*
X109416179Y-83153018D01*
X109416183Y-83153018D01*
X109614015Y-83124333D01*
X109614019Y-83124332D01*
X109619730Y-83123504D01*
X109706579Y-83094023D01*
X109814483Y-83057395D01*
X109814488Y-83057393D01*
X109819955Y-83055537D01*
X109824998Y-83052713D01*
X109999395Y-82955046D01*
X109999399Y-82955043D01*
X110004442Y-82952219D01*
X110167012Y-82817012D01*
X110302219Y-82654442D01*
X110305043Y-82649399D01*
X110305046Y-82649395D01*
X110402713Y-82474998D01*
X110402714Y-82474996D01*
X110405537Y-82469955D01*
X110407393Y-82464488D01*
X110407395Y-82464483D01*
X110462445Y-82302308D01*
X110473504Y-82269730D01*
X110475948Y-82252876D01*
X110495090Y-82120860D01*
X110524660Y-82056315D01*
X110584432Y-82018003D01*
X110655429Y-82018087D01*
X110715109Y-82056542D01*
X110744525Y-82121158D01*
X110745515Y-82130695D01*
X110748796Y-82180749D01*
X110750217Y-82186345D01*
X110750218Y-82186350D01*
X110777744Y-82294732D01*
X110800845Y-82385690D01*
X110889369Y-82577714D01*
X111011405Y-82750391D01*
X111015539Y-82754418D01*
X111155727Y-82890983D01*
X111162865Y-82897937D01*
X111167661Y-82901142D01*
X111167664Y-82901144D01*
X111287206Y-82981019D01*
X111338677Y-83015411D01*
X111343985Y-83017692D01*
X111343986Y-83017692D01*
X111527650Y-83096600D01*
X111527653Y-83096601D01*
X111532953Y-83098878D01*
X111538582Y-83100152D01*
X111538583Y-83100152D01*
X111733550Y-83144269D01*
X111733553Y-83144269D01*
X111739186Y-83145544D01*
X111744957Y-83145771D01*
X111744959Y-83145771D01*
X111806989Y-83148208D01*
X111950470Y-83153846D01*
X111956179Y-83153018D01*
X111956183Y-83153018D01*
X112154015Y-83124333D01*
X112154019Y-83124332D01*
X112159730Y-83123504D01*
X112246579Y-83094023D01*
X112354483Y-83057395D01*
X112354488Y-83057393D01*
X112359955Y-83055537D01*
X112364998Y-83052713D01*
X112539395Y-82955046D01*
X112539399Y-82955043D01*
X112544442Y-82952219D01*
X112707012Y-82817012D01*
X112842219Y-82654442D01*
X112845043Y-82649399D01*
X112845046Y-82649395D01*
X112942713Y-82474998D01*
X112942714Y-82474996D01*
X112945537Y-82469955D01*
X112947393Y-82464488D01*
X112947395Y-82464483D01*
X113002445Y-82302308D01*
X113013504Y-82269730D01*
X113015948Y-82252876D01*
X113035090Y-82120860D01*
X113064660Y-82056315D01*
X113124432Y-82018003D01*
X113195429Y-82018087D01*
X113255109Y-82056542D01*
X113284525Y-82121158D01*
X113285515Y-82130695D01*
X113288796Y-82180749D01*
X113290217Y-82186345D01*
X113290218Y-82186350D01*
X113317744Y-82294732D01*
X113340845Y-82385690D01*
X113429369Y-82577714D01*
X113551405Y-82750391D01*
X113555539Y-82754418D01*
X113695727Y-82890983D01*
X113702865Y-82897937D01*
X113707661Y-82901142D01*
X113707664Y-82901144D01*
X113827206Y-82981019D01*
X113878677Y-83015411D01*
X113883985Y-83017692D01*
X113883986Y-83017692D01*
X114067650Y-83096600D01*
X114067653Y-83096601D01*
X114072953Y-83098878D01*
X114078582Y-83100152D01*
X114078583Y-83100152D01*
X114273550Y-83144269D01*
X114273553Y-83144269D01*
X114279186Y-83145544D01*
X114284957Y-83145771D01*
X114284959Y-83145771D01*
X114346989Y-83148208D01*
X114490470Y-83153846D01*
X114496179Y-83153018D01*
X114496183Y-83153018D01*
X114694015Y-83124333D01*
X114694019Y-83124332D01*
X114699730Y-83123504D01*
X114786579Y-83094023D01*
X114894483Y-83057395D01*
X114894488Y-83057393D01*
X114899955Y-83055537D01*
X114904998Y-83052713D01*
X115079395Y-82955046D01*
X115079399Y-82955043D01*
X115084442Y-82952219D01*
X115247012Y-82817012D01*
X115382219Y-82654442D01*
X115385043Y-82649399D01*
X115385046Y-82649395D01*
X115482713Y-82474998D01*
X115482714Y-82474996D01*
X115485537Y-82469955D01*
X115487393Y-82464488D01*
X115487395Y-82464483D01*
X115542445Y-82302308D01*
X115553504Y-82269730D01*
X115555948Y-82252876D01*
X115575090Y-82120860D01*
X115604660Y-82056315D01*
X115664432Y-82018003D01*
X115735429Y-82018087D01*
X115795109Y-82056542D01*
X115824525Y-82121158D01*
X115825515Y-82130695D01*
X115828796Y-82180749D01*
X115830217Y-82186345D01*
X115830218Y-82186350D01*
X115857744Y-82294732D01*
X115880845Y-82385690D01*
X115969369Y-82577714D01*
X116091405Y-82750391D01*
X116095539Y-82754418D01*
X116235727Y-82890983D01*
X116242865Y-82897937D01*
X116247661Y-82901142D01*
X116247664Y-82901144D01*
X116367206Y-82981019D01*
X116418677Y-83015411D01*
X116423985Y-83017692D01*
X116423986Y-83017692D01*
X116607650Y-83096600D01*
X116607653Y-83096601D01*
X116612953Y-83098878D01*
X116618582Y-83100152D01*
X116618583Y-83100152D01*
X116813550Y-83144269D01*
X116813553Y-83144269D01*
X116819186Y-83145544D01*
X116824957Y-83145771D01*
X116824959Y-83145771D01*
X116886989Y-83148208D01*
X117030470Y-83153846D01*
X117036179Y-83153018D01*
X117036183Y-83153018D01*
X117234015Y-83124333D01*
X117234019Y-83124332D01*
X117239730Y-83123504D01*
X117326579Y-83094023D01*
X117434483Y-83057395D01*
X117434488Y-83057393D01*
X117439955Y-83055537D01*
X117444998Y-83052713D01*
X117619395Y-82955046D01*
X117619399Y-82955043D01*
X117624442Y-82952219D01*
X117787012Y-82817012D01*
X117922219Y-82654442D01*
X117925043Y-82649399D01*
X117925046Y-82649395D01*
X118022713Y-82474998D01*
X118022714Y-82474996D01*
X118025537Y-82469955D01*
X118027393Y-82464488D01*
X118027395Y-82464483D01*
X118082445Y-82302308D01*
X118093504Y-82269730D01*
X118095948Y-82252876D01*
X118115090Y-82120860D01*
X118144660Y-82056315D01*
X118204432Y-82018003D01*
X118275429Y-82018087D01*
X118335109Y-82056542D01*
X118364525Y-82121158D01*
X118365515Y-82130695D01*
X118368796Y-82180749D01*
X118370217Y-82186345D01*
X118370218Y-82186350D01*
X118397744Y-82294732D01*
X118420845Y-82385690D01*
X118509369Y-82577714D01*
X118631405Y-82750391D01*
X118635539Y-82754418D01*
X118775727Y-82890983D01*
X118782865Y-82897937D01*
X118787661Y-82901142D01*
X118787664Y-82901144D01*
X118907206Y-82981019D01*
X118958677Y-83015411D01*
X118963985Y-83017692D01*
X118963986Y-83017692D01*
X119147650Y-83096600D01*
X119147653Y-83096601D01*
X119152953Y-83098878D01*
X119158582Y-83100152D01*
X119158583Y-83100152D01*
X119353550Y-83144269D01*
X119353553Y-83144269D01*
X119359186Y-83145544D01*
X119364957Y-83145771D01*
X119364959Y-83145771D01*
X119426989Y-83148208D01*
X119570470Y-83153846D01*
X119576179Y-83153018D01*
X119576183Y-83153018D01*
X119774015Y-83124333D01*
X119774019Y-83124332D01*
X119779730Y-83123504D01*
X119866579Y-83094023D01*
X119974483Y-83057395D01*
X119974488Y-83057393D01*
X119979955Y-83055537D01*
X119984998Y-83052713D01*
X120159395Y-82955046D01*
X120159399Y-82955043D01*
X120164442Y-82952219D01*
X120327012Y-82817012D01*
X120462219Y-82654442D01*
X120465043Y-82649399D01*
X120465046Y-82649395D01*
X120562713Y-82474998D01*
X120562714Y-82474996D01*
X120565537Y-82469955D01*
X120567393Y-82464488D01*
X120567395Y-82464483D01*
X120622445Y-82302308D01*
X120633504Y-82269730D01*
X120635948Y-82252876D01*
X120655090Y-82120860D01*
X120684660Y-82056315D01*
X120744432Y-82018003D01*
X120815429Y-82018087D01*
X120875109Y-82056542D01*
X120904525Y-82121158D01*
X120905515Y-82130695D01*
X120908796Y-82180749D01*
X120910217Y-82186345D01*
X120910218Y-82186350D01*
X120937744Y-82294732D01*
X120960845Y-82385690D01*
X121049369Y-82577714D01*
X121171405Y-82750391D01*
X121175539Y-82754418D01*
X121315727Y-82890983D01*
X121322865Y-82897937D01*
X121327661Y-82901142D01*
X121327664Y-82901144D01*
X121447206Y-82981019D01*
X121498677Y-83015411D01*
X121503985Y-83017692D01*
X121503986Y-83017692D01*
X121687650Y-83096600D01*
X121687653Y-83096601D01*
X121692953Y-83098878D01*
X121698582Y-83100152D01*
X121698583Y-83100152D01*
X121893550Y-83144269D01*
X121893553Y-83144269D01*
X121899186Y-83145544D01*
X121904957Y-83145771D01*
X121904959Y-83145771D01*
X121966989Y-83148208D01*
X122110470Y-83153846D01*
X122116179Y-83153018D01*
X122116183Y-83153018D01*
X122314015Y-83124333D01*
X122314019Y-83124332D01*
X122319730Y-83123504D01*
X122406579Y-83094023D01*
X122514483Y-83057395D01*
X122514488Y-83057393D01*
X122519955Y-83055537D01*
X122524998Y-83052713D01*
X122699395Y-82955046D01*
X122699399Y-82955043D01*
X122704442Y-82952219D01*
X122867012Y-82817012D01*
X123002219Y-82654442D01*
X123005043Y-82649399D01*
X123005046Y-82649395D01*
X123102713Y-82474998D01*
X123102714Y-82474996D01*
X123105537Y-82469955D01*
X123107393Y-82464488D01*
X123107395Y-82464483D01*
X123162445Y-82302308D01*
X123173504Y-82269730D01*
X123175948Y-82252876D01*
X123195090Y-82120860D01*
X123224660Y-82056315D01*
X123284432Y-82018003D01*
X123355429Y-82018087D01*
X123415109Y-82056542D01*
X123444525Y-82121158D01*
X123445515Y-82130695D01*
X123448796Y-82180749D01*
X123450217Y-82186345D01*
X123450218Y-82186350D01*
X123477744Y-82294732D01*
X123500845Y-82385690D01*
X123589369Y-82577714D01*
X123711405Y-82750391D01*
X123715539Y-82754418D01*
X123855727Y-82890983D01*
X123862865Y-82897937D01*
X123867661Y-82901142D01*
X123867664Y-82901144D01*
X123987206Y-82981019D01*
X124038677Y-83015411D01*
X124043985Y-83017692D01*
X124043986Y-83017692D01*
X124227650Y-83096600D01*
X124227653Y-83096601D01*
X124232953Y-83098878D01*
X124238582Y-83100152D01*
X124238583Y-83100152D01*
X124433550Y-83144269D01*
X124433553Y-83144269D01*
X124439186Y-83145544D01*
X124444957Y-83145771D01*
X124444959Y-83145771D01*
X124506989Y-83148208D01*
X124650470Y-83153846D01*
X124656179Y-83153018D01*
X124656183Y-83153018D01*
X124854015Y-83124333D01*
X124854019Y-83124332D01*
X124859730Y-83123504D01*
X124946579Y-83094023D01*
X125054483Y-83057395D01*
X125054488Y-83057393D01*
X125059955Y-83055537D01*
X125064998Y-83052713D01*
X125239395Y-82955046D01*
X125239399Y-82955043D01*
X125244442Y-82952219D01*
X125407012Y-82817012D01*
X125542219Y-82654442D01*
X125545043Y-82649399D01*
X125545046Y-82649395D01*
X125642713Y-82474998D01*
X125642714Y-82474996D01*
X125645537Y-82469955D01*
X125647393Y-82464488D01*
X125647395Y-82464483D01*
X125702445Y-82302308D01*
X125713504Y-82269730D01*
X125715948Y-82252876D01*
X125735090Y-82120860D01*
X125764660Y-82056315D01*
X125824432Y-82018003D01*
X125895429Y-82018087D01*
X125955109Y-82056542D01*
X125984525Y-82121158D01*
X125985515Y-82130695D01*
X125988796Y-82180749D01*
X125990217Y-82186345D01*
X125990218Y-82186350D01*
X126017744Y-82294732D01*
X126040845Y-82385690D01*
X126129369Y-82577714D01*
X126251405Y-82750391D01*
X126255539Y-82754418D01*
X126395727Y-82890983D01*
X126402865Y-82897937D01*
X126407661Y-82901142D01*
X126407664Y-82901144D01*
X126527206Y-82981019D01*
X126578677Y-83015411D01*
X126583985Y-83017692D01*
X126583986Y-83017692D01*
X126767650Y-83096600D01*
X126767653Y-83096601D01*
X126772953Y-83098878D01*
X126778582Y-83100152D01*
X126778583Y-83100152D01*
X126973550Y-83144269D01*
X126973553Y-83144269D01*
X126979186Y-83145544D01*
X126984957Y-83145771D01*
X126984959Y-83145771D01*
X127046989Y-83148208D01*
X127190470Y-83153846D01*
X127196179Y-83153018D01*
X127196183Y-83153018D01*
X127394015Y-83124333D01*
X127394019Y-83124332D01*
X127399730Y-83123504D01*
X127486579Y-83094023D01*
X127594483Y-83057395D01*
X127594488Y-83057393D01*
X127599955Y-83055537D01*
X127604998Y-83052713D01*
X127779395Y-82955046D01*
X127779399Y-82955043D01*
X127784442Y-82952219D01*
X127947012Y-82817012D01*
X128082219Y-82654442D01*
X128085043Y-82649399D01*
X128085046Y-82649395D01*
X128182713Y-82474998D01*
X128182714Y-82474996D01*
X128185537Y-82469955D01*
X128187393Y-82464488D01*
X128187395Y-82464483D01*
X128242445Y-82302308D01*
X128253504Y-82269730D01*
X128255948Y-82252876D01*
X128275090Y-82120860D01*
X128304660Y-82056315D01*
X128364432Y-82018003D01*
X128435429Y-82018087D01*
X128495109Y-82056542D01*
X128524525Y-82121158D01*
X128525515Y-82130695D01*
X128528796Y-82180749D01*
X128530217Y-82186345D01*
X128530218Y-82186350D01*
X128557744Y-82294732D01*
X128580845Y-82385690D01*
X128669369Y-82577714D01*
X128791405Y-82750391D01*
X128795539Y-82754418D01*
X128935727Y-82890983D01*
X128942865Y-82897937D01*
X128947661Y-82901142D01*
X128947664Y-82901144D01*
X129067206Y-82981019D01*
X129118677Y-83015411D01*
X129123985Y-83017692D01*
X129123986Y-83017692D01*
X129307650Y-83096600D01*
X129307653Y-83096601D01*
X129312953Y-83098878D01*
X129318582Y-83100152D01*
X129318583Y-83100152D01*
X129513550Y-83144269D01*
X129513553Y-83144269D01*
X129519186Y-83145544D01*
X129524957Y-83145771D01*
X129524959Y-83145771D01*
X129586989Y-83148208D01*
X129730470Y-83153846D01*
X129736179Y-83153018D01*
X129736183Y-83153018D01*
X129934015Y-83124333D01*
X129934019Y-83124332D01*
X129939730Y-83123504D01*
X130026579Y-83094023D01*
X130134483Y-83057395D01*
X130134488Y-83057393D01*
X130139955Y-83055537D01*
X130144998Y-83052713D01*
X130319395Y-82955046D01*
X130319399Y-82955043D01*
X130324442Y-82952219D01*
X130487012Y-82817012D01*
X130622219Y-82654442D01*
X130625043Y-82649399D01*
X130625046Y-82649395D01*
X130722713Y-82474998D01*
X130722714Y-82474996D01*
X130725537Y-82469955D01*
X130727393Y-82464488D01*
X130727395Y-82464483D01*
X130782445Y-82302308D01*
X130793504Y-82269730D01*
X130795948Y-82252876D01*
X130815090Y-82120860D01*
X130844660Y-82056315D01*
X130904432Y-82018003D01*
X130975429Y-82018087D01*
X131035109Y-82056542D01*
X131064525Y-82121158D01*
X131065515Y-82130695D01*
X131068796Y-82180749D01*
X131070217Y-82186345D01*
X131070218Y-82186350D01*
X131097744Y-82294732D01*
X131120845Y-82385690D01*
X131209369Y-82577714D01*
X131331405Y-82750391D01*
X131335539Y-82754418D01*
X131475727Y-82890983D01*
X131482865Y-82897937D01*
X131487661Y-82901142D01*
X131487664Y-82901144D01*
X131607206Y-82981019D01*
X131658677Y-83015411D01*
X131663985Y-83017692D01*
X131663986Y-83017692D01*
X131847650Y-83096600D01*
X131847653Y-83096601D01*
X131852953Y-83098878D01*
X131858582Y-83100152D01*
X131858583Y-83100152D01*
X132053550Y-83144269D01*
X132053553Y-83144269D01*
X132059186Y-83145544D01*
X132064957Y-83145771D01*
X132064959Y-83145771D01*
X132126989Y-83148208D01*
X132270470Y-83153846D01*
X132276179Y-83153018D01*
X132276183Y-83153018D01*
X132474015Y-83124333D01*
X132474019Y-83124332D01*
X132479730Y-83123504D01*
X132566579Y-83094023D01*
X132674483Y-83057395D01*
X132674488Y-83057393D01*
X132679955Y-83055537D01*
X132684998Y-83052713D01*
X132859395Y-82955046D01*
X132859399Y-82955043D01*
X132864442Y-82952219D01*
X133027012Y-82817012D01*
X133162219Y-82654442D01*
X133165043Y-82649399D01*
X133165046Y-82649395D01*
X133262713Y-82474998D01*
X133262714Y-82474996D01*
X133265537Y-82469955D01*
X133267393Y-82464488D01*
X133267395Y-82464483D01*
X133322445Y-82302308D01*
X133333504Y-82269730D01*
X133335948Y-82252876D01*
X133348804Y-82164211D01*
X133378374Y-82099665D01*
X133438146Y-82061353D01*
X133509143Y-82061437D01*
X133568823Y-82099892D01*
X133598239Y-82164508D01*
X133599500Y-82182291D01*
X133599500Y-82894646D01*
X133602618Y-82920846D01*
X133648061Y-83023153D01*
X133656294Y-83031372D01*
X133656295Y-83031373D01*
X133682363Y-83057395D01*
X133727287Y-83102241D01*
X133737924Y-83106944D01*
X133737926Y-83106945D01*
X133797462Y-83133265D01*
X133829673Y-83147506D01*
X133855354Y-83150500D01*
X135644646Y-83150500D01*
X135648350Y-83150059D01*
X135648353Y-83150059D01*
X135655746Y-83149179D01*
X135670846Y-83147382D01*
X135707712Y-83131007D01*
X135762518Y-83106663D01*
X135773153Y-83101939D01*
X135852241Y-83022713D01*
X135897506Y-82920327D01*
X135900500Y-82894646D01*
X135900500Y-81105354D01*
X135897382Y-81079154D01*
X135881427Y-81043233D01*
X143094906Y-81043233D01*
X143121102Y-81317792D01*
X143122187Y-81322226D01*
X143122188Y-81322232D01*
X143185447Y-81580749D01*
X143186657Y-81585694D01*
X143290199Y-81841326D01*
X143292500Y-81845256D01*
X143292503Y-81845262D01*
X143427255Y-82075403D01*
X143427260Y-82075410D01*
X143429558Y-82079335D01*
X143432405Y-82082895D01*
X143550028Y-82229974D01*
X143601816Y-82294732D01*
X143605157Y-82297853D01*
X143742874Y-82426501D01*
X143803364Y-82483008D01*
X144029979Y-82640216D01*
X144034055Y-82642244D01*
X144034057Y-82642245D01*
X144272827Y-82761032D01*
X144272830Y-82761033D01*
X144276914Y-82763065D01*
X144538998Y-82848980D01*
X144543489Y-82849760D01*
X144543490Y-82849760D01*
X144806957Y-82895506D01*
X144806965Y-82895507D01*
X144810738Y-82896162D01*
X144814575Y-82896353D01*
X144896305Y-82900422D01*
X144896313Y-82900422D01*
X144897876Y-82900500D01*
X145070070Y-82900500D01*
X145072338Y-82900335D01*
X145072350Y-82900335D01*
X145206603Y-82890594D01*
X145275083Y-82885625D01*
X145279538Y-82884641D01*
X145279541Y-82884641D01*
X145539947Y-82827148D01*
X145539950Y-82827147D01*
X145544403Y-82826164D01*
X145802319Y-82728449D01*
X145812956Y-82722541D01*
X146039435Y-82596743D01*
X146039436Y-82596742D01*
X146043428Y-82594525D01*
X146193633Y-82479892D01*
X146259046Y-82429970D01*
X146259047Y-82429969D01*
X146262678Y-82427198D01*
X146282384Y-82407040D01*
X146452283Y-82233242D01*
X146452287Y-82233237D01*
X146455477Y-82229974D01*
X146461596Y-82221568D01*
X146615100Y-82010676D01*
X146615102Y-82010673D01*
X146617787Y-82006984D01*
X146746206Y-81762899D01*
X146838045Y-81502832D01*
X146873641Y-81322232D01*
X146890499Y-81236704D01*
X146890500Y-81236698D01*
X146891380Y-81232232D01*
X146892335Y-81213056D01*
X146904867Y-80961336D01*
X146904867Y-80961330D01*
X146905094Y-80956767D01*
X146878898Y-80682208D01*
X146876985Y-80674388D01*
X146814429Y-80418744D01*
X146813343Y-80414306D01*
X146709801Y-80158674D01*
X146707500Y-80154744D01*
X146707497Y-80154738D01*
X146572745Y-79924597D01*
X146572740Y-79924590D01*
X146570442Y-79920665D01*
X146478136Y-79805242D01*
X146401036Y-79708834D01*
X146401035Y-79708833D01*
X146398184Y-79705268D01*
X146196636Y-79516992D01*
X145970021Y-79359784D01*
X145965943Y-79357755D01*
X145727173Y-79238968D01*
X145727170Y-79238967D01*
X145723086Y-79236935D01*
X145461002Y-79151020D01*
X145456510Y-79150240D01*
X145193043Y-79104494D01*
X145193035Y-79104493D01*
X145189262Y-79103838D01*
X145179029Y-79103329D01*
X145103695Y-79099578D01*
X145103687Y-79099578D01*
X145102124Y-79099500D01*
X144929930Y-79099500D01*
X144927662Y-79099665D01*
X144927650Y-79099665D01*
X144793397Y-79109406D01*
X144724917Y-79114375D01*
X144720462Y-79115359D01*
X144720459Y-79115359D01*
X144460053Y-79172852D01*
X144460050Y-79172853D01*
X144455597Y-79173836D01*
X144197681Y-79271551D01*
X144193694Y-79273765D01*
X144193693Y-79273766D01*
X143960565Y-79403257D01*
X143956572Y-79405475D01*
X143737322Y-79572802D01*
X143734129Y-79576068D01*
X143734127Y-79576070D01*
X143547717Y-79766758D01*
X143547713Y-79766763D01*
X143544523Y-79770026D01*
X143541836Y-79773718D01*
X143541834Y-79773720D01*
X143391349Y-79980465D01*
X143382213Y-79993016D01*
X143253794Y-80237101D01*
X143161955Y-80497168D01*
X143161075Y-80501634D01*
X143117021Y-80725146D01*
X143108620Y-80767768D01*
X143108393Y-80772322D01*
X143108393Y-80772324D01*
X143095323Y-81034862D01*
X143094906Y-81043233D01*
X135881427Y-81043233D01*
X135869575Y-81016550D01*
X135856663Y-80987482D01*
X135851939Y-80976847D01*
X135843444Y-80968366D01*
X135780945Y-80905977D01*
X135772713Y-80897759D01*
X135762076Y-80893056D01*
X135762074Y-80893055D01*
X135692693Y-80862382D01*
X135670327Y-80852494D01*
X135644646Y-80849500D01*
X133855354Y-80849500D01*
X133851650Y-80849941D01*
X133851647Y-80849941D01*
X133844254Y-80850821D01*
X133829154Y-80852618D01*
X133820514Y-80856456D01*
X133820513Y-80856456D01*
X133754131Y-80885942D01*
X133726847Y-80898061D01*
X133647759Y-80977287D01*
X133643056Y-80987924D01*
X133643055Y-80987926D01*
X133620624Y-81038664D01*
X133602494Y-81079673D01*
X133599500Y-81105354D01*
X133599500Y-81799111D01*
X133579498Y-81867232D01*
X133525842Y-81913725D01*
X133455568Y-81923829D01*
X133390988Y-81894335D01*
X133352604Y-81834609D01*
X133348029Y-81810640D01*
X133346610Y-81795197D01*
X133346081Y-81789440D01*
X133288686Y-81585931D01*
X133283059Y-81574519D01*
X133197719Y-81401469D01*
X133195165Y-81396290D01*
X133068651Y-81226867D01*
X132941236Y-81109086D01*
X132917622Y-81087257D01*
X132917620Y-81087255D01*
X132913381Y-81083337D01*
X132807531Y-81016550D01*
X132739434Y-80973584D01*
X132739433Y-80973584D01*
X132734554Y-80970505D01*
X132538160Y-80892152D01*
X132532503Y-80891027D01*
X132532497Y-80891025D01*
X132336442Y-80852028D01*
X132336440Y-80852028D01*
X132330775Y-80850901D01*
X132325000Y-80850825D01*
X132324996Y-80850825D01*
X132218976Y-80849437D01*
X132119346Y-80848133D01*
X132113649Y-80849112D01*
X132113648Y-80849112D01*
X131916650Y-80882962D01*
X131916649Y-80882962D01*
X131910953Y-80883941D01*
X131712575Y-80957127D01*
X131707614Y-80960079D01*
X131707613Y-80960079D01*
X131575658Y-81038584D01*
X131530856Y-81065238D01*
X131371881Y-81204655D01*
X131240976Y-81370708D01*
X131238287Y-81375819D01*
X131238285Y-81375822D01*
X131205527Y-81438086D01*
X131142523Y-81557836D01*
X131110300Y-81661612D01*
X131083178Y-81748960D01*
X131079820Y-81759773D01*
X131079141Y-81765510D01*
X131065088Y-81884239D01*
X131037217Y-81949537D01*
X130978469Y-81989401D01*
X130907494Y-81991174D01*
X130846828Y-81954295D01*
X130815730Y-81890471D01*
X130814490Y-81880958D01*
X130813776Y-81873180D01*
X130806081Y-81789440D01*
X130748686Y-81585931D01*
X130743059Y-81574519D01*
X130657719Y-81401469D01*
X130655165Y-81396290D01*
X130528651Y-81226867D01*
X130401236Y-81109086D01*
X130377622Y-81087257D01*
X130377620Y-81087255D01*
X130373381Y-81083337D01*
X130267531Y-81016550D01*
X130199434Y-80973584D01*
X130199433Y-80973584D01*
X130194554Y-80970505D01*
X129998160Y-80892152D01*
X129992503Y-80891027D01*
X129992497Y-80891025D01*
X129796442Y-80852028D01*
X129796440Y-80852028D01*
X129790775Y-80850901D01*
X129785000Y-80850825D01*
X129784996Y-80850825D01*
X129678976Y-80849437D01*
X129579346Y-80848133D01*
X129573649Y-80849112D01*
X129573648Y-80849112D01*
X129376650Y-80882962D01*
X129376649Y-80882962D01*
X129370953Y-80883941D01*
X129172575Y-80957127D01*
X129167614Y-80960079D01*
X129167613Y-80960079D01*
X129035658Y-81038584D01*
X128990856Y-81065238D01*
X128831881Y-81204655D01*
X128700976Y-81370708D01*
X128698287Y-81375819D01*
X128698285Y-81375822D01*
X128665527Y-81438086D01*
X128602523Y-81557836D01*
X128570300Y-81661612D01*
X128543178Y-81748960D01*
X128539820Y-81759773D01*
X128539141Y-81765510D01*
X128525088Y-81884239D01*
X128497217Y-81949537D01*
X128438469Y-81989401D01*
X128367494Y-81991174D01*
X128306828Y-81954295D01*
X128275730Y-81890471D01*
X128274490Y-81880958D01*
X128273776Y-81873180D01*
X128266081Y-81789440D01*
X128208686Y-81585931D01*
X128203059Y-81574519D01*
X128117719Y-81401469D01*
X128115165Y-81396290D01*
X127988651Y-81226867D01*
X127861236Y-81109086D01*
X127837622Y-81087257D01*
X127837620Y-81087255D01*
X127833381Y-81083337D01*
X127727531Y-81016550D01*
X127659434Y-80973584D01*
X127659433Y-80973584D01*
X127654554Y-80970505D01*
X127458160Y-80892152D01*
X127452503Y-80891027D01*
X127452497Y-80891025D01*
X127256442Y-80852028D01*
X127256440Y-80852028D01*
X127250775Y-80850901D01*
X127245000Y-80850825D01*
X127244996Y-80850825D01*
X127138976Y-80849437D01*
X127039346Y-80848133D01*
X127033649Y-80849112D01*
X127033648Y-80849112D01*
X126836650Y-80882962D01*
X126836649Y-80882962D01*
X126830953Y-80883941D01*
X126632575Y-80957127D01*
X126627614Y-80960079D01*
X126627613Y-80960079D01*
X126495658Y-81038584D01*
X126450856Y-81065238D01*
X126291881Y-81204655D01*
X126160976Y-81370708D01*
X126158287Y-81375819D01*
X126158285Y-81375822D01*
X126125527Y-81438086D01*
X126062523Y-81557836D01*
X126030300Y-81661612D01*
X126003178Y-81748960D01*
X125999820Y-81759773D01*
X125999141Y-81765510D01*
X125985088Y-81884239D01*
X125957217Y-81949537D01*
X125898469Y-81989401D01*
X125827494Y-81991174D01*
X125766828Y-81954295D01*
X125735730Y-81890471D01*
X125734490Y-81880958D01*
X125733776Y-81873180D01*
X125726081Y-81789440D01*
X125668686Y-81585931D01*
X125663059Y-81574519D01*
X125577719Y-81401469D01*
X125575165Y-81396290D01*
X125448651Y-81226867D01*
X125321236Y-81109086D01*
X125297622Y-81087257D01*
X125297620Y-81087255D01*
X125293381Y-81083337D01*
X125187531Y-81016550D01*
X125119434Y-80973584D01*
X125119433Y-80973584D01*
X125114554Y-80970505D01*
X124918160Y-80892152D01*
X124912503Y-80891027D01*
X124912497Y-80891025D01*
X124716442Y-80852028D01*
X124716440Y-80852028D01*
X124710775Y-80850901D01*
X124705000Y-80850825D01*
X124704996Y-80850825D01*
X124598976Y-80849437D01*
X124499346Y-80848133D01*
X124493649Y-80849112D01*
X124493648Y-80849112D01*
X124296650Y-80882962D01*
X124296649Y-80882962D01*
X124290953Y-80883941D01*
X124092575Y-80957127D01*
X124087614Y-80960079D01*
X124087613Y-80960079D01*
X123955658Y-81038584D01*
X123910856Y-81065238D01*
X123751881Y-81204655D01*
X123620976Y-81370708D01*
X123618287Y-81375819D01*
X123618285Y-81375822D01*
X123585527Y-81438086D01*
X123522523Y-81557836D01*
X123490300Y-81661612D01*
X123463178Y-81748960D01*
X123459820Y-81759773D01*
X123459141Y-81765510D01*
X123445088Y-81884239D01*
X123417217Y-81949537D01*
X123358469Y-81989401D01*
X123287494Y-81991174D01*
X123226828Y-81954295D01*
X123195730Y-81890471D01*
X123194490Y-81880958D01*
X123193776Y-81873180D01*
X123186081Y-81789440D01*
X123128686Y-81585931D01*
X123123059Y-81574519D01*
X123037719Y-81401469D01*
X123035165Y-81396290D01*
X122908651Y-81226867D01*
X122781236Y-81109086D01*
X122757622Y-81087257D01*
X122757620Y-81087255D01*
X122753381Y-81083337D01*
X122647531Y-81016550D01*
X122579434Y-80973584D01*
X122579433Y-80973584D01*
X122574554Y-80970505D01*
X122378160Y-80892152D01*
X122372503Y-80891027D01*
X122372497Y-80891025D01*
X122176442Y-80852028D01*
X122176440Y-80852028D01*
X122170775Y-80850901D01*
X122165000Y-80850825D01*
X122164996Y-80850825D01*
X122058976Y-80849437D01*
X121959346Y-80848133D01*
X121953649Y-80849112D01*
X121953648Y-80849112D01*
X121756650Y-80882962D01*
X121756649Y-80882962D01*
X121750953Y-80883941D01*
X121552575Y-80957127D01*
X121547614Y-80960079D01*
X121547613Y-80960079D01*
X121415658Y-81038584D01*
X121370856Y-81065238D01*
X121211881Y-81204655D01*
X121080976Y-81370708D01*
X121078287Y-81375819D01*
X121078285Y-81375822D01*
X121045527Y-81438086D01*
X120982523Y-81557836D01*
X120950300Y-81661612D01*
X120923178Y-81748960D01*
X120919820Y-81759773D01*
X120919141Y-81765510D01*
X120905088Y-81884239D01*
X120877217Y-81949537D01*
X120818469Y-81989401D01*
X120747494Y-81991174D01*
X120686828Y-81954295D01*
X120655730Y-81890471D01*
X120654490Y-81880958D01*
X120653776Y-81873180D01*
X120646081Y-81789440D01*
X120588686Y-81585931D01*
X120583059Y-81574519D01*
X120497719Y-81401469D01*
X120495165Y-81396290D01*
X120368651Y-81226867D01*
X120241236Y-81109086D01*
X120217622Y-81087257D01*
X120217620Y-81087255D01*
X120213381Y-81083337D01*
X120107531Y-81016550D01*
X120039434Y-80973584D01*
X120039433Y-80973584D01*
X120034554Y-80970505D01*
X119838160Y-80892152D01*
X119832503Y-80891027D01*
X119832497Y-80891025D01*
X119636442Y-80852028D01*
X119636440Y-80852028D01*
X119630775Y-80850901D01*
X119625000Y-80850825D01*
X119624996Y-80850825D01*
X119518976Y-80849437D01*
X119419346Y-80848133D01*
X119413649Y-80849112D01*
X119413648Y-80849112D01*
X119216650Y-80882962D01*
X119216649Y-80882962D01*
X119210953Y-80883941D01*
X119012575Y-80957127D01*
X119007614Y-80960079D01*
X119007613Y-80960079D01*
X118875658Y-81038584D01*
X118830856Y-81065238D01*
X118671881Y-81204655D01*
X118540976Y-81370708D01*
X118538287Y-81375819D01*
X118538285Y-81375822D01*
X118505527Y-81438086D01*
X118442523Y-81557836D01*
X118410300Y-81661612D01*
X118383178Y-81748960D01*
X118379820Y-81759773D01*
X118379141Y-81765510D01*
X118365088Y-81884239D01*
X118337217Y-81949537D01*
X118278469Y-81989401D01*
X118207494Y-81991174D01*
X118146828Y-81954295D01*
X118115730Y-81890471D01*
X118114490Y-81880958D01*
X118113776Y-81873180D01*
X118106081Y-81789440D01*
X118048686Y-81585931D01*
X118043059Y-81574519D01*
X117957719Y-81401469D01*
X117955165Y-81396290D01*
X117828651Y-81226867D01*
X117701236Y-81109086D01*
X117677622Y-81087257D01*
X117677620Y-81087255D01*
X117673381Y-81083337D01*
X117567531Y-81016550D01*
X117499434Y-80973584D01*
X117499433Y-80973584D01*
X117494554Y-80970505D01*
X117298160Y-80892152D01*
X117292503Y-80891027D01*
X117292497Y-80891025D01*
X117096442Y-80852028D01*
X117096440Y-80852028D01*
X117090775Y-80850901D01*
X117085000Y-80850825D01*
X117084996Y-80850825D01*
X116978976Y-80849437D01*
X116879346Y-80848133D01*
X116873649Y-80849112D01*
X116873648Y-80849112D01*
X116676650Y-80882962D01*
X116676649Y-80882962D01*
X116670953Y-80883941D01*
X116472575Y-80957127D01*
X116467614Y-80960079D01*
X116467613Y-80960079D01*
X116335658Y-81038584D01*
X116290856Y-81065238D01*
X116131881Y-81204655D01*
X116000976Y-81370708D01*
X115998287Y-81375819D01*
X115998285Y-81375822D01*
X115965527Y-81438086D01*
X115902523Y-81557836D01*
X115870300Y-81661612D01*
X115843178Y-81748960D01*
X115839820Y-81759773D01*
X115839141Y-81765510D01*
X115825088Y-81884239D01*
X115797217Y-81949537D01*
X115738469Y-81989401D01*
X115667494Y-81991174D01*
X115606828Y-81954295D01*
X115575730Y-81890471D01*
X115574490Y-81880958D01*
X115573776Y-81873180D01*
X115566081Y-81789440D01*
X115508686Y-81585931D01*
X115503059Y-81574519D01*
X115417719Y-81401469D01*
X115415165Y-81396290D01*
X115288651Y-81226867D01*
X115161236Y-81109086D01*
X115137622Y-81087257D01*
X115137620Y-81087255D01*
X115133381Y-81083337D01*
X115027531Y-81016550D01*
X114959434Y-80973584D01*
X114959433Y-80973584D01*
X114954554Y-80970505D01*
X114758160Y-80892152D01*
X114752503Y-80891027D01*
X114752497Y-80891025D01*
X114556442Y-80852028D01*
X114556440Y-80852028D01*
X114550775Y-80850901D01*
X114545000Y-80850825D01*
X114544996Y-80850825D01*
X114438976Y-80849437D01*
X114339346Y-80848133D01*
X114333649Y-80849112D01*
X114333648Y-80849112D01*
X114136650Y-80882962D01*
X114136649Y-80882962D01*
X114130953Y-80883941D01*
X113932575Y-80957127D01*
X113927614Y-80960079D01*
X113927613Y-80960079D01*
X113795658Y-81038584D01*
X113750856Y-81065238D01*
X113591881Y-81204655D01*
X113460976Y-81370708D01*
X113458287Y-81375819D01*
X113458285Y-81375822D01*
X113425527Y-81438086D01*
X113362523Y-81557836D01*
X113330300Y-81661612D01*
X113303178Y-81748960D01*
X113299820Y-81759773D01*
X113299141Y-81765510D01*
X113285088Y-81884239D01*
X113257217Y-81949537D01*
X113198469Y-81989401D01*
X113127494Y-81991174D01*
X113066828Y-81954295D01*
X113035730Y-81890471D01*
X113034490Y-81880958D01*
X113033776Y-81873180D01*
X113026081Y-81789440D01*
X112968686Y-81585931D01*
X112963059Y-81574519D01*
X112877719Y-81401469D01*
X112875165Y-81396290D01*
X112748651Y-81226867D01*
X112621236Y-81109086D01*
X112597622Y-81087257D01*
X112597620Y-81087255D01*
X112593381Y-81083337D01*
X112487531Y-81016550D01*
X112419434Y-80973584D01*
X112419433Y-80973584D01*
X112414554Y-80970505D01*
X112218160Y-80892152D01*
X112212503Y-80891027D01*
X112212497Y-80891025D01*
X112016442Y-80852028D01*
X112016440Y-80852028D01*
X112010775Y-80850901D01*
X112005000Y-80850825D01*
X112004996Y-80850825D01*
X111898976Y-80849437D01*
X111799346Y-80848133D01*
X111793649Y-80849112D01*
X111793648Y-80849112D01*
X111596650Y-80882962D01*
X111596649Y-80882962D01*
X111590953Y-80883941D01*
X111392575Y-80957127D01*
X111387614Y-80960079D01*
X111387613Y-80960079D01*
X111255658Y-81038584D01*
X111210856Y-81065238D01*
X111051881Y-81204655D01*
X110920976Y-81370708D01*
X110918287Y-81375819D01*
X110918285Y-81375822D01*
X110885527Y-81438086D01*
X110822523Y-81557836D01*
X110790300Y-81661612D01*
X110763178Y-81748960D01*
X110759820Y-81759773D01*
X110759141Y-81765510D01*
X110745088Y-81884239D01*
X110717217Y-81949537D01*
X110658469Y-81989401D01*
X110587494Y-81991174D01*
X110526828Y-81954295D01*
X110495730Y-81890471D01*
X110494490Y-81880958D01*
X110493776Y-81873180D01*
X110486081Y-81789440D01*
X110428686Y-81585931D01*
X110423059Y-81574519D01*
X110337719Y-81401469D01*
X110335165Y-81396290D01*
X110208651Y-81226867D01*
X110081236Y-81109086D01*
X110057622Y-81087257D01*
X110057620Y-81087255D01*
X110053381Y-81083337D01*
X109947531Y-81016550D01*
X109879434Y-80973584D01*
X109879433Y-80973584D01*
X109874554Y-80970505D01*
X109678160Y-80892152D01*
X109672503Y-80891027D01*
X109672497Y-80891025D01*
X109476442Y-80852028D01*
X109476440Y-80852028D01*
X109470775Y-80850901D01*
X109465000Y-80850825D01*
X109464996Y-80850825D01*
X109358976Y-80849437D01*
X109259346Y-80848133D01*
X109253649Y-80849112D01*
X109253648Y-80849112D01*
X109056650Y-80882962D01*
X109056649Y-80882962D01*
X109050953Y-80883941D01*
X108852575Y-80957127D01*
X108847614Y-80960079D01*
X108847613Y-80960079D01*
X108715658Y-81038584D01*
X108670856Y-81065238D01*
X108511881Y-81204655D01*
X108380976Y-81370708D01*
X108378287Y-81375819D01*
X108378285Y-81375822D01*
X108345527Y-81438086D01*
X108282523Y-81557836D01*
X108250300Y-81661612D01*
X108223178Y-81748960D01*
X108219820Y-81759773D01*
X108219141Y-81765510D01*
X108205088Y-81884239D01*
X108177217Y-81949537D01*
X108118469Y-81989401D01*
X108047494Y-81991174D01*
X107986828Y-81954295D01*
X107955730Y-81890471D01*
X107954490Y-81880958D01*
X107953776Y-81873180D01*
X107946081Y-81789440D01*
X107888686Y-81585931D01*
X107883059Y-81574519D01*
X107842674Y-81492628D01*
X107801104Y-81408333D01*
X107788914Y-81338392D01*
X107816473Y-81272962D01*
X107825015Y-81263510D01*
X109252039Y-79836486D01*
X109314351Y-79802460D01*
X109356053Y-79800467D01*
X109478946Y-79815121D01*
X109485081Y-79814649D01*
X109485083Y-79814649D01*
X109668434Y-79800541D01*
X109668438Y-79800540D01*
X109674576Y-79800068D01*
X109863556Y-79747303D01*
X110038689Y-79658837D01*
X110193303Y-79538040D01*
X110197329Y-79533376D01*
X110308858Y-79404169D01*
X110368510Y-79365672D01*
X110404239Y-79360500D01*
X129365007Y-79360500D01*
X129370284Y-79360611D01*
X129432294Y-79363210D01*
X129446901Y-79359784D01*
X129474662Y-79353273D01*
X129486333Y-79351110D01*
X129501229Y-79349069D01*
X129529432Y-79345206D01*
X129543230Y-79339235D01*
X129564499Y-79332201D01*
X129570775Y-79330729D01*
X129579136Y-79328768D01*
X129586661Y-79324631D01*
X129586664Y-79324630D01*
X129617268Y-79307805D01*
X129627913Y-79302589D01*
X129667855Y-79285305D01*
X129679541Y-79275842D01*
X129698126Y-79263354D01*
X129705518Y-79259290D01*
X129711308Y-79256107D01*
X129719422Y-79249103D01*
X129743958Y-79224567D01*
X129753759Y-79215742D01*
X129778392Y-79195794D01*
X129778393Y-79195793D01*
X129785070Y-79190386D01*
X129790043Y-79183388D01*
X129790048Y-79183383D01*
X129795968Y-79175052D01*
X129809579Y-79158946D01*
X130942039Y-78026486D01*
X131004351Y-77992460D01*
X131046053Y-77990467D01*
X131168946Y-78005121D01*
X131175081Y-78004649D01*
X131175083Y-78004649D01*
X131358434Y-77990541D01*
X131358438Y-77990540D01*
X131364576Y-77990068D01*
X131553556Y-77937303D01*
X131728689Y-77848837D01*
X131758515Y-77825535D01*
X131878453Y-77731829D01*
X131883303Y-77728040D01*
X131913084Y-77693539D01*
X132007485Y-77584173D01*
X132007485Y-77584172D01*
X132011509Y-77579511D01*
X132108425Y-77408909D01*
X132170358Y-77222732D01*
X132194949Y-77028071D01*
X132195341Y-77000000D01*
X132193965Y-76985963D01*
X137804757Y-76985963D01*
X137821175Y-77181483D01*
X137875258Y-77370091D01*
X137878076Y-77375574D01*
X137962123Y-77539113D01*
X137962126Y-77539117D01*
X137964944Y-77544601D01*
X138086818Y-77698369D01*
X138091511Y-77702363D01*
X138091512Y-77702364D01*
X138212494Y-77805327D01*
X138236238Y-77825535D01*
X138241616Y-77828541D01*
X138241618Y-77828542D01*
X138277932Y-77848837D01*
X138407513Y-77921257D01*
X138594118Y-77981889D01*
X138788946Y-78005121D01*
X138795081Y-78004649D01*
X138795083Y-78004649D01*
X138978434Y-77990541D01*
X138978438Y-77990540D01*
X138984576Y-77990068D01*
X139173556Y-77937303D01*
X139348689Y-77848837D01*
X139378515Y-77825535D01*
X139498453Y-77731829D01*
X139503303Y-77728040D01*
X139533084Y-77693539D01*
X139627485Y-77584173D01*
X139627485Y-77584172D01*
X139631509Y-77579511D01*
X139728425Y-77408909D01*
X139790358Y-77222732D01*
X139814949Y-77028071D01*
X139815341Y-77000000D01*
X139796194Y-76804728D01*
X139794413Y-76798829D01*
X139794412Y-76798824D01*
X139741265Y-76622793D01*
X139739484Y-76616894D01*
X139647370Y-76443653D01*
X139523361Y-76291602D01*
X139372180Y-76166535D01*
X139199585Y-76073213D01*
X139105869Y-76044203D01*
X139018039Y-76017015D01*
X139018036Y-76017014D01*
X139012152Y-76015193D01*
X139006027Y-76014549D01*
X139006026Y-76014549D01*
X138823147Y-75995327D01*
X138823146Y-75995327D01*
X138817019Y-75994683D01*
X138694383Y-76005844D01*
X138627759Y-76011907D01*
X138627758Y-76011907D01*
X138621618Y-76012466D01*
X138615704Y-76014207D01*
X138615702Y-76014207D01*
X138486734Y-76052165D01*
X138433393Y-76067864D01*
X138427928Y-76070721D01*
X138264972Y-76155912D01*
X138264968Y-76155915D01*
X138259512Y-76158767D01*
X138254712Y-76162627D01*
X138254711Y-76162627D01*
X138220326Y-76190273D01*
X138106600Y-76281711D01*
X137980480Y-76432016D01*
X137977516Y-76437408D01*
X137977513Y-76437412D01*
X137952022Y-76483781D01*
X137885956Y-76603954D01*
X137826628Y-76790978D01*
X137804757Y-76985963D01*
X132193965Y-76985963D01*
X132176194Y-76804728D01*
X132174413Y-76798829D01*
X132174412Y-76798824D01*
X132121265Y-76622793D01*
X132119484Y-76616894D01*
X132027370Y-76443653D01*
X131903361Y-76291602D01*
X131752180Y-76166535D01*
X131579585Y-76073213D01*
X131485869Y-76044203D01*
X131398039Y-76017015D01*
X131398036Y-76017014D01*
X131392152Y-76015193D01*
X131386027Y-76014549D01*
X131386026Y-76014549D01*
X131203147Y-75995327D01*
X131203146Y-75995327D01*
X131197019Y-75994683D01*
X131074383Y-76005844D01*
X131007759Y-76011907D01*
X131007758Y-76011907D01*
X131001618Y-76012466D01*
X130995704Y-76014207D01*
X130995702Y-76014207D01*
X130866734Y-76052165D01*
X130813393Y-76067864D01*
X130807928Y-76070721D01*
X130644972Y-76155912D01*
X130644968Y-76155915D01*
X130639512Y-76158767D01*
X130634712Y-76162627D01*
X130634711Y-76162627D01*
X130600326Y-76190273D01*
X130486600Y-76281711D01*
X130360480Y-76432016D01*
X130357516Y-76437408D01*
X130357513Y-76437412D01*
X130332022Y-76483781D01*
X130265956Y-76603954D01*
X130206628Y-76790978D01*
X130184757Y-76985963D01*
X130185273Y-76992107D01*
X130198513Y-77149787D01*
X130184281Y-77219343D01*
X130162054Y-77249421D01*
X129188880Y-78222596D01*
X129126569Y-78256620D01*
X129099786Y-78259500D01*
X110401968Y-78259500D01*
X110333847Y-78239498D01*
X110304325Y-78213136D01*
X110243835Y-78138967D01*
X110213361Y-78101602D01*
X110062180Y-77976535D01*
X109889585Y-77883213D01*
X109778534Y-77848837D01*
X109708039Y-77827015D01*
X109708036Y-77827014D01*
X109702152Y-77825193D01*
X109696027Y-77824549D01*
X109696026Y-77824549D01*
X109513147Y-77805327D01*
X109513146Y-77805327D01*
X109507019Y-77804683D01*
X109384383Y-77815844D01*
X109317759Y-77821907D01*
X109317758Y-77821907D01*
X109311618Y-77822466D01*
X109305704Y-77824207D01*
X109305702Y-77824207D01*
X109212589Y-77851612D01*
X109123393Y-77877864D01*
X109117928Y-77880721D01*
X108954972Y-77965912D01*
X108954968Y-77965915D01*
X108949512Y-77968767D01*
X108944712Y-77972627D01*
X108944711Y-77972627D01*
X108920044Y-77992460D01*
X108796600Y-78091711D01*
X108670480Y-78242016D01*
X108667516Y-78247408D01*
X108667513Y-78247412D01*
X108602409Y-78365836D01*
X108575956Y-78413954D01*
X108516628Y-78600978D01*
X108494757Y-78795963D01*
X108495273Y-78802107D01*
X108508513Y-78959788D01*
X108494281Y-79029344D01*
X108472050Y-79059426D01*
X106704179Y-80827297D01*
X106636423Y-80862382D01*
X106556526Y-80876110D01*
X106516650Y-80882962D01*
X106516649Y-80882962D01*
X106510953Y-80883941D01*
X106312575Y-80957127D01*
X106307614Y-80960079D01*
X106307613Y-80960079D01*
X106175658Y-81038584D01*
X106130856Y-81065238D01*
X105971881Y-81204655D01*
X105840976Y-81370708D01*
X105838287Y-81375819D01*
X105838285Y-81375822D01*
X105760563Y-81523547D01*
X105711144Y-81574519D01*
X105642011Y-81590682D01*
X105575115Y-81566903D01*
X105534860Y-81518129D01*
X105445926Y-81327409D01*
X105440443Y-81317913D01*
X105311269Y-81133433D01*
X105304213Y-81125025D01*
X105144975Y-80965787D01*
X105136567Y-80958731D01*
X104952087Y-80829557D01*
X104942592Y-80824074D01*
X104738473Y-80728892D01*
X104728181Y-80725146D01*
X104537497Y-80674052D01*
X104523401Y-80674388D01*
X104520000Y-80682330D01*
X104520000Y-83312521D01*
X104020000Y-83312521D01*
X104020000Y-82268115D01*
X104015525Y-82252876D01*
X104014135Y-82251671D01*
X104006452Y-82250000D01*
X102957479Y-82250000D01*
X102943948Y-82253973D01*
X102942719Y-82262522D01*
X56423660Y-82262522D01*
X56452283Y-82233242D01*
X56452287Y-82233237D01*
X56455477Y-82229974D01*
X56461596Y-82221568D01*
X56615100Y-82010676D01*
X56615102Y-82010673D01*
X56617787Y-82006984D01*
X56746206Y-81762899D01*
X56838045Y-81502832D01*
X56873641Y-81322232D01*
X56890499Y-81236704D01*
X56890500Y-81236698D01*
X56891380Y-81232232D01*
X56892335Y-81213056D01*
X56904867Y-80961336D01*
X56904867Y-80961330D01*
X56905094Y-80956767D01*
X56889751Y-80795963D01*
X70994757Y-80795963D01*
X71011175Y-80991483D01*
X71065258Y-81180091D01*
X71068076Y-81185574D01*
X71152123Y-81349113D01*
X71152126Y-81349117D01*
X71154944Y-81354601D01*
X71276818Y-81508369D01*
X71426238Y-81635535D01*
X71431616Y-81638541D01*
X71431618Y-81638542D01*
X71467932Y-81658837D01*
X71597513Y-81731257D01*
X71784118Y-81791889D01*
X71978946Y-81815121D01*
X71985081Y-81814649D01*
X71985083Y-81814649D01*
X72168434Y-81800541D01*
X72168438Y-81800540D01*
X72174576Y-81800068D01*
X72363556Y-81747303D01*
X72538689Y-81658837D01*
X72568515Y-81635535D01*
X72688453Y-81541829D01*
X72693303Y-81538040D01*
X72723084Y-81503539D01*
X72817485Y-81394173D01*
X72817485Y-81394172D01*
X72821509Y-81389511D01*
X72829286Y-81375822D01*
X72911277Y-81231491D01*
X72918425Y-81218909D01*
X72980358Y-81032732D01*
X73004949Y-80838071D01*
X73005341Y-80810000D01*
X73003965Y-80795963D01*
X76994757Y-80795963D01*
X77011175Y-80991483D01*
X77065258Y-81180091D01*
X77068076Y-81185574D01*
X77152123Y-81349113D01*
X77152126Y-81349117D01*
X77154944Y-81354601D01*
X77276818Y-81508369D01*
X77426238Y-81635535D01*
X77431616Y-81638541D01*
X77431618Y-81638542D01*
X77467932Y-81658837D01*
X77597513Y-81731257D01*
X77784118Y-81791889D01*
X77978946Y-81815121D01*
X77985081Y-81814649D01*
X77985083Y-81814649D01*
X78168434Y-81800541D01*
X78168438Y-81800540D01*
X78174576Y-81800068D01*
X78363556Y-81747303D01*
X78392855Y-81732503D01*
X102944052Y-81732503D01*
X102944388Y-81746599D01*
X102952330Y-81750000D01*
X104001885Y-81750000D01*
X104017124Y-81745525D01*
X104018329Y-81744135D01*
X104020000Y-81736452D01*
X104020000Y-80687479D01*
X104016027Y-80673948D01*
X104007478Y-80672719D01*
X103811819Y-80725146D01*
X103801527Y-80728892D01*
X103597409Y-80824074D01*
X103587913Y-80829557D01*
X103403433Y-80958731D01*
X103395025Y-80965787D01*
X103235787Y-81125025D01*
X103228731Y-81133433D01*
X103099557Y-81317913D01*
X103094074Y-81327409D01*
X102998892Y-81531527D01*
X102995146Y-81541819D01*
X102944052Y-81732503D01*
X78392855Y-81732503D01*
X78538689Y-81658837D01*
X78568515Y-81635535D01*
X78688453Y-81541829D01*
X78693303Y-81538040D01*
X78723084Y-81503539D01*
X78817485Y-81394173D01*
X78817485Y-81394172D01*
X78821509Y-81389511D01*
X78829286Y-81375822D01*
X78911277Y-81231491D01*
X78918425Y-81218909D01*
X78980358Y-81032732D01*
X79004949Y-80838071D01*
X79005341Y-80810000D01*
X78986194Y-80614728D01*
X78984413Y-80608829D01*
X78984412Y-80608824D01*
X78931265Y-80432793D01*
X78929484Y-80426894D01*
X78837370Y-80253653D01*
X78713361Y-80101602D01*
X78562180Y-79976535D01*
X78389585Y-79883213D01*
X78295868Y-79854203D01*
X78208039Y-79827015D01*
X78208036Y-79827014D01*
X78202152Y-79825193D01*
X78196027Y-79824549D01*
X78196026Y-79824549D01*
X78013147Y-79805327D01*
X78013146Y-79805327D01*
X78007019Y-79804683D01*
X77884383Y-79815844D01*
X77817759Y-79821907D01*
X77817758Y-79821907D01*
X77811618Y-79822466D01*
X77805704Y-79824207D01*
X77805702Y-79824207D01*
X77763982Y-79836486D01*
X77623393Y-79877864D01*
X77617928Y-79880721D01*
X77454972Y-79965912D01*
X77454968Y-79965915D01*
X77449512Y-79968767D01*
X77444712Y-79972627D01*
X77444711Y-79972627D01*
X77423944Y-79989324D01*
X77296600Y-80091711D01*
X77170480Y-80242016D01*
X77167516Y-80247408D01*
X77167513Y-80247412D01*
X77088813Y-80390567D01*
X77075956Y-80413954D01*
X77016628Y-80600978D01*
X76994757Y-80795963D01*
X73003965Y-80795963D01*
X72986194Y-80614728D01*
X72984413Y-80608829D01*
X72984412Y-80608824D01*
X72931265Y-80432793D01*
X72929484Y-80426894D01*
X72837370Y-80253653D01*
X72713361Y-80101602D01*
X72562180Y-79976535D01*
X72389585Y-79883213D01*
X72295868Y-79854203D01*
X72208039Y-79827015D01*
X72208036Y-79827014D01*
X72202152Y-79825193D01*
X72196027Y-79824549D01*
X72196026Y-79824549D01*
X72013147Y-79805327D01*
X72013146Y-79805327D01*
X72007019Y-79804683D01*
X71884383Y-79815844D01*
X71817759Y-79821907D01*
X71817758Y-79821907D01*
X71811618Y-79822466D01*
X71805704Y-79824207D01*
X71805702Y-79824207D01*
X71763982Y-79836486D01*
X71623393Y-79877864D01*
X71617928Y-79880721D01*
X71454972Y-79965912D01*
X71454968Y-79965915D01*
X71449512Y-79968767D01*
X71444712Y-79972627D01*
X71444711Y-79972627D01*
X71423944Y-79989324D01*
X71296600Y-80091711D01*
X71170480Y-80242016D01*
X71167516Y-80247408D01*
X71167513Y-80247412D01*
X71088813Y-80390567D01*
X71075956Y-80413954D01*
X71016628Y-80600978D01*
X70994757Y-80795963D01*
X56889751Y-80795963D01*
X56878898Y-80682208D01*
X56876985Y-80674388D01*
X56814429Y-80418744D01*
X56813343Y-80414306D01*
X56709801Y-80158674D01*
X56707500Y-80154744D01*
X56707497Y-80154738D01*
X56572745Y-79924597D01*
X56572740Y-79924590D01*
X56570442Y-79920665D01*
X56478136Y-79805242D01*
X56401036Y-79708834D01*
X56401035Y-79708833D01*
X56398184Y-79705268D01*
X56196636Y-79516992D01*
X55970021Y-79359784D01*
X55965943Y-79357755D01*
X55727173Y-79238968D01*
X55727170Y-79238967D01*
X55723086Y-79236935D01*
X55461002Y-79151020D01*
X55456510Y-79150240D01*
X55193043Y-79104494D01*
X55193035Y-79104493D01*
X55189262Y-79103838D01*
X55179029Y-79103329D01*
X55103695Y-79099578D01*
X55103687Y-79099578D01*
X55102124Y-79099500D01*
X54929930Y-79099500D01*
X54927662Y-79099665D01*
X54927650Y-79099665D01*
X54793397Y-79109406D01*
X54724917Y-79114375D01*
X54720462Y-79115359D01*
X54720459Y-79115359D01*
X54460053Y-79172852D01*
X54460050Y-79172853D01*
X54455597Y-79173836D01*
X54197681Y-79271551D01*
X54193694Y-79273765D01*
X54193693Y-79273766D01*
X53960565Y-79403257D01*
X53956572Y-79405475D01*
X53737322Y-79572802D01*
X53734129Y-79576068D01*
X53734127Y-79576070D01*
X53547717Y-79766758D01*
X53547713Y-79766763D01*
X53544523Y-79770026D01*
X53541836Y-79773718D01*
X53541834Y-79773720D01*
X53391349Y-79980465D01*
X53382213Y-79993016D01*
X53253794Y-80237101D01*
X53161955Y-80497168D01*
X53161075Y-80501634D01*
X53117021Y-80725146D01*
X53108620Y-80767768D01*
X53108393Y-80772322D01*
X53108393Y-80772324D01*
X53095323Y-81034862D01*
X53094906Y-81043233D01*
X50302387Y-81043233D01*
X50302022Y-81034862D01*
X50303222Y-81016550D01*
X50303222Y-81010855D01*
X50305136Y-81000000D01*
X50302414Y-80984563D01*
X50300500Y-80962683D01*
X50300500Y-77937527D01*
X97509727Y-77937527D01*
X97526145Y-78133047D01*
X97580228Y-78321655D01*
X97583046Y-78327138D01*
X97667093Y-78490677D01*
X97667096Y-78490681D01*
X97669914Y-78496165D01*
X97791788Y-78649933D01*
X97941208Y-78777099D01*
X97946586Y-78780105D01*
X97946588Y-78780106D01*
X97982902Y-78800401D01*
X98112483Y-78872821D01*
X98299088Y-78933453D01*
X98493916Y-78956685D01*
X98500051Y-78956213D01*
X98500053Y-78956213D01*
X98683404Y-78942105D01*
X98683408Y-78942104D01*
X98689546Y-78941632D01*
X98878526Y-78888867D01*
X99053659Y-78800401D01*
X99059340Y-78795963D01*
X99203423Y-78683393D01*
X99208273Y-78679604D01*
X99238054Y-78645103D01*
X99332455Y-78535737D01*
X99332455Y-78535736D01*
X99336479Y-78531075D01*
X99433395Y-78360473D01*
X99495328Y-78174296D01*
X99519919Y-77979635D01*
X99520311Y-77951564D01*
X99501164Y-77756292D01*
X99499383Y-77750393D01*
X99499382Y-77750388D01*
X99446235Y-77574357D01*
X99444454Y-77568458D01*
X99352340Y-77395217D01*
X99228331Y-77243166D01*
X99077150Y-77118099D01*
X98904555Y-77024777D01*
X98779167Y-76985963D01*
X98723009Y-76968579D01*
X98723006Y-76968578D01*
X98717122Y-76966757D01*
X98710997Y-76966113D01*
X98710996Y-76966113D01*
X98528117Y-76946891D01*
X98528116Y-76946891D01*
X98521989Y-76946247D01*
X98399353Y-76957408D01*
X98332729Y-76963471D01*
X98332728Y-76963471D01*
X98326588Y-76964030D01*
X98320674Y-76965771D01*
X98320672Y-76965771D01*
X98231191Y-76992107D01*
X98138363Y-77019428D01*
X98132898Y-77022285D01*
X97969942Y-77107476D01*
X97969938Y-77107479D01*
X97964482Y-77110331D01*
X97959682Y-77114191D01*
X97959681Y-77114191D01*
X97925296Y-77141837D01*
X97811570Y-77233275D01*
X97685450Y-77383580D01*
X97682486Y-77388972D01*
X97682483Y-77388976D01*
X97603783Y-77532131D01*
X97590926Y-77555518D01*
X97589065Y-77561385D01*
X97589064Y-77561387D01*
X97584950Y-77574357D01*
X97531598Y-77742542D01*
X97509727Y-77937527D01*
X50300500Y-77937527D01*
X50300500Y-75572962D01*
X52828601Y-75572962D01*
X52862562Y-75706684D01*
X52866403Y-75717531D01*
X52953898Y-75907324D01*
X52959649Y-75917285D01*
X53080272Y-76087962D01*
X53087740Y-76096705D01*
X53237446Y-76242543D01*
X53246380Y-76249777D01*
X53420152Y-76365889D01*
X53430265Y-76371380D01*
X53622288Y-76453879D01*
X53633221Y-76457431D01*
X53732331Y-76479857D01*
X53746405Y-76478968D01*
X53750000Y-76469569D01*
X53750000Y-76468271D01*
X54250000Y-76468271D01*
X54253966Y-76481777D01*
X54267966Y-76483781D01*
X54275615Y-76482672D01*
X54286807Y-76479985D01*
X54484707Y-76412807D01*
X54495216Y-76408128D01*
X54677552Y-76306015D01*
X54687045Y-76299490D01*
X54847725Y-76165854D01*
X54855854Y-76157725D01*
X54989490Y-75997045D01*
X54996015Y-75987552D01*
X55098128Y-75805216D01*
X55102807Y-75794707D01*
X55169985Y-75596807D01*
X55172672Y-75585615D01*
X55173786Y-75577931D01*
X55171799Y-75563992D01*
X55158234Y-75560000D01*
X54268115Y-75560000D01*
X54252876Y-75564475D01*
X54251671Y-75565865D01*
X54250000Y-75573548D01*
X54250000Y-76468271D01*
X53750000Y-76468271D01*
X53750000Y-75578115D01*
X53745525Y-75562876D01*
X53744135Y-75561671D01*
X53736452Y-75560000D01*
X52843424Y-75560000D01*
X52829893Y-75563973D01*
X52828601Y-75572962D01*
X50300500Y-75572962D01*
X50300500Y-75048974D01*
X52824443Y-75048974D01*
X52825699Y-75056421D01*
X52838460Y-75060000D01*
X53731885Y-75060000D01*
X53747124Y-75055525D01*
X53748329Y-75054135D01*
X53750000Y-75046452D01*
X53750000Y-75041885D01*
X54250000Y-75041885D01*
X54254475Y-75057124D01*
X54255865Y-75058329D01*
X54263548Y-75060000D01*
X55158278Y-75060000D01*
X55171809Y-75056027D01*
X55172978Y-75047892D01*
X55126664Y-74883675D01*
X55122542Y-74872936D01*
X55030107Y-74685497D01*
X55024097Y-74675689D01*
X54899047Y-74508227D01*
X54891357Y-74499687D01*
X54737883Y-74357816D01*
X54728758Y-74350815D01*
X54552006Y-74239293D01*
X54541759Y-74234072D01*
X54347642Y-74156627D01*
X54336616Y-74153361D01*
X54267770Y-74139667D01*
X54254894Y-74140819D01*
X54250000Y-74155972D01*
X54250000Y-75041885D01*
X53750000Y-75041885D01*
X53750000Y-74153399D01*
X53746194Y-74140437D01*
X53731279Y-74138501D01*
X53693781Y-74144945D01*
X53682664Y-74147923D01*
X53486592Y-74220258D01*
X53476210Y-74225210D01*
X53296604Y-74332064D01*
X53287292Y-74338829D01*
X53130163Y-74476629D01*
X53122246Y-74484972D01*
X52992862Y-74649095D01*
X52986591Y-74658751D01*
X52889287Y-74843696D01*
X52884881Y-74854333D01*
X52824443Y-75048974D01*
X50300500Y-75048974D01*
X50300500Y-73175963D01*
X70994757Y-73175963D01*
X71011175Y-73371483D01*
X71065258Y-73560091D01*
X71068076Y-73565574D01*
X71152123Y-73729113D01*
X71152126Y-73729117D01*
X71154944Y-73734601D01*
X71276818Y-73888369D01*
X71281511Y-73892363D01*
X71281512Y-73892364D01*
X71390764Y-73985344D01*
X71426238Y-74015535D01*
X71431616Y-74018541D01*
X71431618Y-74018542D01*
X71467479Y-74038584D01*
X71597513Y-74111257D01*
X71784118Y-74171889D01*
X71978946Y-74195121D01*
X71985081Y-74194649D01*
X71985083Y-74194649D01*
X72168434Y-74180541D01*
X72168438Y-74180540D01*
X72174576Y-74180068D01*
X72363556Y-74127303D01*
X72538689Y-74038837D01*
X72568515Y-74015535D01*
X72688453Y-73921829D01*
X72693303Y-73918040D01*
X72723084Y-73883539D01*
X72817485Y-73774173D01*
X72817485Y-73774172D01*
X72821509Y-73769511D01*
X72918425Y-73598909D01*
X72980358Y-73412732D01*
X73004949Y-73218071D01*
X73005341Y-73190000D01*
X73003965Y-73175963D01*
X76994757Y-73175963D01*
X77011175Y-73371483D01*
X77065258Y-73560091D01*
X77068076Y-73565574D01*
X77152123Y-73729113D01*
X77152126Y-73729117D01*
X77154944Y-73734601D01*
X77276818Y-73888369D01*
X77281511Y-73892363D01*
X77281512Y-73892364D01*
X77390764Y-73985344D01*
X77426238Y-74015535D01*
X77431616Y-74018541D01*
X77431618Y-74018542D01*
X77467479Y-74038584D01*
X77597513Y-74111257D01*
X77784118Y-74171889D01*
X77978946Y-74195121D01*
X77985081Y-74194649D01*
X77985083Y-74194649D01*
X78168434Y-74180541D01*
X78168438Y-74180540D01*
X78174576Y-74180068D01*
X78363556Y-74127303D01*
X78538689Y-74038837D01*
X78568515Y-74015535D01*
X78688453Y-73921829D01*
X78693303Y-73918040D01*
X78723084Y-73883539D01*
X78798677Y-73795963D01*
X130494757Y-73795963D01*
X130511175Y-73991483D01*
X130565258Y-74180091D01*
X130568076Y-74185574D01*
X130652123Y-74349113D01*
X130652126Y-74349117D01*
X130654944Y-74354601D01*
X130776818Y-74508369D01*
X130926238Y-74635535D01*
X130931616Y-74638541D01*
X130931618Y-74638542D01*
X130965942Y-74657725D01*
X131097513Y-74731257D01*
X131284118Y-74791889D01*
X131478946Y-74815121D01*
X131485081Y-74814649D01*
X131485083Y-74814649D01*
X131668434Y-74800541D01*
X131668438Y-74800540D01*
X131674576Y-74800068D01*
X131863556Y-74747303D01*
X132038689Y-74658837D01*
X132051159Y-74649095D01*
X132188453Y-74541829D01*
X132193303Y-74538040D01*
X132223084Y-74503539D01*
X132317485Y-74394173D01*
X132317485Y-74394172D01*
X132321509Y-74389511D01*
X132418425Y-74218909D01*
X132466975Y-74072962D01*
X137328601Y-74072962D01*
X137362562Y-74206684D01*
X137366403Y-74217531D01*
X137453898Y-74407324D01*
X137459649Y-74417285D01*
X137580272Y-74587962D01*
X137587740Y-74596705D01*
X137737446Y-74742543D01*
X137746380Y-74749777D01*
X137920152Y-74865889D01*
X137930265Y-74871380D01*
X138122288Y-74953879D01*
X138133221Y-74957431D01*
X138232331Y-74979857D01*
X138246405Y-74978968D01*
X138250000Y-74969569D01*
X138250000Y-74968271D01*
X138750000Y-74968271D01*
X138753966Y-74981777D01*
X138767966Y-74983781D01*
X138775615Y-74982672D01*
X138786807Y-74979985D01*
X138984707Y-74912807D01*
X138995216Y-74908128D01*
X139177552Y-74806015D01*
X139187045Y-74799490D01*
X139347725Y-74665854D01*
X139355854Y-74657725D01*
X139489490Y-74497045D01*
X139496015Y-74487552D01*
X139598128Y-74305216D01*
X139602807Y-74294707D01*
X139669985Y-74096807D01*
X139672672Y-74085615D01*
X139673786Y-74077931D01*
X139671799Y-74063992D01*
X139658234Y-74060000D01*
X138768115Y-74060000D01*
X138752876Y-74064475D01*
X138751671Y-74065865D01*
X138750000Y-74073548D01*
X138750000Y-74968271D01*
X138250000Y-74968271D01*
X138250000Y-74078115D01*
X138245525Y-74062876D01*
X138244135Y-74061671D01*
X138236452Y-74060000D01*
X137343424Y-74060000D01*
X137329893Y-74063973D01*
X137328601Y-74072962D01*
X132466975Y-74072962D01*
X132480358Y-74032732D01*
X132504949Y-73838071D01*
X132505341Y-73810000D01*
X132486194Y-73614728D01*
X132484413Y-73608829D01*
X132484412Y-73608824D01*
X132466342Y-73548974D01*
X137324443Y-73548974D01*
X137325699Y-73556421D01*
X137338460Y-73560000D01*
X138231885Y-73560000D01*
X138247124Y-73555525D01*
X138248329Y-73554135D01*
X138250000Y-73546452D01*
X138250000Y-73541885D01*
X138750000Y-73541885D01*
X138754475Y-73557124D01*
X138755865Y-73558329D01*
X138763548Y-73560000D01*
X139658278Y-73560000D01*
X139671809Y-73556027D01*
X139672978Y-73547892D01*
X139626664Y-73383675D01*
X139622542Y-73372936D01*
X139530107Y-73185497D01*
X139524097Y-73175689D01*
X139399047Y-73008227D01*
X139391357Y-72999687D01*
X139237883Y-72857816D01*
X139228758Y-72850815D01*
X139052006Y-72739293D01*
X139041759Y-72734072D01*
X138847642Y-72656627D01*
X138836616Y-72653361D01*
X138767770Y-72639667D01*
X138754894Y-72640819D01*
X138750000Y-72655972D01*
X138750000Y-73541885D01*
X138250000Y-73541885D01*
X138250000Y-72653399D01*
X138246194Y-72640437D01*
X138231279Y-72638501D01*
X138193781Y-72644945D01*
X138182664Y-72647923D01*
X137986592Y-72720258D01*
X137976210Y-72725210D01*
X137796604Y-72832064D01*
X137787292Y-72838829D01*
X137630163Y-72976629D01*
X137622246Y-72984972D01*
X137492862Y-73149095D01*
X137486591Y-73158751D01*
X137389287Y-73343696D01*
X137384881Y-73354333D01*
X137324443Y-73548974D01*
X132466342Y-73548974D01*
X132431265Y-73432793D01*
X132429484Y-73426894D01*
X132337370Y-73253653D01*
X132213361Y-73101602D01*
X132062180Y-72976535D01*
X131889585Y-72883213D01*
X131784924Y-72850815D01*
X131708039Y-72827015D01*
X131708036Y-72827014D01*
X131702152Y-72825193D01*
X131696027Y-72824549D01*
X131696026Y-72824549D01*
X131513147Y-72805327D01*
X131513146Y-72805327D01*
X131507019Y-72804683D01*
X131417906Y-72812793D01*
X131317759Y-72821907D01*
X131317758Y-72821907D01*
X131311618Y-72822466D01*
X131305704Y-72824207D01*
X131305702Y-72824207D01*
X131215297Y-72850815D01*
X131123393Y-72877864D01*
X131117928Y-72880721D01*
X130954972Y-72965912D01*
X130954968Y-72965915D01*
X130949512Y-72968767D01*
X130944712Y-72972627D01*
X130944711Y-72972627D01*
X130931333Y-72983383D01*
X130796600Y-73091711D01*
X130670480Y-73242016D01*
X130667516Y-73247408D01*
X130667513Y-73247412D01*
X130614581Y-73343696D01*
X130575956Y-73413954D01*
X130516628Y-73600978D01*
X130494757Y-73795963D01*
X78798677Y-73795963D01*
X78817485Y-73774173D01*
X78817485Y-73774172D01*
X78821509Y-73769511D01*
X78918425Y-73598909D01*
X78980358Y-73412732D01*
X79004949Y-73218071D01*
X79005341Y-73190000D01*
X78986194Y-72994728D01*
X78984413Y-72988829D01*
X78984412Y-72988824D01*
X78931265Y-72812793D01*
X78929484Y-72806894D01*
X78837370Y-72633653D01*
X78713361Y-72481602D01*
X78562180Y-72356535D01*
X78389585Y-72263213D01*
X78295869Y-72234203D01*
X78208039Y-72207015D01*
X78208036Y-72207014D01*
X78202152Y-72205193D01*
X78196027Y-72204549D01*
X78196026Y-72204549D01*
X78013147Y-72185327D01*
X78013146Y-72185327D01*
X78007019Y-72184683D01*
X77910489Y-72193468D01*
X77817759Y-72201907D01*
X77817758Y-72201907D01*
X77811618Y-72202466D01*
X77805704Y-72204207D01*
X77805702Y-72204207D01*
X77738741Y-72223915D01*
X77623393Y-72257864D01*
X77617928Y-72260721D01*
X77454972Y-72345912D01*
X77454968Y-72345915D01*
X77449512Y-72348767D01*
X77444712Y-72352627D01*
X77444711Y-72352627D01*
X77434919Y-72360500D01*
X77296600Y-72471711D01*
X77170480Y-72622016D01*
X77167516Y-72627408D01*
X77167513Y-72627412D01*
X77106006Y-72739293D01*
X77075956Y-72793954D01*
X77074095Y-72799821D01*
X77074094Y-72799823D01*
X77066046Y-72825193D01*
X77016628Y-72980978D01*
X76994757Y-73175963D01*
X73003965Y-73175963D01*
X72986194Y-72994728D01*
X72984413Y-72988829D01*
X72984412Y-72988824D01*
X72931265Y-72812793D01*
X72929484Y-72806894D01*
X72837370Y-72633653D01*
X72713361Y-72481602D01*
X72562180Y-72356535D01*
X72389585Y-72263213D01*
X72295869Y-72234203D01*
X72208039Y-72207015D01*
X72208036Y-72207014D01*
X72202152Y-72205193D01*
X72196027Y-72204549D01*
X72196026Y-72204549D01*
X72013147Y-72185327D01*
X72013146Y-72185327D01*
X72007019Y-72184683D01*
X71910489Y-72193468D01*
X71817759Y-72201907D01*
X71817758Y-72201907D01*
X71811618Y-72202466D01*
X71805704Y-72204207D01*
X71805702Y-72204207D01*
X71738741Y-72223915D01*
X71623393Y-72257864D01*
X71617928Y-72260721D01*
X71454972Y-72345912D01*
X71454968Y-72345915D01*
X71449512Y-72348767D01*
X71444712Y-72352627D01*
X71444711Y-72352627D01*
X71434919Y-72360500D01*
X71296600Y-72471711D01*
X71170480Y-72622016D01*
X71167516Y-72627408D01*
X71167513Y-72627412D01*
X71106006Y-72739293D01*
X71075956Y-72793954D01*
X71074095Y-72799821D01*
X71074094Y-72799823D01*
X71066046Y-72825193D01*
X71016628Y-72980978D01*
X70994757Y-73175963D01*
X50300500Y-73175963D01*
X50300500Y-72104646D01*
X62549500Y-72104646D01*
X62552618Y-72130846D01*
X62556456Y-72139486D01*
X62556456Y-72139487D01*
X62590882Y-72216990D01*
X62598061Y-72233153D01*
X62606294Y-72241372D01*
X62606295Y-72241373D01*
X62637835Y-72272858D01*
X62677287Y-72312241D01*
X62687924Y-72316944D01*
X62687926Y-72316945D01*
X62722729Y-72332331D01*
X62779673Y-72357506D01*
X62805354Y-72360500D01*
X64694646Y-72360500D01*
X64698350Y-72360059D01*
X64698353Y-72360059D01*
X64705746Y-72359179D01*
X64720846Y-72357382D01*
X64740242Y-72348767D01*
X64812518Y-72316663D01*
X64823153Y-72311939D01*
X64854417Y-72280621D01*
X64894023Y-72240945D01*
X64902241Y-72232713D01*
X64907130Y-72221656D01*
X64943675Y-72138992D01*
X64947506Y-72130327D01*
X64950500Y-72104646D01*
X64950500Y-71696362D01*
X64970502Y-71628241D01*
X65024158Y-71581748D01*
X65094432Y-71571644D01*
X65159012Y-71601138D01*
X65190926Y-71643611D01*
X65194046Y-71650379D01*
X65245883Y-71762821D01*
X65373222Y-71943002D01*
X65531264Y-72096961D01*
X65536060Y-72100166D01*
X65536063Y-72100168D01*
X65620261Y-72156427D01*
X65714717Y-72219540D01*
X65720020Y-72221818D01*
X65720023Y-72221820D01*
X65892373Y-72295867D01*
X65917436Y-72306635D01*
X65963000Y-72316945D01*
X66126995Y-72354054D01*
X66127001Y-72354055D01*
X66132632Y-72355329D01*
X66138403Y-72355556D01*
X66138405Y-72355556D01*
X66206211Y-72358220D01*
X66353098Y-72363991D01*
X66462275Y-72348161D01*
X66565738Y-72333160D01*
X66565743Y-72333159D01*
X66571452Y-72332331D01*
X66576916Y-72330476D01*
X66576921Y-72330475D01*
X66774907Y-72263268D01*
X66774912Y-72263266D01*
X66780379Y-72261410D01*
X66789822Y-72256122D01*
X66880762Y-72205193D01*
X66972884Y-72153602D01*
X66989856Y-72139487D01*
X67031747Y-72104646D01*
X82549500Y-72104646D01*
X82552618Y-72130846D01*
X82556456Y-72139486D01*
X82556456Y-72139487D01*
X82590882Y-72216990D01*
X82598061Y-72233153D01*
X82606294Y-72241372D01*
X82606295Y-72241373D01*
X82637835Y-72272858D01*
X82677287Y-72312241D01*
X82687924Y-72316944D01*
X82687926Y-72316945D01*
X82722729Y-72332331D01*
X82779673Y-72357506D01*
X82805354Y-72360500D01*
X84694646Y-72360500D01*
X84698350Y-72360059D01*
X84698353Y-72360059D01*
X84705746Y-72359179D01*
X84720846Y-72357382D01*
X84740242Y-72348767D01*
X84812518Y-72316663D01*
X84823153Y-72311939D01*
X84854417Y-72280621D01*
X84894023Y-72240945D01*
X84902241Y-72232713D01*
X84907130Y-72221656D01*
X84943675Y-72138992D01*
X84947506Y-72130327D01*
X84950500Y-72104646D01*
X84950500Y-71696362D01*
X84970502Y-71628241D01*
X85024158Y-71581748D01*
X85094432Y-71571644D01*
X85159012Y-71601138D01*
X85190926Y-71643611D01*
X85194046Y-71650379D01*
X85245883Y-71762821D01*
X85373222Y-71943002D01*
X85531264Y-72096961D01*
X85536060Y-72100166D01*
X85536063Y-72100168D01*
X85620261Y-72156427D01*
X85714717Y-72219540D01*
X85720020Y-72221818D01*
X85720023Y-72221820D01*
X85892373Y-72295867D01*
X85917436Y-72306635D01*
X85963000Y-72316945D01*
X86126995Y-72354054D01*
X86127001Y-72354055D01*
X86132632Y-72355329D01*
X86138403Y-72355556D01*
X86138405Y-72355556D01*
X86206211Y-72358220D01*
X86353098Y-72363991D01*
X86462275Y-72348161D01*
X86565738Y-72333160D01*
X86565743Y-72333159D01*
X86571452Y-72332331D01*
X86576916Y-72330476D01*
X86576921Y-72330475D01*
X86774907Y-72263268D01*
X86774912Y-72263266D01*
X86780379Y-72261410D01*
X86789822Y-72256122D01*
X86847332Y-72223915D01*
X90080000Y-72223915D01*
X90080369Y-72230729D01*
X90085789Y-72280621D01*
X90089414Y-72295867D01*
X90133767Y-72414177D01*
X90142299Y-72429763D01*
X90217430Y-72530009D01*
X90229991Y-72542570D01*
X90330237Y-72617701D01*
X90345823Y-72626233D01*
X90464133Y-72670586D01*
X90479379Y-72674211D01*
X90529271Y-72679631D01*
X90536085Y-72680000D01*
X90961885Y-72680000D01*
X90977124Y-72675525D01*
X90978329Y-72674135D01*
X90980000Y-72666452D01*
X90980000Y-72661885D01*
X91480000Y-72661885D01*
X91484475Y-72677124D01*
X91485865Y-72678329D01*
X91493548Y-72680000D01*
X91923915Y-72680000D01*
X91930729Y-72679631D01*
X91980621Y-72674211D01*
X91995867Y-72670586D01*
X92114177Y-72626233D01*
X92129763Y-72617701D01*
X92230009Y-72542570D01*
X92242570Y-72530009D01*
X92317701Y-72429763D01*
X92326233Y-72414177D01*
X92370586Y-72295867D01*
X92374211Y-72280621D01*
X92379631Y-72230729D01*
X92380000Y-72223915D01*
X92380000Y-71798115D01*
X92375525Y-71782876D01*
X92374135Y-71781671D01*
X92366452Y-71780000D01*
X91498115Y-71780000D01*
X91482876Y-71784475D01*
X91481671Y-71785865D01*
X91480000Y-71793548D01*
X91480000Y-72661885D01*
X90980000Y-72661885D01*
X90980000Y-71798115D01*
X90975525Y-71782876D01*
X90974135Y-71781671D01*
X90966452Y-71780000D01*
X90098115Y-71780000D01*
X90082876Y-71784475D01*
X90081671Y-71785865D01*
X90080000Y-71793548D01*
X90080000Y-72223915D01*
X86847332Y-72223915D01*
X86880762Y-72205193D01*
X86972884Y-72153602D01*
X86989856Y-72139487D01*
X87138086Y-72016204D01*
X87142518Y-72012518D01*
X87225602Y-71912621D01*
X87279908Y-71847326D01*
X87279910Y-71847323D01*
X87283602Y-71842884D01*
X87391410Y-71650379D01*
X87393266Y-71644912D01*
X87393268Y-71644907D01*
X87460475Y-71446921D01*
X87460476Y-71446916D01*
X87462331Y-71441452D01*
X87463159Y-71435743D01*
X87463160Y-71435738D01*
X87482449Y-71302704D01*
X87488367Y-71261885D01*
X90080000Y-71261885D01*
X90084475Y-71277124D01*
X90085865Y-71278329D01*
X90093548Y-71280000D01*
X90961885Y-71280000D01*
X90977124Y-71275525D01*
X90978329Y-71274135D01*
X90980000Y-71266452D01*
X90980000Y-71261885D01*
X91480000Y-71261885D01*
X91484475Y-71277124D01*
X91485865Y-71278329D01*
X91493548Y-71280000D01*
X92361885Y-71280000D01*
X92377124Y-71275525D01*
X92392343Y-71257962D01*
X92452069Y-71219579D01*
X92480072Y-71215852D01*
X92479998Y-71214890D01*
X92659710Y-71201062D01*
X92659715Y-71201061D01*
X92665851Y-71200589D01*
X92671780Y-71198934D01*
X92671789Y-71198932D01*
X92676490Y-71197619D01*
X92747480Y-71198562D01*
X92806691Y-71237736D01*
X92835323Y-71302704D01*
X92835593Y-71333020D01*
X92814994Y-71516665D01*
X92830592Y-71702414D01*
X92832291Y-71708339D01*
X92874413Y-71855236D01*
X92881971Y-71881595D01*
X92884790Y-71887080D01*
X92963123Y-72039498D01*
X92967176Y-72047385D01*
X93082959Y-72193468D01*
X93224912Y-72314279D01*
X93230290Y-72317285D01*
X93230292Y-72317286D01*
X93264523Y-72336417D01*
X93387627Y-72405217D01*
X93564907Y-72462819D01*
X93749998Y-72484890D01*
X93756133Y-72484418D01*
X93756135Y-72484418D01*
X93929710Y-72471062D01*
X93929715Y-72471061D01*
X93935851Y-72470589D01*
X93941781Y-72468933D01*
X93941783Y-72468933D01*
X94109459Y-72422117D01*
X94109458Y-72422117D01*
X94115387Y-72420462D01*
X94281768Y-72336417D01*
X94289374Y-72330475D01*
X94423794Y-72225454D01*
X94423795Y-72225453D01*
X94428655Y-72221656D01*
X94529655Y-72104646D01*
X102549500Y-72104646D01*
X102552618Y-72130846D01*
X102556456Y-72139486D01*
X102556456Y-72139487D01*
X102590882Y-72216990D01*
X102598061Y-72233153D01*
X102606294Y-72241372D01*
X102606295Y-72241373D01*
X102637835Y-72272858D01*
X102677287Y-72312241D01*
X102687924Y-72316944D01*
X102687926Y-72316945D01*
X102722729Y-72332331D01*
X102779673Y-72357506D01*
X102805354Y-72360500D01*
X104119785Y-72360500D01*
X104187906Y-72380502D01*
X104208880Y-72397405D01*
X104800130Y-72988655D01*
X104803783Y-72992464D01*
X104845799Y-73038156D01*
X104860815Y-73047466D01*
X104882783Y-73061087D01*
X104892565Y-73067810D01*
X104927217Y-73094112D01*
X104941195Y-73099646D01*
X104961199Y-73109707D01*
X104973986Y-73117635D01*
X104982237Y-73120032D01*
X104982239Y-73120033D01*
X105015772Y-73129775D01*
X105027002Y-73133620D01*
X105067453Y-73149636D01*
X105075995Y-73150534D01*
X105076000Y-73150535D01*
X105082409Y-73151209D01*
X105104385Y-73155520D01*
X105112488Y-73157874D01*
X105118825Y-73159715D01*
X105125803Y-73160227D01*
X105127208Y-73160331D01*
X105127219Y-73160331D01*
X105129515Y-73160500D01*
X105164209Y-73160500D01*
X105177380Y-73161190D01*
X105217454Y-73165402D01*
X105225926Y-73163969D01*
X105225928Y-73163969D01*
X105236001Y-73162265D01*
X105257014Y-73160500D01*
X122285007Y-73160500D01*
X122290284Y-73160611D01*
X122352294Y-73163210D01*
X122363848Y-73160500D01*
X122394662Y-73153273D01*
X122406333Y-73151110D01*
X122421229Y-73149069D01*
X122449432Y-73145206D01*
X122463230Y-73139235D01*
X122484499Y-73132201D01*
X122490775Y-73130729D01*
X122499136Y-73128768D01*
X122506661Y-73124631D01*
X122506664Y-73124630D01*
X122537268Y-73107805D01*
X122547913Y-73102589D01*
X122587855Y-73085305D01*
X122599541Y-73075842D01*
X122618126Y-73063354D01*
X122631308Y-73056107D01*
X122639422Y-73049103D01*
X122663958Y-73024567D01*
X122673759Y-73015742D01*
X122698392Y-72995794D01*
X122698393Y-72995793D01*
X122705070Y-72990386D01*
X122710043Y-72983388D01*
X122710048Y-72983383D01*
X122715968Y-72975052D01*
X122729579Y-72958946D01*
X123291120Y-72397405D01*
X123353432Y-72363379D01*
X123380215Y-72360500D01*
X124694646Y-72360500D01*
X124698350Y-72360059D01*
X124698353Y-72360059D01*
X124705746Y-72359179D01*
X124720846Y-72357382D01*
X124740242Y-72348767D01*
X124812518Y-72316663D01*
X124823153Y-72311939D01*
X124854417Y-72280621D01*
X124894023Y-72240945D01*
X124902241Y-72232713D01*
X124907130Y-72221656D01*
X124943675Y-72138992D01*
X124947506Y-72130327D01*
X124950500Y-72104646D01*
X124950500Y-71696362D01*
X124970502Y-71628241D01*
X125024158Y-71581748D01*
X125094432Y-71571644D01*
X125159012Y-71601138D01*
X125190926Y-71643611D01*
X125194046Y-71650379D01*
X125245883Y-71762821D01*
X125373222Y-71943002D01*
X125531264Y-72096961D01*
X125536060Y-72100166D01*
X125536063Y-72100168D01*
X125620261Y-72156427D01*
X125714717Y-72219540D01*
X125720020Y-72221818D01*
X125720023Y-72221820D01*
X125892373Y-72295867D01*
X125917436Y-72306635D01*
X125963000Y-72316945D01*
X126126995Y-72354054D01*
X126127001Y-72354055D01*
X126132632Y-72355329D01*
X126138403Y-72355556D01*
X126138405Y-72355556D01*
X126206211Y-72358220D01*
X126353098Y-72363991D01*
X126462275Y-72348161D01*
X126565738Y-72333160D01*
X126565743Y-72333159D01*
X126571452Y-72332331D01*
X126576916Y-72330476D01*
X126576921Y-72330475D01*
X126774907Y-72263268D01*
X126774912Y-72263266D01*
X126780379Y-72261410D01*
X126789822Y-72256122D01*
X126880762Y-72205193D01*
X126972884Y-72153602D01*
X126989856Y-72139487D01*
X127031747Y-72104646D01*
X142549500Y-72104646D01*
X142552618Y-72130846D01*
X142556456Y-72139486D01*
X142556456Y-72139487D01*
X142590882Y-72216990D01*
X142598061Y-72233153D01*
X142606294Y-72241372D01*
X142606295Y-72241373D01*
X142637835Y-72272858D01*
X142677287Y-72312241D01*
X142687924Y-72316944D01*
X142687926Y-72316945D01*
X142722729Y-72332331D01*
X142779673Y-72357506D01*
X142805354Y-72360500D01*
X144694646Y-72360500D01*
X144698350Y-72360059D01*
X144698353Y-72360059D01*
X144705746Y-72359179D01*
X144720846Y-72357382D01*
X144740242Y-72348767D01*
X144812518Y-72316663D01*
X144823153Y-72311939D01*
X144854417Y-72280621D01*
X144894023Y-72240945D01*
X144902241Y-72232713D01*
X144907130Y-72221656D01*
X144943675Y-72138992D01*
X144947506Y-72130327D01*
X144950500Y-72104646D01*
X144950500Y-71696362D01*
X144970502Y-71628241D01*
X145024158Y-71581748D01*
X145094432Y-71571644D01*
X145159012Y-71601138D01*
X145190926Y-71643611D01*
X145194046Y-71650379D01*
X145245883Y-71762821D01*
X145373222Y-71943002D01*
X145531264Y-72096961D01*
X145536060Y-72100166D01*
X145536063Y-72100168D01*
X145620261Y-72156427D01*
X145714717Y-72219540D01*
X145720020Y-72221818D01*
X145720023Y-72221820D01*
X145892373Y-72295867D01*
X145917436Y-72306635D01*
X145963000Y-72316945D01*
X146126995Y-72354054D01*
X146127001Y-72354055D01*
X146132632Y-72355329D01*
X146138403Y-72355556D01*
X146138405Y-72355556D01*
X146206211Y-72358220D01*
X146353098Y-72363991D01*
X146462275Y-72348161D01*
X146565738Y-72333160D01*
X146565743Y-72333159D01*
X146571452Y-72332331D01*
X146576916Y-72330476D01*
X146576921Y-72330475D01*
X146774907Y-72263268D01*
X146774912Y-72263266D01*
X146780379Y-72261410D01*
X146789822Y-72256122D01*
X146880762Y-72205193D01*
X146972884Y-72153602D01*
X146989856Y-72139487D01*
X147138086Y-72016204D01*
X147142518Y-72012518D01*
X147225602Y-71912621D01*
X147279908Y-71847326D01*
X147279910Y-71847323D01*
X147283602Y-71842884D01*
X147391410Y-71650379D01*
X147393266Y-71644912D01*
X147393268Y-71644907D01*
X147460475Y-71446921D01*
X147460476Y-71446916D01*
X147462331Y-71441452D01*
X147463159Y-71435743D01*
X147463160Y-71435738D01*
X147482449Y-71302704D01*
X147493991Y-71223098D01*
X147495643Y-71160000D01*
X147475454Y-70940289D01*
X147458733Y-70880998D01*
X147417134Y-70733500D01*
X147415565Y-70727936D01*
X147317980Y-70530053D01*
X147277703Y-70476115D01*
X147189420Y-70357891D01*
X147189420Y-70357890D01*
X147185967Y-70353267D01*
X147040811Y-70219086D01*
X147028189Y-70207418D01*
X147028186Y-70207416D01*
X147023949Y-70203499D01*
X146837350Y-70085764D01*
X146632421Y-70004006D01*
X146626761Y-70002880D01*
X146626757Y-70002879D01*
X146421691Y-69962089D01*
X146421688Y-69962089D01*
X146416024Y-69960962D01*
X146410249Y-69960886D01*
X146410245Y-69960886D01*
X146299504Y-69959437D01*
X146195406Y-69958074D01*
X146189709Y-69959053D01*
X146189708Y-69959053D01*
X145983654Y-69994459D01*
X145983653Y-69994459D01*
X145977957Y-69995438D01*
X145770957Y-70071804D01*
X145765996Y-70074756D01*
X145765995Y-70074756D01*
X145759489Y-70078627D01*
X145581341Y-70184614D01*
X145415457Y-70330090D01*
X145278863Y-70503360D01*
X145203909Y-70645823D01*
X145188008Y-70676046D01*
X145138589Y-70727018D01*
X145069456Y-70743181D01*
X145002560Y-70719402D01*
X144959140Y-70663231D01*
X144950500Y-70617378D01*
X144950500Y-70215354D01*
X144947382Y-70189154D01*
X144901939Y-70086847D01*
X144889558Y-70074487D01*
X144830945Y-70015977D01*
X144822713Y-70007759D01*
X144812076Y-70003056D01*
X144812074Y-70003055D01*
X144752538Y-69976735D01*
X144720327Y-69962494D01*
X144694646Y-69959500D01*
X142805354Y-69959500D01*
X142801650Y-69959941D01*
X142801647Y-69959941D01*
X142794254Y-69960821D01*
X142779154Y-69962618D01*
X142770514Y-69966456D01*
X142770513Y-69966456D01*
X142688513Y-70002879D01*
X142676847Y-70008061D01*
X142597759Y-70087287D01*
X142593056Y-70097924D01*
X142593055Y-70097926D01*
X142579467Y-70128661D01*
X142552494Y-70189673D01*
X142549500Y-70215354D01*
X142549500Y-72104646D01*
X127031747Y-72104646D01*
X127138086Y-72016204D01*
X127142518Y-72012518D01*
X127225602Y-71912621D01*
X127279908Y-71847326D01*
X127279910Y-71847323D01*
X127283602Y-71842884D01*
X127391410Y-71650379D01*
X127393266Y-71644912D01*
X127393268Y-71644907D01*
X127460475Y-71446921D01*
X127460476Y-71446916D01*
X127462331Y-71441452D01*
X127463159Y-71435743D01*
X127463160Y-71435738D01*
X127482449Y-71302704D01*
X127493991Y-71223098D01*
X127495643Y-71160000D01*
X127475454Y-70940289D01*
X127458733Y-70880998D01*
X127417134Y-70733500D01*
X127415565Y-70727936D01*
X127317980Y-70530053D01*
X127277703Y-70476115D01*
X127189420Y-70357891D01*
X127189420Y-70357890D01*
X127185967Y-70353267D01*
X127040811Y-70219086D01*
X127028189Y-70207418D01*
X127028186Y-70207416D01*
X127023949Y-70203499D01*
X126837350Y-70085764D01*
X126632421Y-70004006D01*
X126626761Y-70002880D01*
X126626757Y-70002879D01*
X126421691Y-69962089D01*
X126421688Y-69962089D01*
X126416024Y-69960962D01*
X126410249Y-69960886D01*
X126410245Y-69960886D01*
X126299504Y-69959437D01*
X126195406Y-69958074D01*
X126189709Y-69959053D01*
X126189708Y-69959053D01*
X125983654Y-69994459D01*
X125983653Y-69994459D01*
X125977957Y-69995438D01*
X125770957Y-70071804D01*
X125765996Y-70074756D01*
X125765995Y-70074756D01*
X125759489Y-70078627D01*
X125581341Y-70184614D01*
X125415457Y-70330090D01*
X125278863Y-70503360D01*
X125203909Y-70645823D01*
X125188008Y-70676046D01*
X125138589Y-70727018D01*
X125069456Y-70743181D01*
X125002560Y-70719402D01*
X124959140Y-70663231D01*
X124950500Y-70617378D01*
X124950500Y-70215354D01*
X124947382Y-70189154D01*
X124901939Y-70086847D01*
X124889558Y-70074487D01*
X124830945Y-70015977D01*
X124822713Y-70007759D01*
X124812076Y-70003056D01*
X124812074Y-70003055D01*
X124752538Y-69976735D01*
X124720327Y-69962494D01*
X124694646Y-69959500D01*
X122805354Y-69959500D01*
X122801650Y-69959941D01*
X122801647Y-69959941D01*
X122794254Y-69960821D01*
X122779154Y-69962618D01*
X122770514Y-69966456D01*
X122770513Y-69966456D01*
X122688513Y-70002879D01*
X122676847Y-70008061D01*
X122597759Y-70087287D01*
X122593056Y-70097924D01*
X122593055Y-70097926D01*
X122579467Y-70128661D01*
X122552494Y-70189673D01*
X122549500Y-70215354D01*
X122549500Y-71529786D01*
X122529498Y-71597907D01*
X122512595Y-71618881D01*
X122108881Y-72022595D01*
X122046569Y-72056621D01*
X122019786Y-72059500D01*
X110346406Y-72059500D01*
X110278285Y-72039498D01*
X110231792Y-71985842D01*
X110221688Y-71915568D01*
X110251024Y-71851169D01*
X110258176Y-71842884D01*
X110321509Y-71769511D01*
X110325310Y-71762821D01*
X110392294Y-71644907D01*
X110418425Y-71598909D01*
X110480358Y-71412732D01*
X110504949Y-71218071D01*
X110505216Y-71198932D01*
X110505292Y-71193523D01*
X110505292Y-71193519D01*
X110505341Y-71190000D01*
X110486194Y-70994728D01*
X110484413Y-70988829D01*
X110484412Y-70988824D01*
X110431265Y-70812793D01*
X110429484Y-70806894D01*
X110337370Y-70633653D01*
X110213361Y-70481602D01*
X110062180Y-70356535D01*
X109889585Y-70263213D01*
X109795869Y-70234203D01*
X109708039Y-70207015D01*
X109708036Y-70207014D01*
X109702152Y-70205193D01*
X109696027Y-70204549D01*
X109696026Y-70204549D01*
X109513147Y-70185327D01*
X109513146Y-70185327D01*
X109507019Y-70184683D01*
X109384383Y-70195844D01*
X109317759Y-70201907D01*
X109317758Y-70201907D01*
X109311618Y-70202466D01*
X109305704Y-70204207D01*
X109305702Y-70204207D01*
X109176734Y-70242165D01*
X109123393Y-70257864D01*
X109117928Y-70260721D01*
X108954972Y-70345912D01*
X108954968Y-70345915D01*
X108949512Y-70348767D01*
X108944712Y-70352627D01*
X108944711Y-70352627D01*
X108931637Y-70363139D01*
X108796600Y-70471711D01*
X108670480Y-70622016D01*
X108667516Y-70627408D01*
X108667513Y-70627412D01*
X108604454Y-70742116D01*
X108575956Y-70793954D01*
X108516628Y-70980978D01*
X108494757Y-71175963D01*
X108511175Y-71371483D01*
X108565258Y-71560091D01*
X108576388Y-71581748D01*
X108652123Y-71729113D01*
X108652126Y-71729117D01*
X108654944Y-71734601D01*
X108705284Y-71798115D01*
X108750557Y-71855236D01*
X108777194Y-71921046D01*
X108764023Y-71990810D01*
X108715225Y-72042379D01*
X108651811Y-72059500D01*
X107372121Y-72059500D01*
X107304000Y-72039498D01*
X107257507Y-71985842D01*
X107247403Y-71915568D01*
X107275246Y-71852932D01*
X107279904Y-71847331D01*
X107279907Y-71847327D01*
X107283602Y-71842884D01*
X107391410Y-71650379D01*
X107393266Y-71644912D01*
X107393268Y-71644907D01*
X107460475Y-71446921D01*
X107460476Y-71446916D01*
X107462331Y-71441452D01*
X107463159Y-71435743D01*
X107463160Y-71435738D01*
X107482449Y-71302704D01*
X107493991Y-71223098D01*
X107495643Y-71160000D01*
X107475454Y-70940289D01*
X107458733Y-70880998D01*
X107417134Y-70733500D01*
X107415565Y-70727936D01*
X107317980Y-70530053D01*
X107277703Y-70476115D01*
X107189420Y-70357891D01*
X107189420Y-70357890D01*
X107185967Y-70353267D01*
X107040811Y-70219086D01*
X107028189Y-70207418D01*
X107028186Y-70207416D01*
X107023949Y-70203499D01*
X106837350Y-70085764D01*
X106632421Y-70004006D01*
X106626761Y-70002880D01*
X106626757Y-70002879D01*
X106421691Y-69962089D01*
X106421688Y-69962089D01*
X106416024Y-69960962D01*
X106410249Y-69960886D01*
X106410245Y-69960886D01*
X106299504Y-69959437D01*
X106195406Y-69958074D01*
X106189709Y-69959053D01*
X106189708Y-69959053D01*
X105983654Y-69994459D01*
X105983653Y-69994459D01*
X105977957Y-69995438D01*
X105770957Y-70071804D01*
X105765996Y-70074756D01*
X105765995Y-70074756D01*
X105759489Y-70078627D01*
X105581341Y-70184614D01*
X105415457Y-70330090D01*
X105278863Y-70503360D01*
X105203909Y-70645823D01*
X105188008Y-70676046D01*
X105138589Y-70727018D01*
X105069456Y-70743181D01*
X105002560Y-70719402D01*
X104959140Y-70663231D01*
X104950500Y-70617378D01*
X104950500Y-70215354D01*
X104947382Y-70189154D01*
X104901939Y-70086847D01*
X104889558Y-70074487D01*
X104830945Y-70015977D01*
X104822713Y-70007759D01*
X104812076Y-70003056D01*
X104812074Y-70003055D01*
X104752538Y-69976735D01*
X104720327Y-69962494D01*
X104694646Y-69959500D01*
X102805354Y-69959500D01*
X102801650Y-69959941D01*
X102801647Y-69959941D01*
X102794254Y-69960821D01*
X102779154Y-69962618D01*
X102770514Y-69966456D01*
X102770513Y-69966456D01*
X102688513Y-70002879D01*
X102676847Y-70008061D01*
X102597759Y-70087287D01*
X102593056Y-70097924D01*
X102593055Y-70097926D01*
X102579467Y-70128661D01*
X102552494Y-70189673D01*
X102549500Y-70215354D01*
X102549500Y-72104646D01*
X94529655Y-72104646D01*
X94533520Y-72100168D01*
X94546430Y-72085212D01*
X94546431Y-72085211D01*
X94550454Y-72080550D01*
X94642526Y-71918474D01*
X94701364Y-71741601D01*
X94715685Y-71628241D01*
X94724285Y-71560170D01*
X94724286Y-71560163D01*
X94724727Y-71556668D01*
X94725099Y-71530000D01*
X94706909Y-71344487D01*
X94705128Y-71338588D01*
X94705127Y-71338583D01*
X94654814Y-71171939D01*
X94653033Y-71166040D01*
X94593963Y-71054946D01*
X94568416Y-71006898D01*
X94568414Y-71006895D01*
X94565522Y-71001456D01*
X94561632Y-70996686D01*
X94561629Y-70996682D01*
X94451605Y-70861780D01*
X94451602Y-70861777D01*
X94447710Y-70857005D01*
X94422423Y-70836085D01*
X94313331Y-70745836D01*
X94304085Y-70738187D01*
X94140116Y-70649529D01*
X94017569Y-70611595D01*
X93967936Y-70596231D01*
X93967933Y-70596230D01*
X93962049Y-70594409D01*
X93955924Y-70593765D01*
X93955923Y-70593765D01*
X93782796Y-70575568D01*
X93782795Y-70575568D01*
X93776668Y-70574924D01*
X93591032Y-70591818D01*
X93585121Y-70593558D01*
X93582131Y-70594128D01*
X93511469Y-70587245D01*
X93455746Y-70543251D01*
X93432653Y-70476115D01*
X93433516Y-70454568D01*
X93450829Y-70317527D01*
X97509727Y-70317527D01*
X97526145Y-70513047D01*
X97580228Y-70701655D01*
X97583046Y-70707138D01*
X97667093Y-70870677D01*
X97667096Y-70870681D01*
X97669914Y-70876165D01*
X97791788Y-71029933D01*
X97796481Y-71033927D01*
X97796482Y-71033928D01*
X97933410Y-71150462D01*
X97941208Y-71157099D01*
X97946586Y-71160105D01*
X97946588Y-71160106D01*
X98005122Y-71192819D01*
X98112483Y-71252821D01*
X98299088Y-71313453D01*
X98493916Y-71336685D01*
X98500051Y-71336213D01*
X98500053Y-71336213D01*
X98683404Y-71322105D01*
X98683408Y-71322104D01*
X98689546Y-71321632D01*
X98878526Y-71268867D01*
X99053659Y-71180401D01*
X99059340Y-71175963D01*
X99203423Y-71063393D01*
X99208273Y-71059604D01*
X99238054Y-71025103D01*
X99332455Y-70915737D01*
X99332455Y-70915736D01*
X99336479Y-70911075D01*
X99433395Y-70740473D01*
X99495328Y-70554296D01*
X99519919Y-70359635D01*
X99520311Y-70331564D01*
X99501164Y-70136292D01*
X99499383Y-70130393D01*
X99499382Y-70130388D01*
X99446235Y-69954357D01*
X99444454Y-69948458D01*
X99352340Y-69775217D01*
X99228331Y-69623166D01*
X99077150Y-69498099D01*
X98904555Y-69404777D01*
X98810838Y-69375767D01*
X98723009Y-69348579D01*
X98723006Y-69348578D01*
X98717122Y-69346757D01*
X98710997Y-69346113D01*
X98710996Y-69346113D01*
X98528117Y-69326891D01*
X98528116Y-69326891D01*
X98521989Y-69326247D01*
X98399353Y-69337408D01*
X98332729Y-69343471D01*
X98332728Y-69343471D01*
X98326588Y-69344030D01*
X98320674Y-69345771D01*
X98320672Y-69345771D01*
X98196018Y-69382459D01*
X98138363Y-69399428D01*
X98132898Y-69402285D01*
X97969942Y-69487476D01*
X97969938Y-69487479D01*
X97964482Y-69490331D01*
X97959682Y-69494191D01*
X97959681Y-69494191D01*
X97925296Y-69521837D01*
X97811570Y-69613275D01*
X97685450Y-69763580D01*
X97682486Y-69768972D01*
X97682483Y-69768976D01*
X97622354Y-69878351D01*
X97590926Y-69935518D01*
X97589065Y-69941385D01*
X97589064Y-69941387D01*
X97582329Y-69962618D01*
X97531598Y-70122542D01*
X97509727Y-70317527D01*
X93450829Y-70317527D01*
X93454285Y-70290170D01*
X93454286Y-70290163D01*
X93454727Y-70286668D01*
X93455099Y-70260000D01*
X93436909Y-70074487D01*
X93435128Y-70068588D01*
X93435127Y-70068583D01*
X93384814Y-69901939D01*
X93383033Y-69896040D01*
X93318790Y-69775217D01*
X93298416Y-69736898D01*
X93298414Y-69736895D01*
X93295522Y-69731456D01*
X93291632Y-69726686D01*
X93291629Y-69726682D01*
X93181605Y-69591780D01*
X93181602Y-69591777D01*
X93177710Y-69587005D01*
X93172056Y-69582327D01*
X93105898Y-69527596D01*
X93034085Y-69468187D01*
X92870116Y-69379529D01*
X92764245Y-69346757D01*
X92697936Y-69326231D01*
X92697933Y-69326230D01*
X92692049Y-69324409D01*
X92685924Y-69323765D01*
X92685923Y-69323765D01*
X92512796Y-69305568D01*
X92512795Y-69305568D01*
X92506668Y-69304924D01*
X92428549Y-69312033D01*
X92327171Y-69321259D01*
X92327168Y-69321260D01*
X92321032Y-69321818D01*
X92315122Y-69323557D01*
X92315119Y-69323558D01*
X92148129Y-69372707D01*
X92142214Y-69374448D01*
X91977023Y-69460807D01*
X91831752Y-69577608D01*
X91711935Y-69720401D01*
X91708971Y-69725793D01*
X91708968Y-69725797D01*
X91678803Y-69780668D01*
X91622135Y-69883746D01*
X91620274Y-69889613D01*
X91620273Y-69889615D01*
X91582700Y-70008061D01*
X91565772Y-70061424D01*
X91544994Y-70246665D01*
X91545510Y-70252810D01*
X91545510Y-70252814D01*
X91546188Y-70260892D01*
X91531955Y-70330447D01*
X91506790Y-70356242D01*
X91507104Y-70356514D01*
X91481671Y-70385865D01*
X91480000Y-70393548D01*
X91480000Y-71261885D01*
X90980000Y-71261885D01*
X90980000Y-70398115D01*
X90975525Y-70382876D01*
X90974135Y-70381671D01*
X90966452Y-70380000D01*
X90536085Y-70380000D01*
X90529271Y-70380369D01*
X90479379Y-70385789D01*
X90464133Y-70389414D01*
X90345823Y-70433767D01*
X90330237Y-70442299D01*
X90229991Y-70517430D01*
X90217430Y-70529991D01*
X90142299Y-70630237D01*
X90133767Y-70645823D01*
X90089414Y-70764133D01*
X90085789Y-70779379D01*
X90080369Y-70829271D01*
X90080000Y-70836085D01*
X90080000Y-71261885D01*
X87488367Y-71261885D01*
X87493991Y-71223098D01*
X87495643Y-71160000D01*
X87475454Y-70940289D01*
X87458733Y-70880998D01*
X87417134Y-70733500D01*
X87415565Y-70727936D01*
X87317980Y-70530053D01*
X87277703Y-70476115D01*
X87189420Y-70357891D01*
X87189420Y-70357890D01*
X87185967Y-70353267D01*
X87040811Y-70219086D01*
X87028189Y-70207418D01*
X87028186Y-70207416D01*
X87023949Y-70203499D01*
X86837350Y-70085764D01*
X86632421Y-70004006D01*
X86626761Y-70002880D01*
X86626757Y-70002879D01*
X86421691Y-69962089D01*
X86421688Y-69962089D01*
X86416024Y-69960962D01*
X86410249Y-69960886D01*
X86410245Y-69960886D01*
X86299504Y-69959437D01*
X86195406Y-69958074D01*
X86189709Y-69959053D01*
X86189708Y-69959053D01*
X85983654Y-69994459D01*
X85983653Y-69994459D01*
X85977957Y-69995438D01*
X85770957Y-70071804D01*
X85765996Y-70074756D01*
X85765995Y-70074756D01*
X85759489Y-70078627D01*
X85581341Y-70184614D01*
X85415457Y-70330090D01*
X85278863Y-70503360D01*
X85203909Y-70645823D01*
X85188008Y-70676046D01*
X85138589Y-70727018D01*
X85069456Y-70743181D01*
X85002560Y-70719402D01*
X84959140Y-70663231D01*
X84950500Y-70617378D01*
X84950500Y-70215354D01*
X84947382Y-70189154D01*
X84901939Y-70086847D01*
X84889558Y-70074487D01*
X84830945Y-70015977D01*
X84822713Y-70007759D01*
X84812076Y-70003056D01*
X84812074Y-70003055D01*
X84752538Y-69976735D01*
X84720327Y-69962494D01*
X84694646Y-69959500D01*
X82805354Y-69959500D01*
X82801650Y-69959941D01*
X82801647Y-69959941D01*
X82794254Y-69960821D01*
X82779154Y-69962618D01*
X82770514Y-69966456D01*
X82770513Y-69966456D01*
X82688513Y-70002879D01*
X82676847Y-70008061D01*
X82597759Y-70087287D01*
X82593056Y-70097924D01*
X82593055Y-70097926D01*
X82579467Y-70128661D01*
X82552494Y-70189673D01*
X82549500Y-70215354D01*
X82549500Y-72104646D01*
X67031747Y-72104646D01*
X67138086Y-72016204D01*
X67142518Y-72012518D01*
X67225602Y-71912621D01*
X67279908Y-71847326D01*
X67279910Y-71847323D01*
X67283602Y-71842884D01*
X67391410Y-71650379D01*
X67393266Y-71644912D01*
X67393268Y-71644907D01*
X67460475Y-71446921D01*
X67460476Y-71446916D01*
X67462331Y-71441452D01*
X67463159Y-71435743D01*
X67463160Y-71435738D01*
X67482449Y-71302704D01*
X67493991Y-71223098D01*
X67495643Y-71160000D01*
X67475454Y-70940289D01*
X67458733Y-70880998D01*
X67417134Y-70733500D01*
X67415565Y-70727936D01*
X67317980Y-70530053D01*
X67277703Y-70476115D01*
X67189420Y-70357891D01*
X67189420Y-70357890D01*
X67185967Y-70353267D01*
X67040811Y-70219086D01*
X67028189Y-70207418D01*
X67028186Y-70207416D01*
X67023949Y-70203499D01*
X66837350Y-70085764D01*
X66632421Y-70004006D01*
X66626761Y-70002880D01*
X66626757Y-70002879D01*
X66421691Y-69962089D01*
X66421688Y-69962089D01*
X66416024Y-69960962D01*
X66410249Y-69960886D01*
X66410245Y-69960886D01*
X66299504Y-69959437D01*
X66195406Y-69958074D01*
X66189709Y-69959053D01*
X66189708Y-69959053D01*
X65983654Y-69994459D01*
X65983653Y-69994459D01*
X65977957Y-69995438D01*
X65770957Y-70071804D01*
X65765996Y-70074756D01*
X65765995Y-70074756D01*
X65759489Y-70078627D01*
X65581341Y-70184614D01*
X65415457Y-70330090D01*
X65278863Y-70503360D01*
X65203909Y-70645823D01*
X65188008Y-70676046D01*
X65138589Y-70727018D01*
X65069456Y-70743181D01*
X65002560Y-70719402D01*
X64959140Y-70663231D01*
X64950500Y-70617378D01*
X64950500Y-70215354D01*
X64947382Y-70189154D01*
X64901939Y-70086847D01*
X64889558Y-70074487D01*
X64830945Y-70015977D01*
X64822713Y-70007759D01*
X64812076Y-70003056D01*
X64812074Y-70003055D01*
X64752538Y-69976735D01*
X64720327Y-69962494D01*
X64694646Y-69959500D01*
X62805354Y-69959500D01*
X62801650Y-69959941D01*
X62801647Y-69959941D01*
X62794254Y-69960821D01*
X62779154Y-69962618D01*
X62770514Y-69966456D01*
X62770513Y-69966456D01*
X62688513Y-70002879D01*
X62676847Y-70008061D01*
X62597759Y-70087287D01*
X62593056Y-70097924D01*
X62593055Y-70097926D01*
X62579467Y-70128661D01*
X62552494Y-70189673D01*
X62549500Y-70215354D01*
X62549500Y-72104646D01*
X50300500Y-72104646D01*
X50300500Y-67675963D01*
X52994757Y-67675963D01*
X53011175Y-67871483D01*
X53065258Y-68060091D01*
X53068076Y-68065574D01*
X53152123Y-68229113D01*
X53152126Y-68229117D01*
X53154944Y-68234601D01*
X53276818Y-68388369D01*
X53426238Y-68515535D01*
X53431616Y-68518541D01*
X53431618Y-68518542D01*
X53467932Y-68538837D01*
X53597513Y-68611257D01*
X53784118Y-68671889D01*
X53978946Y-68695121D01*
X53985081Y-68694649D01*
X53985083Y-68694649D01*
X54168434Y-68680541D01*
X54168438Y-68680540D01*
X54174576Y-68680068D01*
X54363556Y-68627303D01*
X54538689Y-68538837D01*
X54568515Y-68515535D01*
X54688453Y-68421829D01*
X54693303Y-68418040D01*
X54723084Y-68383539D01*
X54817485Y-68274173D01*
X54817485Y-68274172D01*
X54821509Y-68269511D01*
X54918425Y-68098909D01*
X54980358Y-67912732D01*
X55004949Y-67718071D01*
X55005341Y-67690000D01*
X54986194Y-67494728D01*
X54984413Y-67488829D01*
X54984412Y-67488824D01*
X54931265Y-67312793D01*
X54929484Y-67306894D01*
X54837370Y-67133653D01*
X54713361Y-66981602D01*
X54562180Y-66856535D01*
X54389585Y-66763213D01*
X54295868Y-66734203D01*
X54208039Y-66707015D01*
X54208036Y-66707014D01*
X54202152Y-66705193D01*
X54196027Y-66704549D01*
X54196026Y-66704549D01*
X54013147Y-66685327D01*
X54013146Y-66685327D01*
X54007019Y-66684683D01*
X53884383Y-66695844D01*
X53817759Y-66701907D01*
X53817758Y-66701907D01*
X53811618Y-66702466D01*
X53805704Y-66704207D01*
X53805702Y-66704207D01*
X53721080Y-66729113D01*
X53623393Y-66757864D01*
X53617928Y-66760721D01*
X53454972Y-66845912D01*
X53454968Y-66845915D01*
X53449512Y-66848767D01*
X53444712Y-66852627D01*
X53444711Y-66852627D01*
X53410326Y-66880273D01*
X53296600Y-66971711D01*
X53170480Y-67122016D01*
X53167516Y-67127408D01*
X53167513Y-67127412D01*
X53130290Y-67195121D01*
X53075956Y-67293954D01*
X53016628Y-67480978D01*
X52994757Y-67675963D01*
X50300500Y-67675963D01*
X50300500Y-66175963D01*
X130494757Y-66175963D01*
X130511175Y-66371483D01*
X130565258Y-66560091D01*
X130568076Y-66565574D01*
X130652123Y-66729113D01*
X130652126Y-66729117D01*
X130654944Y-66734601D01*
X130776818Y-66888369D01*
X130781511Y-66892363D01*
X130781512Y-66892364D01*
X130880290Y-66976430D01*
X130926238Y-67015535D01*
X130931616Y-67018541D01*
X130931618Y-67018542D01*
X130967932Y-67038837D01*
X131097513Y-67111257D01*
X131284118Y-67171889D01*
X131478946Y-67195121D01*
X131485081Y-67194649D01*
X131485083Y-67194649D01*
X131668434Y-67180541D01*
X131668438Y-67180540D01*
X131674576Y-67180068D01*
X131863556Y-67127303D01*
X132038689Y-67038837D01*
X132068515Y-67015535D01*
X132188453Y-66921829D01*
X132193303Y-66918040D01*
X132223084Y-66883539D01*
X132317485Y-66774173D01*
X132317485Y-66774172D01*
X132321509Y-66769511D01*
X132326503Y-66760721D01*
X132415378Y-66604272D01*
X132418425Y-66598909D01*
X132480358Y-66412732D01*
X132504949Y-66218071D01*
X132505341Y-66190000D01*
X132503965Y-66175963D01*
X137494757Y-66175963D01*
X137511175Y-66371483D01*
X137565258Y-66560091D01*
X137568076Y-66565574D01*
X137652123Y-66729113D01*
X137652126Y-66729117D01*
X137654944Y-66734601D01*
X137776818Y-66888369D01*
X137781511Y-66892363D01*
X137781512Y-66892364D01*
X137880290Y-66976430D01*
X137926238Y-67015535D01*
X137931616Y-67018541D01*
X137931618Y-67018542D01*
X137967932Y-67038837D01*
X138097513Y-67111257D01*
X138284118Y-67171889D01*
X138478946Y-67195121D01*
X138485081Y-67194649D01*
X138485083Y-67194649D01*
X138668434Y-67180541D01*
X138668438Y-67180540D01*
X138674576Y-67180068D01*
X138863556Y-67127303D01*
X139038689Y-67038837D01*
X139068515Y-67015535D01*
X139188453Y-66921829D01*
X139193303Y-66918040D01*
X139223084Y-66883539D01*
X139317485Y-66774173D01*
X139317485Y-66774172D01*
X139321509Y-66769511D01*
X139326503Y-66760721D01*
X139415378Y-66604272D01*
X139418425Y-66598909D01*
X139480358Y-66412732D01*
X139504949Y-66218071D01*
X139505341Y-66190000D01*
X139486194Y-65994728D01*
X139484413Y-65988829D01*
X139484412Y-65988824D01*
X139431265Y-65812793D01*
X139429484Y-65806894D01*
X139337370Y-65633653D01*
X139213361Y-65481602D01*
X139062180Y-65356535D01*
X138889585Y-65263213D01*
X138795869Y-65234203D01*
X138708039Y-65207015D01*
X138708036Y-65207014D01*
X138702152Y-65205193D01*
X138696027Y-65204549D01*
X138696026Y-65204549D01*
X138513147Y-65185327D01*
X138513146Y-65185327D01*
X138507019Y-65184683D01*
X138384383Y-65195844D01*
X138317759Y-65201907D01*
X138317758Y-65201907D01*
X138311618Y-65202466D01*
X138305704Y-65204207D01*
X138305702Y-65204207D01*
X138176734Y-65242165D01*
X138123393Y-65257864D01*
X138117928Y-65260721D01*
X137954972Y-65345912D01*
X137954968Y-65345915D01*
X137949512Y-65348767D01*
X137944712Y-65352627D01*
X137944711Y-65352627D01*
X137910326Y-65380273D01*
X137796600Y-65471711D01*
X137670480Y-65622016D01*
X137667516Y-65627408D01*
X137667513Y-65627412D01*
X137588813Y-65770567D01*
X137575956Y-65793954D01*
X137516628Y-65980978D01*
X137494757Y-66175963D01*
X132503965Y-66175963D01*
X132486194Y-65994728D01*
X132484413Y-65988829D01*
X132484412Y-65988824D01*
X132431265Y-65812793D01*
X132429484Y-65806894D01*
X132337370Y-65633653D01*
X132213361Y-65481602D01*
X132062180Y-65356535D01*
X131889585Y-65263213D01*
X131795869Y-65234203D01*
X131708039Y-65207015D01*
X131708036Y-65207014D01*
X131702152Y-65205193D01*
X131696027Y-65204549D01*
X131696026Y-65204549D01*
X131513147Y-65185327D01*
X131513146Y-65185327D01*
X131507019Y-65184683D01*
X131384383Y-65195844D01*
X131317759Y-65201907D01*
X131317758Y-65201907D01*
X131311618Y-65202466D01*
X131305704Y-65204207D01*
X131305702Y-65204207D01*
X131176734Y-65242165D01*
X131123393Y-65257864D01*
X131117928Y-65260721D01*
X130954972Y-65345912D01*
X130954968Y-65345915D01*
X130949512Y-65348767D01*
X130944712Y-65352627D01*
X130944711Y-65352627D01*
X130910326Y-65380273D01*
X130796600Y-65471711D01*
X130670480Y-65622016D01*
X130667516Y-65627408D01*
X130667513Y-65627412D01*
X130588813Y-65770567D01*
X130575956Y-65793954D01*
X130516628Y-65980978D01*
X130494757Y-66175963D01*
X50300500Y-66175963D01*
X50300500Y-61944646D01*
X52549500Y-61944646D01*
X52552618Y-61970846D01*
X52556456Y-61979486D01*
X52556456Y-61979487D01*
X52592014Y-62059540D01*
X52598061Y-62073153D01*
X52606294Y-62081372D01*
X52606295Y-62081373D01*
X52637835Y-62112858D01*
X52677287Y-62152241D01*
X52687924Y-62156944D01*
X52687926Y-62156945D01*
X52722729Y-62172331D01*
X52779673Y-62197506D01*
X52805354Y-62200500D01*
X54694646Y-62200500D01*
X54698350Y-62200059D01*
X54698353Y-62200059D01*
X54705746Y-62199179D01*
X54720846Y-62197382D01*
X54781423Y-62170475D01*
X54812518Y-62156663D01*
X54823153Y-62151939D01*
X54902241Y-62072713D01*
X54947506Y-61970327D01*
X54950500Y-61944646D01*
X54950500Y-61536362D01*
X54970502Y-61468241D01*
X55024158Y-61421748D01*
X55094432Y-61411644D01*
X55159012Y-61441138D01*
X55190926Y-61483611D01*
X55194046Y-61490379D01*
X55245883Y-61602821D01*
X55373222Y-61783002D01*
X55531264Y-61936961D01*
X55536060Y-61940166D01*
X55536063Y-61940168D01*
X55620261Y-61996427D01*
X55714717Y-62059540D01*
X55720020Y-62061818D01*
X55720023Y-62061820D01*
X55910616Y-62143705D01*
X55917436Y-62146635D01*
X55963000Y-62156945D01*
X56126995Y-62194054D01*
X56127001Y-62194055D01*
X56132632Y-62195329D01*
X56138403Y-62195556D01*
X56138405Y-62195556D01*
X56206211Y-62198220D01*
X56353098Y-62203991D01*
X56462275Y-62188161D01*
X56565738Y-62173160D01*
X56565743Y-62173159D01*
X56571452Y-62172331D01*
X56576916Y-62170476D01*
X56576921Y-62170475D01*
X56774907Y-62103268D01*
X56774912Y-62103266D01*
X56780379Y-62101410D01*
X56830836Y-62073153D01*
X56860875Y-62056330D01*
X56972884Y-61993602D01*
X56989856Y-61979487D01*
X57031747Y-61944646D01*
X62549500Y-61944646D01*
X62552618Y-61970846D01*
X62556456Y-61979486D01*
X62556456Y-61979487D01*
X62592014Y-62059540D01*
X62598061Y-62073153D01*
X62606294Y-62081372D01*
X62606295Y-62081373D01*
X62637835Y-62112858D01*
X62677287Y-62152241D01*
X62687924Y-62156944D01*
X62687926Y-62156945D01*
X62722729Y-62172331D01*
X62779673Y-62197506D01*
X62805354Y-62200500D01*
X64694646Y-62200500D01*
X64698350Y-62200059D01*
X64698353Y-62200059D01*
X64705746Y-62199179D01*
X64720846Y-62197382D01*
X64781423Y-62170475D01*
X64812518Y-62156663D01*
X64823153Y-62151939D01*
X64902241Y-62072713D01*
X64947506Y-61970327D01*
X64950500Y-61944646D01*
X64950500Y-61536362D01*
X64970502Y-61468241D01*
X65024158Y-61421748D01*
X65094432Y-61411644D01*
X65159012Y-61441138D01*
X65190926Y-61483611D01*
X65194046Y-61490379D01*
X65245883Y-61602821D01*
X65373222Y-61783002D01*
X65531264Y-61936961D01*
X65536060Y-61940166D01*
X65536063Y-61940168D01*
X65620261Y-61996427D01*
X65714717Y-62059540D01*
X65720020Y-62061818D01*
X65720023Y-62061820D01*
X65910616Y-62143705D01*
X65917436Y-62146635D01*
X65963000Y-62156945D01*
X66126995Y-62194054D01*
X66127001Y-62194055D01*
X66132632Y-62195329D01*
X66138403Y-62195556D01*
X66138405Y-62195556D01*
X66206211Y-62198220D01*
X66353098Y-62203991D01*
X66462275Y-62188161D01*
X66565738Y-62173160D01*
X66565743Y-62173159D01*
X66571452Y-62172331D01*
X66576916Y-62170476D01*
X66576921Y-62170475D01*
X66774907Y-62103268D01*
X66774912Y-62103266D01*
X66780379Y-62101410D01*
X66830836Y-62073153D01*
X66860875Y-62056330D01*
X66972884Y-61993602D01*
X66989856Y-61979487D01*
X67031747Y-61944646D01*
X72549500Y-61944646D01*
X72552618Y-61970846D01*
X72556456Y-61979486D01*
X72556456Y-61979487D01*
X72592014Y-62059540D01*
X72598061Y-62073153D01*
X72606294Y-62081372D01*
X72606295Y-62081373D01*
X72637835Y-62112858D01*
X72677287Y-62152241D01*
X72687924Y-62156944D01*
X72687926Y-62156945D01*
X72722729Y-62172331D01*
X72779673Y-62197506D01*
X72805354Y-62200500D01*
X74694646Y-62200500D01*
X74698350Y-62200059D01*
X74698353Y-62200059D01*
X74705746Y-62199179D01*
X74720846Y-62197382D01*
X74781423Y-62170475D01*
X74812518Y-62156663D01*
X74823153Y-62151939D01*
X74902241Y-62072713D01*
X74947506Y-61970327D01*
X74950500Y-61944646D01*
X74950500Y-61536362D01*
X74970502Y-61468241D01*
X75024158Y-61421748D01*
X75094432Y-61411644D01*
X75159012Y-61441138D01*
X75190926Y-61483611D01*
X75194046Y-61490379D01*
X75245883Y-61602821D01*
X75373222Y-61783002D01*
X75531264Y-61936961D01*
X75536060Y-61940166D01*
X75536063Y-61940168D01*
X75620261Y-61996427D01*
X75714717Y-62059540D01*
X75720020Y-62061818D01*
X75720023Y-62061820D01*
X75910616Y-62143705D01*
X75917436Y-62146635D01*
X75963000Y-62156945D01*
X76126995Y-62194054D01*
X76127001Y-62194055D01*
X76132632Y-62195329D01*
X76138403Y-62195556D01*
X76138405Y-62195556D01*
X76206211Y-62198220D01*
X76353098Y-62203991D01*
X76462275Y-62188161D01*
X76565738Y-62173160D01*
X76565743Y-62173159D01*
X76571452Y-62172331D01*
X76576916Y-62170476D01*
X76576921Y-62170475D01*
X76774907Y-62103268D01*
X76774912Y-62103266D01*
X76780379Y-62101410D01*
X76830836Y-62073153D01*
X76860875Y-62056330D01*
X76972884Y-61993602D01*
X76989856Y-61979487D01*
X77031747Y-61944646D01*
X82549500Y-61944646D01*
X82552618Y-61970846D01*
X82556456Y-61979486D01*
X82556456Y-61979487D01*
X82592014Y-62059540D01*
X82598061Y-62073153D01*
X82606294Y-62081372D01*
X82606295Y-62081373D01*
X82637835Y-62112858D01*
X82677287Y-62152241D01*
X82687924Y-62156944D01*
X82687926Y-62156945D01*
X82722729Y-62172331D01*
X82779673Y-62197506D01*
X82805354Y-62200500D01*
X84694646Y-62200500D01*
X84698350Y-62200059D01*
X84698353Y-62200059D01*
X84705746Y-62199179D01*
X84720846Y-62197382D01*
X84781423Y-62170475D01*
X84812518Y-62156663D01*
X84823153Y-62151939D01*
X84902241Y-62072713D01*
X84947506Y-61970327D01*
X84950500Y-61944646D01*
X84950500Y-61536362D01*
X84970502Y-61468241D01*
X85024158Y-61421748D01*
X85094432Y-61411644D01*
X85159012Y-61441138D01*
X85190926Y-61483611D01*
X85194046Y-61490379D01*
X85245883Y-61602821D01*
X85373222Y-61783002D01*
X85531264Y-61936961D01*
X85536060Y-61940166D01*
X85536063Y-61940168D01*
X85620261Y-61996427D01*
X85714717Y-62059540D01*
X85720020Y-62061818D01*
X85720023Y-62061820D01*
X85910616Y-62143705D01*
X85917436Y-62146635D01*
X85963000Y-62156945D01*
X86126995Y-62194054D01*
X86127001Y-62194055D01*
X86132632Y-62195329D01*
X86138403Y-62195556D01*
X86138405Y-62195556D01*
X86206211Y-62198220D01*
X86353098Y-62203991D01*
X86462275Y-62188161D01*
X86565738Y-62173160D01*
X86565743Y-62173159D01*
X86571452Y-62172331D01*
X86576916Y-62170476D01*
X86576921Y-62170475D01*
X86774907Y-62103268D01*
X86774912Y-62103266D01*
X86780379Y-62101410D01*
X86830836Y-62073153D01*
X86860875Y-62056330D01*
X86972884Y-61993602D01*
X86989856Y-61979487D01*
X87031747Y-61944646D01*
X92549500Y-61944646D01*
X92552618Y-61970846D01*
X92556456Y-61979486D01*
X92556456Y-61979487D01*
X92592014Y-62059540D01*
X92598061Y-62073153D01*
X92606294Y-62081372D01*
X92606295Y-62081373D01*
X92637835Y-62112858D01*
X92677287Y-62152241D01*
X92687924Y-62156944D01*
X92687926Y-62156945D01*
X92722729Y-62172331D01*
X92779673Y-62197506D01*
X92805354Y-62200500D01*
X94694646Y-62200500D01*
X94698350Y-62200059D01*
X94698353Y-62200059D01*
X94705746Y-62199179D01*
X94720846Y-62197382D01*
X94781423Y-62170475D01*
X94812518Y-62156663D01*
X94823153Y-62151939D01*
X94902241Y-62072713D01*
X94947506Y-61970327D01*
X94950500Y-61944646D01*
X94950500Y-61536362D01*
X94970502Y-61468241D01*
X95024158Y-61421748D01*
X95094432Y-61411644D01*
X95159012Y-61441138D01*
X95190926Y-61483611D01*
X95194046Y-61490379D01*
X95245883Y-61602821D01*
X95373222Y-61783002D01*
X95531264Y-61936961D01*
X95536060Y-61940166D01*
X95536063Y-61940168D01*
X95620261Y-61996427D01*
X95714717Y-62059540D01*
X95720020Y-62061818D01*
X95720023Y-62061820D01*
X95910616Y-62143705D01*
X95917436Y-62146635D01*
X95963000Y-62156945D01*
X96126995Y-62194054D01*
X96127001Y-62194055D01*
X96132632Y-62195329D01*
X96138403Y-62195556D01*
X96138405Y-62195556D01*
X96206211Y-62198220D01*
X96353098Y-62203991D01*
X96462275Y-62188161D01*
X96565738Y-62173160D01*
X96565743Y-62173159D01*
X96571452Y-62172331D01*
X96576916Y-62170476D01*
X96576921Y-62170475D01*
X96774907Y-62103268D01*
X96774912Y-62103266D01*
X96780379Y-62101410D01*
X96830836Y-62073153D01*
X96860875Y-62056330D01*
X96972884Y-61993602D01*
X96989856Y-61979487D01*
X97031747Y-61944646D01*
X102549500Y-61944646D01*
X102552618Y-61970846D01*
X102556456Y-61979486D01*
X102556456Y-61979487D01*
X102592014Y-62059540D01*
X102598061Y-62073153D01*
X102606294Y-62081372D01*
X102606295Y-62081373D01*
X102637835Y-62112858D01*
X102677287Y-62152241D01*
X102687924Y-62156944D01*
X102687926Y-62156945D01*
X102722729Y-62172331D01*
X102779673Y-62197506D01*
X102805354Y-62200500D01*
X104694646Y-62200500D01*
X104698350Y-62200059D01*
X104698353Y-62200059D01*
X104705746Y-62199179D01*
X104720846Y-62197382D01*
X104781423Y-62170475D01*
X104812518Y-62156663D01*
X104823153Y-62151939D01*
X104902241Y-62072713D01*
X104947506Y-61970327D01*
X104950500Y-61944646D01*
X104950500Y-61536362D01*
X104970502Y-61468241D01*
X105024158Y-61421748D01*
X105094432Y-61411644D01*
X105159012Y-61441138D01*
X105190926Y-61483611D01*
X105194046Y-61490379D01*
X105245883Y-61602821D01*
X105373222Y-61783002D01*
X105531264Y-61936961D01*
X105536060Y-61940166D01*
X105536063Y-61940168D01*
X105620261Y-61996427D01*
X105714717Y-62059540D01*
X105720020Y-62061818D01*
X105720023Y-62061820D01*
X105910616Y-62143705D01*
X105917436Y-62146635D01*
X105963000Y-62156945D01*
X106126995Y-62194054D01*
X106127001Y-62194055D01*
X106132632Y-62195329D01*
X106138403Y-62195556D01*
X106138405Y-62195556D01*
X106206211Y-62198220D01*
X106353098Y-62203991D01*
X106462275Y-62188161D01*
X106565738Y-62173160D01*
X106565743Y-62173159D01*
X106571452Y-62172331D01*
X106576916Y-62170476D01*
X106576921Y-62170475D01*
X106774907Y-62103268D01*
X106774912Y-62103266D01*
X106780379Y-62101410D01*
X106830836Y-62073153D01*
X106860875Y-62056330D01*
X106972884Y-61993602D01*
X106989856Y-61979487D01*
X107031747Y-61944646D01*
X112549500Y-61944646D01*
X112552618Y-61970846D01*
X112556456Y-61979486D01*
X112556456Y-61979487D01*
X112592014Y-62059540D01*
X112598061Y-62073153D01*
X112606294Y-62081372D01*
X112606295Y-62081373D01*
X112637835Y-62112858D01*
X112677287Y-62152241D01*
X112687924Y-62156944D01*
X112687926Y-62156945D01*
X112722729Y-62172331D01*
X112779673Y-62197506D01*
X112805354Y-62200500D01*
X114694646Y-62200500D01*
X114698350Y-62200059D01*
X114698353Y-62200059D01*
X114705746Y-62199179D01*
X114720846Y-62197382D01*
X114781423Y-62170475D01*
X114812518Y-62156663D01*
X114823153Y-62151939D01*
X114902241Y-62072713D01*
X114947506Y-61970327D01*
X114950500Y-61944646D01*
X114950500Y-61536362D01*
X114970502Y-61468241D01*
X115024158Y-61421748D01*
X115094432Y-61411644D01*
X115159012Y-61441138D01*
X115190926Y-61483611D01*
X115194046Y-61490379D01*
X115245883Y-61602821D01*
X115373222Y-61783002D01*
X115531264Y-61936961D01*
X115536060Y-61940166D01*
X115536063Y-61940168D01*
X115620261Y-61996427D01*
X115714717Y-62059540D01*
X115720020Y-62061818D01*
X115720023Y-62061820D01*
X115910616Y-62143705D01*
X115917436Y-62146635D01*
X115963000Y-62156945D01*
X116126995Y-62194054D01*
X116127001Y-62194055D01*
X116132632Y-62195329D01*
X116138403Y-62195556D01*
X116138405Y-62195556D01*
X116206211Y-62198220D01*
X116353098Y-62203991D01*
X116462275Y-62188161D01*
X116565738Y-62173160D01*
X116565743Y-62173159D01*
X116571452Y-62172331D01*
X116576916Y-62170476D01*
X116576921Y-62170475D01*
X116774907Y-62103268D01*
X116774912Y-62103266D01*
X116780379Y-62101410D01*
X116830836Y-62073153D01*
X116860875Y-62056330D01*
X116972884Y-61993602D01*
X116989856Y-61979487D01*
X117031747Y-61944646D01*
X122549500Y-61944646D01*
X122552618Y-61970846D01*
X122556456Y-61979486D01*
X122556456Y-61979487D01*
X122592014Y-62059540D01*
X122598061Y-62073153D01*
X122606294Y-62081372D01*
X122606295Y-62081373D01*
X122637835Y-62112858D01*
X122677287Y-62152241D01*
X122687924Y-62156944D01*
X122687926Y-62156945D01*
X122722729Y-62172331D01*
X122779673Y-62197506D01*
X122805354Y-62200500D01*
X124694646Y-62200500D01*
X124698350Y-62200059D01*
X124698353Y-62200059D01*
X124705746Y-62199179D01*
X124720846Y-62197382D01*
X124781423Y-62170475D01*
X124812518Y-62156663D01*
X124823153Y-62151939D01*
X124902241Y-62072713D01*
X124947506Y-61970327D01*
X124950500Y-61944646D01*
X124950500Y-61536362D01*
X124970502Y-61468241D01*
X125024158Y-61421748D01*
X125094432Y-61411644D01*
X125159012Y-61441138D01*
X125190926Y-61483611D01*
X125194046Y-61490379D01*
X125245883Y-61602821D01*
X125373222Y-61783002D01*
X125531264Y-61936961D01*
X125536060Y-61940166D01*
X125536063Y-61940168D01*
X125620261Y-61996427D01*
X125714717Y-62059540D01*
X125720020Y-62061818D01*
X125720023Y-62061820D01*
X125910616Y-62143705D01*
X125917436Y-62146635D01*
X125963000Y-62156945D01*
X126126995Y-62194054D01*
X126127001Y-62194055D01*
X126132632Y-62195329D01*
X126138403Y-62195556D01*
X126138405Y-62195556D01*
X126206211Y-62198220D01*
X126353098Y-62203991D01*
X126462275Y-62188161D01*
X126565738Y-62173160D01*
X126565743Y-62173159D01*
X126571452Y-62172331D01*
X126576916Y-62170476D01*
X126576921Y-62170475D01*
X126774907Y-62103268D01*
X126774912Y-62103266D01*
X126780379Y-62101410D01*
X126830836Y-62073153D01*
X126860875Y-62056330D01*
X126972884Y-61993602D01*
X126989856Y-61979487D01*
X127031747Y-61944646D01*
X132549500Y-61944646D01*
X132552618Y-61970846D01*
X132556456Y-61979486D01*
X132556456Y-61979487D01*
X132592014Y-62059540D01*
X132598061Y-62073153D01*
X132606294Y-62081372D01*
X132606295Y-62081373D01*
X132637835Y-62112858D01*
X132677287Y-62152241D01*
X132687924Y-62156944D01*
X132687926Y-62156945D01*
X132722729Y-62172331D01*
X132779673Y-62197506D01*
X132805354Y-62200500D01*
X134694646Y-62200500D01*
X134698350Y-62200059D01*
X134698353Y-62200059D01*
X134705746Y-62199179D01*
X134720846Y-62197382D01*
X134781423Y-62170475D01*
X134812518Y-62156663D01*
X134823153Y-62151939D01*
X134902241Y-62072713D01*
X134947506Y-61970327D01*
X134950500Y-61944646D01*
X134950500Y-61536362D01*
X134970502Y-61468241D01*
X135024158Y-61421748D01*
X135094432Y-61411644D01*
X135159012Y-61441138D01*
X135190926Y-61483611D01*
X135194046Y-61490379D01*
X135245883Y-61602821D01*
X135373222Y-61783002D01*
X135531264Y-61936961D01*
X135536060Y-61940166D01*
X135536063Y-61940168D01*
X135620261Y-61996427D01*
X135714717Y-62059540D01*
X135720020Y-62061818D01*
X135720023Y-62061820D01*
X135910616Y-62143705D01*
X135917436Y-62146635D01*
X135963000Y-62156945D01*
X136126995Y-62194054D01*
X136127001Y-62194055D01*
X136132632Y-62195329D01*
X136138403Y-62195556D01*
X136138405Y-62195556D01*
X136206211Y-62198220D01*
X136353098Y-62203991D01*
X136462275Y-62188161D01*
X136565738Y-62173160D01*
X136565743Y-62173159D01*
X136571452Y-62172331D01*
X136576916Y-62170476D01*
X136576921Y-62170475D01*
X136774907Y-62103268D01*
X136774912Y-62103266D01*
X136780379Y-62101410D01*
X136830836Y-62073153D01*
X136860875Y-62056330D01*
X136972884Y-61993602D01*
X136989856Y-61979487D01*
X137031747Y-61944646D01*
X142549500Y-61944646D01*
X142552618Y-61970846D01*
X142556456Y-61979486D01*
X142556456Y-61979487D01*
X142592014Y-62059540D01*
X142598061Y-62073153D01*
X142606294Y-62081372D01*
X142606295Y-62081373D01*
X142637835Y-62112858D01*
X142677287Y-62152241D01*
X142687924Y-62156944D01*
X142687926Y-62156945D01*
X142722729Y-62172331D01*
X142779673Y-62197506D01*
X142805354Y-62200500D01*
X144694646Y-62200500D01*
X144698350Y-62200059D01*
X144698353Y-62200059D01*
X144705746Y-62199179D01*
X144720846Y-62197382D01*
X144781423Y-62170475D01*
X144812518Y-62156663D01*
X144823153Y-62151939D01*
X144902241Y-62072713D01*
X144947506Y-61970327D01*
X144950500Y-61944646D01*
X144950500Y-61536362D01*
X144970502Y-61468241D01*
X145024158Y-61421748D01*
X145094432Y-61411644D01*
X145159012Y-61441138D01*
X145190926Y-61483611D01*
X145194046Y-61490379D01*
X145245883Y-61602821D01*
X145373222Y-61783002D01*
X145531264Y-61936961D01*
X145536060Y-61940166D01*
X145536063Y-61940168D01*
X145620261Y-61996427D01*
X145714717Y-62059540D01*
X145720020Y-62061818D01*
X145720023Y-62061820D01*
X145910616Y-62143705D01*
X145917436Y-62146635D01*
X145963000Y-62156945D01*
X146126995Y-62194054D01*
X146127001Y-62194055D01*
X146132632Y-62195329D01*
X146138403Y-62195556D01*
X146138405Y-62195556D01*
X146206211Y-62198220D01*
X146353098Y-62203991D01*
X146462275Y-62188161D01*
X146565738Y-62173160D01*
X146565743Y-62173159D01*
X146571452Y-62172331D01*
X146576916Y-62170476D01*
X146576921Y-62170475D01*
X146774907Y-62103268D01*
X146774912Y-62103266D01*
X146780379Y-62101410D01*
X146830836Y-62073153D01*
X146860875Y-62056330D01*
X146972884Y-61993602D01*
X146989856Y-61979487D01*
X147138086Y-61856204D01*
X147142518Y-61852518D01*
X147283602Y-61682884D01*
X147391410Y-61490379D01*
X147393266Y-61484912D01*
X147393268Y-61484907D01*
X147460475Y-61286921D01*
X147460476Y-61286916D01*
X147462331Y-61281452D01*
X147463159Y-61275743D01*
X147463160Y-61275738D01*
X147493458Y-61066772D01*
X147493991Y-61063098D01*
X147495643Y-61000000D01*
X147475454Y-60780289D01*
X147415565Y-60567936D01*
X147317980Y-60370053D01*
X147185967Y-60193267D01*
X147040811Y-60059086D01*
X147028189Y-60047418D01*
X147028186Y-60047416D01*
X147023949Y-60043499D01*
X146837350Y-59925764D01*
X146632421Y-59844006D01*
X146626761Y-59842880D01*
X146626757Y-59842879D01*
X146421691Y-59802089D01*
X146421688Y-59802089D01*
X146416024Y-59800962D01*
X146410249Y-59800886D01*
X146410245Y-59800886D01*
X146299504Y-59799437D01*
X146195406Y-59798074D01*
X146189709Y-59799053D01*
X146189708Y-59799053D01*
X145983654Y-59834459D01*
X145983653Y-59834459D01*
X145977957Y-59835438D01*
X145770957Y-59911804D01*
X145765996Y-59914756D01*
X145765995Y-59914756D01*
X145759489Y-59918627D01*
X145581341Y-60024614D01*
X145415457Y-60170090D01*
X145278863Y-60343360D01*
X145218875Y-60457378D01*
X145188008Y-60516046D01*
X145138589Y-60567018D01*
X145069456Y-60583181D01*
X145002560Y-60559402D01*
X144959140Y-60503231D01*
X144950500Y-60457378D01*
X144950500Y-60055354D01*
X144947382Y-60029154D01*
X144901939Y-59926847D01*
X144884869Y-59909806D01*
X144830945Y-59855977D01*
X144822713Y-59847759D01*
X144812076Y-59843056D01*
X144812074Y-59843055D01*
X144752538Y-59816735D01*
X144720327Y-59802494D01*
X144694646Y-59799500D01*
X142805354Y-59799500D01*
X142801650Y-59799941D01*
X142801647Y-59799941D01*
X142794254Y-59800821D01*
X142779154Y-59802618D01*
X142770514Y-59806456D01*
X142770513Y-59806456D01*
X142688513Y-59842879D01*
X142676847Y-59848061D01*
X142597759Y-59927287D01*
X142552494Y-60029673D01*
X142549500Y-60055354D01*
X142549500Y-61944646D01*
X137031747Y-61944646D01*
X137138086Y-61856204D01*
X137142518Y-61852518D01*
X137283602Y-61682884D01*
X137391410Y-61490379D01*
X137393266Y-61484912D01*
X137393268Y-61484907D01*
X137460475Y-61286921D01*
X137460476Y-61286916D01*
X137462331Y-61281452D01*
X137463159Y-61275743D01*
X137463160Y-61275738D01*
X137493458Y-61066772D01*
X137493991Y-61063098D01*
X137495643Y-61000000D01*
X137475454Y-60780289D01*
X137415565Y-60567936D01*
X137317980Y-60370053D01*
X137185967Y-60193267D01*
X137040811Y-60059086D01*
X137028189Y-60047418D01*
X137028186Y-60047416D01*
X137023949Y-60043499D01*
X136837350Y-59925764D01*
X136632421Y-59844006D01*
X136626761Y-59842880D01*
X136626757Y-59842879D01*
X136421691Y-59802089D01*
X136421688Y-59802089D01*
X136416024Y-59800962D01*
X136410249Y-59800886D01*
X136410245Y-59800886D01*
X136299504Y-59799437D01*
X136195406Y-59798074D01*
X136189709Y-59799053D01*
X136189708Y-59799053D01*
X135983654Y-59834459D01*
X135983653Y-59834459D01*
X135977957Y-59835438D01*
X135770957Y-59911804D01*
X135765996Y-59914756D01*
X135765995Y-59914756D01*
X135759489Y-59918627D01*
X135581341Y-60024614D01*
X135415457Y-60170090D01*
X135278863Y-60343360D01*
X135218875Y-60457378D01*
X135188008Y-60516046D01*
X135138589Y-60567018D01*
X135069456Y-60583181D01*
X135002560Y-60559402D01*
X134959140Y-60503231D01*
X134950500Y-60457378D01*
X134950500Y-60055354D01*
X134947382Y-60029154D01*
X134901939Y-59926847D01*
X134884869Y-59909806D01*
X134830945Y-59855977D01*
X134822713Y-59847759D01*
X134812076Y-59843056D01*
X134812074Y-59843055D01*
X134752538Y-59816735D01*
X134720327Y-59802494D01*
X134694646Y-59799500D01*
X132805354Y-59799500D01*
X132801650Y-59799941D01*
X132801647Y-59799941D01*
X132794254Y-59800821D01*
X132779154Y-59802618D01*
X132770514Y-59806456D01*
X132770513Y-59806456D01*
X132688513Y-59842879D01*
X132676847Y-59848061D01*
X132597759Y-59927287D01*
X132552494Y-60029673D01*
X132549500Y-60055354D01*
X132549500Y-61944646D01*
X127031747Y-61944646D01*
X127138086Y-61856204D01*
X127142518Y-61852518D01*
X127283602Y-61682884D01*
X127391410Y-61490379D01*
X127393266Y-61484912D01*
X127393268Y-61484907D01*
X127460475Y-61286921D01*
X127460476Y-61286916D01*
X127462331Y-61281452D01*
X127463159Y-61275743D01*
X127463160Y-61275738D01*
X127493458Y-61066772D01*
X127493991Y-61063098D01*
X127495643Y-61000000D01*
X127475454Y-60780289D01*
X127415565Y-60567936D01*
X127317980Y-60370053D01*
X127185967Y-60193267D01*
X127040811Y-60059086D01*
X127028189Y-60047418D01*
X127028186Y-60047416D01*
X127023949Y-60043499D01*
X126837350Y-59925764D01*
X126632421Y-59844006D01*
X126626761Y-59842880D01*
X126626757Y-59842879D01*
X126421691Y-59802089D01*
X126421688Y-59802089D01*
X126416024Y-59800962D01*
X126410249Y-59800886D01*
X126410245Y-59800886D01*
X126299504Y-59799437D01*
X126195406Y-59798074D01*
X126189709Y-59799053D01*
X126189708Y-59799053D01*
X125983654Y-59834459D01*
X125983653Y-59834459D01*
X125977957Y-59835438D01*
X125770957Y-59911804D01*
X125765996Y-59914756D01*
X125765995Y-59914756D01*
X125759489Y-59918627D01*
X125581341Y-60024614D01*
X125415457Y-60170090D01*
X125278863Y-60343360D01*
X125218875Y-60457378D01*
X125188008Y-60516046D01*
X125138589Y-60567018D01*
X125069456Y-60583181D01*
X125002560Y-60559402D01*
X124959140Y-60503231D01*
X124950500Y-60457378D01*
X124950500Y-60055354D01*
X124947382Y-60029154D01*
X124901939Y-59926847D01*
X124884869Y-59909806D01*
X124830945Y-59855977D01*
X124822713Y-59847759D01*
X124812076Y-59843056D01*
X124812074Y-59843055D01*
X124752538Y-59816735D01*
X124720327Y-59802494D01*
X124694646Y-59799500D01*
X122805354Y-59799500D01*
X122801650Y-59799941D01*
X122801647Y-59799941D01*
X122794254Y-59800821D01*
X122779154Y-59802618D01*
X122770514Y-59806456D01*
X122770513Y-59806456D01*
X122688513Y-59842879D01*
X122676847Y-59848061D01*
X122597759Y-59927287D01*
X122552494Y-60029673D01*
X122549500Y-60055354D01*
X122549500Y-61944646D01*
X117031747Y-61944646D01*
X117138086Y-61856204D01*
X117142518Y-61852518D01*
X117283602Y-61682884D01*
X117391410Y-61490379D01*
X117393266Y-61484912D01*
X117393268Y-61484907D01*
X117460475Y-61286921D01*
X117460476Y-61286916D01*
X117462331Y-61281452D01*
X117463159Y-61275743D01*
X117463160Y-61275738D01*
X117493458Y-61066772D01*
X117493991Y-61063098D01*
X117495643Y-61000000D01*
X117475454Y-60780289D01*
X117415565Y-60567936D01*
X117317980Y-60370053D01*
X117185967Y-60193267D01*
X117040811Y-60059086D01*
X117028189Y-60047418D01*
X117028186Y-60047416D01*
X117023949Y-60043499D01*
X116837350Y-59925764D01*
X116632421Y-59844006D01*
X116626761Y-59842880D01*
X116626757Y-59842879D01*
X116421691Y-59802089D01*
X116421688Y-59802089D01*
X116416024Y-59800962D01*
X116410249Y-59800886D01*
X116410245Y-59800886D01*
X116299504Y-59799437D01*
X116195406Y-59798074D01*
X116189709Y-59799053D01*
X116189708Y-59799053D01*
X115983654Y-59834459D01*
X115983653Y-59834459D01*
X115977957Y-59835438D01*
X115770957Y-59911804D01*
X115765996Y-59914756D01*
X115765995Y-59914756D01*
X115759489Y-59918627D01*
X115581341Y-60024614D01*
X115415457Y-60170090D01*
X115278863Y-60343360D01*
X115218875Y-60457378D01*
X115188008Y-60516046D01*
X115138589Y-60567018D01*
X115069456Y-60583181D01*
X115002560Y-60559402D01*
X114959140Y-60503231D01*
X114950500Y-60457378D01*
X114950500Y-60055354D01*
X114947382Y-60029154D01*
X114901939Y-59926847D01*
X114884869Y-59909806D01*
X114830945Y-59855977D01*
X114822713Y-59847759D01*
X114812076Y-59843056D01*
X114812074Y-59843055D01*
X114752538Y-59816735D01*
X114720327Y-59802494D01*
X114694646Y-59799500D01*
X112805354Y-59799500D01*
X112801650Y-59799941D01*
X112801647Y-59799941D01*
X112794254Y-59800821D01*
X112779154Y-59802618D01*
X112770514Y-59806456D01*
X112770513Y-59806456D01*
X112688513Y-59842879D01*
X112676847Y-59848061D01*
X112597759Y-59927287D01*
X112552494Y-60029673D01*
X112549500Y-60055354D01*
X112549500Y-61944646D01*
X107031747Y-61944646D01*
X107138086Y-61856204D01*
X107142518Y-61852518D01*
X107283602Y-61682884D01*
X107391410Y-61490379D01*
X107393266Y-61484912D01*
X107393268Y-61484907D01*
X107460475Y-61286921D01*
X107460476Y-61286916D01*
X107462331Y-61281452D01*
X107463159Y-61275743D01*
X107463160Y-61275738D01*
X107493458Y-61066772D01*
X107493991Y-61063098D01*
X107495643Y-61000000D01*
X107475454Y-60780289D01*
X107415565Y-60567936D01*
X107317980Y-60370053D01*
X107185967Y-60193267D01*
X107040811Y-60059086D01*
X107028189Y-60047418D01*
X107028186Y-60047416D01*
X107023949Y-60043499D01*
X106837350Y-59925764D01*
X106632421Y-59844006D01*
X106626761Y-59842880D01*
X106626757Y-59842879D01*
X106421691Y-59802089D01*
X106421688Y-59802089D01*
X106416024Y-59800962D01*
X106410249Y-59800886D01*
X106410245Y-59800886D01*
X106299504Y-59799437D01*
X106195406Y-59798074D01*
X106189709Y-59799053D01*
X106189708Y-59799053D01*
X105983654Y-59834459D01*
X105983653Y-59834459D01*
X105977957Y-59835438D01*
X105770957Y-59911804D01*
X105765996Y-59914756D01*
X105765995Y-59914756D01*
X105759489Y-59918627D01*
X105581341Y-60024614D01*
X105415457Y-60170090D01*
X105278863Y-60343360D01*
X105218875Y-60457378D01*
X105188008Y-60516046D01*
X105138589Y-60567018D01*
X105069456Y-60583181D01*
X105002560Y-60559402D01*
X104959140Y-60503231D01*
X104950500Y-60457378D01*
X104950500Y-60055354D01*
X104947382Y-60029154D01*
X104901939Y-59926847D01*
X104884869Y-59909806D01*
X104830945Y-59855977D01*
X104822713Y-59847759D01*
X104812076Y-59843056D01*
X104812074Y-59843055D01*
X104752538Y-59816735D01*
X104720327Y-59802494D01*
X104694646Y-59799500D01*
X102805354Y-59799500D01*
X102801650Y-59799941D01*
X102801647Y-59799941D01*
X102794254Y-59800821D01*
X102779154Y-59802618D01*
X102770514Y-59806456D01*
X102770513Y-59806456D01*
X102688513Y-59842879D01*
X102676847Y-59848061D01*
X102597759Y-59927287D01*
X102552494Y-60029673D01*
X102549500Y-60055354D01*
X102549500Y-61944646D01*
X97031747Y-61944646D01*
X97138086Y-61856204D01*
X97142518Y-61852518D01*
X97283602Y-61682884D01*
X97391410Y-61490379D01*
X97393266Y-61484912D01*
X97393268Y-61484907D01*
X97460475Y-61286921D01*
X97460476Y-61286916D01*
X97462331Y-61281452D01*
X97463159Y-61275743D01*
X97463160Y-61275738D01*
X97493458Y-61066772D01*
X97493991Y-61063098D01*
X97495643Y-61000000D01*
X97475454Y-60780289D01*
X97415565Y-60567936D01*
X97317980Y-60370053D01*
X97185967Y-60193267D01*
X97040811Y-60059086D01*
X97028189Y-60047418D01*
X97028186Y-60047416D01*
X97023949Y-60043499D01*
X96837350Y-59925764D01*
X96632421Y-59844006D01*
X96626761Y-59842880D01*
X96626757Y-59842879D01*
X96421691Y-59802089D01*
X96421688Y-59802089D01*
X96416024Y-59800962D01*
X96410249Y-59800886D01*
X96410245Y-59800886D01*
X96299504Y-59799437D01*
X96195406Y-59798074D01*
X96189709Y-59799053D01*
X96189708Y-59799053D01*
X95983654Y-59834459D01*
X95983653Y-59834459D01*
X95977957Y-59835438D01*
X95770957Y-59911804D01*
X95765996Y-59914756D01*
X95765995Y-59914756D01*
X95759489Y-59918627D01*
X95581341Y-60024614D01*
X95415457Y-60170090D01*
X95278863Y-60343360D01*
X95218875Y-60457378D01*
X95188008Y-60516046D01*
X95138589Y-60567018D01*
X95069456Y-60583181D01*
X95002560Y-60559402D01*
X94959140Y-60503231D01*
X94950500Y-60457378D01*
X94950500Y-60055354D01*
X94947382Y-60029154D01*
X94901939Y-59926847D01*
X94884869Y-59909806D01*
X94830945Y-59855977D01*
X94822713Y-59847759D01*
X94812076Y-59843056D01*
X94812074Y-59843055D01*
X94752538Y-59816735D01*
X94720327Y-59802494D01*
X94694646Y-59799500D01*
X92805354Y-59799500D01*
X92801650Y-59799941D01*
X92801647Y-59799941D01*
X92794254Y-59800821D01*
X92779154Y-59802618D01*
X92770514Y-59806456D01*
X92770513Y-59806456D01*
X92688513Y-59842879D01*
X92676847Y-59848061D01*
X92597759Y-59927287D01*
X92552494Y-60029673D01*
X92549500Y-60055354D01*
X92549500Y-61944646D01*
X87031747Y-61944646D01*
X87138086Y-61856204D01*
X87142518Y-61852518D01*
X87283602Y-61682884D01*
X87391410Y-61490379D01*
X87393266Y-61484912D01*
X87393268Y-61484907D01*
X87460475Y-61286921D01*
X87460476Y-61286916D01*
X87462331Y-61281452D01*
X87463159Y-61275743D01*
X87463160Y-61275738D01*
X87493458Y-61066772D01*
X87493991Y-61063098D01*
X87495643Y-61000000D01*
X87475454Y-60780289D01*
X87415565Y-60567936D01*
X87317980Y-60370053D01*
X87185967Y-60193267D01*
X87040811Y-60059086D01*
X87028189Y-60047418D01*
X87028186Y-60047416D01*
X87023949Y-60043499D01*
X86837350Y-59925764D01*
X86632421Y-59844006D01*
X86626761Y-59842880D01*
X86626757Y-59842879D01*
X86421691Y-59802089D01*
X86421688Y-59802089D01*
X86416024Y-59800962D01*
X86410249Y-59800886D01*
X86410245Y-59800886D01*
X86299504Y-59799437D01*
X86195406Y-59798074D01*
X86189709Y-59799053D01*
X86189708Y-59799053D01*
X85983654Y-59834459D01*
X85983653Y-59834459D01*
X85977957Y-59835438D01*
X85770957Y-59911804D01*
X85765996Y-59914756D01*
X85765995Y-59914756D01*
X85759489Y-59918627D01*
X85581341Y-60024614D01*
X85415457Y-60170090D01*
X85278863Y-60343360D01*
X85218875Y-60457378D01*
X85188008Y-60516046D01*
X85138589Y-60567018D01*
X85069456Y-60583181D01*
X85002560Y-60559402D01*
X84959140Y-60503231D01*
X84950500Y-60457378D01*
X84950500Y-60055354D01*
X84947382Y-60029154D01*
X84901939Y-59926847D01*
X84884869Y-59909806D01*
X84830945Y-59855977D01*
X84822713Y-59847759D01*
X84812076Y-59843056D01*
X84812074Y-59843055D01*
X84752538Y-59816735D01*
X84720327Y-59802494D01*
X84694646Y-59799500D01*
X82805354Y-59799500D01*
X82801650Y-59799941D01*
X82801647Y-59799941D01*
X82794254Y-59800821D01*
X82779154Y-59802618D01*
X82770514Y-59806456D01*
X82770513Y-59806456D01*
X82688513Y-59842879D01*
X82676847Y-59848061D01*
X82597759Y-59927287D01*
X82552494Y-60029673D01*
X82549500Y-60055354D01*
X82549500Y-61944646D01*
X77031747Y-61944646D01*
X77138086Y-61856204D01*
X77142518Y-61852518D01*
X77283602Y-61682884D01*
X77391410Y-61490379D01*
X77393266Y-61484912D01*
X77393268Y-61484907D01*
X77460475Y-61286921D01*
X77460476Y-61286916D01*
X77462331Y-61281452D01*
X77463159Y-61275743D01*
X77463160Y-61275738D01*
X77493458Y-61066772D01*
X77493991Y-61063098D01*
X77495643Y-61000000D01*
X77475454Y-60780289D01*
X77415565Y-60567936D01*
X77317980Y-60370053D01*
X77185967Y-60193267D01*
X77040811Y-60059086D01*
X77028189Y-60047418D01*
X77028186Y-60047416D01*
X77023949Y-60043499D01*
X76837350Y-59925764D01*
X76632421Y-59844006D01*
X76626761Y-59842880D01*
X76626757Y-59842879D01*
X76421691Y-59802089D01*
X76421688Y-59802089D01*
X76416024Y-59800962D01*
X76410249Y-59800886D01*
X76410245Y-59800886D01*
X76299504Y-59799437D01*
X76195406Y-59798074D01*
X76189709Y-59799053D01*
X76189708Y-59799053D01*
X75983654Y-59834459D01*
X75983653Y-59834459D01*
X75977957Y-59835438D01*
X75770957Y-59911804D01*
X75765996Y-59914756D01*
X75765995Y-59914756D01*
X75759489Y-59918627D01*
X75581341Y-60024614D01*
X75415457Y-60170090D01*
X75278863Y-60343360D01*
X75218875Y-60457378D01*
X75188008Y-60516046D01*
X75138589Y-60567018D01*
X75069456Y-60583181D01*
X75002560Y-60559402D01*
X74959140Y-60503231D01*
X74950500Y-60457378D01*
X74950500Y-60055354D01*
X74947382Y-60029154D01*
X74901939Y-59926847D01*
X74884869Y-59909806D01*
X74830945Y-59855977D01*
X74822713Y-59847759D01*
X74812076Y-59843056D01*
X74812074Y-59843055D01*
X74752538Y-59816735D01*
X74720327Y-59802494D01*
X74694646Y-59799500D01*
X72805354Y-59799500D01*
X72801650Y-59799941D01*
X72801647Y-59799941D01*
X72794254Y-59800821D01*
X72779154Y-59802618D01*
X72770514Y-59806456D01*
X72770513Y-59806456D01*
X72688513Y-59842879D01*
X72676847Y-59848061D01*
X72597759Y-59927287D01*
X72552494Y-60029673D01*
X72549500Y-60055354D01*
X72549500Y-61944646D01*
X67031747Y-61944646D01*
X67138086Y-61856204D01*
X67142518Y-61852518D01*
X67283602Y-61682884D01*
X67391410Y-61490379D01*
X67393266Y-61484912D01*
X67393268Y-61484907D01*
X67460475Y-61286921D01*
X67460476Y-61286916D01*
X67462331Y-61281452D01*
X67463159Y-61275743D01*
X67463160Y-61275738D01*
X67493458Y-61066772D01*
X67493991Y-61063098D01*
X67495643Y-61000000D01*
X67475454Y-60780289D01*
X67415565Y-60567936D01*
X67317980Y-60370053D01*
X67185967Y-60193267D01*
X67040811Y-60059086D01*
X67028189Y-60047418D01*
X67028186Y-60047416D01*
X67023949Y-60043499D01*
X66837350Y-59925764D01*
X66632421Y-59844006D01*
X66626761Y-59842880D01*
X66626757Y-59842879D01*
X66421691Y-59802089D01*
X66421688Y-59802089D01*
X66416024Y-59800962D01*
X66410249Y-59800886D01*
X66410245Y-59800886D01*
X66299504Y-59799437D01*
X66195406Y-59798074D01*
X66189709Y-59799053D01*
X66189708Y-59799053D01*
X65983654Y-59834459D01*
X65983653Y-59834459D01*
X65977957Y-59835438D01*
X65770957Y-59911804D01*
X65765996Y-59914756D01*
X65765995Y-59914756D01*
X65759489Y-59918627D01*
X65581341Y-60024614D01*
X65415457Y-60170090D01*
X65278863Y-60343360D01*
X65218875Y-60457378D01*
X65188008Y-60516046D01*
X65138589Y-60567018D01*
X65069456Y-60583181D01*
X65002560Y-60559402D01*
X64959140Y-60503231D01*
X64950500Y-60457378D01*
X64950500Y-60055354D01*
X64947382Y-60029154D01*
X64901939Y-59926847D01*
X64884869Y-59909806D01*
X64830945Y-59855977D01*
X64822713Y-59847759D01*
X64812076Y-59843056D01*
X64812074Y-59843055D01*
X64752538Y-59816735D01*
X64720327Y-59802494D01*
X64694646Y-59799500D01*
X62805354Y-59799500D01*
X62801650Y-59799941D01*
X62801647Y-59799941D01*
X62794254Y-59800821D01*
X62779154Y-59802618D01*
X62770514Y-59806456D01*
X62770513Y-59806456D01*
X62688513Y-59842879D01*
X62676847Y-59848061D01*
X62597759Y-59927287D01*
X62552494Y-60029673D01*
X62549500Y-60055354D01*
X62549500Y-61944646D01*
X57031747Y-61944646D01*
X57138086Y-61856204D01*
X57142518Y-61852518D01*
X57283602Y-61682884D01*
X57391410Y-61490379D01*
X57393266Y-61484912D01*
X57393268Y-61484907D01*
X57460475Y-61286921D01*
X57460476Y-61286916D01*
X57462331Y-61281452D01*
X57463159Y-61275743D01*
X57463160Y-61275738D01*
X57493458Y-61066772D01*
X57493991Y-61063098D01*
X57495643Y-61000000D01*
X57475454Y-60780289D01*
X57415565Y-60567936D01*
X57317980Y-60370053D01*
X57185967Y-60193267D01*
X57040811Y-60059086D01*
X57028189Y-60047418D01*
X57028186Y-60047416D01*
X57023949Y-60043499D01*
X56837350Y-59925764D01*
X56632421Y-59844006D01*
X56626761Y-59842880D01*
X56626757Y-59842879D01*
X56421691Y-59802089D01*
X56421688Y-59802089D01*
X56416024Y-59800962D01*
X56410249Y-59800886D01*
X56410245Y-59800886D01*
X56299504Y-59799437D01*
X56195406Y-59798074D01*
X56189709Y-59799053D01*
X56189708Y-59799053D01*
X55983654Y-59834459D01*
X55983653Y-59834459D01*
X55977957Y-59835438D01*
X55770957Y-59911804D01*
X55765996Y-59914756D01*
X55765995Y-59914756D01*
X55759489Y-59918627D01*
X55581341Y-60024614D01*
X55415457Y-60170090D01*
X55278863Y-60343360D01*
X55218875Y-60457378D01*
X55188008Y-60516046D01*
X55138589Y-60567018D01*
X55069456Y-60583181D01*
X55002560Y-60559402D01*
X54959140Y-60503231D01*
X54950500Y-60457378D01*
X54950500Y-60055354D01*
X54947382Y-60029154D01*
X54901939Y-59926847D01*
X54884869Y-59909806D01*
X54830945Y-59855977D01*
X54822713Y-59847759D01*
X54812076Y-59843056D01*
X54812074Y-59843055D01*
X54752538Y-59816735D01*
X54720327Y-59802494D01*
X54694646Y-59799500D01*
X52805354Y-59799500D01*
X52801650Y-59799941D01*
X52801647Y-59799941D01*
X52794254Y-59800821D01*
X52779154Y-59802618D01*
X52770514Y-59806456D01*
X52770513Y-59806456D01*
X52688513Y-59842879D01*
X52676847Y-59848061D01*
X52597759Y-59927287D01*
X52552494Y-60029673D01*
X52549500Y-60055354D01*
X52549500Y-61944646D01*
X50300500Y-61944646D01*
X50300500Y-51043233D01*
X53094906Y-51043233D01*
X53121102Y-51317792D01*
X53122187Y-51322226D01*
X53122188Y-51322232D01*
X53169851Y-51517015D01*
X53186657Y-51585694D01*
X53290199Y-51841326D01*
X53292500Y-51845256D01*
X53292503Y-51845262D01*
X53427255Y-52075403D01*
X53427260Y-52075410D01*
X53429558Y-52079335D01*
X53432405Y-52082895D01*
X53563181Y-52246421D01*
X53601816Y-52294732D01*
X53605157Y-52297853D01*
X53799971Y-52479838D01*
X53803364Y-52483008D01*
X54029979Y-52640216D01*
X54034055Y-52642244D01*
X54034057Y-52642245D01*
X54272827Y-52761032D01*
X54272830Y-52761033D01*
X54276914Y-52763065D01*
X54538998Y-52848980D01*
X54543489Y-52849760D01*
X54543490Y-52849760D01*
X54806957Y-52895506D01*
X54806965Y-52895507D01*
X54810738Y-52896162D01*
X54814575Y-52896353D01*
X54896305Y-52900422D01*
X54896313Y-52900422D01*
X54897876Y-52900500D01*
X55070070Y-52900500D01*
X55072338Y-52900335D01*
X55072350Y-52900335D01*
X55206603Y-52890594D01*
X55275083Y-52885625D01*
X55279538Y-52884641D01*
X55279541Y-52884641D01*
X55539947Y-52827148D01*
X55539950Y-52827147D01*
X55544403Y-52826164D01*
X55802319Y-52728449D01*
X56043428Y-52594525D01*
X56185678Y-52485963D01*
X61494757Y-52485963D01*
X61511175Y-52681483D01*
X61565258Y-52870091D01*
X61568076Y-52875574D01*
X61652123Y-53039113D01*
X61652126Y-53039117D01*
X61654944Y-53044601D01*
X61776818Y-53198369D01*
X61926238Y-53325535D01*
X61931616Y-53328541D01*
X61931618Y-53328542D01*
X61965942Y-53347725D01*
X62097513Y-53421257D01*
X62284118Y-53481889D01*
X62478946Y-53505121D01*
X62485081Y-53504649D01*
X62485083Y-53504649D01*
X62668434Y-53490541D01*
X62668438Y-53490540D01*
X62674576Y-53490068D01*
X62863556Y-53437303D01*
X63038689Y-53348837D01*
X63068515Y-53325535D01*
X63188453Y-53231829D01*
X63193303Y-53228040D01*
X63223084Y-53193539D01*
X63317485Y-53084173D01*
X63317485Y-53084172D01*
X63321509Y-53079511D01*
X63418425Y-52908909D01*
X63466975Y-52762962D01*
X68948601Y-52762962D01*
X68982562Y-52896684D01*
X68986403Y-52907531D01*
X69073898Y-53097324D01*
X69079649Y-53107285D01*
X69200272Y-53277962D01*
X69207740Y-53286705D01*
X69357446Y-53432543D01*
X69366380Y-53439777D01*
X69540152Y-53555889D01*
X69550265Y-53561380D01*
X69742288Y-53643879D01*
X69753221Y-53647431D01*
X69852331Y-53669857D01*
X69866405Y-53668968D01*
X69870000Y-53659569D01*
X69870000Y-53658271D01*
X70370000Y-53658271D01*
X70373966Y-53671777D01*
X70387966Y-53673781D01*
X70395615Y-53672672D01*
X70406807Y-53669985D01*
X70604707Y-53602807D01*
X70615216Y-53598128D01*
X70797552Y-53496015D01*
X70807045Y-53489490D01*
X70967725Y-53355854D01*
X70975854Y-53347725D01*
X71109490Y-53187045D01*
X71116015Y-53177552D01*
X71218128Y-52995216D01*
X71222807Y-52984707D01*
X71289987Y-52786803D01*
X71292825Y-52774982D01*
X71328178Y-52713413D01*
X71391205Y-52680732D01*
X71461896Y-52687313D01*
X71517806Y-52731068D01*
X71536462Y-52769667D01*
X71565258Y-52870091D01*
X71568076Y-52875574D01*
X71652123Y-53039113D01*
X71652126Y-53039117D01*
X71654944Y-53044601D01*
X71776818Y-53198369D01*
X71926238Y-53325535D01*
X71931616Y-53328541D01*
X71931618Y-53328542D01*
X71965942Y-53347725D01*
X72097513Y-53421257D01*
X72284118Y-53481889D01*
X72478946Y-53505121D01*
X72485081Y-53504649D01*
X72485083Y-53504649D01*
X72668434Y-53490541D01*
X72668438Y-53490540D01*
X72674576Y-53490068D01*
X72863556Y-53437303D01*
X73038689Y-53348837D01*
X73068515Y-53325535D01*
X73188453Y-53231829D01*
X73193303Y-53228040D01*
X73223084Y-53193539D01*
X73317485Y-53084173D01*
X73317485Y-53084172D01*
X73321509Y-53079511D01*
X73418425Y-52908909D01*
X73466975Y-52762962D01*
X78948601Y-52762962D01*
X78982562Y-52896684D01*
X78986403Y-52907531D01*
X79073898Y-53097324D01*
X79079649Y-53107285D01*
X79200272Y-53277962D01*
X79207740Y-53286705D01*
X79357446Y-53432543D01*
X79366380Y-53439777D01*
X79540152Y-53555889D01*
X79550265Y-53561380D01*
X79742288Y-53643879D01*
X79753221Y-53647431D01*
X79852331Y-53669857D01*
X79866405Y-53668968D01*
X79870000Y-53659569D01*
X79870000Y-53658271D01*
X80370000Y-53658271D01*
X80373966Y-53671777D01*
X80387966Y-53673781D01*
X80395615Y-53672672D01*
X80406807Y-53669985D01*
X80604707Y-53602807D01*
X80615216Y-53598128D01*
X80797552Y-53496015D01*
X80807045Y-53489490D01*
X80967725Y-53355854D01*
X80975854Y-53347725D01*
X81109490Y-53187045D01*
X81116015Y-53177552D01*
X81218128Y-52995216D01*
X81222807Y-52984707D01*
X81289987Y-52786803D01*
X81292825Y-52774982D01*
X81328178Y-52713413D01*
X81391205Y-52680732D01*
X81461896Y-52687313D01*
X81517806Y-52731068D01*
X81536462Y-52769667D01*
X81565258Y-52870091D01*
X81568076Y-52875574D01*
X81652123Y-53039113D01*
X81652126Y-53039117D01*
X81654944Y-53044601D01*
X81776818Y-53198369D01*
X81926238Y-53325535D01*
X81931616Y-53328541D01*
X81931618Y-53328542D01*
X81965942Y-53347725D01*
X82097513Y-53421257D01*
X82284118Y-53481889D01*
X82478946Y-53505121D01*
X82485081Y-53504649D01*
X82485083Y-53504649D01*
X82668434Y-53490541D01*
X82668438Y-53490540D01*
X82674576Y-53490068D01*
X82863556Y-53437303D01*
X83038689Y-53348837D01*
X83068515Y-53325535D01*
X83188453Y-53231829D01*
X83193303Y-53228040D01*
X83223084Y-53193539D01*
X83317485Y-53084173D01*
X83317485Y-53084172D01*
X83321509Y-53079511D01*
X83418425Y-52908909D01*
X83466975Y-52762962D01*
X88948601Y-52762962D01*
X88982562Y-52896684D01*
X88986403Y-52907531D01*
X89073898Y-53097324D01*
X89079649Y-53107285D01*
X89200272Y-53277962D01*
X89207740Y-53286705D01*
X89357446Y-53432543D01*
X89366380Y-53439777D01*
X89540152Y-53555889D01*
X89550265Y-53561380D01*
X89742288Y-53643879D01*
X89753221Y-53647431D01*
X89852331Y-53669857D01*
X89866405Y-53668968D01*
X89870000Y-53659569D01*
X89870000Y-53658271D01*
X90370000Y-53658271D01*
X90373966Y-53671777D01*
X90387966Y-53673781D01*
X90395615Y-53672672D01*
X90406807Y-53669985D01*
X90604707Y-53602807D01*
X90615216Y-53598128D01*
X90797552Y-53496015D01*
X90807045Y-53489490D01*
X90967725Y-53355854D01*
X90975854Y-53347725D01*
X91109490Y-53187045D01*
X91116015Y-53177552D01*
X91218128Y-52995216D01*
X91222807Y-52984707D01*
X91289987Y-52786803D01*
X91292825Y-52774982D01*
X91328178Y-52713413D01*
X91391205Y-52680732D01*
X91461896Y-52687313D01*
X91517806Y-52731068D01*
X91536462Y-52769667D01*
X91565258Y-52870091D01*
X91568076Y-52875574D01*
X91652123Y-53039113D01*
X91652126Y-53039117D01*
X91654944Y-53044601D01*
X91776818Y-53198369D01*
X91926238Y-53325535D01*
X91931616Y-53328541D01*
X91931618Y-53328542D01*
X91965942Y-53347725D01*
X92097513Y-53421257D01*
X92284118Y-53481889D01*
X92478946Y-53505121D01*
X92485081Y-53504649D01*
X92485083Y-53504649D01*
X92668434Y-53490541D01*
X92668438Y-53490540D01*
X92674576Y-53490068D01*
X92863556Y-53437303D01*
X93038689Y-53348837D01*
X93068515Y-53325535D01*
X93188453Y-53231829D01*
X93193303Y-53228040D01*
X93223084Y-53193539D01*
X93317485Y-53084173D01*
X93317485Y-53084172D01*
X93321509Y-53079511D01*
X93418425Y-52908909D01*
X93466975Y-52762962D01*
X98948601Y-52762962D01*
X98982562Y-52896684D01*
X98986403Y-52907531D01*
X99073898Y-53097324D01*
X99079649Y-53107285D01*
X99200272Y-53277962D01*
X99207740Y-53286705D01*
X99357446Y-53432543D01*
X99366380Y-53439777D01*
X99540152Y-53555889D01*
X99550265Y-53561380D01*
X99742288Y-53643879D01*
X99753221Y-53647431D01*
X99852331Y-53669857D01*
X99866405Y-53668968D01*
X99870000Y-53659569D01*
X99870000Y-53658271D01*
X100370000Y-53658271D01*
X100373966Y-53671777D01*
X100387966Y-53673781D01*
X100395615Y-53672672D01*
X100406807Y-53669985D01*
X100604707Y-53602807D01*
X100615216Y-53598128D01*
X100797552Y-53496015D01*
X100807045Y-53489490D01*
X100967725Y-53355854D01*
X100975854Y-53347725D01*
X101109490Y-53187045D01*
X101116015Y-53177552D01*
X101218128Y-52995216D01*
X101222807Y-52984707D01*
X101289987Y-52786803D01*
X101292825Y-52774982D01*
X101328178Y-52713413D01*
X101391205Y-52680732D01*
X101461896Y-52687313D01*
X101517806Y-52731068D01*
X101536462Y-52769667D01*
X101565258Y-52870091D01*
X101568076Y-52875574D01*
X101652123Y-53039113D01*
X101652126Y-53039117D01*
X101654944Y-53044601D01*
X101776818Y-53198369D01*
X101926238Y-53325535D01*
X101931616Y-53328541D01*
X101931618Y-53328542D01*
X101965942Y-53347725D01*
X102097513Y-53421257D01*
X102284118Y-53481889D01*
X102478946Y-53505121D01*
X102485081Y-53504649D01*
X102485083Y-53504649D01*
X102668434Y-53490541D01*
X102668438Y-53490540D01*
X102674576Y-53490068D01*
X102863556Y-53437303D01*
X103038689Y-53348837D01*
X103068515Y-53325535D01*
X103188453Y-53231829D01*
X103193303Y-53228040D01*
X103223084Y-53193539D01*
X103317485Y-53084173D01*
X103317485Y-53084172D01*
X103321509Y-53079511D01*
X103418425Y-52908909D01*
X103466975Y-52762962D01*
X108948601Y-52762962D01*
X108982562Y-52896684D01*
X108986403Y-52907531D01*
X109073898Y-53097324D01*
X109079649Y-53107285D01*
X109200272Y-53277962D01*
X109207740Y-53286705D01*
X109357446Y-53432543D01*
X109366380Y-53439777D01*
X109540152Y-53555889D01*
X109550265Y-53561380D01*
X109742288Y-53643879D01*
X109753221Y-53647431D01*
X109852331Y-53669857D01*
X109866405Y-53668968D01*
X109870000Y-53659569D01*
X109870000Y-53658271D01*
X110370000Y-53658271D01*
X110373966Y-53671777D01*
X110387966Y-53673781D01*
X110395615Y-53672672D01*
X110406807Y-53669985D01*
X110604707Y-53602807D01*
X110615216Y-53598128D01*
X110797552Y-53496015D01*
X110807045Y-53489490D01*
X110967725Y-53355854D01*
X110975854Y-53347725D01*
X111109490Y-53187045D01*
X111116015Y-53177552D01*
X111218128Y-52995216D01*
X111222807Y-52984707D01*
X111289987Y-52786803D01*
X111292825Y-52774982D01*
X111328178Y-52713413D01*
X111391205Y-52680732D01*
X111461896Y-52687313D01*
X111517806Y-52731068D01*
X111536462Y-52769667D01*
X111565258Y-52870091D01*
X111568076Y-52875574D01*
X111652123Y-53039113D01*
X111652126Y-53039117D01*
X111654944Y-53044601D01*
X111776818Y-53198369D01*
X111926238Y-53325535D01*
X111931616Y-53328541D01*
X111931618Y-53328542D01*
X111965942Y-53347725D01*
X112097513Y-53421257D01*
X112284118Y-53481889D01*
X112478946Y-53505121D01*
X112485081Y-53504649D01*
X112485083Y-53504649D01*
X112668434Y-53490541D01*
X112668438Y-53490540D01*
X112674576Y-53490068D01*
X112863556Y-53437303D01*
X113038689Y-53348837D01*
X113068515Y-53325535D01*
X113188453Y-53231829D01*
X113193303Y-53228040D01*
X113223084Y-53193539D01*
X113317485Y-53084173D01*
X113317485Y-53084172D01*
X113321509Y-53079511D01*
X113418425Y-52908909D01*
X113466975Y-52762962D01*
X118948601Y-52762962D01*
X118982562Y-52896684D01*
X118986403Y-52907531D01*
X119073898Y-53097324D01*
X119079649Y-53107285D01*
X119200272Y-53277962D01*
X119207740Y-53286705D01*
X119357446Y-53432543D01*
X119366380Y-53439777D01*
X119540152Y-53555889D01*
X119550265Y-53561380D01*
X119742288Y-53643879D01*
X119753221Y-53647431D01*
X119852331Y-53669857D01*
X119866405Y-53668968D01*
X119870000Y-53659569D01*
X119870000Y-53658271D01*
X120370000Y-53658271D01*
X120373966Y-53671777D01*
X120387966Y-53673781D01*
X120395615Y-53672672D01*
X120406807Y-53669985D01*
X120604707Y-53602807D01*
X120615216Y-53598128D01*
X120797552Y-53496015D01*
X120807045Y-53489490D01*
X120967725Y-53355854D01*
X120975854Y-53347725D01*
X121109490Y-53187045D01*
X121116015Y-53177552D01*
X121218128Y-52995216D01*
X121222807Y-52984707D01*
X121289987Y-52786803D01*
X121292825Y-52774982D01*
X121328178Y-52713413D01*
X121391205Y-52680732D01*
X121461896Y-52687313D01*
X121517806Y-52731068D01*
X121536462Y-52769667D01*
X121565258Y-52870091D01*
X121568076Y-52875574D01*
X121652123Y-53039113D01*
X121652126Y-53039117D01*
X121654944Y-53044601D01*
X121776818Y-53198369D01*
X121926238Y-53325535D01*
X121931616Y-53328541D01*
X121931618Y-53328542D01*
X121965942Y-53347725D01*
X122097513Y-53421257D01*
X122284118Y-53481889D01*
X122478946Y-53505121D01*
X122485081Y-53504649D01*
X122485083Y-53504649D01*
X122668434Y-53490541D01*
X122668438Y-53490540D01*
X122674576Y-53490068D01*
X122863556Y-53437303D01*
X123038689Y-53348837D01*
X123068515Y-53325535D01*
X123188453Y-53231829D01*
X123193303Y-53228040D01*
X123223084Y-53193539D01*
X123317485Y-53084173D01*
X123317485Y-53084172D01*
X123321509Y-53079511D01*
X123418425Y-52908909D01*
X123466975Y-52762962D01*
X128948601Y-52762962D01*
X128982562Y-52896684D01*
X128986403Y-52907531D01*
X129073898Y-53097324D01*
X129079649Y-53107285D01*
X129200272Y-53277962D01*
X129207740Y-53286705D01*
X129357446Y-53432543D01*
X129366380Y-53439777D01*
X129540152Y-53555889D01*
X129550265Y-53561380D01*
X129742288Y-53643879D01*
X129753221Y-53647431D01*
X129852331Y-53669857D01*
X129866405Y-53668968D01*
X129870000Y-53659569D01*
X129870000Y-53658271D01*
X130370000Y-53658271D01*
X130373966Y-53671777D01*
X130387966Y-53673781D01*
X130395615Y-53672672D01*
X130406807Y-53669985D01*
X130604707Y-53602807D01*
X130615216Y-53598128D01*
X130797552Y-53496015D01*
X130807045Y-53489490D01*
X130967725Y-53355854D01*
X130975854Y-53347725D01*
X131109490Y-53187045D01*
X131116015Y-53177552D01*
X131218128Y-52995216D01*
X131222807Y-52984707D01*
X131289987Y-52786803D01*
X131292825Y-52774982D01*
X131328178Y-52713413D01*
X131391205Y-52680732D01*
X131461896Y-52687313D01*
X131517806Y-52731068D01*
X131536462Y-52769667D01*
X131565258Y-52870091D01*
X131568076Y-52875574D01*
X131652123Y-53039113D01*
X131652126Y-53039117D01*
X131654944Y-53044601D01*
X131776818Y-53198369D01*
X131926238Y-53325535D01*
X131931616Y-53328541D01*
X131931618Y-53328542D01*
X131965942Y-53347725D01*
X132097513Y-53421257D01*
X132284118Y-53481889D01*
X132478946Y-53505121D01*
X132485081Y-53504649D01*
X132485083Y-53504649D01*
X132668434Y-53490541D01*
X132668438Y-53490540D01*
X132674576Y-53490068D01*
X132863556Y-53437303D01*
X133038689Y-53348837D01*
X133068515Y-53325535D01*
X133188453Y-53231829D01*
X133193303Y-53228040D01*
X133223084Y-53193539D01*
X133317485Y-53084173D01*
X133317485Y-53084172D01*
X133321509Y-53079511D01*
X133418425Y-52908909D01*
X133466975Y-52762962D01*
X138948601Y-52762962D01*
X138982562Y-52896684D01*
X138986403Y-52907531D01*
X139073898Y-53097324D01*
X139079649Y-53107285D01*
X139200272Y-53277962D01*
X139207740Y-53286705D01*
X139357446Y-53432543D01*
X139366380Y-53439777D01*
X139540152Y-53555889D01*
X139550265Y-53561380D01*
X139742288Y-53643879D01*
X139753221Y-53647431D01*
X139852331Y-53669857D01*
X139866405Y-53668968D01*
X139870000Y-53659569D01*
X139870000Y-53658271D01*
X140370000Y-53658271D01*
X140373966Y-53671777D01*
X140387966Y-53673781D01*
X140395615Y-53672672D01*
X140406807Y-53669985D01*
X140604707Y-53602807D01*
X140615216Y-53598128D01*
X140797552Y-53496015D01*
X140807045Y-53489490D01*
X140967725Y-53355854D01*
X140975854Y-53347725D01*
X141109490Y-53187045D01*
X141116015Y-53177552D01*
X141218128Y-52995216D01*
X141222807Y-52984707D01*
X141289985Y-52786807D01*
X141292672Y-52775615D01*
X141293786Y-52767931D01*
X141291799Y-52753992D01*
X141278234Y-52750000D01*
X140388115Y-52750000D01*
X140372876Y-52754475D01*
X140371671Y-52755865D01*
X140370000Y-52763548D01*
X140370000Y-53658271D01*
X139870000Y-53658271D01*
X139870000Y-52768115D01*
X139865525Y-52752876D01*
X139864135Y-52751671D01*
X139856452Y-52750000D01*
X138963424Y-52750000D01*
X138949893Y-52753973D01*
X138948601Y-52762962D01*
X133466975Y-52762962D01*
X133480358Y-52722732D01*
X133504949Y-52528071D01*
X133505341Y-52500000D01*
X133486194Y-52304728D01*
X133484413Y-52298829D01*
X133484412Y-52298824D01*
X133466342Y-52238974D01*
X138944443Y-52238974D01*
X138945699Y-52246421D01*
X138958460Y-52250000D01*
X139851885Y-52250000D01*
X139867124Y-52245525D01*
X139868329Y-52244135D01*
X139870000Y-52236452D01*
X139870000Y-52231885D01*
X140370000Y-52231885D01*
X140374475Y-52247124D01*
X140375865Y-52248329D01*
X140383548Y-52250000D01*
X141278278Y-52250000D01*
X141291809Y-52246027D01*
X141292978Y-52237892D01*
X141246664Y-52073675D01*
X141242542Y-52062936D01*
X141150107Y-51875497D01*
X141144097Y-51865689D01*
X141019047Y-51698227D01*
X141011357Y-51689687D01*
X140857883Y-51547816D01*
X140848758Y-51540815D01*
X140672006Y-51429293D01*
X140661759Y-51424072D01*
X140467642Y-51346627D01*
X140456616Y-51343361D01*
X140387770Y-51329667D01*
X140374894Y-51330819D01*
X140370000Y-51345972D01*
X140370000Y-52231885D01*
X139870000Y-52231885D01*
X139870000Y-51343399D01*
X139866194Y-51330437D01*
X139851279Y-51328501D01*
X139813781Y-51334945D01*
X139802664Y-51337923D01*
X139606592Y-51410258D01*
X139596210Y-51415210D01*
X139416604Y-51522064D01*
X139407292Y-51528829D01*
X139250163Y-51666629D01*
X139242246Y-51674972D01*
X139112862Y-51839095D01*
X139106591Y-51848751D01*
X139009287Y-52033696D01*
X139004881Y-52044333D01*
X138944443Y-52238974D01*
X133466342Y-52238974D01*
X133431265Y-52122793D01*
X133429484Y-52116894D01*
X133337370Y-51943653D01*
X133213361Y-51791602D01*
X133062180Y-51666535D01*
X132889585Y-51573213D01*
X132784924Y-51540815D01*
X132708039Y-51517015D01*
X132708036Y-51517014D01*
X132702152Y-51515193D01*
X132696027Y-51514549D01*
X132696026Y-51514549D01*
X132513147Y-51495327D01*
X132513146Y-51495327D01*
X132507019Y-51494683D01*
X132384383Y-51505844D01*
X132317759Y-51511907D01*
X132317758Y-51511907D01*
X132311618Y-51512466D01*
X132305704Y-51514207D01*
X132305702Y-51514207D01*
X132215297Y-51540815D01*
X132123393Y-51567864D01*
X132117928Y-51570721D01*
X131954972Y-51655912D01*
X131954968Y-51655915D01*
X131949512Y-51658767D01*
X131944712Y-51662627D01*
X131944711Y-51662627D01*
X131929357Y-51674972D01*
X131796600Y-51781711D01*
X131670480Y-51932016D01*
X131667516Y-51937408D01*
X131667513Y-51937412D01*
X131631486Y-52002946D01*
X131575956Y-52103954D01*
X131534944Y-52233242D01*
X131533353Y-52238256D01*
X131493690Y-52297140D01*
X131428488Y-52325232D01*
X131358448Y-52313615D01*
X131305808Y-52265975D01*
X131291982Y-52234359D01*
X131246664Y-52073675D01*
X131242542Y-52062936D01*
X131150107Y-51875497D01*
X131144097Y-51865689D01*
X131019047Y-51698227D01*
X131011357Y-51689687D01*
X130857883Y-51547816D01*
X130848758Y-51540815D01*
X130672006Y-51429293D01*
X130661759Y-51424072D01*
X130467642Y-51346627D01*
X130456616Y-51343361D01*
X130387770Y-51329667D01*
X130374894Y-51330819D01*
X130370000Y-51345972D01*
X130370000Y-53658271D01*
X129870000Y-53658271D01*
X129870000Y-52768115D01*
X129865525Y-52752876D01*
X129864135Y-52751671D01*
X129856452Y-52750000D01*
X128963424Y-52750000D01*
X128949893Y-52753973D01*
X128948601Y-52762962D01*
X123466975Y-52762962D01*
X123480358Y-52722732D01*
X123504949Y-52528071D01*
X123505341Y-52500000D01*
X123486194Y-52304728D01*
X123484413Y-52298829D01*
X123484412Y-52298824D01*
X123466342Y-52238974D01*
X128944443Y-52238974D01*
X128945699Y-52246421D01*
X128958460Y-52250000D01*
X129851885Y-52250000D01*
X129867124Y-52245525D01*
X129868329Y-52244135D01*
X129870000Y-52236452D01*
X129870000Y-51343399D01*
X129866194Y-51330437D01*
X129851279Y-51328501D01*
X129813781Y-51334945D01*
X129802664Y-51337923D01*
X129606592Y-51410258D01*
X129596210Y-51415210D01*
X129416604Y-51522064D01*
X129407292Y-51528829D01*
X129250163Y-51666629D01*
X129242246Y-51674972D01*
X129112862Y-51839095D01*
X129106591Y-51848751D01*
X129009287Y-52033696D01*
X129004881Y-52044333D01*
X128944443Y-52238974D01*
X123466342Y-52238974D01*
X123431265Y-52122793D01*
X123429484Y-52116894D01*
X123337370Y-51943653D01*
X123213361Y-51791602D01*
X123062180Y-51666535D01*
X122889585Y-51573213D01*
X122784924Y-51540815D01*
X122708039Y-51517015D01*
X122708036Y-51517014D01*
X122702152Y-51515193D01*
X122696027Y-51514549D01*
X122696026Y-51514549D01*
X122513147Y-51495327D01*
X122513146Y-51495327D01*
X122507019Y-51494683D01*
X122384383Y-51505844D01*
X122317759Y-51511907D01*
X122317758Y-51511907D01*
X122311618Y-51512466D01*
X122305704Y-51514207D01*
X122305702Y-51514207D01*
X122215297Y-51540815D01*
X122123393Y-51567864D01*
X122117928Y-51570721D01*
X121954972Y-51655912D01*
X121954968Y-51655915D01*
X121949512Y-51658767D01*
X121944712Y-51662627D01*
X121944711Y-51662627D01*
X121929357Y-51674972D01*
X121796600Y-51781711D01*
X121670480Y-51932016D01*
X121667516Y-51937408D01*
X121667513Y-51937412D01*
X121631486Y-52002946D01*
X121575956Y-52103954D01*
X121534944Y-52233242D01*
X121533353Y-52238256D01*
X121493690Y-52297140D01*
X121428488Y-52325232D01*
X121358448Y-52313615D01*
X121305808Y-52265975D01*
X121291982Y-52234359D01*
X121246664Y-52073675D01*
X121242542Y-52062936D01*
X121150107Y-51875497D01*
X121144097Y-51865689D01*
X121019047Y-51698227D01*
X121011357Y-51689687D01*
X120857883Y-51547816D01*
X120848758Y-51540815D01*
X120672006Y-51429293D01*
X120661759Y-51424072D01*
X120467642Y-51346627D01*
X120456616Y-51343361D01*
X120387770Y-51329667D01*
X120374894Y-51330819D01*
X120370000Y-51345972D01*
X120370000Y-53658271D01*
X119870000Y-53658271D01*
X119870000Y-52768115D01*
X119865525Y-52752876D01*
X119864135Y-52751671D01*
X119856452Y-52750000D01*
X118963424Y-52750000D01*
X118949893Y-52753973D01*
X118948601Y-52762962D01*
X113466975Y-52762962D01*
X113480358Y-52722732D01*
X113504949Y-52528071D01*
X113505341Y-52500000D01*
X113486194Y-52304728D01*
X113484413Y-52298829D01*
X113484412Y-52298824D01*
X113466342Y-52238974D01*
X118944443Y-52238974D01*
X118945699Y-52246421D01*
X118958460Y-52250000D01*
X119851885Y-52250000D01*
X119867124Y-52245525D01*
X119868329Y-52244135D01*
X119870000Y-52236452D01*
X119870000Y-51343399D01*
X119866194Y-51330437D01*
X119851279Y-51328501D01*
X119813781Y-51334945D01*
X119802664Y-51337923D01*
X119606592Y-51410258D01*
X119596210Y-51415210D01*
X119416604Y-51522064D01*
X119407292Y-51528829D01*
X119250163Y-51666629D01*
X119242246Y-51674972D01*
X119112862Y-51839095D01*
X119106591Y-51848751D01*
X119009287Y-52033696D01*
X119004881Y-52044333D01*
X118944443Y-52238974D01*
X113466342Y-52238974D01*
X113431265Y-52122793D01*
X113429484Y-52116894D01*
X113337370Y-51943653D01*
X113213361Y-51791602D01*
X113062180Y-51666535D01*
X112889585Y-51573213D01*
X112784924Y-51540815D01*
X112708039Y-51517015D01*
X112708036Y-51517014D01*
X112702152Y-51515193D01*
X112696027Y-51514549D01*
X112696026Y-51514549D01*
X112513147Y-51495327D01*
X112513146Y-51495327D01*
X112507019Y-51494683D01*
X112384383Y-51505844D01*
X112317759Y-51511907D01*
X112317758Y-51511907D01*
X112311618Y-51512466D01*
X112305704Y-51514207D01*
X112305702Y-51514207D01*
X112215297Y-51540815D01*
X112123393Y-51567864D01*
X112117928Y-51570721D01*
X111954972Y-51655912D01*
X111954968Y-51655915D01*
X111949512Y-51658767D01*
X111944712Y-51662627D01*
X111944711Y-51662627D01*
X111929357Y-51674972D01*
X111796600Y-51781711D01*
X111670480Y-51932016D01*
X111667516Y-51937408D01*
X111667513Y-51937412D01*
X111631486Y-52002946D01*
X111575956Y-52103954D01*
X111534944Y-52233242D01*
X111533353Y-52238256D01*
X111493690Y-52297140D01*
X111428488Y-52325232D01*
X111358448Y-52313615D01*
X111305808Y-52265975D01*
X111291982Y-52234359D01*
X111246664Y-52073675D01*
X111242542Y-52062936D01*
X111150107Y-51875497D01*
X111144097Y-51865689D01*
X111019047Y-51698227D01*
X111011357Y-51689687D01*
X110857883Y-51547816D01*
X110848758Y-51540815D01*
X110672006Y-51429293D01*
X110661759Y-51424072D01*
X110467642Y-51346627D01*
X110456616Y-51343361D01*
X110387770Y-51329667D01*
X110374894Y-51330819D01*
X110370000Y-51345972D01*
X110370000Y-53658271D01*
X109870000Y-53658271D01*
X109870000Y-52768115D01*
X109865525Y-52752876D01*
X109864135Y-52751671D01*
X109856452Y-52750000D01*
X108963424Y-52750000D01*
X108949893Y-52753973D01*
X108948601Y-52762962D01*
X103466975Y-52762962D01*
X103480358Y-52722732D01*
X103504949Y-52528071D01*
X103505341Y-52500000D01*
X103486194Y-52304728D01*
X103484413Y-52298829D01*
X103484412Y-52298824D01*
X103466342Y-52238974D01*
X108944443Y-52238974D01*
X108945699Y-52246421D01*
X108958460Y-52250000D01*
X109851885Y-52250000D01*
X109867124Y-52245525D01*
X109868329Y-52244135D01*
X109870000Y-52236452D01*
X109870000Y-51343399D01*
X109866194Y-51330437D01*
X109851279Y-51328501D01*
X109813781Y-51334945D01*
X109802664Y-51337923D01*
X109606592Y-51410258D01*
X109596210Y-51415210D01*
X109416604Y-51522064D01*
X109407292Y-51528829D01*
X109250163Y-51666629D01*
X109242246Y-51674972D01*
X109112862Y-51839095D01*
X109106591Y-51848751D01*
X109009287Y-52033696D01*
X109004881Y-52044333D01*
X108944443Y-52238974D01*
X103466342Y-52238974D01*
X103431265Y-52122793D01*
X103429484Y-52116894D01*
X103337370Y-51943653D01*
X103213361Y-51791602D01*
X103062180Y-51666535D01*
X102889585Y-51573213D01*
X102784924Y-51540815D01*
X102708039Y-51517015D01*
X102708036Y-51517014D01*
X102702152Y-51515193D01*
X102696027Y-51514549D01*
X102696026Y-51514549D01*
X102513147Y-51495327D01*
X102513146Y-51495327D01*
X102507019Y-51494683D01*
X102384383Y-51505844D01*
X102317759Y-51511907D01*
X102317758Y-51511907D01*
X102311618Y-51512466D01*
X102305704Y-51514207D01*
X102305702Y-51514207D01*
X102215297Y-51540815D01*
X102123393Y-51567864D01*
X102117928Y-51570721D01*
X101954972Y-51655912D01*
X101954968Y-51655915D01*
X101949512Y-51658767D01*
X101944712Y-51662627D01*
X101944711Y-51662627D01*
X101929357Y-51674972D01*
X101796600Y-51781711D01*
X101670480Y-51932016D01*
X101667516Y-51937408D01*
X101667513Y-51937412D01*
X101631486Y-52002946D01*
X101575956Y-52103954D01*
X101534944Y-52233242D01*
X101533353Y-52238256D01*
X101493690Y-52297140D01*
X101428488Y-52325232D01*
X101358448Y-52313615D01*
X101305808Y-52265975D01*
X101291982Y-52234359D01*
X101246664Y-52073675D01*
X101242542Y-52062936D01*
X101150107Y-51875497D01*
X101144097Y-51865689D01*
X101019047Y-51698227D01*
X101011357Y-51689687D01*
X100857883Y-51547816D01*
X100848758Y-51540815D01*
X100672006Y-51429293D01*
X100661759Y-51424072D01*
X100467642Y-51346627D01*
X100456616Y-51343361D01*
X100387770Y-51329667D01*
X100374894Y-51330819D01*
X100370000Y-51345972D01*
X100370000Y-53658271D01*
X99870000Y-53658271D01*
X99870000Y-52768115D01*
X99865525Y-52752876D01*
X99864135Y-52751671D01*
X99856452Y-52750000D01*
X98963424Y-52750000D01*
X98949893Y-52753973D01*
X98948601Y-52762962D01*
X93466975Y-52762962D01*
X93480358Y-52722732D01*
X93504949Y-52528071D01*
X93505341Y-52500000D01*
X93486194Y-52304728D01*
X93484413Y-52298829D01*
X93484412Y-52298824D01*
X93466342Y-52238974D01*
X98944443Y-52238974D01*
X98945699Y-52246421D01*
X98958460Y-52250000D01*
X99851885Y-52250000D01*
X99867124Y-52245525D01*
X99868329Y-52244135D01*
X99870000Y-52236452D01*
X99870000Y-51343399D01*
X99866194Y-51330437D01*
X99851279Y-51328501D01*
X99813781Y-51334945D01*
X99802664Y-51337923D01*
X99606592Y-51410258D01*
X99596210Y-51415210D01*
X99416604Y-51522064D01*
X99407292Y-51528829D01*
X99250163Y-51666629D01*
X99242246Y-51674972D01*
X99112862Y-51839095D01*
X99106591Y-51848751D01*
X99009287Y-52033696D01*
X99004881Y-52044333D01*
X98944443Y-52238974D01*
X93466342Y-52238974D01*
X93431265Y-52122793D01*
X93429484Y-52116894D01*
X93337370Y-51943653D01*
X93213361Y-51791602D01*
X93062180Y-51666535D01*
X92889585Y-51573213D01*
X92784924Y-51540815D01*
X92708039Y-51517015D01*
X92708036Y-51517014D01*
X92702152Y-51515193D01*
X92696027Y-51514549D01*
X92696026Y-51514549D01*
X92513147Y-51495327D01*
X92513146Y-51495327D01*
X92507019Y-51494683D01*
X92384383Y-51505844D01*
X92317759Y-51511907D01*
X92317758Y-51511907D01*
X92311618Y-51512466D01*
X92305704Y-51514207D01*
X92305702Y-51514207D01*
X92215297Y-51540815D01*
X92123393Y-51567864D01*
X92117928Y-51570721D01*
X91954972Y-51655912D01*
X91954968Y-51655915D01*
X91949512Y-51658767D01*
X91944712Y-51662627D01*
X91944711Y-51662627D01*
X91929357Y-51674972D01*
X91796600Y-51781711D01*
X91670480Y-51932016D01*
X91667516Y-51937408D01*
X91667513Y-51937412D01*
X91631486Y-52002946D01*
X91575956Y-52103954D01*
X91534944Y-52233242D01*
X91533353Y-52238256D01*
X91493690Y-52297140D01*
X91428488Y-52325232D01*
X91358448Y-52313615D01*
X91305808Y-52265975D01*
X91291982Y-52234359D01*
X91246664Y-52073675D01*
X91242542Y-52062936D01*
X91150107Y-51875497D01*
X91144097Y-51865689D01*
X91019047Y-51698227D01*
X91011357Y-51689687D01*
X90857883Y-51547816D01*
X90848758Y-51540815D01*
X90672006Y-51429293D01*
X90661759Y-51424072D01*
X90467642Y-51346627D01*
X90456616Y-51343361D01*
X90387770Y-51329667D01*
X90374894Y-51330819D01*
X90370000Y-51345972D01*
X90370000Y-53658271D01*
X89870000Y-53658271D01*
X89870000Y-52768115D01*
X89865525Y-52752876D01*
X89864135Y-52751671D01*
X89856452Y-52750000D01*
X88963424Y-52750000D01*
X88949893Y-52753973D01*
X88948601Y-52762962D01*
X83466975Y-52762962D01*
X83480358Y-52722732D01*
X83504949Y-52528071D01*
X83505341Y-52500000D01*
X83486194Y-52304728D01*
X83484413Y-52298829D01*
X83484412Y-52298824D01*
X83466342Y-52238974D01*
X88944443Y-52238974D01*
X88945699Y-52246421D01*
X88958460Y-52250000D01*
X89851885Y-52250000D01*
X89867124Y-52245525D01*
X89868329Y-52244135D01*
X89870000Y-52236452D01*
X89870000Y-51343399D01*
X89866194Y-51330437D01*
X89851279Y-51328501D01*
X89813781Y-51334945D01*
X89802664Y-51337923D01*
X89606592Y-51410258D01*
X89596210Y-51415210D01*
X89416604Y-51522064D01*
X89407292Y-51528829D01*
X89250163Y-51666629D01*
X89242246Y-51674972D01*
X89112862Y-51839095D01*
X89106591Y-51848751D01*
X89009287Y-52033696D01*
X89004881Y-52044333D01*
X88944443Y-52238974D01*
X83466342Y-52238974D01*
X83431265Y-52122793D01*
X83429484Y-52116894D01*
X83337370Y-51943653D01*
X83213361Y-51791602D01*
X83062180Y-51666535D01*
X82889585Y-51573213D01*
X82784924Y-51540815D01*
X82708039Y-51517015D01*
X82708036Y-51517014D01*
X82702152Y-51515193D01*
X82696027Y-51514549D01*
X82696026Y-51514549D01*
X82513147Y-51495327D01*
X82513146Y-51495327D01*
X82507019Y-51494683D01*
X82384383Y-51505844D01*
X82317759Y-51511907D01*
X82317758Y-51511907D01*
X82311618Y-51512466D01*
X82305704Y-51514207D01*
X82305702Y-51514207D01*
X82215297Y-51540815D01*
X82123393Y-51567864D01*
X82117928Y-51570721D01*
X81954972Y-51655912D01*
X81954968Y-51655915D01*
X81949512Y-51658767D01*
X81944712Y-51662627D01*
X81944711Y-51662627D01*
X81929357Y-51674972D01*
X81796600Y-51781711D01*
X81670480Y-51932016D01*
X81667516Y-51937408D01*
X81667513Y-51937412D01*
X81631486Y-52002946D01*
X81575956Y-52103954D01*
X81534944Y-52233242D01*
X81533353Y-52238256D01*
X81493690Y-52297140D01*
X81428488Y-52325232D01*
X81358448Y-52313615D01*
X81305808Y-52265975D01*
X81291982Y-52234359D01*
X81246664Y-52073675D01*
X81242542Y-52062936D01*
X81150107Y-51875497D01*
X81144097Y-51865689D01*
X81019047Y-51698227D01*
X81011357Y-51689687D01*
X80857883Y-51547816D01*
X80848758Y-51540815D01*
X80672006Y-51429293D01*
X80661759Y-51424072D01*
X80467642Y-51346627D01*
X80456616Y-51343361D01*
X80387770Y-51329667D01*
X80374894Y-51330819D01*
X80370000Y-51345972D01*
X80370000Y-53658271D01*
X79870000Y-53658271D01*
X79870000Y-52768115D01*
X79865525Y-52752876D01*
X79864135Y-52751671D01*
X79856452Y-52750000D01*
X78963424Y-52750000D01*
X78949893Y-52753973D01*
X78948601Y-52762962D01*
X73466975Y-52762962D01*
X73480358Y-52722732D01*
X73504949Y-52528071D01*
X73505341Y-52500000D01*
X73486194Y-52304728D01*
X73484413Y-52298829D01*
X73484412Y-52298824D01*
X73466342Y-52238974D01*
X78944443Y-52238974D01*
X78945699Y-52246421D01*
X78958460Y-52250000D01*
X79851885Y-52250000D01*
X79867124Y-52245525D01*
X79868329Y-52244135D01*
X79870000Y-52236452D01*
X79870000Y-51343399D01*
X79866194Y-51330437D01*
X79851279Y-51328501D01*
X79813781Y-51334945D01*
X79802664Y-51337923D01*
X79606592Y-51410258D01*
X79596210Y-51415210D01*
X79416604Y-51522064D01*
X79407292Y-51528829D01*
X79250163Y-51666629D01*
X79242246Y-51674972D01*
X79112862Y-51839095D01*
X79106591Y-51848751D01*
X79009287Y-52033696D01*
X79004881Y-52044333D01*
X78944443Y-52238974D01*
X73466342Y-52238974D01*
X73431265Y-52122793D01*
X73429484Y-52116894D01*
X73337370Y-51943653D01*
X73213361Y-51791602D01*
X73062180Y-51666535D01*
X72889585Y-51573213D01*
X72784924Y-51540815D01*
X72708039Y-51517015D01*
X72708036Y-51517014D01*
X72702152Y-51515193D01*
X72696027Y-51514549D01*
X72696026Y-51514549D01*
X72513147Y-51495327D01*
X72513146Y-51495327D01*
X72507019Y-51494683D01*
X72384383Y-51505844D01*
X72317759Y-51511907D01*
X72317758Y-51511907D01*
X72311618Y-51512466D01*
X72305704Y-51514207D01*
X72305702Y-51514207D01*
X72215297Y-51540815D01*
X72123393Y-51567864D01*
X72117928Y-51570721D01*
X71954972Y-51655912D01*
X71954968Y-51655915D01*
X71949512Y-51658767D01*
X71944712Y-51662627D01*
X71944711Y-51662627D01*
X71929357Y-51674972D01*
X71796600Y-51781711D01*
X71670480Y-51932016D01*
X71667516Y-51937408D01*
X71667513Y-51937412D01*
X71631486Y-52002946D01*
X71575956Y-52103954D01*
X71534944Y-52233242D01*
X71533353Y-52238256D01*
X71493690Y-52297140D01*
X71428488Y-52325232D01*
X71358448Y-52313615D01*
X71305808Y-52265975D01*
X71291982Y-52234359D01*
X71246664Y-52073675D01*
X71242542Y-52062936D01*
X71150107Y-51875497D01*
X71144097Y-51865689D01*
X71019047Y-51698227D01*
X71011357Y-51689687D01*
X70857883Y-51547816D01*
X70848758Y-51540815D01*
X70672006Y-51429293D01*
X70661759Y-51424072D01*
X70467642Y-51346627D01*
X70456616Y-51343361D01*
X70387770Y-51329667D01*
X70374894Y-51330819D01*
X70370000Y-51345972D01*
X70370000Y-53658271D01*
X69870000Y-53658271D01*
X69870000Y-52768115D01*
X69865525Y-52752876D01*
X69864135Y-52751671D01*
X69856452Y-52750000D01*
X68963424Y-52750000D01*
X68949893Y-52753973D01*
X68948601Y-52762962D01*
X63466975Y-52762962D01*
X63480358Y-52722732D01*
X63504949Y-52528071D01*
X63505341Y-52500000D01*
X63486194Y-52304728D01*
X63484413Y-52298829D01*
X63484412Y-52298824D01*
X63466342Y-52238974D01*
X68944443Y-52238974D01*
X68945699Y-52246421D01*
X68958460Y-52250000D01*
X69851885Y-52250000D01*
X69867124Y-52245525D01*
X69868329Y-52244135D01*
X69870000Y-52236452D01*
X69870000Y-51343399D01*
X69866194Y-51330437D01*
X69851279Y-51328501D01*
X69813781Y-51334945D01*
X69802664Y-51337923D01*
X69606592Y-51410258D01*
X69596210Y-51415210D01*
X69416604Y-51522064D01*
X69407292Y-51528829D01*
X69250163Y-51666629D01*
X69242246Y-51674972D01*
X69112862Y-51839095D01*
X69106591Y-51848751D01*
X69009287Y-52033696D01*
X69004881Y-52044333D01*
X68944443Y-52238974D01*
X63466342Y-52238974D01*
X63431265Y-52122793D01*
X63429484Y-52116894D01*
X63337370Y-51943653D01*
X63213361Y-51791602D01*
X63062180Y-51666535D01*
X62889585Y-51573213D01*
X62784924Y-51540815D01*
X62708039Y-51517015D01*
X62708036Y-51517014D01*
X62702152Y-51515193D01*
X62696027Y-51514549D01*
X62696026Y-51514549D01*
X62513147Y-51495327D01*
X62513146Y-51495327D01*
X62507019Y-51494683D01*
X62384383Y-51505844D01*
X62317759Y-51511907D01*
X62317758Y-51511907D01*
X62311618Y-51512466D01*
X62305704Y-51514207D01*
X62305702Y-51514207D01*
X62215297Y-51540815D01*
X62123393Y-51567864D01*
X62117928Y-51570721D01*
X61954972Y-51655912D01*
X61954968Y-51655915D01*
X61949512Y-51658767D01*
X61944712Y-51662627D01*
X61944711Y-51662627D01*
X61929357Y-51674972D01*
X61796600Y-51781711D01*
X61670480Y-51932016D01*
X61667516Y-51937408D01*
X61667513Y-51937412D01*
X61631486Y-52002946D01*
X61575956Y-52103954D01*
X61516628Y-52290978D01*
X61494757Y-52485963D01*
X56185678Y-52485963D01*
X56262678Y-52427198D01*
X56265873Y-52423930D01*
X56452283Y-52233242D01*
X56452287Y-52233237D01*
X56455477Y-52229974D01*
X56542933Y-52109823D01*
X56615100Y-52010676D01*
X56615102Y-52010673D01*
X56617787Y-52006984D01*
X56746206Y-51762899D01*
X56838045Y-51502832D01*
X56869477Y-51343361D01*
X56890499Y-51236704D01*
X56890500Y-51236698D01*
X56891380Y-51232232D01*
X56891607Y-51227676D01*
X56900790Y-51043233D01*
X143094906Y-51043233D01*
X143121102Y-51317792D01*
X143122187Y-51322226D01*
X143122188Y-51322232D01*
X143169851Y-51517015D01*
X143186657Y-51585694D01*
X143290199Y-51841326D01*
X143292500Y-51845256D01*
X143292503Y-51845262D01*
X143427255Y-52075403D01*
X143427260Y-52075410D01*
X143429558Y-52079335D01*
X143432405Y-52082895D01*
X143563181Y-52246421D01*
X143601816Y-52294732D01*
X143605157Y-52297853D01*
X143799971Y-52479838D01*
X143803364Y-52483008D01*
X144029979Y-52640216D01*
X144034055Y-52642244D01*
X144034057Y-52642245D01*
X144272827Y-52761032D01*
X144272830Y-52761033D01*
X144276914Y-52763065D01*
X144538998Y-52848980D01*
X144543489Y-52849760D01*
X144543490Y-52849760D01*
X144806957Y-52895506D01*
X144806965Y-52895507D01*
X144810738Y-52896162D01*
X144814575Y-52896353D01*
X144896305Y-52900422D01*
X144896313Y-52900422D01*
X144897876Y-52900500D01*
X145070070Y-52900500D01*
X145072338Y-52900335D01*
X145072350Y-52900335D01*
X145206603Y-52890594D01*
X145275083Y-52885625D01*
X145279538Y-52884641D01*
X145279541Y-52884641D01*
X145539947Y-52827148D01*
X145539950Y-52827147D01*
X145544403Y-52826164D01*
X145802319Y-52728449D01*
X146043428Y-52594525D01*
X146262678Y-52427198D01*
X146265873Y-52423930D01*
X146452283Y-52233242D01*
X146452287Y-52233237D01*
X146455477Y-52229974D01*
X146542933Y-52109823D01*
X146615100Y-52010676D01*
X146615102Y-52010673D01*
X146617787Y-52006984D01*
X146746206Y-51762899D01*
X146838045Y-51502832D01*
X146869477Y-51343361D01*
X146890499Y-51236704D01*
X146890500Y-51236698D01*
X146891380Y-51232232D01*
X146891607Y-51227676D01*
X146904867Y-50961336D01*
X146904867Y-50961330D01*
X146905094Y-50956767D01*
X146878898Y-50682208D01*
X146849463Y-50561914D01*
X146814429Y-50418744D01*
X146813343Y-50414306D01*
X146709801Y-50158674D01*
X146707500Y-50154744D01*
X146707497Y-50154738D01*
X146572745Y-49924597D01*
X146572740Y-49924590D01*
X146570442Y-49920665D01*
X146452927Y-49773720D01*
X146401036Y-49708834D01*
X146401035Y-49708833D01*
X146398184Y-49705268D01*
X146196636Y-49516992D01*
X145970021Y-49359784D01*
X145965943Y-49357755D01*
X145727173Y-49238968D01*
X145727170Y-49238967D01*
X145723086Y-49236935D01*
X145461002Y-49151020D01*
X145456510Y-49150240D01*
X145193043Y-49104494D01*
X145193035Y-49104493D01*
X145189262Y-49103838D01*
X145179029Y-49103329D01*
X145103695Y-49099578D01*
X145103687Y-49099578D01*
X145102124Y-49099500D01*
X144929930Y-49099500D01*
X144927662Y-49099665D01*
X144927650Y-49099665D01*
X144793397Y-49109406D01*
X144724917Y-49114375D01*
X144720462Y-49115359D01*
X144720459Y-49115359D01*
X144460053Y-49172852D01*
X144460050Y-49172853D01*
X144455597Y-49173836D01*
X144197681Y-49271551D01*
X144193694Y-49273765D01*
X144193693Y-49273766D01*
X143970161Y-49397927D01*
X143956572Y-49405475D01*
X143737322Y-49572802D01*
X143734129Y-49576068D01*
X143734127Y-49576070D01*
X143547717Y-49766758D01*
X143547713Y-49766763D01*
X143544523Y-49770026D01*
X143541836Y-49773718D01*
X143541834Y-49773720D01*
X143530677Y-49789049D01*
X143382213Y-49993016D01*
X143253794Y-50237101D01*
X143161955Y-50497168D01*
X143161075Y-50501634D01*
X143124587Y-50686760D01*
X143108620Y-50767768D01*
X143108393Y-50772322D01*
X143108393Y-50772324D01*
X143095201Y-51037317D01*
X143094906Y-51043233D01*
X56900790Y-51043233D01*
X56904867Y-50961336D01*
X56904867Y-50961330D01*
X56905094Y-50956767D01*
X56878898Y-50682208D01*
X56849463Y-50561914D01*
X56814429Y-50418744D01*
X56813343Y-50414306D01*
X56709801Y-50158674D01*
X56707500Y-50154744D01*
X56707497Y-50154738D01*
X56572745Y-49924597D01*
X56572740Y-49924590D01*
X56570442Y-49920665D01*
X56452927Y-49773720D01*
X56401036Y-49708834D01*
X56401035Y-49708833D01*
X56398184Y-49705268D01*
X56196636Y-49516992D01*
X55970021Y-49359784D01*
X55965943Y-49357755D01*
X55727173Y-49238968D01*
X55727170Y-49238967D01*
X55723086Y-49236935D01*
X55461002Y-49151020D01*
X55456510Y-49150240D01*
X55193043Y-49104494D01*
X55193035Y-49104493D01*
X55189262Y-49103838D01*
X55179029Y-49103329D01*
X55103695Y-49099578D01*
X55103687Y-49099578D01*
X55102124Y-49099500D01*
X54929930Y-49099500D01*
X54927662Y-49099665D01*
X54927650Y-49099665D01*
X54793397Y-49109406D01*
X54724917Y-49114375D01*
X54720462Y-49115359D01*
X54720459Y-49115359D01*
X54460053Y-49172852D01*
X54460050Y-49172853D01*
X54455597Y-49173836D01*
X54197681Y-49271551D01*
X54193694Y-49273765D01*
X54193693Y-49273766D01*
X53970161Y-49397927D01*
X53956572Y-49405475D01*
X53737322Y-49572802D01*
X53734129Y-49576068D01*
X53734127Y-49576070D01*
X53547717Y-49766758D01*
X53547713Y-49766763D01*
X53544523Y-49770026D01*
X53541836Y-49773718D01*
X53541834Y-49773720D01*
X53530677Y-49789049D01*
X53382213Y-49993016D01*
X53253794Y-50237101D01*
X53161955Y-50497168D01*
X53161075Y-50501634D01*
X53124587Y-50686760D01*
X53108620Y-50767768D01*
X53108393Y-50772322D01*
X53108393Y-50772324D01*
X53095201Y-51037317D01*
X53094906Y-51043233D01*
X50300500Y-51043233D01*
X50300500Y-51037317D01*
X50302414Y-51015437D01*
X50303222Y-51010855D01*
X50305136Y-51000000D01*
X50303222Y-50989145D01*
X50303222Y-50983450D01*
X50302022Y-50965138D01*
X50318143Y-50595908D01*
X50319101Y-50584958D01*
X50371178Y-50189394D01*
X50373087Y-50178568D01*
X50459442Y-49789049D01*
X50462287Y-49778432D01*
X50526091Y-49576070D01*
X50582262Y-49397919D01*
X50586018Y-49387598D01*
X50597539Y-49359784D01*
X50738708Y-49018972D01*
X50743350Y-49009019D01*
X50927572Y-48655133D01*
X50933068Y-48645613D01*
X51147436Y-48309123D01*
X51153740Y-48300119D01*
X51396629Y-47983579D01*
X51403695Y-47975159D01*
X51673235Y-47681008D01*
X51681008Y-47673235D01*
X51975159Y-47403695D01*
X51983579Y-47396629D01*
X52300119Y-47153740D01*
X52309123Y-47147436D01*
X52645613Y-46933068D01*
X52655133Y-46927572D01*
X53009028Y-46743346D01*
X53018972Y-46738708D01*
X53387605Y-46586015D01*
X53397919Y-46582262D01*
X53603309Y-46517503D01*
X53778432Y-46462287D01*
X53789049Y-46459442D01*
X54178568Y-46373087D01*
X54189394Y-46371178D01*
X54584958Y-46319101D01*
X54595907Y-46318143D01*
X54965138Y-46302022D01*
X54983450Y-46303222D01*
X54989145Y-46303222D01*
X55000000Y-46305136D01*
X55015437Y-46302414D01*
X55037317Y-46300500D01*
X144962683Y-46300500D01*
X144984563Y-46302414D01*
G37*
%TD.AperFunction*%
%TD*%
M02*
