%TF.GenerationSoftware,KiCad,Pcbnew,(6.0.9)*%
%TF.CreationDate,2023-01-08T16:31:36+01:00*%
%TF.ProjectId,led-counter,6c65642d-636f-4756-9e74-65722e6b6963,0.1*%
%TF.SameCoordinates,Original*%
%TF.FileFunction,Drillmap*%
%TF.FilePolarity,Positive*%
%FSLAX45Y45*%
G04 Gerber Fmt 4.5, Leading zero omitted, Abs format (unit mm)*
G04 Created by KiCad (PCBNEW (6.0.9)) date 2023-01-08 16:31:36*
%MOMM*%
%LPD*%
G01*
G04 APERTURE LIST*
%ADD10C,0.100000*%
%ADD11C,0.200000*%
%ADD12C,0.320000*%
G04 APERTURE END LIST*
D10*
X15000000Y-5100000D02*
G75*
G03*
X14500000Y-4600000I-500000J0D01*
G01*
X14500000Y-8600000D02*
G75*
G03*
X15000000Y-8100000I0J500000D01*
G01*
X5000000Y-8100000D02*
G75*
G03*
X5500000Y-8600000I500000J0D01*
G01*
X5500000Y-4600000D02*
G75*
G03*
X5000000Y-5100000I0J-500000D01*
G01*
X5000000Y-5100000D02*
X5000000Y-8100000D01*
X14500000Y-8600000D02*
X5500000Y-8600000D01*
X5500000Y-4600000D02*
X14500000Y-4600000D01*
X15000000Y-5100000D02*
X15000000Y-8100000D01*
D11*
D12*
X5340000Y-4940000D02*
X5660000Y-5260000D01*
X5660000Y-4940000D02*
X5340000Y-5260000D01*
X5340000Y-7940000D02*
X5660000Y-8260000D01*
X5660000Y-7940000D02*
X5340000Y-8260000D01*
X14340000Y-4940000D02*
X14660000Y-5260000D01*
X14660000Y-4940000D02*
X14340000Y-5260000D01*
X14340000Y-7940000D02*
X14660000Y-8260000D01*
X14660000Y-7940000D02*
X14340000Y-8260000D01*
D11*
X5252619Y-8915476D02*
X5252619Y-8715476D01*
X5300238Y-8715476D01*
X5328810Y-8725000D01*
X5347857Y-8744048D01*
X5357381Y-8763095D01*
X5366905Y-8801190D01*
X5366905Y-8829762D01*
X5357381Y-8867857D01*
X5347857Y-8886905D01*
X5328810Y-8905952D01*
X5300238Y-8915476D01*
X5252619Y-8915476D01*
X5452619Y-8915476D02*
X5452619Y-8782143D01*
X5452619Y-8820238D02*
X5462143Y-8801190D01*
X5471667Y-8791667D01*
X5490714Y-8782143D01*
X5509762Y-8782143D01*
X5576429Y-8915476D02*
X5576429Y-8782143D01*
X5576429Y-8715476D02*
X5566905Y-8725000D01*
X5576429Y-8734524D01*
X5585952Y-8725000D01*
X5576429Y-8715476D01*
X5576429Y-8734524D01*
X5700238Y-8915476D02*
X5681190Y-8905952D01*
X5671667Y-8886905D01*
X5671667Y-8715476D01*
X5805000Y-8915476D02*
X5785952Y-8905952D01*
X5776428Y-8886905D01*
X5776428Y-8715476D01*
X6033571Y-8915476D02*
X6033571Y-8715476D01*
X6100238Y-8858333D01*
X6166905Y-8715476D01*
X6166905Y-8915476D01*
X6347857Y-8915476D02*
X6347857Y-8810714D01*
X6338333Y-8791667D01*
X6319286Y-8782143D01*
X6281190Y-8782143D01*
X6262143Y-8791667D01*
X6347857Y-8905952D02*
X6328809Y-8915476D01*
X6281190Y-8915476D01*
X6262143Y-8905952D01*
X6252619Y-8886905D01*
X6252619Y-8867857D01*
X6262143Y-8848810D01*
X6281190Y-8839286D01*
X6328809Y-8839286D01*
X6347857Y-8829762D01*
X6443095Y-8782143D02*
X6443095Y-8982143D01*
X6443095Y-8791667D02*
X6462143Y-8782143D01*
X6500238Y-8782143D01*
X6519286Y-8791667D01*
X6528809Y-8801190D01*
X6538333Y-8820238D01*
X6538333Y-8877381D01*
X6528809Y-8896429D01*
X6519286Y-8905952D01*
X6500238Y-8915476D01*
X6462143Y-8915476D01*
X6443095Y-8905952D01*
X6624048Y-8896429D02*
X6633571Y-8905952D01*
X6624048Y-8915476D01*
X6614524Y-8905952D01*
X6624048Y-8896429D01*
X6624048Y-8915476D01*
X6624048Y-8791667D02*
X6633571Y-8801190D01*
X6624048Y-8810714D01*
X6614524Y-8801190D01*
X6624048Y-8791667D01*
X6624048Y-8810714D01*
X4795000Y-9145000D02*
X4995000Y-9345000D01*
X4995000Y-9145000D02*
X4795000Y-9345000D01*
X5233571Y-9135476D02*
X5357381Y-9135476D01*
X5290714Y-9211667D01*
X5319286Y-9211667D01*
X5338333Y-9221190D01*
X5347857Y-9230714D01*
X5357381Y-9249762D01*
X5357381Y-9297381D01*
X5347857Y-9316429D01*
X5338333Y-9325952D01*
X5319286Y-9335476D01*
X5262143Y-9335476D01*
X5243095Y-9325952D01*
X5233571Y-9316429D01*
X5443095Y-9316429D02*
X5452619Y-9325952D01*
X5443095Y-9335476D01*
X5433571Y-9325952D01*
X5443095Y-9316429D01*
X5443095Y-9335476D01*
X5528810Y-9154524D02*
X5538333Y-9145000D01*
X5557381Y-9135476D01*
X5605000Y-9135476D01*
X5624048Y-9145000D01*
X5633571Y-9154524D01*
X5643095Y-9173571D01*
X5643095Y-9192619D01*
X5633571Y-9221190D01*
X5519286Y-9335476D01*
X5643095Y-9335476D01*
X5766905Y-9135476D02*
X5785952Y-9135476D01*
X5805000Y-9145000D01*
X5814524Y-9154524D01*
X5824048Y-9173571D01*
X5833571Y-9211667D01*
X5833571Y-9259286D01*
X5824048Y-9297381D01*
X5814524Y-9316429D01*
X5805000Y-9325952D01*
X5785952Y-9335476D01*
X5766905Y-9335476D01*
X5747857Y-9325952D01*
X5738333Y-9316429D01*
X5728809Y-9297381D01*
X5719286Y-9259286D01*
X5719286Y-9211667D01*
X5728809Y-9173571D01*
X5738333Y-9154524D01*
X5747857Y-9145000D01*
X5766905Y-9135476D01*
X5957381Y-9135476D02*
X5976428Y-9135476D01*
X5995476Y-9145000D01*
X6005000Y-9154524D01*
X6014524Y-9173571D01*
X6024048Y-9211667D01*
X6024048Y-9259286D01*
X6014524Y-9297381D01*
X6005000Y-9316429D01*
X5995476Y-9325952D01*
X5976428Y-9335476D01*
X5957381Y-9335476D01*
X5938333Y-9325952D01*
X5928809Y-9316429D01*
X5919286Y-9297381D01*
X5909762Y-9259286D01*
X5909762Y-9211667D01*
X5919286Y-9173571D01*
X5928809Y-9154524D01*
X5938333Y-9145000D01*
X5957381Y-9135476D01*
X6109762Y-9335476D02*
X6109762Y-9202143D01*
X6109762Y-9221190D02*
X6119286Y-9211667D01*
X6138333Y-9202143D01*
X6166905Y-9202143D01*
X6185952Y-9211667D01*
X6195476Y-9230714D01*
X6195476Y-9335476D01*
X6195476Y-9230714D02*
X6205000Y-9211667D01*
X6224048Y-9202143D01*
X6252619Y-9202143D01*
X6271667Y-9211667D01*
X6281190Y-9230714D01*
X6281190Y-9335476D01*
X6376428Y-9335476D02*
X6376428Y-9202143D01*
X6376428Y-9221190D02*
X6385952Y-9211667D01*
X6405000Y-9202143D01*
X6433571Y-9202143D01*
X6452619Y-9211667D01*
X6462143Y-9230714D01*
X6462143Y-9335476D01*
X6462143Y-9230714D02*
X6471667Y-9211667D01*
X6490714Y-9202143D01*
X6519286Y-9202143D01*
X6538333Y-9211667D01*
X6547857Y-9230714D01*
X6547857Y-9335476D01*
X6938333Y-9125952D02*
X6766905Y-9383095D01*
X7195476Y-9135476D02*
X7214524Y-9135476D01*
X7233571Y-9145000D01*
X7243095Y-9154524D01*
X7252619Y-9173571D01*
X7262143Y-9211667D01*
X7262143Y-9259286D01*
X7252619Y-9297381D01*
X7243095Y-9316429D01*
X7233571Y-9325952D01*
X7214524Y-9335476D01*
X7195476Y-9335476D01*
X7176428Y-9325952D01*
X7166905Y-9316429D01*
X7157381Y-9297381D01*
X7147857Y-9259286D01*
X7147857Y-9211667D01*
X7157381Y-9173571D01*
X7166905Y-9154524D01*
X7176428Y-9145000D01*
X7195476Y-9135476D01*
X7347857Y-9316429D02*
X7357381Y-9325952D01*
X7347857Y-9335476D01*
X7338333Y-9325952D01*
X7347857Y-9316429D01*
X7347857Y-9335476D01*
X7547857Y-9335476D02*
X7433571Y-9335476D01*
X7490714Y-9335476D02*
X7490714Y-9135476D01*
X7471667Y-9164048D01*
X7452619Y-9183095D01*
X7433571Y-9192619D01*
X7624048Y-9154524D02*
X7633571Y-9145000D01*
X7652619Y-9135476D01*
X7700238Y-9135476D01*
X7719286Y-9145000D01*
X7728809Y-9154524D01*
X7738333Y-9173571D01*
X7738333Y-9192619D01*
X7728809Y-9221190D01*
X7614524Y-9335476D01*
X7738333Y-9335476D01*
X7909762Y-9135476D02*
X7871667Y-9135476D01*
X7852619Y-9145000D01*
X7843095Y-9154524D01*
X7824048Y-9183095D01*
X7814524Y-9221190D01*
X7814524Y-9297381D01*
X7824048Y-9316429D01*
X7833571Y-9325952D01*
X7852619Y-9335476D01*
X7890714Y-9335476D01*
X7909762Y-9325952D01*
X7919286Y-9316429D01*
X7928809Y-9297381D01*
X7928809Y-9249762D01*
X7919286Y-9230714D01*
X7909762Y-9221190D01*
X7890714Y-9211667D01*
X7852619Y-9211667D01*
X7833571Y-9221190D01*
X7824048Y-9230714D01*
X7814524Y-9249762D01*
X8052619Y-9135476D02*
X8071667Y-9135476D01*
X8090714Y-9145000D01*
X8100238Y-9154524D01*
X8109762Y-9173571D01*
X8119286Y-9211667D01*
X8119286Y-9259286D01*
X8109762Y-9297381D01*
X8100238Y-9316429D01*
X8090714Y-9325952D01*
X8071667Y-9335476D01*
X8052619Y-9335476D01*
X8033571Y-9325952D01*
X8024048Y-9316429D01*
X8014524Y-9297381D01*
X8005000Y-9259286D01*
X8005000Y-9211667D01*
X8014524Y-9173571D01*
X8024048Y-9154524D01*
X8033571Y-9145000D01*
X8052619Y-9135476D01*
X8195476Y-9135476D02*
X8195476Y-9173571D01*
X8271667Y-9135476D02*
X8271667Y-9173571D01*
X8566905Y-9411667D02*
X8557381Y-9402143D01*
X8538333Y-9373571D01*
X8528810Y-9354524D01*
X8519286Y-9325952D01*
X8509762Y-9278333D01*
X8509762Y-9240238D01*
X8519286Y-9192619D01*
X8528810Y-9164048D01*
X8538333Y-9145000D01*
X8557381Y-9116429D01*
X8566905Y-9106905D01*
X8728810Y-9202143D02*
X8728810Y-9335476D01*
X8681190Y-9125952D02*
X8633571Y-9268810D01*
X8757381Y-9268810D01*
X8985952Y-9335476D02*
X8985952Y-9135476D01*
X9071667Y-9335476D02*
X9071667Y-9230714D01*
X9062143Y-9211667D01*
X9043095Y-9202143D01*
X9014524Y-9202143D01*
X8995476Y-9211667D01*
X8985952Y-9221190D01*
X9195476Y-9335476D02*
X9176429Y-9325952D01*
X9166905Y-9316429D01*
X9157381Y-9297381D01*
X9157381Y-9240238D01*
X9166905Y-9221190D01*
X9176429Y-9211667D01*
X9195476Y-9202143D01*
X9224048Y-9202143D01*
X9243095Y-9211667D01*
X9252619Y-9221190D01*
X9262143Y-9240238D01*
X9262143Y-9297381D01*
X9252619Y-9316429D01*
X9243095Y-9325952D01*
X9224048Y-9335476D01*
X9195476Y-9335476D01*
X9376429Y-9335476D02*
X9357381Y-9325952D01*
X9347857Y-9306905D01*
X9347857Y-9135476D01*
X9528810Y-9325952D02*
X9509762Y-9335476D01*
X9471667Y-9335476D01*
X9452619Y-9325952D01*
X9443095Y-9306905D01*
X9443095Y-9230714D01*
X9452619Y-9211667D01*
X9471667Y-9202143D01*
X9509762Y-9202143D01*
X9528810Y-9211667D01*
X9538333Y-9230714D01*
X9538333Y-9249762D01*
X9443095Y-9268810D01*
X9614524Y-9325952D02*
X9633571Y-9335476D01*
X9671667Y-9335476D01*
X9690714Y-9325952D01*
X9700238Y-9306905D01*
X9700238Y-9297381D01*
X9690714Y-9278333D01*
X9671667Y-9268810D01*
X9643095Y-9268810D01*
X9624048Y-9259286D01*
X9614524Y-9240238D01*
X9614524Y-9230714D01*
X9624048Y-9211667D01*
X9643095Y-9202143D01*
X9671667Y-9202143D01*
X9690714Y-9211667D01*
X9766905Y-9411667D02*
X9776429Y-9402143D01*
X9795476Y-9373571D01*
X9805000Y-9354524D01*
X9814524Y-9325952D01*
X9824048Y-9278333D01*
X9824048Y-9240238D01*
X9814524Y-9192619D01*
X9805000Y-9164048D01*
X9795476Y-9145000D01*
X9776429Y-9116429D01*
X9766905Y-9106905D01*
X10128810Y-9411667D02*
X10119286Y-9402143D01*
X10100238Y-9373571D01*
X10090714Y-9354524D01*
X10081190Y-9325952D01*
X10071667Y-9278333D01*
X10071667Y-9240238D01*
X10081190Y-9192619D01*
X10090714Y-9164048D01*
X10100238Y-9145000D01*
X10119286Y-9116429D01*
X10128810Y-9106905D01*
X10205000Y-9202143D02*
X10205000Y-9335476D01*
X10205000Y-9221190D02*
X10214524Y-9211667D01*
X10233571Y-9202143D01*
X10262143Y-9202143D01*
X10281190Y-9211667D01*
X10290714Y-9230714D01*
X10290714Y-9335476D01*
X10414524Y-9335476D02*
X10395476Y-9325952D01*
X10385952Y-9316429D01*
X10376429Y-9297381D01*
X10376429Y-9240238D01*
X10385952Y-9221190D01*
X10395476Y-9211667D01*
X10414524Y-9202143D01*
X10443095Y-9202143D01*
X10462143Y-9211667D01*
X10471667Y-9221190D01*
X10481190Y-9240238D01*
X10481190Y-9297381D01*
X10471667Y-9316429D01*
X10462143Y-9325952D01*
X10443095Y-9335476D01*
X10414524Y-9335476D01*
X10538333Y-9202143D02*
X10614524Y-9202143D01*
X10566905Y-9135476D02*
X10566905Y-9306905D01*
X10576429Y-9325952D01*
X10595476Y-9335476D01*
X10614524Y-9335476D01*
X10833571Y-9202143D02*
X10833571Y-9402143D01*
X10833571Y-9211667D02*
X10852619Y-9202143D01*
X10890714Y-9202143D01*
X10909762Y-9211667D01*
X10919286Y-9221190D01*
X10928810Y-9240238D01*
X10928810Y-9297381D01*
X10919286Y-9316429D01*
X10909762Y-9325952D01*
X10890714Y-9335476D01*
X10852619Y-9335476D01*
X10833571Y-9325952D01*
X11043095Y-9335476D02*
X11024048Y-9325952D01*
X11014524Y-9306905D01*
X11014524Y-9135476D01*
X11205000Y-9335476D02*
X11205000Y-9230714D01*
X11195476Y-9211667D01*
X11176429Y-9202143D01*
X11138333Y-9202143D01*
X11119286Y-9211667D01*
X11205000Y-9325952D02*
X11185952Y-9335476D01*
X11138333Y-9335476D01*
X11119286Y-9325952D01*
X11109762Y-9306905D01*
X11109762Y-9287857D01*
X11119286Y-9268810D01*
X11138333Y-9259286D01*
X11185952Y-9259286D01*
X11205000Y-9249762D01*
X11271667Y-9202143D02*
X11347857Y-9202143D01*
X11300238Y-9135476D02*
X11300238Y-9306905D01*
X11309762Y-9325952D01*
X11328809Y-9335476D01*
X11347857Y-9335476D01*
X11490714Y-9325952D02*
X11471667Y-9335476D01*
X11433571Y-9335476D01*
X11414524Y-9325952D01*
X11405000Y-9306905D01*
X11405000Y-9230714D01*
X11414524Y-9211667D01*
X11433571Y-9202143D01*
X11471667Y-9202143D01*
X11490714Y-9211667D01*
X11500238Y-9230714D01*
X11500238Y-9249762D01*
X11405000Y-9268810D01*
X11671667Y-9335476D02*
X11671667Y-9135476D01*
X11671667Y-9325952D02*
X11652619Y-9335476D01*
X11614524Y-9335476D01*
X11595476Y-9325952D01*
X11585952Y-9316429D01*
X11576428Y-9297381D01*
X11576428Y-9240238D01*
X11585952Y-9221190D01*
X11595476Y-9211667D01*
X11614524Y-9202143D01*
X11652619Y-9202143D01*
X11671667Y-9211667D01*
X11747857Y-9411667D02*
X11757381Y-9402143D01*
X11776428Y-9373571D01*
X11785952Y-9354524D01*
X11795476Y-9325952D01*
X11805000Y-9278333D01*
X11805000Y-9240238D01*
X11795476Y-9192619D01*
X11785952Y-9164048D01*
X11776428Y-9145000D01*
X11757381Y-9116429D01*
X11747857Y-9106905D01*
M02*
