%TF.GenerationSoftware,KiCad,Pcbnew,(6.0.9)*%
%TF.CreationDate,2023-01-08T16:32:16+01:00*%
%TF.ProjectId,led-counter,6c65642d-636f-4756-9e74-65722e6b6963,0.1*%
%TF.SameCoordinates,Original*%
%TF.FileFunction,Legend,Top*%
%TF.FilePolarity,Positive*%
%FSLAX46Y46*%
G04 Gerber Fmt 4.6, Leading zero omitted, Abs format (unit mm)*
G04 Created by KiCad (PCBNEW (6.0.9)) date 2023-01-08 16:32:16*
%MOMM*%
%LPD*%
G01*
G04 APERTURE LIST*
%ADD10C,0.150000*%
%ADD11C,0.200000*%
%ADD12C,0.120000*%
G04 APERTURE END LIST*
D10*
X60773809Y-83302142D02*
X60726190Y-83349761D01*
X60583333Y-83397380D01*
X60488095Y-83397380D01*
X60345238Y-83349761D01*
X60250000Y-83254523D01*
X60202380Y-83159285D01*
X60154761Y-82968809D01*
X60154761Y-82825952D01*
X60202380Y-82635476D01*
X60250000Y-82540238D01*
X60345238Y-82445000D01*
X60488095Y-82397380D01*
X60583333Y-82397380D01*
X60726190Y-82445000D01*
X60773809Y-82492619D01*
X61630952Y-83397380D02*
X61630952Y-82873571D01*
X61583333Y-82778333D01*
X61488095Y-82730714D01*
X61297619Y-82730714D01*
X61202380Y-82778333D01*
X61630952Y-83349761D02*
X61535714Y-83397380D01*
X61297619Y-83397380D01*
X61202380Y-83349761D01*
X61154761Y-83254523D01*
X61154761Y-83159285D01*
X61202380Y-83064047D01*
X61297619Y-83016428D01*
X61535714Y-83016428D01*
X61630952Y-82968809D01*
X62107142Y-83397380D02*
X62107142Y-82730714D01*
X62107142Y-82825952D02*
X62154761Y-82778333D01*
X62250000Y-82730714D01*
X62392857Y-82730714D01*
X62488095Y-82778333D01*
X62535714Y-82873571D01*
X62535714Y-83397380D01*
X62535714Y-82873571D02*
X62583333Y-82778333D01*
X62678571Y-82730714D01*
X62821428Y-82730714D01*
X62916666Y-82778333D01*
X62964285Y-82873571D01*
X62964285Y-83397380D01*
X63821428Y-83349761D02*
X63726190Y-83397380D01*
X63535714Y-83397380D01*
X63440476Y-83349761D01*
X63392857Y-83254523D01*
X63392857Y-82873571D01*
X63440476Y-82778333D01*
X63535714Y-82730714D01*
X63726190Y-82730714D01*
X63821428Y-82778333D01*
X63869047Y-82873571D01*
X63869047Y-82968809D01*
X63392857Y-83064047D01*
X64297619Y-83397380D02*
X64297619Y-82730714D01*
X64297619Y-82921190D02*
X64345238Y-82825952D01*
X64392857Y-82778333D01*
X64488095Y-82730714D01*
X64583333Y-82730714D01*
X65345238Y-83397380D02*
X65345238Y-82873571D01*
X65297619Y-82778333D01*
X65202380Y-82730714D01*
X65011904Y-82730714D01*
X64916666Y-82778333D01*
X65345238Y-83349761D02*
X65250000Y-83397380D01*
X65011904Y-83397380D01*
X64916666Y-83349761D01*
X64869047Y-83254523D01*
X64869047Y-83159285D01*
X64916666Y-83064047D01*
X65011904Y-83016428D01*
X65250000Y-83016428D01*
X65345238Y-82968809D01*
X67154761Y-83302142D02*
X67107142Y-83349761D01*
X66964285Y-83397380D01*
X66869047Y-83397380D01*
X66726190Y-83349761D01*
X66630952Y-83254523D01*
X66583333Y-83159285D01*
X66535714Y-82968809D01*
X66535714Y-82825952D01*
X66583333Y-82635476D01*
X66630952Y-82540238D01*
X66726190Y-82445000D01*
X66869047Y-82397380D01*
X66964285Y-82397380D01*
X67107142Y-82445000D01*
X67154761Y-82492619D01*
X68011904Y-83397380D02*
X68011904Y-82873571D01*
X67964285Y-82778333D01*
X67869047Y-82730714D01*
X67678571Y-82730714D01*
X67583333Y-82778333D01*
X68011904Y-83349761D02*
X67916666Y-83397380D01*
X67678571Y-83397380D01*
X67583333Y-83349761D01*
X67535714Y-83254523D01*
X67535714Y-83159285D01*
X67583333Y-83064047D01*
X67678571Y-83016428D01*
X67916666Y-83016428D01*
X68011904Y-82968809D01*
X68630952Y-83397380D02*
X68535714Y-83349761D01*
X68488095Y-83254523D01*
X68488095Y-82397380D01*
X69011904Y-83397380D02*
X69011904Y-82730714D01*
X69011904Y-82397380D02*
X68964285Y-82445000D01*
X69011904Y-82492619D01*
X69059523Y-82445000D01*
X69011904Y-82397380D01*
X69011904Y-82492619D01*
X69488095Y-83397380D02*
X69488095Y-82397380D01*
X69488095Y-82778333D02*
X69583333Y-82730714D01*
X69773809Y-82730714D01*
X69869047Y-82778333D01*
X69916666Y-82825952D01*
X69964285Y-82921190D01*
X69964285Y-83206904D01*
X69916666Y-83302142D01*
X69869047Y-83349761D01*
X69773809Y-83397380D01*
X69583333Y-83397380D01*
X69488095Y-83349761D01*
X70392857Y-83397380D02*
X70392857Y-82730714D01*
X70392857Y-82921190D02*
X70440476Y-82825952D01*
X70488095Y-82778333D01*
X70583333Y-82730714D01*
X70678571Y-82730714D01*
X71440476Y-83397380D02*
X71440476Y-82873571D01*
X71392857Y-82778333D01*
X71297619Y-82730714D01*
X71107142Y-82730714D01*
X71011904Y-82778333D01*
X71440476Y-83349761D02*
X71345238Y-83397380D01*
X71107142Y-83397380D01*
X71011904Y-83349761D01*
X70964285Y-83254523D01*
X70964285Y-83159285D01*
X71011904Y-83064047D01*
X71107142Y-83016428D01*
X71345238Y-83016428D01*
X71440476Y-82968809D01*
X71773809Y-82730714D02*
X72154761Y-82730714D01*
X71916666Y-82397380D02*
X71916666Y-83254523D01*
X71964285Y-83349761D01*
X72059523Y-83397380D01*
X72154761Y-83397380D01*
X72488095Y-83397380D02*
X72488095Y-82730714D01*
X72488095Y-82397380D02*
X72440476Y-82445000D01*
X72488095Y-82492619D01*
X72535714Y-82445000D01*
X72488095Y-82397380D01*
X72488095Y-82492619D01*
X73107142Y-83397380D02*
X73011904Y-83349761D01*
X72964285Y-83302142D01*
X72916666Y-83206904D01*
X72916666Y-82921190D01*
X72964285Y-82825952D01*
X73011904Y-82778333D01*
X73107142Y-82730714D01*
X73250000Y-82730714D01*
X73345238Y-82778333D01*
X73392857Y-82825952D01*
X73440476Y-82921190D01*
X73440476Y-83206904D01*
X73392857Y-83302142D01*
X73345238Y-83349761D01*
X73250000Y-83397380D01*
X73107142Y-83397380D01*
X73869047Y-82730714D02*
X73869047Y-83397380D01*
X73869047Y-82825952D02*
X73916666Y-82778333D01*
X74011904Y-82730714D01*
X74154761Y-82730714D01*
X74250000Y-82778333D01*
X74297619Y-82873571D01*
X74297619Y-83397380D01*
X75535714Y-83397380D02*
X75535714Y-82397380D01*
X75869047Y-83111666D01*
X76202380Y-82397380D01*
X76202380Y-83397380D01*
X76821428Y-83397380D02*
X76726190Y-83349761D01*
X76678571Y-83302142D01*
X76630952Y-83206904D01*
X76630952Y-82921190D01*
X76678571Y-82825952D01*
X76726190Y-82778333D01*
X76821428Y-82730714D01*
X76964285Y-82730714D01*
X77059523Y-82778333D01*
X77107142Y-82825952D01*
X77154761Y-82921190D01*
X77154761Y-83206904D01*
X77107142Y-83302142D01*
X77059523Y-83349761D01*
X76964285Y-83397380D01*
X76821428Y-83397380D01*
X78011904Y-83397380D02*
X78011904Y-82397380D01*
X78011904Y-83349761D02*
X77916666Y-83397380D01*
X77726190Y-83397380D01*
X77630952Y-83349761D01*
X77583333Y-83302142D01*
X77535714Y-83206904D01*
X77535714Y-82921190D01*
X77583333Y-82825952D01*
X77630952Y-82778333D01*
X77726190Y-82730714D01*
X77916666Y-82730714D01*
X78011904Y-82778333D01*
X78916666Y-82730714D02*
X78916666Y-83397380D01*
X78488095Y-82730714D02*
X78488095Y-83254523D01*
X78535714Y-83349761D01*
X78630952Y-83397380D01*
X78773809Y-83397380D01*
X78869047Y-83349761D01*
X78916666Y-83302142D01*
X79535714Y-83397380D02*
X79440476Y-83349761D01*
X79392857Y-83254523D01*
X79392857Y-82397380D01*
X80297619Y-83349761D02*
X80202380Y-83397380D01*
X80011904Y-83397380D01*
X79916666Y-83349761D01*
X79869047Y-83254523D01*
X79869047Y-82873571D01*
X79916666Y-82778333D01*
X80011904Y-82730714D01*
X80202380Y-82730714D01*
X80297619Y-82778333D01*
X80345238Y-82873571D01*
X80345238Y-82968809D01*
X79869047Y-83064047D01*
X60273809Y-84340714D02*
X60511904Y-85007380D01*
X60750000Y-84340714D01*
X61321428Y-84007380D02*
X61416666Y-84007380D01*
X61511904Y-84055000D01*
X61559523Y-84102619D01*
X61607142Y-84197857D01*
X61654761Y-84388333D01*
X61654761Y-84626428D01*
X61607142Y-84816904D01*
X61559523Y-84912142D01*
X61511904Y-84959761D01*
X61416666Y-85007380D01*
X61321428Y-85007380D01*
X61226190Y-84959761D01*
X61178571Y-84912142D01*
X61130952Y-84816904D01*
X61083333Y-84626428D01*
X61083333Y-84388333D01*
X61130952Y-84197857D01*
X61178571Y-84102619D01*
X61226190Y-84055000D01*
X61321428Y-84007380D01*
X62083333Y-84912142D02*
X62130952Y-84959761D01*
X62083333Y-85007380D01*
X62035714Y-84959761D01*
X62083333Y-84912142D01*
X62083333Y-85007380D01*
X63083333Y-85007380D02*
X62511904Y-85007380D01*
X62797619Y-85007380D02*
X62797619Y-84007380D01*
X62702380Y-84150238D01*
X62607142Y-84245476D01*
X62511904Y-84293095D01*
X66559523Y-85007380D02*
X66559523Y-84007380D01*
X66559523Y-84388333D02*
X66654761Y-84340714D01*
X66845238Y-84340714D01*
X66940476Y-84388333D01*
X66988095Y-84435952D01*
X67035714Y-84531190D01*
X67035714Y-84816904D01*
X66988095Y-84912142D01*
X66940476Y-84959761D01*
X66845238Y-85007380D01*
X66654761Y-85007380D01*
X66559523Y-84959761D01*
X67369047Y-84340714D02*
X67607142Y-85007380D01*
X67845238Y-84340714D02*
X67607142Y-85007380D01*
X67511904Y-85245476D01*
X67464285Y-85293095D01*
X67369047Y-85340714D01*
X68940476Y-84721666D02*
X69416666Y-84721666D01*
X68845238Y-85007380D02*
X69178571Y-84007380D01*
X69511904Y-85007380D01*
X69988095Y-85007380D02*
X69892857Y-84959761D01*
X69845238Y-84864523D01*
X69845238Y-84007380D01*
X70750000Y-84959761D02*
X70654761Y-85007380D01*
X70464285Y-85007380D01*
X70369047Y-84959761D01*
X70321428Y-84864523D01*
X70321428Y-84483571D01*
X70369047Y-84388333D01*
X70464285Y-84340714D01*
X70654761Y-84340714D01*
X70750000Y-84388333D01*
X70797619Y-84483571D01*
X70797619Y-84578809D01*
X70321428Y-84674047D01*
X71130952Y-85007380D02*
X71654761Y-84340714D01*
X71130952Y-84340714D02*
X71654761Y-85007380D01*
X72464285Y-85007380D02*
X72464285Y-84483571D01*
X72416666Y-84388333D01*
X72321428Y-84340714D01*
X72130952Y-84340714D01*
X72035714Y-84388333D01*
X72464285Y-84959761D02*
X72369047Y-85007380D01*
X72130952Y-85007380D01*
X72035714Y-84959761D01*
X71988095Y-84864523D01*
X71988095Y-84769285D01*
X72035714Y-84674047D01*
X72130952Y-84626428D01*
X72369047Y-84626428D01*
X72464285Y-84578809D01*
X72940476Y-84340714D02*
X72940476Y-85007380D01*
X72940476Y-84435952D02*
X72988095Y-84388333D01*
X73083333Y-84340714D01*
X73226190Y-84340714D01*
X73321428Y-84388333D01*
X73369047Y-84483571D01*
X73369047Y-85007380D01*
X74273809Y-85007380D02*
X74273809Y-84007380D01*
X74273809Y-84959761D02*
X74178571Y-85007380D01*
X73988095Y-85007380D01*
X73892857Y-84959761D01*
X73845238Y-84912142D01*
X73797619Y-84816904D01*
X73797619Y-84531190D01*
X73845238Y-84435952D01*
X73892857Y-84388333D01*
X73988095Y-84340714D01*
X74178571Y-84340714D01*
X74273809Y-84388333D01*
X75130952Y-84959761D02*
X75035714Y-85007380D01*
X74845238Y-85007380D01*
X74750000Y-84959761D01*
X74702380Y-84864523D01*
X74702380Y-84483571D01*
X74750000Y-84388333D01*
X74845238Y-84340714D01*
X75035714Y-84340714D01*
X75130952Y-84388333D01*
X75178571Y-84483571D01*
X75178571Y-84578809D01*
X74702380Y-84674047D01*
X75607142Y-85007380D02*
X75607142Y-84340714D01*
X75607142Y-84531190D02*
X75654761Y-84435952D01*
X75702380Y-84388333D01*
X75797619Y-84340714D01*
X75892857Y-84340714D01*
X76940476Y-84959761D02*
X77083333Y-85007380D01*
X77321428Y-85007380D01*
X77416666Y-84959761D01*
X77464285Y-84912142D01*
X77511904Y-84816904D01*
X77511904Y-84721666D01*
X77464285Y-84626428D01*
X77416666Y-84578809D01*
X77321428Y-84531190D01*
X77130952Y-84483571D01*
X77035714Y-84435952D01*
X76988095Y-84388333D01*
X76940476Y-84293095D01*
X76940476Y-84197857D01*
X76988095Y-84102619D01*
X77035714Y-84055000D01*
X77130952Y-84007380D01*
X77369047Y-84007380D01*
X77511904Y-84055000D01*
X78369047Y-85007380D02*
X78369047Y-84483571D01*
X78321428Y-84388333D01*
X78226190Y-84340714D01*
X78035714Y-84340714D01*
X77940476Y-84388333D01*
X78369047Y-84959761D02*
X78273809Y-85007380D01*
X78035714Y-85007380D01*
X77940476Y-84959761D01*
X77892857Y-84864523D01*
X77892857Y-84769285D01*
X77940476Y-84674047D01*
X78035714Y-84626428D01*
X78273809Y-84626428D01*
X78369047Y-84578809D01*
X79273809Y-84340714D02*
X79273809Y-85150238D01*
X79226190Y-85245476D01*
X79178571Y-85293095D01*
X79083333Y-85340714D01*
X78940476Y-85340714D01*
X78845238Y-85293095D01*
X79273809Y-84959761D02*
X79178571Y-85007380D01*
X78988095Y-85007380D01*
X78892857Y-84959761D01*
X78845238Y-84912142D01*
X78797619Y-84816904D01*
X78797619Y-84531190D01*
X78845238Y-84435952D01*
X78892857Y-84388333D01*
X78988095Y-84340714D01*
X79178571Y-84340714D01*
X79273809Y-84388333D01*
X80130952Y-84959761D02*
X80035714Y-85007380D01*
X79845238Y-85007380D01*
X79750000Y-84959761D01*
X79702380Y-84864523D01*
X79702380Y-84483571D01*
X79750000Y-84388333D01*
X79845238Y-84340714D01*
X80035714Y-84340714D01*
X80130952Y-84388333D01*
X80178571Y-84483571D01*
X80178571Y-84578809D01*
X79702380Y-84674047D01*
D11*
X109577380Y-84125000D02*
X109458333Y-84065476D01*
X109279761Y-84065476D01*
X109101190Y-84125000D01*
X108982142Y-84244047D01*
X108922619Y-84363095D01*
X108863095Y-84601190D01*
X108863095Y-84779761D01*
X108922619Y-85017857D01*
X108982142Y-85136904D01*
X109101190Y-85255952D01*
X109279761Y-85315476D01*
X109398809Y-85315476D01*
X109577380Y-85255952D01*
X109636904Y-85196428D01*
X109636904Y-84779761D01*
X109398809Y-84779761D01*
D10*
X102488095Y-84250000D02*
X102392857Y-84202380D01*
X102250000Y-84202380D01*
X102107142Y-84250000D01*
X102011904Y-84345238D01*
X101964285Y-84440476D01*
X101916666Y-84630952D01*
X101916666Y-84773809D01*
X101964285Y-84964285D01*
X102011904Y-85059523D01*
X102107142Y-85154761D01*
X102250000Y-85202380D01*
X102345238Y-85202380D01*
X102488095Y-85154761D01*
X102535714Y-85107142D01*
X102535714Y-84773809D01*
X102345238Y-84773809D01*
X102964285Y-85202380D02*
X102964285Y-84202380D01*
X103535714Y-85202380D01*
X103535714Y-84202380D01*
X104011904Y-85202380D02*
X104011904Y-84202380D01*
X104250000Y-84202380D01*
X104392857Y-84250000D01*
X104488095Y-84345238D01*
X104535714Y-84440476D01*
X104583333Y-84630952D01*
X104583333Y-84773809D01*
X104535714Y-84964285D01*
X104488095Y-85059523D01*
X104392857Y-85154761D01*
X104250000Y-85202380D01*
X104011904Y-85202380D01*
X105416666Y-84202380D02*
X105750000Y-85202380D01*
X106083333Y-84202380D01*
X106988095Y-85107142D02*
X106940476Y-85154761D01*
X106797619Y-85202380D01*
X106702380Y-85202380D01*
X106559523Y-85154761D01*
X106464285Y-85059523D01*
X106416666Y-84964285D01*
X106369047Y-84773809D01*
X106369047Y-84630952D01*
X106416666Y-84440476D01*
X106464285Y-84345238D01*
X106559523Y-84250000D01*
X106702380Y-84202380D01*
X106797619Y-84202380D01*
X106940476Y-84250000D01*
X106988095Y-84297619D01*
X107988095Y-85107142D02*
X107940476Y-85154761D01*
X107797619Y-85202380D01*
X107702380Y-85202380D01*
X107559523Y-85154761D01*
X107464285Y-85059523D01*
X107416666Y-84964285D01*
X107369047Y-84773809D01*
X107369047Y-84630952D01*
X107416666Y-84440476D01*
X107464285Y-84345238D01*
X107559523Y-84250000D01*
X107702380Y-84202380D01*
X107797619Y-84202380D01*
X107940476Y-84250000D01*
X107988095Y-84297619D01*
D11*
X111511904Y-85315476D02*
X110797619Y-85315476D01*
X111154761Y-85315476D02*
X111154761Y-84065476D01*
X111035714Y-84244047D01*
X110916666Y-84363095D01*
X110797619Y-84422619D01*
X112285714Y-84065476D02*
X112404761Y-84065476D01*
X112523809Y-84125000D01*
X112583333Y-84184523D01*
X112642857Y-84303571D01*
X112702380Y-84541666D01*
X112702380Y-84839285D01*
X112642857Y-85077380D01*
X112583333Y-85196428D01*
X112523809Y-85255952D01*
X112404761Y-85315476D01*
X112285714Y-85315476D01*
X112166666Y-85255952D01*
X112107142Y-85196428D01*
X112047619Y-85077380D01*
X111988095Y-84839285D01*
X111988095Y-84541666D01*
X112047619Y-84303571D01*
X112107142Y-84184523D01*
X112166666Y-84125000D01*
X112285714Y-84065476D01*
X114261904Y-85315476D02*
X114500000Y-85315476D01*
X114619047Y-85255952D01*
X114678571Y-85196428D01*
X114797619Y-85017857D01*
X114857142Y-84779761D01*
X114857142Y-84303571D01*
X114797619Y-84184523D01*
X114738095Y-84125000D01*
X114619047Y-84065476D01*
X114380952Y-84065476D01*
X114261904Y-84125000D01*
X114202380Y-84184523D01*
X114142857Y-84303571D01*
X114142857Y-84601190D01*
X114202380Y-84720238D01*
X114261904Y-84779761D01*
X114380952Y-84839285D01*
X114619047Y-84839285D01*
X114738095Y-84779761D01*
X114797619Y-84720238D01*
X114857142Y-84601190D01*
X116880952Y-84601190D02*
X116761904Y-84541666D01*
X116702380Y-84482142D01*
X116642857Y-84363095D01*
X116642857Y-84303571D01*
X116702380Y-84184523D01*
X116761904Y-84125000D01*
X116880952Y-84065476D01*
X117119047Y-84065476D01*
X117238095Y-84125000D01*
X117297619Y-84184523D01*
X117357142Y-84303571D01*
X117357142Y-84363095D01*
X117297619Y-84482142D01*
X117238095Y-84541666D01*
X117119047Y-84601190D01*
X116880952Y-84601190D01*
X116761904Y-84660714D01*
X116702380Y-84720238D01*
X116642857Y-84839285D01*
X116642857Y-85077380D01*
X116702380Y-85196428D01*
X116761904Y-85255952D01*
X116880952Y-85315476D01*
X117119047Y-85315476D01*
X117238095Y-85255952D01*
X117297619Y-85196428D01*
X117357142Y-85077380D01*
X117357142Y-84839285D01*
X117297619Y-84720238D01*
X117238095Y-84660714D01*
X117119047Y-84601190D01*
X119083333Y-84065476D02*
X119916666Y-84065476D01*
X119380952Y-85315476D01*
X122238095Y-84065476D02*
X122000000Y-84065476D01*
X121880952Y-84125000D01*
X121821428Y-84184523D01*
X121702380Y-84363095D01*
X121642857Y-84601190D01*
X121642857Y-85077380D01*
X121702380Y-85196428D01*
X121761904Y-85255952D01*
X121880952Y-85315476D01*
X122119047Y-85315476D01*
X122238095Y-85255952D01*
X122297619Y-85196428D01*
X122357142Y-85077380D01*
X122357142Y-84779761D01*
X122297619Y-84660714D01*
X122238095Y-84601190D01*
X122119047Y-84541666D01*
X121880952Y-84541666D01*
X121761904Y-84601190D01*
X121702380Y-84660714D01*
X121642857Y-84779761D01*
X124797619Y-84065476D02*
X124202380Y-84065476D01*
X124142857Y-84660714D01*
X124202380Y-84601190D01*
X124321428Y-84541666D01*
X124619047Y-84541666D01*
X124738095Y-84601190D01*
X124797619Y-84660714D01*
X124857142Y-84779761D01*
X124857142Y-85077380D01*
X124797619Y-85196428D01*
X124738095Y-85255952D01*
X124619047Y-85315476D01*
X124321428Y-85315476D01*
X124202380Y-85255952D01*
X124142857Y-85196428D01*
X127238095Y-84482142D02*
X127238095Y-85315476D01*
X126940476Y-84005952D02*
X126642857Y-84898809D01*
X127416666Y-84898809D01*
X129333333Y-84065476D02*
X130107142Y-84065476D01*
X129690476Y-84541666D01*
X129869047Y-84541666D01*
X129988095Y-84601190D01*
X130047619Y-84660714D01*
X130107142Y-84779761D01*
X130107142Y-85077380D01*
X130047619Y-85196428D01*
X129988095Y-85255952D01*
X129869047Y-85315476D01*
X129511904Y-85315476D01*
X129392857Y-85255952D01*
X129333333Y-85196428D01*
X131892857Y-84184523D02*
X131952380Y-84125000D01*
X132071428Y-84065476D01*
X132369047Y-84065476D01*
X132488095Y-84125000D01*
X132547619Y-84184523D01*
X132607142Y-84303571D01*
X132607142Y-84422619D01*
X132547619Y-84601190D01*
X131833333Y-85315476D01*
X132607142Y-85315476D01*
X135107142Y-85315476D02*
X134392857Y-85315476D01*
X134750000Y-85315476D02*
X134750000Y-84065476D01*
X134630952Y-84244047D01*
X134511904Y-84363095D01*
X134392857Y-84422619D01*
D10*
%TO.C,J1*%
X136532380Y-82333333D02*
X137246666Y-82333333D01*
X137389523Y-82380952D01*
X137484761Y-82476190D01*
X137532380Y-82619047D01*
X137532380Y-82714285D01*
X137532380Y-81333333D02*
X137532380Y-81904761D01*
X137532380Y-81619047D02*
X136532380Y-81619047D01*
X136675238Y-81714285D01*
X136770476Y-81809523D01*
X136818095Y-81904761D01*
%TO.C,Q1*%
X92404761Y-69407619D02*
X92309523Y-69360000D01*
X92214285Y-69264761D01*
X92071428Y-69121904D01*
X91976190Y-69074285D01*
X91880952Y-69074285D01*
X91928571Y-69312380D02*
X91833333Y-69264761D01*
X91738095Y-69169523D01*
X91690476Y-68979047D01*
X91690476Y-68645714D01*
X91738095Y-68455238D01*
X91833333Y-68360000D01*
X91928571Y-68312380D01*
X92119047Y-68312380D01*
X92214285Y-68360000D01*
X92309523Y-68455238D01*
X92357142Y-68645714D01*
X92357142Y-68979047D01*
X92309523Y-69169523D01*
X92214285Y-69264761D01*
X92119047Y-69312380D01*
X91928571Y-69312380D01*
X93309523Y-69312380D02*
X92738095Y-69312380D01*
X93023809Y-69312380D02*
X93023809Y-68312380D01*
X92928571Y-68455238D01*
X92833333Y-68550476D01*
X92738095Y-68598095D01*
%TO.C,R16*%
X134357142Y-75532380D02*
X134023809Y-75056190D01*
X133785714Y-75532380D02*
X133785714Y-74532380D01*
X134166666Y-74532380D01*
X134261904Y-74580000D01*
X134309523Y-74627619D01*
X134357142Y-74722857D01*
X134357142Y-74865714D01*
X134309523Y-74960952D01*
X134261904Y-75008571D01*
X134166666Y-75056190D01*
X133785714Y-75056190D01*
X135309523Y-75532380D02*
X134738095Y-75532380D01*
X135023809Y-75532380D02*
X135023809Y-74532380D01*
X134928571Y-74675238D01*
X134833333Y-74770476D01*
X134738095Y-74818095D01*
X136166666Y-74532380D02*
X135976190Y-74532380D01*
X135880952Y-74580000D01*
X135833333Y-74627619D01*
X135738095Y-74770476D01*
X135690476Y-74960952D01*
X135690476Y-75341904D01*
X135738095Y-75437142D01*
X135785714Y-75484761D01*
X135880952Y-75532380D01*
X136071428Y-75532380D01*
X136166666Y-75484761D01*
X136214285Y-75437142D01*
X136261904Y-75341904D01*
X136261904Y-75103809D01*
X136214285Y-75008571D01*
X136166666Y-74960952D01*
X136071428Y-74913333D01*
X135880952Y-74913333D01*
X135785714Y-74960952D01*
X135738095Y-75008571D01*
X135690476Y-75103809D01*
%TO.C,R15*%
X130032380Y-70642857D02*
X129556190Y-70976190D01*
X130032380Y-71214285D02*
X129032380Y-71214285D01*
X129032380Y-70833333D01*
X129080000Y-70738095D01*
X129127619Y-70690476D01*
X129222857Y-70642857D01*
X129365714Y-70642857D01*
X129460952Y-70690476D01*
X129508571Y-70738095D01*
X129556190Y-70833333D01*
X129556190Y-71214285D01*
X130032380Y-69690476D02*
X130032380Y-70261904D01*
X130032380Y-69976190D02*
X129032380Y-69976190D01*
X129175238Y-70071428D01*
X129270476Y-70166666D01*
X129318095Y-70261904D01*
X129032380Y-68785714D02*
X129032380Y-69261904D01*
X129508571Y-69309523D01*
X129460952Y-69261904D01*
X129413333Y-69166666D01*
X129413333Y-68928571D01*
X129460952Y-68833333D01*
X129508571Y-68785714D01*
X129603809Y-68738095D01*
X129841904Y-68738095D01*
X129937142Y-68785714D01*
X129984761Y-68833333D01*
X130032380Y-68928571D01*
X130032380Y-69166666D01*
X129984761Y-69261904D01*
X129937142Y-69309523D01*
%TO.C,R14*%
X108032380Y-75642857D02*
X107556190Y-75976190D01*
X108032380Y-76214285D02*
X107032380Y-76214285D01*
X107032380Y-75833333D01*
X107080000Y-75738095D01*
X107127619Y-75690476D01*
X107222857Y-75642857D01*
X107365714Y-75642857D01*
X107460952Y-75690476D01*
X107508571Y-75738095D01*
X107556190Y-75833333D01*
X107556190Y-76214285D01*
X108032380Y-74690476D02*
X108032380Y-75261904D01*
X108032380Y-74976190D02*
X107032380Y-74976190D01*
X107175238Y-75071428D01*
X107270476Y-75166666D01*
X107318095Y-75261904D01*
X107365714Y-73833333D02*
X108032380Y-73833333D01*
X106984761Y-74071428D02*
X107699047Y-74309523D01*
X107699047Y-73690476D01*
%TO.C,R13*%
X76532380Y-77642857D02*
X76056190Y-77976190D01*
X76532380Y-78214285D02*
X75532380Y-78214285D01*
X75532380Y-77833333D01*
X75580000Y-77738095D01*
X75627619Y-77690476D01*
X75722857Y-77642857D01*
X75865714Y-77642857D01*
X75960952Y-77690476D01*
X76008571Y-77738095D01*
X76056190Y-77833333D01*
X76056190Y-78214285D01*
X76532380Y-76690476D02*
X76532380Y-77261904D01*
X76532380Y-76976190D02*
X75532380Y-76976190D01*
X75675238Y-77071428D01*
X75770476Y-77166666D01*
X75818095Y-77261904D01*
X75532380Y-76357142D02*
X75532380Y-75738095D01*
X75913333Y-76071428D01*
X75913333Y-75928571D01*
X75960952Y-75833333D01*
X76008571Y-75785714D01*
X76103809Y-75738095D01*
X76341904Y-75738095D01*
X76437142Y-75785714D01*
X76484761Y-75833333D01*
X76532380Y-75928571D01*
X76532380Y-76214285D01*
X76484761Y-76309523D01*
X76437142Y-76357142D01*
%TO.C,R12*%
X70532380Y-77642857D02*
X70056190Y-77976190D01*
X70532380Y-78214285D02*
X69532380Y-78214285D01*
X69532380Y-77833333D01*
X69580000Y-77738095D01*
X69627619Y-77690476D01*
X69722857Y-77642857D01*
X69865714Y-77642857D01*
X69960952Y-77690476D01*
X70008571Y-77738095D01*
X70056190Y-77833333D01*
X70056190Y-78214285D01*
X70532380Y-76690476D02*
X70532380Y-77261904D01*
X70532380Y-76976190D02*
X69532380Y-76976190D01*
X69675238Y-77071428D01*
X69770476Y-77166666D01*
X69818095Y-77261904D01*
X69627619Y-76309523D02*
X69580000Y-76261904D01*
X69532380Y-76166666D01*
X69532380Y-75928571D01*
X69580000Y-75833333D01*
X69627619Y-75785714D01*
X69722857Y-75738095D01*
X69818095Y-75738095D01*
X69960952Y-75785714D01*
X70532380Y-76357142D01*
X70532380Y-75738095D01*
%TO.C,R11*%
X97047350Y-74784421D02*
X96571160Y-75117754D01*
X97047350Y-75355849D02*
X96047350Y-75355849D01*
X96047350Y-74974897D01*
X96094970Y-74879659D01*
X96142589Y-74832040D01*
X96237827Y-74784421D01*
X96380684Y-74784421D01*
X96475922Y-74832040D01*
X96523541Y-74879659D01*
X96571160Y-74974897D01*
X96571160Y-75355849D01*
X97047350Y-73832040D02*
X97047350Y-74403468D01*
X97047350Y-74117754D02*
X96047350Y-74117754D01*
X96190208Y-74212992D01*
X96285446Y-74308230D01*
X96333065Y-74403468D01*
X97047350Y-72879659D02*
X97047350Y-73451087D01*
X97047350Y-73165373D02*
X96047350Y-73165373D01*
X96190208Y-73260611D01*
X96285446Y-73355849D01*
X96333065Y-73451087D01*
%TO.C,R10*%
X56372380Y-72142857D02*
X55896190Y-72476190D01*
X56372380Y-72714285D02*
X55372380Y-72714285D01*
X55372380Y-72333333D01*
X55420000Y-72238095D01*
X55467619Y-72190476D01*
X55562857Y-72142857D01*
X55705714Y-72142857D01*
X55800952Y-72190476D01*
X55848571Y-72238095D01*
X55896190Y-72333333D01*
X55896190Y-72714285D01*
X56372380Y-71190476D02*
X56372380Y-71761904D01*
X56372380Y-71476190D02*
X55372380Y-71476190D01*
X55515238Y-71571428D01*
X55610476Y-71666666D01*
X55658095Y-71761904D01*
X55372380Y-70571428D02*
X55372380Y-70476190D01*
X55420000Y-70380952D01*
X55467619Y-70333333D01*
X55562857Y-70285714D01*
X55753333Y-70238095D01*
X55991428Y-70238095D01*
X56181904Y-70285714D01*
X56277142Y-70333333D01*
X56324761Y-70380952D01*
X56372380Y-70476190D01*
X56372380Y-70571428D01*
X56324761Y-70666666D01*
X56277142Y-70714285D01*
X56181904Y-70761904D01*
X55991428Y-70809523D01*
X55753333Y-70809523D01*
X55562857Y-70761904D01*
X55467619Y-70714285D01*
X55420000Y-70666666D01*
X55372380Y-70571428D01*
%TO.C,R9*%
X66143333Y-51032380D02*
X65810000Y-50556190D01*
X65571904Y-51032380D02*
X65571904Y-50032380D01*
X65952857Y-50032380D01*
X66048095Y-50080000D01*
X66095714Y-50127619D01*
X66143333Y-50222857D01*
X66143333Y-50365714D01*
X66095714Y-50460952D01*
X66048095Y-50508571D01*
X65952857Y-50556190D01*
X65571904Y-50556190D01*
X66619523Y-51032380D02*
X66810000Y-51032380D01*
X66905238Y-50984761D01*
X66952857Y-50937142D01*
X67048095Y-50794285D01*
X67095714Y-50603809D01*
X67095714Y-50222857D01*
X67048095Y-50127619D01*
X67000476Y-50080000D01*
X66905238Y-50032380D01*
X66714761Y-50032380D01*
X66619523Y-50080000D01*
X66571904Y-50127619D01*
X66524285Y-50222857D01*
X66524285Y-50460952D01*
X66571904Y-50556190D01*
X66619523Y-50603809D01*
X66714761Y-50651428D01*
X66905238Y-50651428D01*
X67000476Y-50603809D01*
X67048095Y-50556190D01*
X67095714Y-50460952D01*
%TO.C,R8*%
X76143333Y-51032380D02*
X75810000Y-50556190D01*
X75571904Y-51032380D02*
X75571904Y-50032380D01*
X75952857Y-50032380D01*
X76048095Y-50080000D01*
X76095714Y-50127619D01*
X76143333Y-50222857D01*
X76143333Y-50365714D01*
X76095714Y-50460952D01*
X76048095Y-50508571D01*
X75952857Y-50556190D01*
X75571904Y-50556190D01*
X76714761Y-50460952D02*
X76619523Y-50413333D01*
X76571904Y-50365714D01*
X76524285Y-50270476D01*
X76524285Y-50222857D01*
X76571904Y-50127619D01*
X76619523Y-50080000D01*
X76714761Y-50032380D01*
X76905238Y-50032380D01*
X77000476Y-50080000D01*
X77048095Y-50127619D01*
X77095714Y-50222857D01*
X77095714Y-50270476D01*
X77048095Y-50365714D01*
X77000476Y-50413333D01*
X76905238Y-50460952D01*
X76714761Y-50460952D01*
X76619523Y-50508571D01*
X76571904Y-50556190D01*
X76524285Y-50651428D01*
X76524285Y-50841904D01*
X76571904Y-50937142D01*
X76619523Y-50984761D01*
X76714761Y-51032380D01*
X76905238Y-51032380D01*
X77000476Y-50984761D01*
X77048095Y-50937142D01*
X77095714Y-50841904D01*
X77095714Y-50651428D01*
X77048095Y-50556190D01*
X77000476Y-50508571D01*
X76905238Y-50460952D01*
%TO.C,R7*%
X86143333Y-51032380D02*
X85810000Y-50556190D01*
X85571904Y-51032380D02*
X85571904Y-50032380D01*
X85952857Y-50032380D01*
X86048095Y-50080000D01*
X86095714Y-50127619D01*
X86143333Y-50222857D01*
X86143333Y-50365714D01*
X86095714Y-50460952D01*
X86048095Y-50508571D01*
X85952857Y-50556190D01*
X85571904Y-50556190D01*
X86476666Y-50032380D02*
X87143333Y-50032380D01*
X86714761Y-51032380D01*
%TO.C,R6*%
X96143333Y-51032380D02*
X95810000Y-50556190D01*
X95571904Y-51032380D02*
X95571904Y-50032380D01*
X95952857Y-50032380D01*
X96048095Y-50080000D01*
X96095714Y-50127619D01*
X96143333Y-50222857D01*
X96143333Y-50365714D01*
X96095714Y-50460952D01*
X96048095Y-50508571D01*
X95952857Y-50556190D01*
X95571904Y-50556190D01*
X97000476Y-50032380D02*
X96810000Y-50032380D01*
X96714761Y-50080000D01*
X96667142Y-50127619D01*
X96571904Y-50270476D01*
X96524285Y-50460952D01*
X96524285Y-50841904D01*
X96571904Y-50937142D01*
X96619523Y-50984761D01*
X96714761Y-51032380D01*
X96905238Y-51032380D01*
X97000476Y-50984761D01*
X97048095Y-50937142D01*
X97095714Y-50841904D01*
X97095714Y-50603809D01*
X97048095Y-50508571D01*
X97000476Y-50460952D01*
X96905238Y-50413333D01*
X96714761Y-50413333D01*
X96619523Y-50460952D01*
X96571904Y-50508571D01*
X96524285Y-50603809D01*
%TO.C,R5*%
X106143333Y-51032380D02*
X105810000Y-50556190D01*
X105571904Y-51032380D02*
X105571904Y-50032380D01*
X105952857Y-50032380D01*
X106048095Y-50080000D01*
X106095714Y-50127619D01*
X106143333Y-50222857D01*
X106143333Y-50365714D01*
X106095714Y-50460952D01*
X106048095Y-50508571D01*
X105952857Y-50556190D01*
X105571904Y-50556190D01*
X107048095Y-50032380D02*
X106571904Y-50032380D01*
X106524285Y-50508571D01*
X106571904Y-50460952D01*
X106667142Y-50413333D01*
X106905238Y-50413333D01*
X107000476Y-50460952D01*
X107048095Y-50508571D01*
X107095714Y-50603809D01*
X107095714Y-50841904D01*
X107048095Y-50937142D01*
X107000476Y-50984761D01*
X106905238Y-51032380D01*
X106667142Y-51032380D01*
X106571904Y-50984761D01*
X106524285Y-50937142D01*
%TO.C,R4*%
X116143333Y-51032380D02*
X115810000Y-50556190D01*
X115571904Y-51032380D02*
X115571904Y-50032380D01*
X115952857Y-50032380D01*
X116048095Y-50080000D01*
X116095714Y-50127619D01*
X116143333Y-50222857D01*
X116143333Y-50365714D01*
X116095714Y-50460952D01*
X116048095Y-50508571D01*
X115952857Y-50556190D01*
X115571904Y-50556190D01*
X117000476Y-50365714D02*
X117000476Y-51032380D01*
X116762380Y-49984761D02*
X116524285Y-50699047D01*
X117143333Y-50699047D01*
%TO.C,R3*%
X126143333Y-51032380D02*
X125810000Y-50556190D01*
X125571904Y-51032380D02*
X125571904Y-50032380D01*
X125952857Y-50032380D01*
X126048095Y-50080000D01*
X126095714Y-50127619D01*
X126143333Y-50222857D01*
X126143333Y-50365714D01*
X126095714Y-50460952D01*
X126048095Y-50508571D01*
X125952857Y-50556190D01*
X125571904Y-50556190D01*
X126476666Y-50032380D02*
X127095714Y-50032380D01*
X126762380Y-50413333D01*
X126905238Y-50413333D01*
X127000476Y-50460952D01*
X127048095Y-50508571D01*
X127095714Y-50603809D01*
X127095714Y-50841904D01*
X127048095Y-50937142D01*
X127000476Y-50984761D01*
X126905238Y-51032380D01*
X126619523Y-51032380D01*
X126524285Y-50984761D01*
X126476666Y-50937142D01*
%TO.C,R2*%
X136143333Y-51032380D02*
X135810000Y-50556190D01*
X135571904Y-51032380D02*
X135571904Y-50032380D01*
X135952857Y-50032380D01*
X136048095Y-50080000D01*
X136095714Y-50127619D01*
X136143333Y-50222857D01*
X136143333Y-50365714D01*
X136095714Y-50460952D01*
X136048095Y-50508571D01*
X135952857Y-50556190D01*
X135571904Y-50556190D01*
X136524285Y-50127619D02*
X136571904Y-50080000D01*
X136667142Y-50032380D01*
X136905238Y-50032380D01*
X137000476Y-50080000D01*
X137048095Y-50127619D01*
X137095714Y-50222857D01*
X137095714Y-50318095D01*
X137048095Y-50460952D01*
X136476666Y-51032380D01*
X137095714Y-51032380D01*
%TO.C,R1*%
X140872380Y-70166666D02*
X140396190Y-70500000D01*
X140872380Y-70738095D02*
X139872380Y-70738095D01*
X139872380Y-70357142D01*
X139920000Y-70261904D01*
X139967619Y-70214285D01*
X140062857Y-70166666D01*
X140205714Y-70166666D01*
X140300952Y-70214285D01*
X140348571Y-70261904D01*
X140396190Y-70357142D01*
X140396190Y-70738095D01*
X140872380Y-69214285D02*
X140872380Y-69785714D01*
X140872380Y-69500000D02*
X139872380Y-69500000D01*
X140015238Y-69595238D01*
X140110476Y-69690476D01*
X140158095Y-69785714D01*
%TO.C,D14*%
X123805714Y-67652380D02*
X123805714Y-66652380D01*
X124043809Y-66652380D01*
X124186666Y-66700000D01*
X124281904Y-66795238D01*
X124329523Y-66890476D01*
X124377142Y-67080952D01*
X124377142Y-67223809D01*
X124329523Y-67414285D01*
X124281904Y-67509523D01*
X124186666Y-67604761D01*
X124043809Y-67652380D01*
X123805714Y-67652380D01*
X125329523Y-67652380D02*
X124758095Y-67652380D01*
X125043809Y-67652380D02*
X125043809Y-66652380D01*
X124948571Y-66795238D01*
X124853333Y-66890476D01*
X124758095Y-66938095D01*
X126186666Y-66985714D02*
X126186666Y-67652380D01*
X125948571Y-66604761D02*
X125710476Y-67319047D01*
X126329523Y-67319047D01*
%TO.C,D15*%
X143805714Y-67652380D02*
X143805714Y-66652380D01*
X144043809Y-66652380D01*
X144186666Y-66700000D01*
X144281904Y-66795238D01*
X144329523Y-66890476D01*
X144377142Y-67080952D01*
X144377142Y-67223809D01*
X144329523Y-67414285D01*
X144281904Y-67509523D01*
X144186666Y-67604761D01*
X144043809Y-67652380D01*
X143805714Y-67652380D01*
X145329523Y-67652380D02*
X144758095Y-67652380D01*
X145043809Y-67652380D02*
X145043809Y-66652380D01*
X144948571Y-66795238D01*
X144853333Y-66890476D01*
X144758095Y-66938095D01*
X146234285Y-66652380D02*
X145758095Y-66652380D01*
X145710476Y-67128571D01*
X145758095Y-67080952D01*
X145853333Y-67033333D01*
X146091428Y-67033333D01*
X146186666Y-67080952D01*
X146234285Y-67128571D01*
X146281904Y-67223809D01*
X146281904Y-67461904D01*
X146234285Y-67557142D01*
X146186666Y-67604761D01*
X146091428Y-67652380D01*
X145853333Y-67652380D01*
X145758095Y-67604761D01*
X145710476Y-67557142D01*
%TO.C,D9*%
X64281904Y-57492380D02*
X64281904Y-56492380D01*
X64520000Y-56492380D01*
X64662857Y-56540000D01*
X64758095Y-56635238D01*
X64805714Y-56730476D01*
X64853333Y-56920952D01*
X64853333Y-57063809D01*
X64805714Y-57254285D01*
X64758095Y-57349523D01*
X64662857Y-57444761D01*
X64520000Y-57492380D01*
X64281904Y-57492380D01*
X65329523Y-57492380D02*
X65520000Y-57492380D01*
X65615238Y-57444761D01*
X65662857Y-57397142D01*
X65758095Y-57254285D01*
X65805714Y-57063809D01*
X65805714Y-56682857D01*
X65758095Y-56587619D01*
X65710476Y-56540000D01*
X65615238Y-56492380D01*
X65424761Y-56492380D01*
X65329523Y-56540000D01*
X65281904Y-56587619D01*
X65234285Y-56682857D01*
X65234285Y-56920952D01*
X65281904Y-57016190D01*
X65329523Y-57063809D01*
X65424761Y-57111428D01*
X65615238Y-57111428D01*
X65710476Y-57063809D01*
X65758095Y-57016190D01*
X65805714Y-56920952D01*
%TO.C,D8*%
X74281904Y-57492380D02*
X74281904Y-56492380D01*
X74520000Y-56492380D01*
X74662857Y-56540000D01*
X74758095Y-56635238D01*
X74805714Y-56730476D01*
X74853333Y-56920952D01*
X74853333Y-57063809D01*
X74805714Y-57254285D01*
X74758095Y-57349523D01*
X74662857Y-57444761D01*
X74520000Y-57492380D01*
X74281904Y-57492380D01*
X75424761Y-56920952D02*
X75329523Y-56873333D01*
X75281904Y-56825714D01*
X75234285Y-56730476D01*
X75234285Y-56682857D01*
X75281904Y-56587619D01*
X75329523Y-56540000D01*
X75424761Y-56492380D01*
X75615238Y-56492380D01*
X75710476Y-56540000D01*
X75758095Y-56587619D01*
X75805714Y-56682857D01*
X75805714Y-56730476D01*
X75758095Y-56825714D01*
X75710476Y-56873333D01*
X75615238Y-56920952D01*
X75424761Y-56920952D01*
X75329523Y-56968571D01*
X75281904Y-57016190D01*
X75234285Y-57111428D01*
X75234285Y-57301904D01*
X75281904Y-57397142D01*
X75329523Y-57444761D01*
X75424761Y-57492380D01*
X75615238Y-57492380D01*
X75710476Y-57444761D01*
X75758095Y-57397142D01*
X75805714Y-57301904D01*
X75805714Y-57111428D01*
X75758095Y-57016190D01*
X75710476Y-56968571D01*
X75615238Y-56920952D01*
%TO.C,D7*%
X84281904Y-57492380D02*
X84281904Y-56492380D01*
X84520000Y-56492380D01*
X84662857Y-56540000D01*
X84758095Y-56635238D01*
X84805714Y-56730476D01*
X84853333Y-56920952D01*
X84853333Y-57063809D01*
X84805714Y-57254285D01*
X84758095Y-57349523D01*
X84662857Y-57444761D01*
X84520000Y-57492380D01*
X84281904Y-57492380D01*
X85186666Y-56492380D02*
X85853333Y-56492380D01*
X85424761Y-57492380D01*
%TO.C,D5*%
X104281904Y-57492380D02*
X104281904Y-56492380D01*
X104520000Y-56492380D01*
X104662857Y-56540000D01*
X104758095Y-56635238D01*
X104805714Y-56730476D01*
X104853333Y-56920952D01*
X104853333Y-57063809D01*
X104805714Y-57254285D01*
X104758095Y-57349523D01*
X104662857Y-57444761D01*
X104520000Y-57492380D01*
X104281904Y-57492380D01*
X105758095Y-56492380D02*
X105281904Y-56492380D01*
X105234285Y-56968571D01*
X105281904Y-56920952D01*
X105377142Y-56873333D01*
X105615238Y-56873333D01*
X105710476Y-56920952D01*
X105758095Y-56968571D01*
X105805714Y-57063809D01*
X105805714Y-57301904D01*
X105758095Y-57397142D01*
X105710476Y-57444761D01*
X105615238Y-57492380D01*
X105377142Y-57492380D01*
X105281904Y-57444761D01*
X105234285Y-57397142D01*
%TO.C,D1*%
X144281904Y-57492380D02*
X144281904Y-56492380D01*
X144520000Y-56492380D01*
X144662857Y-56540000D01*
X144758095Y-56635238D01*
X144805714Y-56730476D01*
X144853333Y-56920952D01*
X144853333Y-57063809D01*
X144805714Y-57254285D01*
X144758095Y-57349523D01*
X144662857Y-57444761D01*
X144520000Y-57492380D01*
X144281904Y-57492380D01*
X145805714Y-57492380D02*
X145234285Y-57492380D01*
X145520000Y-57492380D02*
X145520000Y-56492380D01*
X145424761Y-56635238D01*
X145329523Y-56730476D01*
X145234285Y-56778095D01*
%TO.C,D11*%
X63805714Y-67652380D02*
X63805714Y-66652380D01*
X64043809Y-66652380D01*
X64186666Y-66700000D01*
X64281904Y-66795238D01*
X64329523Y-66890476D01*
X64377142Y-67080952D01*
X64377142Y-67223809D01*
X64329523Y-67414285D01*
X64281904Y-67509523D01*
X64186666Y-67604761D01*
X64043809Y-67652380D01*
X63805714Y-67652380D01*
X65329523Y-67652380D02*
X64758095Y-67652380D01*
X65043809Y-67652380D02*
X65043809Y-66652380D01*
X64948571Y-66795238D01*
X64853333Y-66890476D01*
X64758095Y-66938095D01*
X66281904Y-67652380D02*
X65710476Y-67652380D01*
X65996190Y-67652380D02*
X65996190Y-66652380D01*
X65900952Y-66795238D01*
X65805714Y-66890476D01*
X65710476Y-66938095D01*
%TO.C,D10*%
X53805714Y-57492380D02*
X53805714Y-56492380D01*
X54043809Y-56492380D01*
X54186666Y-56540000D01*
X54281904Y-56635238D01*
X54329523Y-56730476D01*
X54377142Y-56920952D01*
X54377142Y-57063809D01*
X54329523Y-57254285D01*
X54281904Y-57349523D01*
X54186666Y-57444761D01*
X54043809Y-57492380D01*
X53805714Y-57492380D01*
X55329523Y-57492380D02*
X54758095Y-57492380D01*
X55043809Y-57492380D02*
X55043809Y-56492380D01*
X54948571Y-56635238D01*
X54853333Y-56730476D01*
X54758095Y-56778095D01*
X55948571Y-56492380D02*
X56043809Y-56492380D01*
X56139047Y-56540000D01*
X56186666Y-56587619D01*
X56234285Y-56682857D01*
X56281904Y-56873333D01*
X56281904Y-57111428D01*
X56234285Y-57301904D01*
X56186666Y-57397142D01*
X56139047Y-57444761D01*
X56043809Y-57492380D01*
X55948571Y-57492380D01*
X55853333Y-57444761D01*
X55805714Y-57397142D01*
X55758095Y-57301904D01*
X55710476Y-57111428D01*
X55710476Y-56873333D01*
X55758095Y-56682857D01*
X55805714Y-56587619D01*
X55853333Y-56540000D01*
X55948571Y-56492380D01*
%TO.C,D12*%
X83805714Y-67652380D02*
X83805714Y-66652380D01*
X84043809Y-66652380D01*
X84186666Y-66700000D01*
X84281904Y-66795238D01*
X84329523Y-66890476D01*
X84377142Y-67080952D01*
X84377142Y-67223809D01*
X84329523Y-67414285D01*
X84281904Y-67509523D01*
X84186666Y-67604761D01*
X84043809Y-67652380D01*
X83805714Y-67652380D01*
X85329523Y-67652380D02*
X84758095Y-67652380D01*
X85043809Y-67652380D02*
X85043809Y-66652380D01*
X84948571Y-66795238D01*
X84853333Y-66890476D01*
X84758095Y-66938095D01*
X85710476Y-66747619D02*
X85758095Y-66700000D01*
X85853333Y-66652380D01*
X86091428Y-66652380D01*
X86186666Y-66700000D01*
X86234285Y-66747619D01*
X86281904Y-66842857D01*
X86281904Y-66938095D01*
X86234285Y-67080952D01*
X85662857Y-67652380D01*
X86281904Y-67652380D01*
%TO.C,D13*%
X103805714Y-67652380D02*
X103805714Y-66652380D01*
X104043809Y-66652380D01*
X104186666Y-66700000D01*
X104281904Y-66795238D01*
X104329523Y-66890476D01*
X104377142Y-67080952D01*
X104377142Y-67223809D01*
X104329523Y-67414285D01*
X104281904Y-67509523D01*
X104186666Y-67604761D01*
X104043809Y-67652380D01*
X103805714Y-67652380D01*
X105329523Y-67652380D02*
X104758095Y-67652380D01*
X105043809Y-67652380D02*
X105043809Y-66652380D01*
X104948571Y-66795238D01*
X104853333Y-66890476D01*
X104758095Y-66938095D01*
X105662857Y-66652380D02*
X106281904Y-66652380D01*
X105948571Y-67033333D01*
X106091428Y-67033333D01*
X106186666Y-67080952D01*
X106234285Y-67128571D01*
X106281904Y-67223809D01*
X106281904Y-67461904D01*
X106234285Y-67557142D01*
X106186666Y-67604761D01*
X106091428Y-67652380D01*
X105805714Y-67652380D01*
X105710476Y-67604761D01*
X105662857Y-67557142D01*
%TO.C,D2*%
X134281904Y-57492380D02*
X134281904Y-56492380D01*
X134520000Y-56492380D01*
X134662857Y-56540000D01*
X134758095Y-56635238D01*
X134805714Y-56730476D01*
X134853333Y-56920952D01*
X134853333Y-57063809D01*
X134805714Y-57254285D01*
X134758095Y-57349523D01*
X134662857Y-57444761D01*
X134520000Y-57492380D01*
X134281904Y-57492380D01*
X135234285Y-56587619D02*
X135281904Y-56540000D01*
X135377142Y-56492380D01*
X135615238Y-56492380D01*
X135710476Y-56540000D01*
X135758095Y-56587619D01*
X135805714Y-56682857D01*
X135805714Y-56778095D01*
X135758095Y-56920952D01*
X135186666Y-57492380D01*
X135805714Y-57492380D01*
%TO.C,D3*%
X124281904Y-57492380D02*
X124281904Y-56492380D01*
X124520000Y-56492380D01*
X124662857Y-56540000D01*
X124758095Y-56635238D01*
X124805714Y-56730476D01*
X124853333Y-56920952D01*
X124853333Y-57063809D01*
X124805714Y-57254285D01*
X124758095Y-57349523D01*
X124662857Y-57444761D01*
X124520000Y-57492380D01*
X124281904Y-57492380D01*
X125186666Y-56492380D02*
X125805714Y-56492380D01*
X125472380Y-56873333D01*
X125615238Y-56873333D01*
X125710476Y-56920952D01*
X125758095Y-56968571D01*
X125805714Y-57063809D01*
X125805714Y-57301904D01*
X125758095Y-57397142D01*
X125710476Y-57444761D01*
X125615238Y-57492380D01*
X125329523Y-57492380D01*
X125234285Y-57444761D01*
X125186666Y-57397142D01*
%TO.C,D4*%
X114281904Y-57492380D02*
X114281904Y-56492380D01*
X114520000Y-56492380D01*
X114662857Y-56540000D01*
X114758095Y-56635238D01*
X114805714Y-56730476D01*
X114853333Y-56920952D01*
X114853333Y-57063809D01*
X114805714Y-57254285D01*
X114758095Y-57349523D01*
X114662857Y-57444761D01*
X114520000Y-57492380D01*
X114281904Y-57492380D01*
X115710476Y-56825714D02*
X115710476Y-57492380D01*
X115472380Y-56444761D02*
X115234285Y-57159047D01*
X115853333Y-57159047D01*
%TO.C,D6*%
X94281904Y-57492380D02*
X94281904Y-56492380D01*
X94520000Y-56492380D01*
X94662857Y-56540000D01*
X94758095Y-56635238D01*
X94805714Y-56730476D01*
X94853333Y-56920952D01*
X94853333Y-57063809D01*
X94805714Y-57254285D01*
X94758095Y-57349523D01*
X94662857Y-57444761D01*
X94520000Y-57492380D01*
X94281904Y-57492380D01*
X95710476Y-56492380D02*
X95520000Y-56492380D01*
X95424761Y-56540000D01*
X95377142Y-56587619D01*
X95281904Y-56730476D01*
X95234285Y-56920952D01*
X95234285Y-57301904D01*
X95281904Y-57397142D01*
X95329523Y-57444761D01*
X95424761Y-57492380D01*
X95615238Y-57492380D01*
X95710476Y-57444761D01*
X95758095Y-57397142D01*
X95805714Y-57301904D01*
X95805714Y-57063809D01*
X95758095Y-56968571D01*
X95710476Y-56920952D01*
X95615238Y-56873333D01*
X95424761Y-56873333D01*
X95329523Y-56920952D01*
X95281904Y-56968571D01*
X95234285Y-57063809D01*
D12*
%TO.C,J1*%
X133480000Y-83330000D02*
X102940000Y-83330000D01*
X134750000Y-80670000D02*
X136080000Y-80670000D01*
X136080000Y-80670000D02*
X136080000Y-82000000D01*
X133480000Y-80670000D02*
X102940000Y-80670000D01*
X102940000Y-80670000D02*
X102940000Y-83330000D01*
X133480000Y-80670000D02*
X133480000Y-83330000D01*
%TO.C,Q1*%
X94900000Y-75340000D02*
X94900000Y-80530000D01*
X90100000Y-75340000D02*
X94900000Y-75340000D01*
X94900000Y-80530000D02*
X90100000Y-80530000D01*
X93770000Y-72550000D02*
X93770000Y-75340000D01*
X91230000Y-72550000D02*
X91230000Y-75340000D01*
X92500000Y-71280000D02*
X92500000Y-75340000D01*
X90100000Y-80530000D02*
X90100000Y-75340000D01*
%TO.C,R16*%
X132130000Y-77000000D02*
X133080000Y-77000000D01*
X133080000Y-76080000D02*
X133080000Y-77920000D01*
X137870000Y-77000000D02*
X136920000Y-77000000D01*
X133080000Y-77920000D02*
X136920000Y-77920000D01*
X136920000Y-76080000D02*
X133080000Y-76080000D01*
X136920000Y-77920000D02*
X136920000Y-76080000D01*
%TO.C,R15*%
X132420000Y-68080000D02*
X130580000Y-68080000D01*
X130580000Y-68080000D02*
X130580000Y-71920000D01*
X132420000Y-71920000D02*
X132420000Y-68080000D01*
X131500000Y-67130000D02*
X131500000Y-68080000D01*
X130580000Y-71920000D02*
X132420000Y-71920000D01*
X131500000Y-72870000D02*
X131500000Y-71920000D01*
%TO.C,R14*%
X110420000Y-73080000D02*
X108580000Y-73080000D01*
X108580000Y-73080000D02*
X108580000Y-76920000D01*
X110420000Y-76920000D02*
X110420000Y-73080000D01*
X109500000Y-72130000D02*
X109500000Y-73080000D01*
X108580000Y-76920000D02*
X110420000Y-76920000D01*
X109500000Y-77870000D02*
X109500000Y-76920000D01*
%TO.C,R13*%
X78920000Y-75080000D02*
X77080000Y-75080000D01*
X77080000Y-75080000D02*
X77080000Y-78920000D01*
X78920000Y-78920000D02*
X78920000Y-75080000D01*
X78000000Y-74130000D02*
X78000000Y-75080000D01*
X77080000Y-78920000D02*
X78920000Y-78920000D01*
X78000000Y-79870000D02*
X78000000Y-78920000D01*
%TO.C,R12*%
X72000000Y-79870000D02*
X72000000Y-78920000D01*
X71080000Y-78920000D02*
X72920000Y-78920000D01*
X72000000Y-74130000D02*
X72000000Y-75080000D01*
X72920000Y-78920000D02*
X72920000Y-75080000D01*
X71080000Y-75080000D02*
X71080000Y-78920000D01*
X72920000Y-75080000D02*
X71080000Y-75080000D01*
%TO.C,R11*%
X99434970Y-72221564D02*
X97594970Y-72221564D01*
X97594970Y-72221564D02*
X97594970Y-76061564D01*
X99434970Y-76061564D02*
X99434970Y-72221564D01*
X98514970Y-71271564D02*
X98514970Y-72221564D01*
X97594970Y-76061564D02*
X99434970Y-76061564D01*
X98514970Y-77011564D02*
X98514970Y-76061564D01*
%TO.C,R10*%
X54000000Y-68630000D02*
X54000000Y-69580000D01*
X54920000Y-69580000D02*
X53080000Y-69580000D01*
X54000000Y-74370000D02*
X54000000Y-73420000D01*
X53080000Y-69580000D02*
X53080000Y-73420000D01*
X54920000Y-73420000D02*
X54920000Y-69580000D01*
X53080000Y-73420000D02*
X54920000Y-73420000D01*
%TO.C,R9*%
X68230000Y-53420000D02*
X68230000Y-51580000D01*
X68230000Y-51580000D02*
X64390000Y-51580000D01*
X64390000Y-53420000D02*
X68230000Y-53420000D01*
X69180000Y-52500000D02*
X68230000Y-52500000D01*
X64390000Y-51580000D02*
X64390000Y-53420000D01*
X63440000Y-52500000D02*
X64390000Y-52500000D01*
%TO.C,R8*%
X78230000Y-53420000D02*
X78230000Y-51580000D01*
X78230000Y-51580000D02*
X74390000Y-51580000D01*
X74390000Y-53420000D02*
X78230000Y-53420000D01*
X79180000Y-52500000D02*
X78230000Y-52500000D01*
X74390000Y-51580000D02*
X74390000Y-53420000D01*
X73440000Y-52500000D02*
X74390000Y-52500000D01*
%TO.C,R7*%
X88230000Y-53420000D02*
X88230000Y-51580000D01*
X88230000Y-51580000D02*
X84390000Y-51580000D01*
X84390000Y-53420000D02*
X88230000Y-53420000D01*
X89180000Y-52500000D02*
X88230000Y-52500000D01*
X84390000Y-51580000D02*
X84390000Y-53420000D01*
X83440000Y-52500000D02*
X84390000Y-52500000D01*
%TO.C,R6*%
X98230000Y-53420000D02*
X98230000Y-51580000D01*
X98230000Y-51580000D02*
X94390000Y-51580000D01*
X94390000Y-53420000D02*
X98230000Y-53420000D01*
X99180000Y-52500000D02*
X98230000Y-52500000D01*
X94390000Y-51580000D02*
X94390000Y-53420000D01*
X93440000Y-52500000D02*
X94390000Y-52500000D01*
%TO.C,R5*%
X108230000Y-53420000D02*
X108230000Y-51580000D01*
X108230000Y-51580000D02*
X104390000Y-51580000D01*
X104390000Y-53420000D02*
X108230000Y-53420000D01*
X109180000Y-52500000D02*
X108230000Y-52500000D01*
X104390000Y-51580000D02*
X104390000Y-53420000D01*
X103440000Y-52500000D02*
X104390000Y-52500000D01*
%TO.C,R4*%
X118230000Y-53420000D02*
X118230000Y-51580000D01*
X118230000Y-51580000D02*
X114390000Y-51580000D01*
X114390000Y-53420000D02*
X118230000Y-53420000D01*
X119180000Y-52500000D02*
X118230000Y-52500000D01*
X114390000Y-51580000D02*
X114390000Y-53420000D01*
X113440000Y-52500000D02*
X114390000Y-52500000D01*
%TO.C,R3*%
X128230000Y-53420000D02*
X128230000Y-51580000D01*
X128230000Y-51580000D02*
X124390000Y-51580000D01*
X124390000Y-53420000D02*
X128230000Y-53420000D01*
X129180000Y-52500000D02*
X128230000Y-52500000D01*
X124390000Y-51580000D02*
X124390000Y-53420000D01*
X123440000Y-52500000D02*
X124390000Y-52500000D01*
%TO.C,R2*%
X138230000Y-53420000D02*
X138230000Y-51580000D01*
X138230000Y-51580000D02*
X134390000Y-51580000D01*
X134390000Y-53420000D02*
X138230000Y-53420000D01*
X139180000Y-52500000D02*
X138230000Y-52500000D01*
X134390000Y-51580000D02*
X134390000Y-53420000D01*
X133440000Y-52500000D02*
X134390000Y-52500000D01*
%TO.C,R1*%
X137580000Y-71920000D02*
X139420000Y-71920000D01*
X139420000Y-71920000D02*
X139420000Y-68080000D01*
X137580000Y-68080000D02*
X137580000Y-71920000D01*
X138500000Y-72870000D02*
X138500000Y-71920000D01*
X139420000Y-68080000D02*
X137580000Y-68080000D01*
X138500000Y-67130000D02*
X138500000Y-68080000D01*
%TO.C,D14*%
X127520000Y-71160000D02*
G75*
G03*
X127520000Y-71160000I-2500000J0D01*
G01*
X122460000Y-72704830D02*
G75*
G03*
X128010000Y-71159538I2560000J1544830D01*
G01*
X128010000Y-71160462D02*
G75*
G03*
X122460000Y-69615170I-2990000J462D01*
G01*
X122460000Y-69615000D02*
X122460000Y-72705000D01*
%TO.C,D15*%
X147520000Y-71160000D02*
G75*
G03*
X147520000Y-71160000I-2500000J0D01*
G01*
X148010000Y-71160462D02*
G75*
G03*
X142460000Y-69615170I-2990000J462D01*
G01*
X142460000Y-72704830D02*
G75*
G03*
X148010000Y-71159538I2560000J1544830D01*
G01*
X142460000Y-69615000D02*
X142460000Y-72705000D01*
%TO.C,D9*%
X62460000Y-59455000D02*
X62460000Y-62545000D01*
X62460000Y-62544830D02*
G75*
G03*
X68010000Y-60999538I2560000J1544830D01*
G01*
X68010000Y-61000462D02*
G75*
G03*
X62460000Y-59455170I-2990000J462D01*
G01*
X67520000Y-61000000D02*
G75*
G03*
X67520000Y-61000000I-2500000J0D01*
G01*
%TO.C,D8*%
X77520000Y-61000000D02*
G75*
G03*
X77520000Y-61000000I-2500000J0D01*
G01*
X78010000Y-61000462D02*
G75*
G03*
X72460000Y-59455170I-2990000J462D01*
G01*
X72460000Y-62544830D02*
G75*
G03*
X78010000Y-60999538I2560000J1544830D01*
G01*
X72460000Y-59455000D02*
X72460000Y-62545000D01*
%TO.C,D7*%
X87520000Y-61000000D02*
G75*
G03*
X87520000Y-61000000I-2500000J0D01*
G01*
X88010000Y-61000462D02*
G75*
G03*
X82460000Y-59455170I-2990000J462D01*
G01*
X82460000Y-62544830D02*
G75*
G03*
X88010000Y-60999538I2560000J1544830D01*
G01*
X82460000Y-59455000D02*
X82460000Y-62545000D01*
%TO.C,D5*%
X107520000Y-61000000D02*
G75*
G03*
X107520000Y-61000000I-2500000J0D01*
G01*
X102460000Y-62544830D02*
G75*
G03*
X108010000Y-60999538I2560000J1544830D01*
G01*
X108010000Y-61000462D02*
G75*
G03*
X102460000Y-59455170I-2990000J462D01*
G01*
X102460000Y-59455000D02*
X102460000Y-62545000D01*
%TO.C,D1*%
X147520000Y-61000000D02*
G75*
G03*
X147520000Y-61000000I-2500000J0D01*
G01*
X148010000Y-61000462D02*
G75*
G03*
X142460000Y-59455170I-2990000J462D01*
G01*
X142460000Y-62544830D02*
G75*
G03*
X148010000Y-60999538I2560000J1544830D01*
G01*
X142460000Y-59455000D02*
X142460000Y-62545000D01*
%TO.C,D11*%
X67520000Y-71160000D02*
G75*
G03*
X67520000Y-71160000I-2500000J0D01*
G01*
X62460000Y-72704830D02*
G75*
G03*
X68010000Y-71159538I2560000J1544830D01*
G01*
X68010000Y-71160462D02*
G75*
G03*
X62460000Y-69615170I-2990000J462D01*
G01*
X62460000Y-69615000D02*
X62460000Y-72705000D01*
%TO.C,D10*%
X57520000Y-61000000D02*
G75*
G03*
X57520000Y-61000000I-2500000J0D01*
G01*
X52460000Y-62544830D02*
G75*
G03*
X58010000Y-60999538I2560000J1544830D01*
G01*
X58010000Y-61000462D02*
G75*
G03*
X52460000Y-59455170I-2990000J462D01*
G01*
X52460000Y-59455000D02*
X52460000Y-62545000D01*
%TO.C,D12*%
X87520000Y-71160000D02*
G75*
G03*
X87520000Y-71160000I-2500000J0D01*
G01*
X82460000Y-72704830D02*
G75*
G03*
X88010000Y-71159538I2560000J1544830D01*
G01*
X88010000Y-71160462D02*
G75*
G03*
X82460000Y-69615170I-2990000J462D01*
G01*
X82460000Y-69615000D02*
X82460000Y-72705000D01*
%TO.C,D13*%
X107520000Y-71160000D02*
G75*
G03*
X107520000Y-71160000I-2500000J0D01*
G01*
X102460000Y-72704830D02*
G75*
G03*
X108010000Y-71159538I2560000J1544830D01*
G01*
X108010000Y-71160462D02*
G75*
G03*
X102460000Y-69615170I-2990000J462D01*
G01*
X102460000Y-69615000D02*
X102460000Y-72705000D01*
%TO.C,D2*%
X132460000Y-59455000D02*
X132460000Y-62545000D01*
X138010000Y-61000462D02*
G75*
G03*
X132460000Y-59455170I-2990000J462D01*
G01*
X132460000Y-62544830D02*
G75*
G03*
X138010000Y-60999538I2560000J1544830D01*
G01*
X137520000Y-61000000D02*
G75*
G03*
X137520000Y-61000000I-2500000J0D01*
G01*
%TO.C,D3*%
X122460000Y-59455000D02*
X122460000Y-62545000D01*
X122460000Y-62544830D02*
G75*
G03*
X128010000Y-60999538I2560000J1544830D01*
G01*
X128010000Y-61000462D02*
G75*
G03*
X122460000Y-59455170I-2990000J462D01*
G01*
X127520000Y-61000000D02*
G75*
G03*
X127520000Y-61000000I-2500000J0D01*
G01*
%TO.C,D4*%
X117520000Y-61000000D02*
G75*
G03*
X117520000Y-61000000I-2500000J0D01*
G01*
X112460000Y-62544830D02*
G75*
G03*
X118010000Y-60999538I2560000J1544830D01*
G01*
X118010000Y-61000462D02*
G75*
G03*
X112460000Y-59455170I-2990000J462D01*
G01*
X112460000Y-59455000D02*
X112460000Y-62545000D01*
%TO.C,D6*%
X97520000Y-61000000D02*
G75*
G03*
X97520000Y-61000000I-2500000J0D01*
G01*
X92460000Y-62544830D02*
G75*
G03*
X98010000Y-60999538I2560000J1544830D01*
G01*
X98010000Y-61000462D02*
G75*
G03*
X92460000Y-59455170I-2990000J462D01*
G01*
X92460000Y-59455000D02*
X92460000Y-62545000D01*
%TD*%
M02*
