%TF.GenerationSoftware,KiCad,Pcbnew,(6.0.9)*%
%TF.CreationDate,2023-01-08T16:32:17+01:00*%
%TF.ProjectId,led-counter,6c65642d-636f-4756-9e74-65722e6b6963,0.1*%
%TF.SameCoordinates,Original*%
%TF.FileFunction,Soldermask,Bot*%
%TF.FilePolarity,Negative*%
%FSLAX46Y46*%
G04 Gerber Fmt 4.6, Leading zero omitted, Abs format (unit mm)*
G04 Created by KiCad (PCBNEW (6.0.9)) date 2023-01-08 16:32:17*
%MOMM*%
%LPD*%
G01*
G04 APERTURE LIST*
%ADD10R,1.700000X1.700000*%
%ADD11O,1.700000X1.700000*%
%ADD12R,1.300000X1.300000*%
%ADD13C,1.300000*%
%ADD14O,1.400000X1.400000*%
%ADD15C,1.400000*%
%ADD16C,3.200000*%
%ADD17C,1.800000*%
%ADD18R,1.800000X1.800000*%
G04 APERTURE END LIST*
D10*
%TO.C,J1*%
X134750000Y-82000000D03*
D11*
X132210000Y-82000000D03*
X129670000Y-82000000D03*
X127130000Y-82000000D03*
X124590000Y-82000000D03*
X122050000Y-82000000D03*
X119510000Y-82000000D03*
X116970000Y-82000000D03*
X114430000Y-82000000D03*
X111890000Y-82000000D03*
X109350000Y-82000000D03*
X106810000Y-82000000D03*
X104270000Y-82000000D03*
%TD*%
D12*
%TO.C,Q1*%
X91230000Y-71530000D03*
D13*
X92500000Y-70260000D03*
X93770000Y-71530000D03*
%TD*%
D14*
%TO.C,R16*%
X138810000Y-77000000D03*
D15*
X131190000Y-77000000D03*
%TD*%
%TO.C,R15*%
X131500000Y-73810000D03*
D14*
X131500000Y-66190000D03*
%TD*%
D15*
%TO.C,R14*%
X109500000Y-78810000D03*
D14*
X109500000Y-71190000D03*
%TD*%
D15*
%TO.C,R13*%
X78000000Y-80810000D03*
D14*
X78000000Y-73190000D03*
%TD*%
%TO.C,R12*%
X72000000Y-73190000D03*
D15*
X72000000Y-80810000D03*
%TD*%
%TO.C,R11*%
X98514970Y-77951564D03*
D14*
X98514970Y-70331564D03*
%TD*%
%TO.C,R10*%
X54000000Y-75310000D03*
D15*
X54000000Y-67690000D03*
%TD*%
%TO.C,R9*%
X62500000Y-52500000D03*
D14*
X70120000Y-52500000D03*
%TD*%
D15*
%TO.C,R8*%
X72500000Y-52500000D03*
D14*
X80120000Y-52500000D03*
%TD*%
D15*
%TO.C,R7*%
X82500000Y-52500000D03*
D14*
X90120000Y-52500000D03*
%TD*%
D15*
%TO.C,R6*%
X92500000Y-52500000D03*
D14*
X100120000Y-52500000D03*
%TD*%
D15*
%TO.C,R5*%
X102500000Y-52500000D03*
D14*
X110120000Y-52500000D03*
%TD*%
D15*
%TO.C,R4*%
X112500000Y-52500000D03*
D14*
X120120000Y-52500000D03*
%TD*%
D15*
%TO.C,R3*%
X122500000Y-52500000D03*
D14*
X130120000Y-52500000D03*
%TD*%
D15*
%TO.C,R2*%
X132500000Y-52500000D03*
D14*
X140120000Y-52500000D03*
%TD*%
D15*
%TO.C,R1*%
X138500000Y-66190000D03*
D14*
X138500000Y-73810000D03*
%TD*%
D16*
%TO.C,H4*%
X55000000Y-51000000D03*
%TD*%
%TO.C,H3*%
X145000000Y-51000000D03*
%TD*%
%TO.C,H2*%
X145000000Y-81000000D03*
%TD*%
%TO.C,H1*%
X55000000Y-81000000D03*
%TD*%
D17*
%TO.C,D14*%
X126290000Y-71160000D03*
D18*
X123750000Y-71160000D03*
%TD*%
D17*
%TO.C,D15*%
X146290000Y-71160000D03*
D18*
X143750000Y-71160000D03*
%TD*%
%TO.C,D9*%
X63750000Y-61000000D03*
D17*
X66290000Y-61000000D03*
%TD*%
%TO.C,D8*%
X76290000Y-61000000D03*
D18*
X73750000Y-61000000D03*
%TD*%
D17*
%TO.C,D7*%
X86290000Y-61000000D03*
D18*
X83750000Y-61000000D03*
%TD*%
D17*
%TO.C,D5*%
X106290000Y-61000000D03*
D18*
X103750000Y-61000000D03*
%TD*%
D17*
%TO.C,D1*%
X146290000Y-61000000D03*
D18*
X143750000Y-61000000D03*
%TD*%
D17*
%TO.C,D11*%
X66290000Y-71160000D03*
D18*
X63750000Y-71160000D03*
%TD*%
D17*
%TO.C,D10*%
X56290000Y-61000000D03*
D18*
X53750000Y-61000000D03*
%TD*%
D17*
%TO.C,D12*%
X86290000Y-71160000D03*
D18*
X83750000Y-71160000D03*
%TD*%
D17*
%TO.C,D13*%
X106290000Y-71160000D03*
D18*
X103750000Y-71160000D03*
%TD*%
%TO.C,D2*%
X133750000Y-61000000D03*
D17*
X136290000Y-61000000D03*
%TD*%
D18*
%TO.C,D3*%
X123750000Y-61000000D03*
D17*
X126290000Y-61000000D03*
%TD*%
%TO.C,D4*%
X116290000Y-61000000D03*
D18*
X113750000Y-61000000D03*
%TD*%
D17*
%TO.C,D6*%
X96290000Y-61000000D03*
D18*
X93750000Y-61000000D03*
%TD*%
M02*
